v 1.7 -8.041392685158225 0.0
v 5.0 -8.041392685158225 0.0
v 5.0 -6.041392685158225 0.0
v 5.78 -4.477121254719663 0.0
v 5.64 -4.0 0.0
v 5.0 -3.6989700043360187 0.0
v 4.05 -3.4771212547196626 0.0
v 4.0 -3.4771212547196626 0.0
v 1.7 -3.4771212547196626 0.0
v 1.7 -8.041392685158225 0.0
v 5.0 -8.041392685158225 3.3000000000000003
v 5.0 -6.041392685158225 3.3000000000000003
v 5.78 -4.477121254719663 4.08
v 5.64 -4.0 3.94
v 5.0 -3.6989700043360187 3.3000000000000003
v 4.05 -3.4771212547196626 2.35
v 4.0 -3.4771212547196626 2.3000000000000003
v 1.7 -3.4771212547196626 0.0
f 1 10 11
f 1 11 2
f 2 11 12
f 2 12 3
f 3 12 13
f 3 13 4
f 4 13 14
f 4 14 5
f 5 14 15
f 5 15 6
f 6 15 16
f 6 16 7
f 7 16 17
f 7 17 8
f 8 17 18
f 8 18 9
f 1 2 3
f 1 3 4
f 1 4 5
f 1 5 6
f 1 6 7
f 1 7 8
f 1 8 9
f 10 12 11
f 10 13 12
f 10 14 13
f 10 15 14
f 10 16 15
f 10 17 16
f 10 18 17
f 1 10 11
f 1 11 2
f 9 17 18
f 9 8 17
