v 0.50505 -0.8240411805652834 0.0
v 0.60606 -0.800957522894318 0.0
v 0.62494 -0.796921075330169 0.0
v 0.70707 -0.7806556851072708 0.0
v 0.8080800000000001 -0.7627310659315696 0.0
v 0.88139 -0.7512328999850113 0.0
v 0.9090900000000001 -0.7471398031020366 0.0
v 1.0101 -0.734007299277788 0.0
v 1.1111 -0.7229874653857409 0.0
v 1.2121 -0.714078164981856 0.0
v 1.3131000000000002 -0.7072720285480201 0.0
v 1.3504 -0.7055472801867717 0.0
v 1.4141 -0.7026631319068932 0.0
v 1.5152 -0.7002709373564371 0.0
v 1.6162 -0.7001496816919146 0.0
v 1.7172 -0.7024046848141059 0.0
v 1.7848 -0.7055472801867717 0.0
v 1.8182 -0.7071356643239186 0.0
v 1.9192 -0.7144806466713054 0.0
v 2.0202 -0.724406957583041 0.0
v 2.1212 -0.736890281242343 0.0
v 2.218 -0.7512328999850113 0.0
v 2.2222 -0.7518869986257832 0.0
v 2.3232 -0.7695988483874463 0.0
v 2.4242 -0.7893903140869378 0.0
v 2.4602 -0.796921075330169 0.0
v 2.5253 -0.8113806021817203 0.0
v 2.6263 -0.8349290964605758 0.0
v 2.6586000000000003 -0.842609239610562 0.0
v 2.7273 -0.8599844368309264 0.0
v 2.8283 -0.8856608250955684 0.0
v 2.8388999999999998 -0.8882918453565156 0.0
v 2.9293 -0.9122167407779505 0.0
v 3.0138 -0.9339779961223087 0.0
v 3.0303 -0.9385247285403193 0.0
v 3.1313 -0.9648957521003294 0.0
v 3.1908999999999996 -0.9796621686211364 0.0
v 3.2323000000000004 -0.9906229627260372 0.0
v 3.3333 -1.015694988526518 0.0
v 3.375 -1.025346834509827 0.0
v 3.4343000000000004 -1.0399690268674608 0.0
v 3.5354 -1.0632958210735202 0.0
v 3.5713 -1.0710346750541517 0.0
v 3.6364 -1.0857898903279861 0.0
v 3.7374 -1.1073117454906738 0.0
v 3.7841000000000005 -1.1167073413930888 0.0
v 3.8384 -1.1280760126687153 0.0
v 3.9394 -1.148077976762506 0.0
v 4.0148 -1.1624150361064465 0.0
v 4.0404 -1.1674059572322921 0.0
v 4.1414 -1.1863346632529492 0.0
v 4.2424 -1.204852236928215 0.0
v 4.2605 -1.2080918452756948 0.0
v 4.3434 -1.2232622468766308 0.0
v 4.4444 -1.2415713820891674 0.0
v 4.5119 -1.2537740196788796 0.0
v 4.5455000000000005 -1.2599520599222542 0.0
v 4.6465 -1.278547833775853 0.0
v 4.7475000000000005 -1.297366513759765 0.0
v 4.7586 -1.2994637145284502 0.0
v 4.8485000000000005 -1.316620251635936 0.0
v 4.9495 -1.3361994794666319 0.0
v 4.995 -1.3451580002694379 0.0
v 5.0505 -1.3562745009039086 0.0
v 5.1514999999999995 -1.3768505858476092 0.0
v 5.219 -1.3908291687001455 0.0
v 5.2525 -1.3979573801038874 0.0
v 5.3535 -1.419707981354444 0.0
v 5.4301 -1.4365124869996928 0.0
v 5.4545 -1.442040549006305 0.0
v 5.555599999999999 -1.4652340949880143 0.0
v 5.6278999999999995 -1.4822016219040945 0.0
v 5.6566 -1.4891847745799982 0.0
v 5.7576 -1.5142155962525818 0.0
v 5.8114 -1.5278875659527047 0.0
v 5.8586 -1.5404045624460594 0.0
v 5.959600000000001 -1.5679199281350342 0.0
v 5.979900000000001 -1.5735793664371158 0.0
v 6.0606 -1.5973331229767362 0.0
v 6.1328 -1.6192603348517975 0.0
v 6.1616 -1.6285932558512592 0.0
v 6.2626 -1.6622760641615708 0.0
v 6.270499999999999 -1.6649520751636622 0.0
v 6.3636 -1.6992131411739222 0.0
v 6.3939 -1.7106334708679232 0.0
v 6.464600000000001 -1.739714712745713 0.0
v 6.5042 -1.7563165446749562 0.0
v 6.5657000000000005 -1.784674339064312 0.0
v 6.6027 -1.802007049253181 0.0
v 6.6667 -1.8352846176327304 0.0
v 6.6903999999999995 -1.8476898534867139 0.0
v 6.7677 -1.8931067760713356 0.0
v 6.7681 -1.8933788817186847 0.0
v 6.837400000000001 -1.9390597556884905 0.0
v 6.8687000000000005 -1.962809563801616 0.0
v 6.898 -1.984747779961804 0.0
v 6.9506 -2.0304377926270494 0.0
v 6.9697000000000005 -2.0501089629178675 0.0
v 6.9956 -2.076130494543006 0.0
v 7.033200000000001 -2.1217895688592963 0.0
v 7.0629 -2.1674945616357215 0.0
v 7.0707 -2.1834976105593524 0.0
v 7.085700000000001 -2.2131723090468194 0.0
v 7.101 -2.2588527006423034 0.0
v 7.1086 -2.304555150120442 0.0
v 7.1085 -2.350228629754865 0.0
v 7.1003 -2.395920192670632 0.0
v 7.084 -2.441600884296931 0.0
v 7.0707 -2.466021924257536 0.0
v 7.059400000000001 -2.487293958006441 0.0
v 7.0266 -2.532970835487072 0.0
v 6.9846 -2.5786621272780117 0.0
v 6.9697000000000005 -2.5919434419444203 0.0
v 6.9339 -2.624343986126047 0.0
v 6.8737 -2.6700323652879177 0.0
v 6.8687000000000005 -2.6732974397596356 0.0
v 6.8048 -2.7157192889840265 0.0
v 6.7677 -2.7372085506361654 0.0
v 6.7263 -2.761401557498631 0.0
v 6.6667 -2.7923216363515735 0.0
v 6.638400000000001 -2.8070883274543217 0.0
v 6.5657000000000005 -2.8413156633266006 0.0
v 6.5415 -2.8527726777871476 0.0
v 6.464600000000001 -2.885926339801431 0.0
v 6.4358 -2.898461893020106 0.0
v 6.3636 -2.927288219198812 0.0
v 6.3217 -2.944146951232541 0.0
v 6.2626 -2.9661839863628043 0.0
v 6.1996 -2.9898323266827824 0.0
v 6.1616 -3.003158833950862 0.0
v 6.07 -3.0355097850895585 0.0
v 6.0606 -3.038659894302496 0.0
v 5.959600000000001 -3.0726909550128685 0.0
v 5.9346000000000005 -3.0812032393065754 0.0
v 5.8586 -3.105748555526993 0.0
v 5.7938 -3.1268778688352667 0.0
v 5.7576 -3.1381763395730413 0.0
v 5.6566 -3.1700562572508 0.0
v 5.6488000000000005 -3.172573743771971 0.0
v 5.555599999999999 -3.201451749121719 0.0
v 5.5022 -3.2182728535714475 0.0
v 5.4545 -3.232716649778168 0.0
v 5.3535 -3.2638963306046103 0.0
v 5.353400000000001 -3.2639436342188497 0.0
v 5.2525 -3.2950390287875946 0.0
v 5.2061 -3.3096301674258988 0.0
v 5.1514999999999995 -3.3263153748568164 0.0
v 5.0583 -3.3553173987845595 0.0
v 5.0505 -3.3577062107846425 0.0
v 4.9495 -3.3892015355283336 0.0
v 4.9121 -3.4010039798994827 0.0
v 4.8485000000000005 -3.420714687488031 0.0
v 4.765 -3.4466924663715273 0.0
v 4.7475000000000005 -3.452062577420423 0.0
v 4.6465 -3.483087820798942 0.0
v 4.6158 -3.492369208227911 0.0
v 4.5455000000000005 -3.5135505203463375 0.0
v 4.4618 -3.538058205908395 0.0
v 4.4444 -3.5431239795478646 0.0
v 4.3434 -3.5717321177517993 0.0
v 4.2991 -3.5837427186992477 0.0
v 4.2424 -3.599129496065089 0.0
v 4.1414 -3.6251477583234077 0.0
v 4.1238 -3.629429988036405 0.0
v 4.0404 -3.6498895443689223 0.0
v 3.9394 -3.673076227743187 0.0
v 3.9299000000000004 -3.6751181523167986 0.0
v 3.8384 -3.695026128922327 0.0
v 3.7374 -3.715543750605142 0.0
v 3.7098000000000004 -3.720804062076856 0.0
v 3.6364 -3.7349597612724454 0.0
v 3.5354 -3.7533148931036493 0.0
v 3.4591000000000003 -3.7664872062396944 0.0
v 3.4343000000000004 -3.7708372895457716 0.0
v 3.3333 -3.7878428819986114 0.0
v 3.2323000000000004 -3.8044324992504497 0.0
v 3.1847000000000003 -3.8121710813273726 0.0
v 3.1313 -3.820969500895675 0.0
v 3.0303 -3.8376326229263475 0.0
v 2.9293 -3.8545550064230514 0.0
v 2.9099 -3.8578569521353536 0.0
v 2.8283 -3.8719813538433696 0.0
v 2.7273 -3.889878510668778 0.0
v 2.652 -3.9035457569605603 0.0
v 2.6263 -3.908275863771907 0.0
v 2.5253 -3.92710847536309 0.0
v 2.4242 -3.9461770591582725 0.0
v 2.4079 -3.949228946245321 0.0
v 2.3232 -3.9652816828933806 0.0
v 2.2222 -3.9840905490809746 0.0
v 2.1616999999999997 -3.9949151607174977 0.0
v 2.1212 -4.002252479920538 0.0
v 2.0202 -4.019324037153691 0.0
v 1.9192 -4.034868996361131 0.0
v 1.8755000000000002 -4.040602340114074 0.0
v 1.8182 -4.048247531803974 0.0
v 1.7172 -4.058919260718884 0.0
v 1.6162 -4.0661394928706995 0.0
v 1.5152 -4.069223957297053 0.0
v 1.4141 -4.067331280208168 0.0
v 1.3131000000000002 -4.059714845546422 0.0
v 1.2121 -4.04563587107822 0.0
v 1.1874 -4.040602340114074 0.0
v 1.1111 -4.024854948305018 0.0
v 1.0101 -3.997460653762713 0.0
v 1.0023 -3.9949151607174977 0.0
v 0.9090900000000001 -3.9648816261759547 0.0
v 0.8660100000000001 -3.949228946245321 0.0
v 0.8080800000000001 -3.928805370893284 0.0
v 0.74059 -3.9035457569605603 0.0
v 0.70707 -3.8915374576725643 0.0
v 0.61426 -3.8578569521353536 0.0
v 0.60606 -3.8550282527619792 0.0
v 0.50505 -3.8208251865028737 0.0
v 0.50505 -0.8240411805652834 -0.19494999999999998
v 0.60606 -0.800957522894318 -0.09393999999999998
v 0.62494 -0.796921075330169 -0.07506
v 0.70707 -0.7806556851072708 0.007069999999999937
v 0.8080800000000001 -0.7627310659315696 0.10808000000000006
v 0.88139 -0.7512328999850113 0.18138999999999997
v 0.9090900000000001 -0.7471398031020366 0.20909000000000005
v 1.0101 -0.734007299277788 0.31010000000000004
v 1.1111 -0.7229874653857409 0.4111
v 1.2121 -0.714078164981856 0.5121
v 1.3131000000000002 -0.7072720285480201 0.6131000000000001
v 1.3504 -0.7055472801867717 0.6504
v 1.4141 -0.7026631319068932 0.7141
v 1.5152 -0.7002709373564371 0.8152000000000001
v 1.6162 -0.7001496816919146 0.9162
v 1.7172 -0.7024046848141059 1.0172
v 1.7848 -0.7055472801867717 1.0848
v 1.8182 -0.7071356643239186 1.1181999999999999
v 1.9192 -0.7144806466713054 1.2191999999999998
v 2.0202 -0.724406957583041 1.3202
v 2.1212 -0.736890281242343 1.4212
v 2.218 -0.7512328999850113 1.5180000000000002
v 2.2222 -0.7518869986257832 1.5222
v 2.3232 -0.7695988483874463 1.6232
v 2.4242 -0.7893903140869378 1.7242
v 2.4602 -0.796921075330169 1.7602000000000002
v 2.5253 -0.8113806021817203 1.8253000000000001
v 2.6263 -0.8349290964605758 1.9263
v 2.6586000000000003 -0.842609239610562 1.9586000000000001
v 2.7273 -0.8599844368309264 2.0273000000000003
v 2.8283 -0.8856608250955684 2.1283
v 2.8388999999999998 -0.8882918453565156 2.1389
v 2.9293 -0.9122167407779505 2.2293000000000003
v 3.0138 -0.9339779961223087 2.3138
v 3.0303 -0.9385247285403193 2.3303
v 3.1313 -0.9648957521003294 2.4313
v 3.1908999999999996 -0.9796621686211364 2.4909
v 3.2323000000000004 -0.9906229627260372 2.5323
v 3.3333 -1.015694988526518 2.6332999999999998
v 3.375 -1.025346834509827 2.6750000000000003
v 3.4343000000000004 -1.0399690268674608 2.7343
v 3.5354 -1.0632958210735202 2.8354000000000004
v 3.5713 -1.0710346750541517 2.8713
v 3.6364 -1.0857898903279861 2.9364
v 3.7374 -1.1073117454906738 3.0374000000000003
v 3.7841000000000005 -1.1167073413930888 3.0841000000000003
v 3.8384 -1.1280760126687153 3.1384
v 3.9394 -1.148077976762506 3.2394
v 4.0148 -1.1624150361064465 3.3148000000000004
v 4.0404 -1.1674059572322921 3.3404000000000003
v 4.1414 -1.1863346632529492 3.4414
v 4.2424 -1.204852236928215 3.5424
v 4.2605 -1.2080918452756948 3.5605
v 4.3434 -1.2232622468766308 3.6433999999999997
v 4.4444 -1.2415713820891674 3.7444
v 4.5119 -1.2537740196788796 3.8119
v 4.5455000000000005 -1.2599520599222542 3.8455000000000004
v 4.6465 -1.278547833775853 3.9465
v 4.7475000000000005 -1.297366513759765 4.0475
v 4.7586 -1.2994637145284502 4.0586
v 4.8485000000000005 -1.316620251635936 4.1485
v 4.9495 -1.3361994794666319 4.2495
v 4.995 -1.3451580002694379 4.295
v 5.0505 -1.3562745009039086 4.3505
v 5.1514999999999995 -1.3768505858476092 4.4515
v 5.219 -1.3908291687001455 4.519
v 5.2525 -1.3979573801038874 4.5525
v 5.3535 -1.419707981354444 4.6535
v 5.4301 -1.4365124869996928 4.7301
v 5.4545 -1.442040549006305 4.7545
v 5.555599999999999 -1.4652340949880143 4.8556
v 5.6278999999999995 -1.4822016219040945 4.9279
v 5.6566 -1.4891847745799982 4.9566
v 5.7576 -1.5142155962525818 5.0576
v 5.8114 -1.5278875659527047 5.1114
v 5.8586 -1.5404045624460594 5.1586
v 5.959600000000001 -1.5679199281350342 5.259600000000001
v 5.979900000000001 -1.5735793664371158 5.2799000000000005
v 6.0606 -1.5973331229767362 5.3606
v 6.1328 -1.6192603348517975 5.432799999999999
v 6.1616 -1.6285932558512592 5.4616
v 6.2626 -1.6622760641615708 5.5626
v 6.270499999999999 -1.6649520751636622 5.5705
v 6.3636 -1.6992131411739222 5.663600000000001
v 6.3939 -1.7106334708679232 5.6939
v 6.464600000000001 -1.739714712745713 5.764600000000001
v 6.5042 -1.7563165446749562 5.8042
v 6.5657000000000005 -1.784674339064312 5.8657
v 6.6027 -1.802007049253181 5.9027
v 6.6667 -1.8352846176327304 5.9666999999999994
v 6.6903999999999995 -1.8476898534867139 5.9904
v 6.7677 -1.8931067760713356 6.0677
v 6.7681 -1.8933788817186847 6.068099999999999
v 6.837400000000001 -1.9390597556884905 6.1374
v 6.8687000000000005 -1.962809563801616 6.1687
v 6.898 -1.984747779961804 6.1979999999999995
v 6.9506 -2.0304377926270494 6.2505999999999995
v 6.9697000000000005 -2.0501089629178675 6.2697
v 6.9956 -2.076130494543006 6.295599999999999
v 7.033200000000001 -2.1217895688592963 6.333200000000001
v 7.0629 -2.1674945616357215 6.3629
v 7.0707 -2.1834976105593524 6.3707
v 7.085700000000001 -2.2131723090468194 6.385700000000001
v 7.101 -2.2588527006423034 6.401000000000001
v 7.1086 -2.304555150120442 6.4086
v 7.1085 -2.350228629754865 6.4085
v 7.1003 -2.395920192670632 6.4003
v 7.084 -2.441600884296931 6.384
v 7.0707 -2.466021924257536 6.3707
v 7.059400000000001 -2.487293958006441 6.359400000000001
v 7.0266 -2.532970835487072 6.3266
v 6.9846 -2.5786621272780117 6.2846
v 6.9697000000000005 -2.5919434419444203 6.2697
v 6.9339 -2.624343986126047 6.2339
v 6.8737 -2.6700323652879177 6.1737
v 6.8687000000000005 -2.6732974397596356 6.1687
v 6.8048 -2.7157192889840265 6.1048
v 6.7677 -2.7372085506361654 6.0677
v 6.7263 -2.761401557498631 6.0263
v 6.6667 -2.7923216363515735 5.9666999999999994
v 6.638400000000001 -2.8070883274543217 5.938400000000001
v 6.5657000000000005 -2.8413156633266006 5.8657
v 6.5415 -2.8527726777871476 5.8415
v 6.464600000000001 -2.885926339801431 5.764600000000001
v 6.4358 -2.898461893020106 5.7358
v 6.3636 -2.927288219198812 5.663600000000001
v 6.3217 -2.944146951232541 5.6217
v 6.2626 -2.9661839863628043 5.5626
v 6.1996 -2.9898323266827824 5.4996
v 6.1616 -3.003158833950862 5.4616
v 6.07 -3.0355097850895585 5.37
v 6.0606 -3.038659894302496 5.3606
v 5.959600000000001 -3.0726909550128685 5.259600000000001
v 5.9346000000000005 -3.0812032393065754 5.2346
v 5.8586 -3.105748555526993 5.1586
v 5.7938 -3.1268778688352667 5.0938
v 5.7576 -3.1381763395730413 5.0576
v 5.6566 -3.1700562572508 4.9566
v 5.6488000000000005 -3.172573743771971 4.9488
v 5.555599999999999 -3.201451749121719 4.8556
v 5.5022 -3.2182728535714475 4.8022
v 5.4545 -3.232716649778168 4.7545
v 5.3535 -3.2638963306046103 4.6535
v 5.353400000000001 -3.2639436342188497 4.6534
v 5.2525 -3.2950390287875946 4.5525
v 5.2061 -3.3096301674258988 4.5061
v 5.1514999999999995 -3.3263153748568164 4.4515
v 5.0583 -3.3553173987845595 4.3583
v 5.0505 -3.3577062107846425 4.3505
v 4.9495 -3.3892015355283336 4.2495
v 4.9121 -3.4010039798994827 4.2120999999999995
v 4.8485000000000005 -3.420714687488031 4.1485
v 4.765 -3.4466924663715273 4.065
v 4.7475000000000005 -3.452062577420423 4.0475
v 4.6465 -3.483087820798942 3.9465
v 4.6158 -3.492369208227911 3.9158
v 4.5455000000000005 -3.5135505203463375 3.8455000000000004
v 4.4618 -3.538058205908395 3.7618
v 4.4444 -3.5431239795478646 3.7444
v 4.3434 -3.5717321177517993 3.6433999999999997
v 4.2991 -3.5837427186992477 3.5991000000000004
v 4.2424 -3.599129496065089 3.5424
v 4.1414 -3.6251477583234077 3.4414
v 4.1238 -3.629429988036405 3.4238
v 4.0404 -3.6498895443689223 3.3404000000000003
v 3.9394 -3.673076227743187 3.2394
v 3.9299000000000004 -3.6751181523167986 3.2299
v 3.8384 -3.695026128922327 3.1384
v 3.7374 -3.715543750605142 3.0374000000000003
v 3.7098000000000004 -3.720804062076856 3.0098000000000003
v 3.6364 -3.7349597612724454 2.9364
v 3.5354 -3.7533148931036493 2.8354000000000004
v 3.4591000000000003 -3.7664872062396944 2.7591
v 3.4343000000000004 -3.7708372895457716 2.7343
v 3.3333 -3.7878428819986114 2.6332999999999998
v 3.2323000000000004 -3.8044324992504497 2.5323
v 3.1847000000000003 -3.8121710813273726 2.4847
v 3.1313 -3.820969500895675 2.4313
v 3.0303 -3.8376326229263475 2.3303
v 2.9293 -3.8545550064230514 2.2293000000000003
v 2.9099 -3.8578569521353536 2.2099
v 2.8283 -3.8719813538433696 2.1283
v 2.7273 -3.889878510668778 2.0273000000000003
v 2.652 -3.9035457569605603 1.952
v 2.6263 -3.908275863771907 1.9263
v 2.5253 -3.92710847536309 1.8253000000000001
v 2.4242 -3.9461770591582725 1.7242
v 2.4079 -3.949228946245321 1.7079
v 2.3232 -3.9652816828933806 1.6232
v 2.2222 -3.9840905490809746 1.5222
v 2.1616999999999997 -3.9949151607174977 1.4617
v 2.1212 -4.002252479920538 1.4212
v 2.0202 -4.019324037153691 1.3202
v 1.9192 -4.034868996361131 1.2191999999999998
v 1.8755000000000002 -4.040602340114074 1.1755000000000002
v 1.8182 -4.048247531803974 1.1181999999999999
v 1.7172 -4.058919260718884 1.0172
v 1.6162 -4.0661394928706995 0.9162
v 1.5152 -4.069223957297053 0.8152000000000001
v 1.4141 -4.067331280208168 0.7141
v 1.3131000000000002 -4.059714845546422 0.6131000000000001
v 1.2121 -4.04563587107822 0.5121
v 1.1874 -4.040602340114074 0.48739999999999994
v 1.1111 -4.024854948305018 0.4111
v 1.0101 -3.997460653762713 0.31010000000000004
v 1.0023 -3.9949151607174977 0.30230000000000007
v 0.9090900000000001 -3.9648816261759547 0.20909000000000005
v 0.8660100000000001 -3.949228946245321 0.16601
v 0.8080800000000001 -3.928805370893284 0.10808000000000006
v 0.74059 -3.9035457569605603 0.04058999999999997
v 0.70707 -3.8915374576725643 0.007069999999999937
v 0.61426 -3.8578569521353536 -0.08573999999999998
v 0.60606 -3.8550282527619792 -0.09393999999999998
v 0.50505 -3.8208251865028737 -0.19494999999999998
f 1 215 216
f 1 216 2
f 2 216 217
f 2 217 3
f 3 217 218
f 3 218 4
f 4 218 219
f 4 219 5
f 5 219 220
f 5 220 6
f 6 220 221
f 6 221 7
f 7 221 222
f 7 222 8
f 8 222 223
f 8 223 9
f 9 223 224
f 9 224 10
f 10 224 225
f 10 225 11
f 11 225 226
f 11 226 12
f 12 226 227
f 12 227 13
f 13 227 228
f 13 228 14
f 14 228 229
f 14 229 15
f 15 229 230
f 15 230 16
f 16 230 231
f 16 231 17
f 17 231 232
f 17 232 18
f 18 232 233
f 18 233 19
f 19 233 234
f 19 234 20
f 20 234 235
f 20 235 21
f 21 235 236
f 21 236 22
f 22 236 237
f 22 237 23
f 23 237 238
f 23 238 24
f 24 238 239
f 24 239 25
f 25 239 240
f 25 240 26
f 26 240 241
f 26 241 27
f 27 241 242
f 27 242 28
f 28 242 243
f 28 243 29
f 29 243 244
f 29 244 30
f 30 244 245
f 30 245 31
f 31 245 246
f 31 246 32
f 32 246 247
f 32 247 33
f 33 247 248
f 33 248 34
f 34 248 249
f 34 249 35
f 35 249 250
f 35 250 36
f 36 250 251
f 36 251 37
f 37 251 252
f 37 252 38
f 38 252 253
f 38 253 39
f 39 253 254
f 39 254 40
f 40 254 255
f 40 255 41
f 41 255 256
f 41 256 42
f 42 256 257
f 42 257 43
f 43 257 258
f 43 258 44
f 44 258 259
f 44 259 45
f 45 259 260
f 45 260 46
f 46 260 261
f 46 261 47
f 47 261 262
f 47 262 48
f 48 262 263
f 48 263 49
f 49 263 264
f 49 264 50
f 50 264 265
f 50 265 51
f 51 265 266
f 51 266 52
f 52 266 267
f 52 267 53
f 53 267 268
f 53 268 54
f 54 268 269
f 54 269 55
f 55 269 270
f 55 270 56
f 56 270 271
f 56 271 57
f 57 271 272
f 57 272 58
f 58 272 273
f 58 273 59
f 59 273 274
f 59 274 60
f 60 274 275
f 60 275 61
f 61 275 276
f 61 276 62
f 62 276 277
f 62 277 63
f 63 277 278
f 63 278 64
f 64 278 279
f 64 279 65
f 65 279 280
f 65 280 66
f 66 280 281
f 66 281 67
f 67 281 282
f 67 282 68
f 68 282 283
f 68 283 69
f 69 283 284
f 69 284 70
f 70 284 285
f 70 285 71
f 71 285 286
f 71 286 72
f 72 286 287
f 72 287 73
f 73 287 288
f 73 288 74
f 74 288 289
f 74 289 75
f 75 289 290
f 75 290 76
f 76 290 291
f 76 291 77
f 77 291 292
f 77 292 78
f 78 292 293
f 78 293 79
f 79 293 294
f 79 294 80
f 80 294 295
f 80 295 81
f 81 295 296
f 81 296 82
f 82 296 297
f 82 297 83
f 83 297 298
f 83 298 84
f 84 298 299
f 84 299 85
f 85 299 300
f 85 300 86
f 86 300 301
f 86 301 87
f 87 301 302
f 87 302 88
f 88 302 303
f 88 303 89
f 89 303 304
f 89 304 90
f 90 304 305
f 90 305 91
f 91 305 306
f 91 306 92
f 92 306 307
f 92 307 93
f 93 307 308
f 93 308 94
f 94 308 309
f 94 309 95
f 95 309 310
f 95 310 96
f 96 310 311
f 96 311 97
f 97 311 312
f 97 312 98
f 98 312 313
f 98 313 99
f 99 313 314
f 99 314 100
f 100 314 315
f 100 315 101
f 101 315 316
f 101 316 102
f 102 316 317
f 102 317 103
f 103 317 318
f 103 318 104
f 104 318 319
f 104 319 105
f 105 319 320
f 105 320 106
f 106 320 321
f 106 321 107
f 107 321 322
f 107 322 108
f 108 322 323
f 108 323 109
f 109 323 324
f 109 324 110
f 110 324 325
f 110 325 111
f 111 325 326
f 111 326 112
f 112 326 327
f 112 327 113
f 113 327 328
f 113 328 114
f 114 328 329
f 114 329 115
f 115 329 330
f 115 330 116
f 116 330 331
f 116 331 117
f 117 331 332
f 117 332 118
f 118 332 333
f 118 333 119
f 119 333 334
f 119 334 120
f 120 334 335
f 120 335 121
f 121 335 336
f 121 336 122
f 122 336 337
f 122 337 123
f 123 337 338
f 123 338 124
f 124 338 339
f 124 339 125
f 125 339 340
f 125 340 126
f 126 340 341
f 126 341 127
f 127 341 342
f 127 342 128
f 128 342 343
f 128 343 129
f 129 343 344
f 129 344 130
f 130 344 345
f 130 345 131
f 131 345 346
f 131 346 132
f 132 346 347
f 132 347 133
f 133 347 348
f 133 348 134
f 134 348 349
f 134 349 135
f 135 349 350
f 135 350 136
f 136 350 351
f 136 351 137
f 137 351 352
f 137 352 138
f 138 352 353
f 138 353 139
f 139 353 354
f 139 354 140
f 140 354 355
f 140 355 141
f 141 355 356
f 141 356 142
f 142 356 357
f 142 357 143
f 143 357 358
f 143 358 144
f 144 358 359
f 144 359 145
f 145 359 360
f 145 360 146
f 146 360 361
f 146 361 147
f 147 361 362
f 147 362 148
f 148 362 363
f 148 363 149
f 149 363 364
f 149 364 150
f 150 364 365
f 150 365 151
f 151 365 366
f 151 366 152
f 152 366 367
f 152 367 153
f 153 367 368
f 153 368 154
f 154 368 369
f 154 369 155
f 155 369 370
f 155 370 156
f 156 370 371
f 156 371 157
f 157 371 372
f 157 372 158
f 158 372 373
f 158 373 159
f 159 373 374
f 159 374 160
f 160 374 375
f 160 375 161
f 161 375 376
f 161 376 162
f 162 376 377
f 162 377 163
f 163 377 378
f 163 378 164
f 164 378 379
f 164 379 165
f 165 379 380
f 165 380 166
f 166 380 381
f 166 381 167
f 167 381 382
f 167 382 168
f 168 382 383
f 168 383 169
f 169 383 384
f 169 384 170
f 170 384 385
f 170 385 171
f 171 385 386
f 171 386 172
f 172 386 387
f 172 387 173
f 173 387 388
f 173 388 174
f 174 388 389
f 174 389 175
f 175 389 390
f 175 390 176
f 176 390 391
f 176 391 177
f 177 391 392
f 177 392 178
f 178 392 393
f 178 393 179
f 179 393 394
f 179 394 180
f 180 394 395
f 180 395 181
f 181 395 396
f 181 396 182
f 182 396 397
f 182 397 183
f 183 397 398
f 183 398 184
f 184 398 399
f 184 399 185
f 185 399 400
f 185 400 186
f 186 400 401
f 186 401 187
f 187 401 402
f 187 402 188
f 188 402 403
f 188 403 189
f 189 403 404
f 189 404 190
f 190 404 405
f 190 405 191
f 191 405 406
f 191 406 192
f 192 406 407
f 192 407 193
f 193 407 408
f 193 408 194
f 194 408 409
f 194 409 195
f 195 409 410
f 195 410 196
f 196 410 411
f 196 411 197
f 197 411 412
f 197 412 198
f 198 412 413
f 198 413 199
f 199 413 414
f 199 414 200
f 200 414 415
f 200 415 201
f 201 415 416
f 201 416 202
f 202 416 417
f 202 417 203
f 203 417 418
f 203 418 204
f 204 418 419
f 204 419 205
f 205 419 420
f 205 420 206
f 206 420 421
f 206 421 207
f 207 421 422
f 207 422 208
f 208 422 423
f 208 423 209
f 209 423 424
f 209 424 210
f 210 424 425
f 210 425 211
f 211 425 426
f 211 426 212
f 212 426 427
f 212 427 213
f 213 427 428
f 213 428 214
f 1 2 3
f 1 3 4
f 1 4 5
f 1 5 6
f 1 6 7
f 1 7 8
f 1 8 9
f 1 9 10
f 1 10 11
f 1 11 12
f 1 12 13
f 1 13 14
f 1 14 15
f 1 15 16
f 1 16 17
f 1 17 18
f 1 18 19
f 1 19 20
f 1 20 21
f 1 21 22
f 1 22 23
f 1 23 24
f 1 24 25
f 1 25 26
f 1 26 27
f 1 27 28
f 1 28 29
f 1 29 30
f 1 30 31
f 1 31 32
f 1 32 33
f 1 33 34
f 1 34 35
f 1 35 36
f 1 36 37
f 1 37 38
f 1 38 39
f 1 39 40
f 1 40 41
f 1 41 42
f 1 42 43
f 1 43 44
f 1 44 45
f 1 45 46
f 1 46 47
f 1 47 48
f 1 48 49
f 1 49 50
f 1 50 51
f 1 51 52
f 1 52 53
f 1 53 54
f 1 54 55
f 1 55 56
f 1 56 57
f 1 57 58
f 1 58 59
f 1 59 60
f 1 60 61
f 1 61 62
f 1 62 63
f 1 63 64
f 1 64 65
f 1 65 66
f 1 66 67
f 1 67 68
f 1 68 69
f 1 69 70
f 1 70 71
f 1 71 72
f 1 72 73
f 1 73 74
f 1 74 75
f 1 75 76
f 1 76 77
f 1 77 78
f 1 78 79
f 1 79 80
f 1 80 81
f 1 81 82
f 1 82 83
f 1 83 84
f 1 84 85
f 1 85 86
f 1 86 87
f 1 87 88
f 1 88 89
f 1 89 90
f 1 90 91
f 1 91 92
f 1 92 93
f 1 93 94
f 1 94 95
f 1 95 96
f 1 96 97
f 1 97 98
f 1 98 99
f 1 99 100
f 1 100 101
f 1 101 102
f 1 102 103
f 1 103 104
f 1 104 105
f 1 105 106
f 1 106 107
f 1 107 108
f 1 108 109
f 1 109 110
f 1 110 111
f 1 111 112
f 1 112 113
f 1 113 114
f 1 114 115
f 1 115 116
f 1 116 117
f 1 117 118
f 1 118 119
f 1 119 120
f 1 120 121
f 1 121 122
f 1 122 123
f 1 123 124
f 1 124 125
f 1 125 126
f 1 126 127
f 1 127 128
f 1 128 129
f 1 129 130
f 1 130 131
f 1 131 132
f 1 132 133
f 1 133 134
f 1 134 135
f 1 135 136
f 1 136 137
f 1 137 138
f 1 138 139
f 1 139 140
f 1 140 141
f 1 141 142
f 1 142 143
f 1 143 144
f 1 144 145
f 1 145 146
f 1 146 147
f 1 147 148
f 1 148 149
f 1 149 150
f 1 150 151
f 1 151 152
f 1 152 153
f 1 153 154
f 1 154 155
f 1 155 156
f 1 156 157
f 1 157 158
f 1 158 159
f 1 159 160
f 1 160 161
f 1 161 162
f 1 162 163
f 1 163 164
f 1 164 165
f 1 165 166
f 1 166 167
f 1 167 168
f 1 168 169
f 1 169 170
f 1 170 171
f 1 171 172
f 1 172 173
f 1 173 174
f 1 174 175
f 1 175 176
f 1 176 177
f 1 177 178
f 1 178 179
f 1 179 180
f 1 180 181
f 1 181 182
f 1 182 183
f 1 183 184
f 1 184 185
f 1 185 186
f 1 186 187
f 1 187 188
f 1 188 189
f 1 189 190
f 1 190 191
f 1 191 192
f 1 192 193
f 1 193 194
f 1 194 195
f 1 195 196
f 1 196 197
f 1 197 198
f 1 198 199
f 1 199 200
f 1 200 201
f 1 201 202
f 1 202 203
f 1 203 204
f 1 204 205
f 1 205 206
f 1 206 207
f 1 207 208
f 1 208 209
f 1 209 210
f 1 210 211
f 1 211 212
f 1 212 213
f 1 213 214
f 215 217 216
f 215 218 217
f 215 219 218
f 215 220 219
f 215 221 220
f 215 222 221
f 215 223 222
f 215 224 223
f 215 225 224
f 215 226 225
f 215 227 226
f 215 228 227
f 215 229 228
f 215 230 229
f 215 231 230
f 215 232 231
f 215 233 232
f 215 234 233
f 215 235 234
f 215 236 235
f 215 237 236
f 215 238 237
f 215 239 238
f 215 240 239
f 215 241 240
f 215 242 241
f 215 243 242
f 215 244 243
f 215 245 244
f 215 246 245
f 215 247 246
f 215 248 247
f 215 249 248
f 215 250 249
f 215 251 250
f 215 252 251
f 215 253 252
f 215 254 253
f 215 255 254
f 215 256 255
f 215 257 256
f 215 258 257
f 215 259 258
f 215 260 259
f 215 261 260
f 215 262 261
f 215 263 262
f 215 264 263
f 215 265 264
f 215 266 265
f 215 267 266
f 215 268 267
f 215 269 268
f 215 270 269
f 215 271 270
f 215 272 271
f 215 273 272
f 215 274 273
f 215 275 274
f 215 276 275
f 215 277 276
f 215 278 277
f 215 279 278
f 215 280 279
f 215 281 280
f 215 282 281
f 215 283 282
f 215 284 283
f 215 285 284
f 215 286 285
f 215 287 286
f 215 288 287
f 215 289 288
f 215 290 289
f 215 291 290
f 215 292 291
f 215 293 292
f 215 294 293
f 215 295 294
f 215 296 295
f 215 297 296
f 215 298 297
f 215 299 298
f 215 300 299
f 215 301 300
f 215 302 301
f 215 303 302
f 215 304 303
f 215 305 304
f 215 306 305
f 215 307 306
f 215 308 307
f 215 309 308
f 215 310 309
f 215 311 310
f 215 312 311
f 215 313 312
f 215 314 313
f 215 315 314
f 215 316 315
f 215 317 316
f 215 318 317
f 215 319 318
f 215 320 319
f 215 321 320
f 215 322 321
f 215 323 322
f 215 324 323
f 215 325 324
f 215 326 325
f 215 327 326
f 215 328 327
f 215 329 328
f 215 330 329
f 215 331 330
f 215 332 331
f 215 333 332
f 215 334 333
f 215 335 334
f 215 336 335
f 215 337 336
f 215 338 337
f 215 339 338
f 215 340 339
f 215 341 340
f 215 342 341
f 215 343 342
f 215 344 343
f 215 345 344
f 215 346 345
f 215 347 346
f 215 348 347
f 215 349 348
f 215 350 349
f 215 351 350
f 215 352 351
f 215 353 352
f 215 354 353
f 215 355 354
f 215 356 355
f 215 357 356
f 215 358 357
f 215 359 358
f 215 360 359
f 215 361 360
f 215 362 361
f 215 363 362
f 215 364 363
f 215 365 364
f 215 366 365
f 215 367 366
f 215 368 367
f 215 369 368
f 215 370 369
f 215 371 370
f 215 372 371
f 215 373 372
f 215 374 373
f 215 375 374
f 215 376 375
f 215 377 376
f 215 378 377
f 215 379 378
f 215 380 379
f 215 381 380
f 215 382 381
f 215 383 382
f 215 384 383
f 215 385 384
f 215 386 385
f 215 387 386
f 215 388 387
f 215 389 388
f 215 390 389
f 215 391 390
f 215 392 391
f 215 393 392
f 215 394 393
f 215 395 394
f 215 396 395
f 215 397 396
f 215 398 397
f 215 399 398
f 215 400 399
f 215 401 400
f 215 402 401
f 215 403 402
f 215 404 403
f 215 405 404
f 215 406 405
f 215 407 406
f 215 408 407
f 215 409 408
f 215 410 409
f 215 411 410
f 215 412 411
f 215 413 412
f 215 414 413
f 215 415 414
f 215 416 415
f 215 417 416
f 215 418 417
f 215 419 418
f 215 420 419
f 215 421 420
f 215 422 421
f 215 423 422
f 215 424 423
f 215 425 424
f 215 426 425
f 215 427 426
f 215 428 427
f 1 215 216
f 1 216 2
f 214 427 428
f 214 213 427
