v 0.50505 -1.3277879075930505 0.0
v 0.51355 -1.3294182205465879 0.0
v 0.60606 -1.3462551493613855 0.0
v 0.65579 -1.3560641193385952 0.0
v 0.70707 -1.3656938515772623 0.0
v 0.79557 -1.382701282954905 0.0
v 0.8080800000000001 -1.3850160901359454 0.0
v 0.9090900000000001 -1.4034465487758765 0.0
v 0.94374 -1.4093243466040695 0.0
v 1.0101 -1.420566303744693 0.0
v 1.1094 -1.435971706399341 0.0
v 1.1111 -1.4362421808715622 0.0
v 1.2121 -1.4507416453519129 0.0
v 1.2991 -1.4626076067128517 0.0
v 1.3131000000000002 -1.464578960565791 0.0
v 1.4141 -1.4785087782063038 0.0
v 1.4876 -1.4892410905241757 0.0
v 1.5152 -1.4934022792624928 0.0
v 1.6162 -1.5099548267442453 0.0
v 1.6486 -1.5158738437116792 0.0
v 1.7172 -1.5286082159635812 0.0
v 1.7850000000000001 -1.5425017632147446 0.0
v 1.8182 -1.5493343773230446 0.0
v 1.9074000000000002 -1.5691397254724595 0.0
v 1.9192 -1.5717670443256173 0.0
v 2.0202 -1.595529288674459 0.0
v 2.0212 -1.5957717020009405 0.0
v 2.1212 -1.6206980868786587 0.0
v 2.1277 -1.622410913773809 0.0
v 2.2222 -1.647891305675717 0.0
v 2.2262 -1.6490426340861764 0.0
v 2.3157 -1.675677544338479 0.0
v 2.3232 -1.6780173312839834 0.0
v 2.3961 -1.7023098823311493 0.0
v 2.4242 -1.7122876386784351 0.0
v 2.4685 -1.728945966831425 0.0
v 2.5253 -1.7521022508825623 0.0
v 2.5334 -1.7555776051138714 0.0
v 2.5913999999999997 -1.7822145507813107 0.0
v 2.6263 -1.799939875727057 0.0
v 2.6433999999999997 -1.80885214753512 0.0
v 2.69 -1.8354812989204905 0.0
v 2.7273 -1.8595525715554104 0.0
v 2.7313 -1.8621194479820593 0.0
v 2.7685000000000004 -1.8887521826175426 0.0
v 2.8009 -1.9153892811476536 0.0
v 2.8283 -1.941446830252359 0.0
v 2.8289 -1.9420229428635827 0.0
v 2.8538 -1.9686556980182062 0.0
v 2.8746 -1.9952928883219245 0.0
v 2.8913 -2.0219331664774387 0.0
v 2.9041 -2.0485583248984818 0.0
v 2.9129 -2.0751818546186915 0.0
v 2.9179000000000004 -2.101815785991744 0.0
v 2.919 -2.1284638910647606 0.0
v 2.9161 -2.1550930075304024 0.0
v 2.9092000000000002 -2.1817292848826826 0.0
v 2.8981 -2.208360724978379 0.0
v 2.8827999999999996 -2.2349978796860306 0.0
v 2.8632 -2.26164345331189 0.0
v 2.8392000000000004 -2.2882715882548212 0.0
v 2.8283 -2.2986566173911456 0.0
v 2.812 -2.3148990242733958 0.0
v 2.7813 -2.3415334414404065 0.0
v 2.7464 -2.3681752745493765 0.0
v 2.7273 -2.3813858660133773 0.0
v 2.7083999999999997 -2.3948017771627113 0.0
v 2.6674 -2.4214393902200495 0.0
v 2.6263 -2.445868746564016 0.0
v 2.6226 -2.4480721890650865 0.0
v 2.5754 -2.47471148539244 0.0
v 2.5253 -2.501031861070583 0.0
v 2.5247 -2.501346869932965 0.0
v 2.4717 -2.5279777126274046 0.0
v 2.4242 -2.5506074306351305 0.0
v 2.4158000000000004 -2.554622395890598 0.0
v 2.3582 -2.581255415287389 0.0
v 2.3232 -2.5969707579311803 0.0
v 2.299 -2.60788374435699 0.0
v 2.2389 -2.6345175740428917 0.0
v 2.2222 -2.6417615619285133 0.0
v 2.1782 -2.6611593333465513 0.0
v 2.1212 -2.6856521841155243 0.0
v 2.1163 -2.687787499028779 0.0
v 2.0534 -2.714421974651351 0.0
v 2.0202 -2.7280452015719727 0.0
v 1.9877000000000002 -2.7410570053605983 0.0
v 1.9192 -2.7674304612335554 0.0
v 1.9184999999999999 -2.76769746835235 0.0
v 1.8416 -2.7943276836194872 0.0
v 1.8182 -2.802082407757017 0.0
v 1.7521000000000002 -2.8209629421907914 0.0
v 1.7172 -2.830556592575827 0.0
v 1.6355000000000002 -2.8475973342639564 0.0
v 1.6162 -2.851496839347985 0.0
v 1.5152 -2.8634239854171777 0.0
v 1.4141 -2.8645288796478456 0.0
v 1.3131000000000002 -2.852492192748721 0.0
v 1.2953000000000001 -2.8475973342639564 0.0
v 1.2121 -2.824639911308145 0.0
v 1.2040000000000002 -2.8209629421907914 0.0
v 1.1453 -2.7943276836194872 0.0
v 1.1111 -2.7788816981403244 0.0
v 1.0935 -2.76769746835235 0.0
v 1.0512000000000001 -2.7410570053605983 0.0
v 1.0101 -2.7154434110952166 0.0
v 1.0088 -2.714421974651351 0.0
v 0.97434 -2.687787499028779 0.0
v 0.93931 -2.6611593333465513 0.0
v 0.9090900000000001 -2.6387387797893687 0.0
v 0.9042 -2.6345175740428917 0.0
v 0.87236 -2.60788374435699 0.0
v 0.8393600000000001 -2.581255415287389 0.0
v 0.8080800000000001 -2.557182261787929 0.0
v 0.80496 -2.554622395890598 0.0
v 0.7707299999999999 -2.5279777126274046 0.0
v 0.73392 -2.501346869932965 0.0
v 0.70707 -2.4834161127010477 0.0
v 0.69367 -2.47471148539244 0.0
v 0.64916 -2.4480721890650865 0.0
v 0.60606 -2.4248489816829784 0.0
v 0.59906 -2.4214393902200495 0.0
v 0.54012 -2.3948017771627113 0.0
v 0.50505 -2.380283618094059 0.0
v 0.50505 -1.3277879075930505 -0.19494999999999998
v 0.51355 -1.3294182205465879 -0.18645000000000003
v 0.60606 -1.3462551493613855 -0.09393999999999998
v 0.65579 -1.3560641193385952 -0.04421000000000007
v 0.70707 -1.3656938515772623 0.007069999999999937
v 0.79557 -1.382701282954905 0.09557000000000003
v 0.8080800000000001 -1.3850160901359454 0.10808000000000006
v 0.9090900000000001 -1.4034465487758765 0.20909000000000005
v 0.94374 -1.4093243466040695 0.24373999999999996
v 1.0101 -1.420566303744693 0.31010000000000004
v 1.1094 -1.435971706399341 0.4094
v 1.1111 -1.4362421808715622 0.4111
v 1.2121 -1.4507416453519129 0.5121
v 1.2991 -1.4626076067128517 0.5991
v 1.3131000000000002 -1.464578960565791 0.6131000000000001
v 1.4141 -1.4785087782063038 0.7141
v 1.4876 -1.4892410905241757 0.7876
v 1.5152 -1.4934022792624928 0.8152000000000001
v 1.6162 -1.5099548267442453 0.9162
v 1.6486 -1.5158738437116792 0.9486000000000001
v 1.7172 -1.5286082159635812 1.0172
v 1.7850000000000001 -1.5425017632147446 1.085
v 1.8182 -1.5493343773230446 1.1181999999999999
v 1.9074000000000002 -1.5691397254724595 1.2074
v 1.9192 -1.5717670443256173 1.2191999999999998
v 2.0202 -1.595529288674459 1.3202
v 2.0212 -1.5957717020009405 1.3212000000000002
v 2.1212 -1.6206980868786587 1.4212
v 2.1277 -1.622410913773809 1.4277000000000002
v 2.2222 -1.647891305675717 1.5222
v 2.2262 -1.6490426340861764 1.5262
v 2.3157 -1.675677544338479 1.6157
v 2.3232 -1.6780173312839834 1.6232
v 2.3961 -1.7023098823311493 1.6961000000000002
v 2.4242 -1.7122876386784351 1.7242
v 2.4685 -1.728945966831425 1.7685
v 2.5253 -1.7521022508825623 1.8253000000000001
v 2.5334 -1.7555776051138714 1.8334000000000001
v 2.5913999999999997 -1.7822145507813107 1.8914
v 2.6263 -1.799939875727057 1.9263
v 2.6433999999999997 -1.80885214753512 1.9433999999999998
v 2.69 -1.8354812989204905 1.99
v 2.7273 -1.8595525715554104 2.0273000000000003
v 2.7313 -1.8621194479820593 2.0313
v 2.7685000000000004 -1.8887521826175426 2.0685000000000002
v 2.8009 -1.9153892811476536 2.1008999999999998
v 2.8283 -1.941446830252359 2.1283
v 2.8289 -1.9420229428635827 2.1289
v 2.8538 -1.9686556980182062 2.1538
v 2.8746 -1.9952928883219245 2.1746
v 2.8913 -2.0219331664774387 2.1913
v 2.9041 -2.0485583248984818 2.2041000000000004
v 2.9129 -2.0751818546186915 2.2129000000000003
v 2.9179000000000004 -2.101815785991744 2.2179
v 2.919 -2.1284638910647606 2.219
v 2.9161 -2.1550930075304024 2.2161000000000004
v 2.9092000000000002 -2.1817292848826826 2.2092
v 2.8981 -2.208360724978379 2.1981
v 2.8827999999999996 -2.2349978796860306 2.1828
v 2.8632 -2.26164345331189 2.1632
v 2.8392000000000004 -2.2882715882548212 2.1392
v 2.8283 -2.2986566173911456 2.1283
v 2.812 -2.3148990242733958 2.112
v 2.7813 -2.3415334414404065 2.0813
v 2.7464 -2.3681752745493765 2.0463999999999998
v 2.7273 -2.3813858660133773 2.0273000000000003
v 2.7083999999999997 -2.3948017771627113 2.0084
v 2.6674 -2.4214393902200495 1.9674
v 2.6263 -2.445868746564016 1.9263
v 2.6226 -2.4480721890650865 1.9225999999999999
v 2.5754 -2.47471148539244 1.8754000000000002
v 2.5253 -2.501031861070583 1.8253000000000001
v 2.5247 -2.501346869932965 1.8247
v 2.4717 -2.5279777126274046 1.7716999999999998
v 2.4242 -2.5506074306351305 1.7242
v 2.4158000000000004 -2.554622395890598 1.7158000000000002
v 2.3582 -2.581255415287389 1.6582
v 2.3232 -2.5969707579311803 1.6232
v 2.299 -2.60788374435699 1.5990000000000002
v 2.2389 -2.6345175740428917 1.5389
v 2.2222 -2.6417615619285133 1.5222
v 2.1782 -2.6611593333465513 1.4782
v 2.1212 -2.6856521841155243 1.4212
v 2.1163 -2.687787499028779 1.4163
v 2.0534 -2.714421974651351 1.3534000000000002
v 2.0202 -2.7280452015719727 1.3202
v 1.9877000000000002 -2.7410570053605983 1.2877
v 1.9192 -2.7674304612335554 1.2191999999999998
v 1.9184999999999999 -2.76769746835235 1.2185
v 1.8416 -2.7943276836194872 1.1416
v 1.8182 -2.802082407757017 1.1181999999999999
v 1.7521000000000002 -2.8209629421907914 1.0521
v 1.7172 -2.830556592575827 1.0172
v 1.6355000000000002 -2.8475973342639564 0.9355000000000001
v 1.6162 -2.851496839347985 0.9162
v 1.5152 -2.8634239854171777 0.8152000000000001
v 1.4141 -2.8645288796478456 0.7141
v 1.3131000000000002 -2.852492192748721 0.6131000000000001
v 1.2953000000000001 -2.8475973342639564 0.5953
v 1.2121 -2.824639911308145 0.5121
v 1.2040000000000002 -2.8209629421907914 0.5040000000000001
v 1.1453 -2.7943276836194872 0.44530000000000003
v 1.1111 -2.7788816981403244 0.4111
v 1.0935 -2.76769746835235 0.39349999999999996
v 1.0512000000000001 -2.7410570053605983 0.35120000000000007
v 1.0101 -2.7154434110952166 0.31010000000000004
v 1.0088 -2.714421974651351 0.30879999999999996
v 0.97434 -2.687787499028779 0.27434
v 0.93931 -2.6611593333465513 0.23930999999999997
v 0.9090900000000001 -2.6387387797893687 0.20909000000000005
v 0.9042 -2.6345175740428917 0.20420000000000002
v 0.87236 -2.60788374435699 0.17236000000000004
v 0.8393600000000001 -2.581255415287389 0.13936000000000007
v 0.8080800000000001 -2.557182261787929 0.10808000000000006
v 0.80496 -2.554622395890598 0.10495999999999996
v 0.7707299999999999 -2.5279777126274046 0.07072999999999993
v 0.73392 -2.501346869932965 0.03391999999999996
v 0.70707 -2.4834161127010477 0.007069999999999937
v 0.69367 -2.47471148539244 -0.0063299999999999555
v 0.64916 -2.4480721890650865 -0.05084000000000003
v 0.60606 -2.4248489816829784 -0.09393999999999998
v 0.59906 -2.4214393902200495 -0.10094000000000002
v 0.54012 -2.3948017771627113 -0.15988
v 0.50505 -2.380283618094059 -0.19494999999999998
f 1 125 126
f 1 126 2
f 2 126 127
f 2 127 3
f 3 127 128
f 3 128 4
f 4 128 129
f 4 129 5
f 5 129 130
f 5 130 6
f 6 130 131
f 6 131 7
f 7 131 132
f 7 132 8
f 8 132 133
f 8 133 9
f 9 133 134
f 9 134 10
f 10 134 135
f 10 135 11
f 11 135 136
f 11 136 12
f 12 136 137
f 12 137 13
f 13 137 138
f 13 138 14
f 14 138 139
f 14 139 15
f 15 139 140
f 15 140 16
f 16 140 141
f 16 141 17
f 17 141 142
f 17 142 18
f 18 142 143
f 18 143 19
f 19 143 144
f 19 144 20
f 20 144 145
f 20 145 21
f 21 145 146
f 21 146 22
f 22 146 147
f 22 147 23
f 23 147 148
f 23 148 24
f 24 148 149
f 24 149 25
f 25 149 150
f 25 150 26
f 26 150 151
f 26 151 27
f 27 151 152
f 27 152 28
f 28 152 153
f 28 153 29
f 29 153 154
f 29 154 30
f 30 154 155
f 30 155 31
f 31 155 156
f 31 156 32
f 32 156 157
f 32 157 33
f 33 157 158
f 33 158 34
f 34 158 159
f 34 159 35
f 35 159 160
f 35 160 36
f 36 160 161
f 36 161 37
f 37 161 162
f 37 162 38
f 38 162 163
f 38 163 39
f 39 163 164
f 39 164 40
f 40 164 165
f 40 165 41
f 41 165 166
f 41 166 42
f 42 166 167
f 42 167 43
f 43 167 168
f 43 168 44
f 44 168 169
f 44 169 45
f 45 169 170
f 45 170 46
f 46 170 171
f 46 171 47
f 47 171 172
f 47 172 48
f 48 172 173
f 48 173 49
f 49 173 174
f 49 174 50
f 50 174 175
f 50 175 51
f 51 175 176
f 51 176 52
f 52 176 177
f 52 177 53
f 53 177 178
f 53 178 54
f 54 178 179
f 54 179 55
f 55 179 180
f 55 180 56
f 56 180 181
f 56 181 57
f 57 181 182
f 57 182 58
f 58 182 183
f 58 183 59
f 59 183 184
f 59 184 60
f 60 184 185
f 60 185 61
f 61 185 186
f 61 186 62
f 62 186 187
f 62 187 63
f 63 187 188
f 63 188 64
f 64 188 189
f 64 189 65
f 65 189 190
f 65 190 66
f 66 190 191
f 66 191 67
f 67 191 192
f 67 192 68
f 68 192 193
f 68 193 69
f 69 193 194
f 69 194 70
f 70 194 195
f 70 195 71
f 71 195 196
f 71 196 72
f 72 196 197
f 72 197 73
f 73 197 198
f 73 198 74
f 74 198 199
f 74 199 75
f 75 199 200
f 75 200 76
f 76 200 201
f 76 201 77
f 77 201 202
f 77 202 78
f 78 202 203
f 78 203 79
f 79 203 204
f 79 204 80
f 80 204 205
f 80 205 81
f 81 205 206
f 81 206 82
f 82 206 207
f 82 207 83
f 83 207 208
f 83 208 84
f 84 208 209
f 84 209 85
f 85 209 210
f 85 210 86
f 86 210 211
f 86 211 87
f 87 211 212
f 87 212 88
f 88 212 213
f 88 213 89
f 89 213 214
f 89 214 90
f 90 214 215
f 90 215 91
f 91 215 216
f 91 216 92
f 92 216 217
f 92 217 93
f 93 217 218
f 93 218 94
f 94 218 219
f 94 219 95
f 95 219 220
f 95 220 96
f 96 220 221
f 96 221 97
f 97 221 222
f 97 222 98
f 98 222 223
f 98 223 99
f 99 223 224
f 99 224 100
f 100 224 225
f 100 225 101
f 101 225 226
f 101 226 102
f 102 226 227
f 102 227 103
f 103 227 228
f 103 228 104
f 104 228 229
f 104 229 105
f 105 229 230
f 105 230 106
f 106 230 231
f 106 231 107
f 107 231 232
f 107 232 108
f 108 232 233
f 108 233 109
f 109 233 234
f 109 234 110
f 110 234 235
f 110 235 111
f 111 235 236
f 111 236 112
f 112 236 237
f 112 237 113
f 113 237 238
f 113 238 114
f 114 238 239
f 114 239 115
f 115 239 240
f 115 240 116
f 116 240 241
f 116 241 117
f 117 241 242
f 117 242 118
f 118 242 243
f 118 243 119
f 119 243 244
f 119 244 120
f 120 244 245
f 120 245 121
f 121 245 246
f 121 246 122
f 122 246 247
f 122 247 123
f 123 247 248
f 123 248 124
f 1 2 3
f 1 3 4
f 1 4 5
f 1 5 6
f 1 6 7
f 1 7 8
f 1 8 9
f 1 9 10
f 1 10 11
f 1 11 12
f 1 12 13
f 1 13 14
f 1 14 15
f 1 15 16
f 1 16 17
f 1 17 18
f 1 18 19
f 1 19 20
f 1 20 21
f 1 21 22
f 1 22 23
f 1 23 24
f 1 24 25
f 1 25 26
f 1 26 27
f 1 27 28
f 1 28 29
f 1 29 30
f 1 30 31
f 1 31 32
f 1 32 33
f 1 33 34
f 1 34 35
f 1 35 36
f 1 36 37
f 1 37 38
f 1 38 39
f 1 39 40
f 1 40 41
f 1 41 42
f 1 42 43
f 1 43 44
f 1 44 45
f 1 45 46
f 1 46 47
f 1 47 48
f 1 48 49
f 1 49 50
f 1 50 51
f 1 51 52
f 1 52 53
f 1 53 54
f 1 54 55
f 1 55 56
f 1 56 57
f 1 57 58
f 1 58 59
f 1 59 60
f 1 60 61
f 1 61 62
f 1 62 63
f 1 63 64
f 1 64 65
f 1 65 66
f 1 66 67
f 1 67 68
f 1 68 69
f 1 69 70
f 1 70 71
f 1 71 72
f 1 72 73
f 1 73 74
f 1 74 75
f 1 75 76
f 1 76 77
f 1 77 78
f 1 78 79
f 1 79 80
f 1 80 81
f 1 81 82
f 1 82 83
f 1 83 84
f 1 84 85
f 1 85 86
f 1 86 87
f 1 87 88
f 1 88 89
f 1 89 90
f 1 90 91
f 1 91 92
f 1 92 93
f 1 93 94
f 1 94 95
f 1 95 96
f 1 96 97
f 1 97 98
f 1 98 99
f 1 99 100
f 1 100 101
f 1 101 102
f 1 102 103
f 1 103 104
f 1 104 105
f 1 105 106
f 1 106 107
f 1 107 108
f 1 108 109
f 1 109 110
f 1 110 111
f 1 111 112
f 1 112 113
f 1 113 114
f 1 114 115
f 1 115 116
f 1 116 117
f 1 117 118
f 1 118 119
f 1 119 120
f 1 120 121
f 1 121 122
f 1 122 123
f 1 123 124
f 125 127 126
f 125 128 127
f 125 129 128
f 125 130 129
f 125 131 130
f 125 132 131
f 125 133 132
f 125 134 133
f 125 135 134
f 125 136 135
f 125 137 136
f 125 138 137
f 125 139 138
f 125 140 139
f 125 141 140
f 125 142 141
f 125 143 142
f 125 144 143
f 125 145 144
f 125 146 145
f 125 147 146
f 125 148 147
f 125 149 148
f 125 150 149
f 125 151 150
f 125 152 151
f 125 153 152
f 125 154 153
f 125 155 154
f 125 156 155
f 125 157 156
f 125 158 157
f 125 159 158
f 125 160 159
f 125 161 160
f 125 162 161
f 125 163 162
f 125 164 163
f 125 165 164
f 125 166 165
f 125 167 166
f 125 168 167
f 125 169 168
f 125 170 169
f 125 171 170
f 125 172 171
f 125 173 172
f 125 174 173
f 125 175 174
f 125 176 175
f 125 177 176
f 125 178 177
f 125 179 178
f 125 180 179
f 125 181 180
f 125 182 181
f 125 183 182
f 125 184 183
f 125 185 184
f 125 186 185
f 125 187 186
f 125 188 187
f 125 189 188
f 125 190 189
f 125 191 190
f 125 192 191
f 125 193 192
f 125 194 193
f 125 195 194
f 125 196 195
f 125 197 196
f 125 198 197
f 125 199 198
f 125 200 199
f 125 201 200
f 125 202 201
f 125 203 202
f 125 204 203
f 125 205 204
f 125 206 205
f 125 207 206
f 125 208 207
f 125 209 208
f 125 210 209
f 125 211 210
f 125 212 211
f 125 213 212
f 125 214 213
f 125 215 214
f 125 216 215
f 125 217 216
f 125 218 217
f 125 219 218
f 125 220 219
f 125 221 220
f 125 222 221
f 125 223 222
f 125 224 223
f 125 225 224
f 125 226 225
f 125 227 226
f 125 228 227
f 125 229 228
f 125 230 229
f 125 231 230
f 125 232 231
f 125 233 232
f 125 234 233
f 125 235 234
f 125 236 235
f 125 237 236
f 125 238 237
f 125 239 238
f 125 240 239
f 125 241 240
f 125 242 241
f 125 243 242
f 125 244 243
f 125 245 244
f 125 246 245
f 125 247 246
f 125 248 247
f 1 125 126
f 1 126 2
f 124 247 248
f 124 123 247
