v 0.50505 -1.0901522005973878 0.0
v 0.53183 -1.0710346750541517 0.0
v 0.59071 -1.025346834509827 0.0
v 0.60606 -1.0130058500157368 0.0
v 0.64627 -0.9796621686211364 0.0
v 0.7039300000000001 -0.9339779961223087 0.0
v 0.70707 -0.9316714056348312 0.0
v 0.77038 -0.8882918453565156 0.0
v 0.8080800000000001 -0.8658143801679681 0.0
v 0.85321 -0.842609239610562 0.0
v 0.9090900000000001 -0.8176050293453803 0.0
v 0.96714 -0.796921075330169 0.0
v 1.0101 -0.7832244634472478 0.0
v 1.1111 -0.7592597938875487 0.0
v 1.1606 -0.7512328999850113 0.0
v 1.2121 -0.7433372669630343 0.0
v 1.3131000000000002 -0.733975247433134 0.0
v 1.4141 -0.7300308939537219 0.0
v 1.5152 -0.7307015442818452 0.0
v 1.6162 -0.7353114038002824 0.0
v 1.7172 -0.7432666799431469 0.0
v 1.7927000000000002 -0.7512328999850113 0.0
v 1.8182 -0.7540194319250011 0.0
v 1.9192 -0.7671038961117214 0.0
v 2.0202 -0.7819563239486689 0.0
v 2.1134 -0.796921075330169 0.0
v 2.1212 -0.7982292651977017 0.0
v 2.2222 -0.8158167437344459 0.0
v 2.3232 -0.834293512442696 0.0
v 2.3675 -0.842609239610562 0.0
v 2.4242 -0.8536982117761744 0.0
v 2.5253 -0.8738086907121327 0.0
v 2.5967000000000002 -0.8882918453565156 0.0
v 2.6263 -0.8944932895719839 0.0
v 2.7273 -0.9155422899872039 0.0
v 2.8158 -0.9339779961223087 0.0
v 2.8283 -0.9366343630828915 0.0
v 2.9293 -0.957468405540089 0.0
v 3.0303 -0.9778013141908097 0.0
v 3.0399000000000003 -0.9796621686211364 0.0
v 3.1313 -0.9972989924095139 0.0
v 3.2323000000000004 -1.0160299630760237 0.0
v 3.2843 -1.025346834509827 0.0
v 3.3333 -1.033906037026688 0.0
v 3.4343000000000004 -1.050920836935403 0.0
v 3.5354 -1.0674056584378244 0.0
v 3.5582 -1.0710346750541517 0.0
v 3.6364 -1.0830006695765333 0.0
v 3.7374 -1.0981243382942354 0.0
v 3.8384 -1.1130404180878204 0.0
v 3.8635 -1.1167073413930888 0.0
v 3.9394 -1.1275259245876943 0.0
v 4.0404 -1.142076461073285 0.0
v 4.1414 -1.157396319323229 0.0
v 4.1729 -1.1624150361064465 0.0
v 4.2424 -1.1736232576980814 0.0
v 4.3434 -1.191562787591726 0.0
v 4.4258999999999995 -1.2080918452756948 0.0
v 4.4444 -1.21200105751229 0.0
v 4.5455000000000005 -1.2354526912632187 0.0
v 4.6154 -1.2537740196788796 0.0
v 4.6465 -1.262640903755262 0.0
v 4.7475000000000005 -1.2938485157306607 0.0
v 4.7648 -1.2994637145284502 0.0
v 4.8485000000000005 -1.329214765805725 0.0
v 4.892200000000001 -1.3451580002694379 0.0
v 4.9495 -1.367858889362906 0.0
v 5.008500000000001 -1.3908291687001455 0.0
v 5.0505 -1.4083247801704148 0.0
v 5.121900000000001 -1.4365124869996928 0.0
v 5.1514999999999995 -1.4488144936695235 0.0
v 5.2384 -1.4822016219040945 0.0
v 5.2525 -1.4878592432795772 0.0
v 5.3535 -1.5248762421411006 0.0
v 5.3625 -1.5278875659527047 0.0
v 5.4545 -1.5600860484974142 0.0
v 5.4954 -1.5735793664371158 0.0
v 5.555599999999999 -1.5942488668573833 0.0
v 5.630599999999999 -1.6192603348517975 0.0
v 5.6566 -1.6283480533519046 0.0
v 5.7576 -1.6635218951063355 0.0
v 5.761699999999999 -1.6649520751636622 0.0
v 5.8586 -1.7010755631444956 0.0
v 5.8837 -1.7106334708679232 0.0
v 5.959600000000001 -1.7420492109148318 0.0
v 5.9934 -1.7563165446749562 0.0
v 6.0606 -1.7876092285525387 0.0
v 6.091200000000001 -1.802007049253181 0.0
v 6.1616 -1.838962370174989 0.0
v 6.1783 -1.8476898534867139 0.0
v 6.2562 -1.8933788817186847 0.0
v 6.2626 -1.8975996034280376 0.0
v 6.3272 -1.9390597556884905 0.0
v 6.3636 -1.9659444947871358 0.0
v 6.3904 -1.984747779961804 0.0
v 6.4472000000000005 -2.0304377926270494 0.0
v 6.464600000000001 -2.0466512169709197 0.0
v 6.4987 -2.076130494543006 0.0
v 6.5437 -2.1217895688592963 0.0
v 6.5657000000000005 -2.148510110610999 0.0
v 6.5827 -2.1674945616357215 0.0
v 6.6161 -2.2131723090468194 0.0
v 6.6415 -2.2588527006423034 0.0
v 6.6589 -2.304555150120442 0.0
v 6.6667 -2.3444315745748625 0.0
v 6.6678999999999995 -2.350228629754865 0.0
v 6.667999999999999 -2.395920192670632 0.0
v 6.6667 -2.402089350572097 0.0
v 6.6587000000000005 -2.441600884296931 0.0
v 6.6397 -2.487293958006441 0.0
v 6.6106 -2.532970835487072 0.0
v 6.571000000000001 -2.5786621272780117 0.0
v 6.5657000000000005 -2.5835614794762094 0.0
v 6.5247 -2.624343986126047 0.0
v 6.4682 -2.6700323652879177 0.0
v 6.464600000000001 -2.6725042413009095 0.0
v 6.405900000000001 -2.7157192889840265 0.0
v 6.3636 -2.7421514524427213 0.0
v 6.3343 -2.761401557498631 0.0
v 6.2626 -2.8018288771555424 0.0
v 6.253500000000001 -2.8070883274543217 0.0
v 6.1627 -2.8527726777871476 0.0
v 6.1616 -2.853260046800144 0.0
v 6.0606 -2.897978782356854 0.0
v 6.059500000000001 -2.898461893020106 0.0
v 5.959600000000001 -2.9372620543374572 0.0
v 5.9413 -2.944146951232541 0.0
v 5.8586 -2.9724111386488326 0.0
v 5.805700000000001 -2.9898323266827824 0.0
v 5.7576 -3.0045792939022116 0.0
v 5.6566 -3.034909073367748 0.0
v 5.6545000000000005 -3.0355097850895585 0.0
v 5.555599999999999 -3.0645702922440257 0.0
v 5.5005999999999995 -3.0812032393065754 0.0
v 5.4545 -3.0947854678195585 0.0
v 5.3535 -3.12668326338829 0.0
v 5.3529 -3.1268778688352667 0.0
v 5.2525 -3.1613080954162163 0.0
v 5.2226 -3.172573743771971 0.0
v 5.1514999999999995 -3.198931869932209 0.0
v 5.1038 -3.2182728535714475 0.0
v 5.0505 -3.2392494134767245 0.0
v 4.992 -3.2639436342188497 0.0
v 4.9495 -3.2811925036053236 0.0
v 4.8822 -3.3096301674258988 0.0
v 4.8485000000000005 -3.3232108350776466 0.0
v 4.7694 -3.3553173987845595 0.0
v 4.7475000000000005 -3.3638187375641775 0.0
v 4.649 -3.4010039798994827 0.0
v 4.6465 -3.4019172505175748 0.0
v 4.5455000000000005 -3.4371002194216618 0.0
v 4.5156 -3.4466924663715273 0.0
v 4.4444 -3.4690115586556876 0.0
v 4.3614999999999995 -3.492369208227911 0.0
v 4.3434 -3.4974549096131766 0.0
v 4.2424 -3.523095838252568 0.0
v 4.1751 -3.538058205908395 0.0
v 4.1414 -3.545727596960689 0.0
v 4.0404 -3.566095579077949 0.0
v 3.9399 -3.5837427186992477 0.0
v 3.9394 -3.5838333099557094 0.0
v 3.8384 -3.60045012164601 0.0
v 3.7374 -3.6153186566114788 0.0
v 3.6364 -3.62905263772839 0.0
v 3.6335 -3.629429988036405 0.0
v 3.5354 -3.643057683751453 0.0
v 3.4343000000000004 -3.657237568032927 0.0
v 3.3333 -3.6723380395199023 0.0
v 3.3166 -3.6751181523167986 0.0
v 3.2323000000000004 -3.689690586256356 0.0
v 3.1313 -3.709252996016282 0.0
v 3.0783 -3.720804062076856 0.0
v 3.0303 -3.731443707556579 0.0
v 2.9293 -3.7560424457642356 0.0
v 2.8895999999999997 -3.7664872062396944 0.0
v 2.8283 -3.782479790682766 0.0
v 2.7273 -3.8098626051382367 0.0
v 2.719 -3.8121710813273726 0.0
v 2.6263 -3.8377083576537396 0.0
v 2.5521000000000003 -3.8578569521353536 0.0
v 2.5253 -3.865103974641128 0.0
v 2.4242 -3.8918941128129934 0.0
v 2.3786 -3.9035457569605603 0.0
v 2.3232 -3.9178572139029946 0.0
v 2.2222 -3.9427766940804236 0.0
v 2.1947 -3.949228946245321 0.0
v 2.1212 -3.967140634170644 0.0
v 2.0202 -3.9902944461284386 0.0
v 1.9986000000000002 -3.9949151607174977 0.0
v 1.9192 -4.01292154554456 0.0
v 1.8182 -4.033785516842231 0.0
v 1.7802000000000002 -4.040602340114074 0.0
v 1.7172 -4.0528477834008605 0.0
v 1.6162 -4.06881642992222 0.0
v 1.5152 -4.0801573109701845 0.0
v 1.4141 -4.085789890327986 0.0
v 1.3131000000000002 -4.084361758551405 0.0
v 1.2121 -4.0744873049856905 0.0
v 1.1111 -4.054881054862772 0.0
v 1.0622 -4.040602340114074 0.0
v 1.0101 -4.026247181477773 0.0
v 0.92232 -3.9949151607174977 0.0
v 0.9090900000000001 -3.99056082999402 0.0
v 0.8080800000000001 -3.9521868168381484 0.0
v 0.80085 -3.949228946245321 0.0
v 0.70707 -3.9146498585403426 0.0
v 0.67731 -3.9035457569605603 0.0
v 0.60606 -3.879313832598485 0.0
v 0.54105 -3.8578569521353536 0.0
v 0.50505 -3.846745231360295 0.0
v 0.50505 -1.0901522005973878 -0.19494999999999998
v 0.53183 -1.0710346750541517 -0.16817000000000001
v 0.59071 -1.025346834509827 -0.10929000000000003
v 0.60606 -1.0130058500157368 -0.09393999999999998
v 0.64627 -0.9796621686211364 -0.05373000000000005
v 0.7039300000000001 -0.9339779961223087 0.003930000000000007
v 0.70707 -0.9316714056348312 0.007069999999999937
v 0.77038 -0.8882918453565156 0.07037999999999997
v 0.8080800000000001 -0.8658143801679681 0.10808000000000006
v 0.85321 -0.842609239610562 0.15320999999999999
v 0.9090900000000001 -0.8176050293453803 0.20909000000000005
v 0.96714 -0.796921075330169 0.26714
v 1.0101 -0.7832244634472478 0.31010000000000004
v 1.1111 -0.7592597938875487 0.4111
v 1.1606 -0.7512328999850113 0.4606
v 1.2121 -0.7433372669630343 0.5121
v 1.3131000000000002 -0.733975247433134 0.6131000000000001
v 1.4141 -0.7300308939537219 0.7141
v 1.5152 -0.7307015442818452 0.8152000000000001
v 1.6162 -0.7353114038002824 0.9162
v 1.7172 -0.7432666799431469 1.0172
v 1.7927000000000002 -0.7512328999850113 1.0927000000000002
v 1.8182 -0.7540194319250011 1.1181999999999999
v 1.9192 -0.7671038961117214 1.2191999999999998
v 2.0202 -0.7819563239486689 1.3202
v 2.1134 -0.796921075330169 1.4134
v 2.1212 -0.7982292651977017 1.4212
v 2.2222 -0.8158167437344459 1.5222
v 2.3232 -0.834293512442696 1.6232
v 2.3675 -0.842609239610562 1.6675
v 2.4242 -0.8536982117761744 1.7242
v 2.5253 -0.8738086907121327 1.8253000000000001
v 2.5967000000000002 -0.8882918453565156 1.8967000000000003
v 2.6263 -0.8944932895719839 1.9263
v 2.7273 -0.9155422899872039 2.0273000000000003
v 2.8158 -0.9339779961223087 2.1157999999999997
v 2.8283 -0.9366343630828915 2.1283
v 2.9293 -0.957468405540089 2.2293000000000003
v 3.0303 -0.9778013141908097 2.3303
v 3.0399000000000003 -0.9796621686211364 2.3399
v 3.1313 -0.9972989924095139 2.4313
v 3.2323000000000004 -1.0160299630760237 2.5323
v 3.2843 -1.025346834509827 2.5843000000000003
v 3.3333 -1.033906037026688 2.6332999999999998
v 3.4343000000000004 -1.050920836935403 2.7343
v 3.5354 -1.0674056584378244 2.8354000000000004
v 3.5582 -1.0710346750541517 2.8582
v 3.6364 -1.0830006695765333 2.9364
v 3.7374 -1.0981243382942354 3.0374000000000003
v 3.8384 -1.1130404180878204 3.1384
v 3.8635 -1.1167073413930888 3.1635000000000004
v 3.9394 -1.1275259245876943 3.2394
v 4.0404 -1.142076461073285 3.3404000000000003
v 4.1414 -1.157396319323229 3.4414
v 4.1729 -1.1624150361064465 3.4729
v 4.2424 -1.1736232576980814 3.5424
v 4.3434 -1.191562787591726 3.6433999999999997
v 4.4258999999999995 -1.2080918452756948 3.7258999999999998
v 4.4444 -1.21200105751229 3.7444
v 4.5455000000000005 -1.2354526912632187 3.8455000000000004
v 4.6154 -1.2537740196788796 3.9154000000000004
v 4.6465 -1.262640903755262 3.9465
v 4.7475000000000005 -1.2938485157306607 4.0475
v 4.7648 -1.2994637145284502 4.0648
v 4.8485000000000005 -1.329214765805725 4.1485
v 4.892200000000001 -1.3451580002694379 4.192200000000001
v 4.9495 -1.367858889362906 4.2495
v 5.008500000000001 -1.3908291687001455 4.3085
v 5.0505 -1.4083247801704148 4.3505
v 5.121900000000001 -1.4365124869996928 4.421900000000001
v 5.1514999999999995 -1.4488144936695235 4.4515
v 5.2384 -1.4822016219040945 4.5384
v 5.2525 -1.4878592432795772 4.5525
v 5.3535 -1.5248762421411006 4.6535
v 5.3625 -1.5278875659527047 4.6625000000000005
v 5.4545 -1.5600860484974142 4.7545
v 5.4954 -1.5735793664371158 4.7954
v 5.555599999999999 -1.5942488668573833 4.8556
v 5.630599999999999 -1.6192603348517975 4.930599999999999
v 5.6566 -1.6283480533519046 4.9566
v 5.7576 -1.6635218951063355 5.0576
v 5.761699999999999 -1.6649520751636622 5.0617
v 5.8586 -1.7010755631444956 5.1586
v 5.8837 -1.7106334708679232 5.1837
v 5.959600000000001 -1.7420492109148318 5.259600000000001
v 5.9934 -1.7563165446749562 5.2934
v 6.0606 -1.7876092285525387 5.3606
v 6.091200000000001 -1.802007049253181 5.3912
v 6.1616 -1.838962370174989 5.4616
v 6.1783 -1.8476898534867139 5.478300000000001
v 6.2562 -1.8933788817186847 5.5562000000000005
v 6.2626 -1.8975996034280376 5.5626
v 6.3272 -1.9390597556884905 5.6272
v 6.3636 -1.9659444947871358 5.663600000000001
v 6.3904 -1.984747779961804 5.6903999999999995
v 6.4472000000000005 -2.0304377926270494 5.7472
v 6.464600000000001 -2.0466512169709197 5.764600000000001
v 6.4987 -2.076130494543006 5.7987
v 6.5437 -2.1217895688592963 5.8437
v 6.5657000000000005 -2.148510110610999 5.8657
v 6.5827 -2.1674945616357215 5.8827
v 6.6161 -2.2131723090468194 5.9161
v 6.6415 -2.2588527006423034 5.9415
v 6.6589 -2.304555150120442 5.9589
v 6.6667 -2.3444315745748625 5.9666999999999994
v 6.6678999999999995 -2.350228629754865 5.967899999999999
v 6.667999999999999 -2.395920192670632 5.968
v 6.6667 -2.402089350572097 5.9666999999999994
v 6.6587000000000005 -2.441600884296931 5.9587
v 6.6397 -2.487293958006441 5.9397
v 6.6106 -2.532970835487072 5.9106
v 6.571000000000001 -2.5786621272780117 5.871
v 6.5657000000000005 -2.5835614794762094 5.8657
v 6.5247 -2.624343986126047 5.8247
v 6.4682 -2.6700323652879177 5.7682
v 6.464600000000001 -2.6725042413009095 5.764600000000001
v 6.405900000000001 -2.7157192889840265 5.705900000000001
v 6.3636 -2.7421514524427213 5.663600000000001
v 6.3343 -2.761401557498631 5.6343
v 6.2626 -2.8018288771555424 5.5626
v 6.253500000000001 -2.8070883274543217 5.5535000000000005
v 6.1627 -2.8527726777871476 5.4627
v 6.1616 -2.853260046800144 5.4616
v 6.0606 -2.897978782356854 5.3606
v 6.059500000000001 -2.898461893020106 5.359500000000001
v 5.959600000000001 -2.9372620543374572 5.259600000000001
v 5.9413 -2.944146951232541 5.2413
v 5.8586 -2.9724111386488326 5.1586
v 5.805700000000001 -2.9898323266827824 5.105700000000001
v 5.7576 -3.0045792939022116 5.0576
v 5.6566 -3.034909073367748 4.9566
v 5.6545000000000005 -3.0355097850895585 4.9545
v 5.555599999999999 -3.0645702922440257 4.8556
v 5.5005999999999995 -3.0812032393065754 4.800599999999999
v 5.4545 -3.0947854678195585 4.7545
v 5.3535 -3.12668326338829 4.6535
v 5.3529 -3.1268778688352667 4.6529
v 5.2525 -3.1613080954162163 4.5525
v 5.2226 -3.172573743771971 4.5226
v 5.1514999999999995 -3.198931869932209 4.4515
v 5.1038 -3.2182728535714475 4.4038
v 5.0505 -3.2392494134767245 4.3505
v 4.992 -3.2639436342188497 4.292
v 4.9495 -3.2811925036053236 4.2495
v 4.8822 -3.3096301674258988 4.1822
v 4.8485000000000005 -3.3232108350776466 4.1485
v 4.7694 -3.3553173987845595 4.0694
v 4.7475000000000005 -3.3638187375641775 4.0475
v 4.649 -3.4010039798994827 3.949
v 4.6465 -3.4019172505175748 3.9465
v 4.5455000000000005 -3.4371002194216618 3.8455000000000004
v 4.5156 -3.4466924663715273 3.8156
v 4.4444 -3.4690115586556876 3.7444
v 4.3614999999999995 -3.492369208227911 3.6614999999999998
v 4.3434 -3.4974549096131766 3.6433999999999997
v 4.2424 -3.523095838252568 3.5424
v 4.1751 -3.538058205908395 3.4751
v 4.1414 -3.545727596960689 3.4414
v 4.0404 -3.566095579077949 3.3404000000000003
v 3.9399 -3.5837427186992477 3.2399
v 3.9394 -3.5838333099557094 3.2394
v 3.8384 -3.60045012164601 3.1384
v 3.7374 -3.6153186566114788 3.0374000000000003
v 3.6364 -3.62905263772839 2.9364
v 3.6335 -3.629429988036405 2.9335000000000004
v 3.5354 -3.643057683751453 2.8354000000000004
v 3.4343000000000004 -3.657237568032927 2.7343
v 3.3333 -3.6723380395199023 2.6332999999999998
v 3.3166 -3.6751181523167986 2.6166000000000005
v 3.2323000000000004 -3.689690586256356 2.5323
v 3.1313 -3.709252996016282 2.4313
v 3.0783 -3.720804062076856 2.3783
v 3.0303 -3.731443707556579 2.3303
v 2.9293 -3.7560424457642356 2.2293000000000003
v 2.8895999999999997 -3.7664872062396944 2.1896
v 2.8283 -3.782479790682766 2.1283
v 2.7273 -3.8098626051382367 2.0273000000000003
v 2.719 -3.8121710813273726 2.0189999999999997
v 2.6263 -3.8377083576537396 1.9263
v 2.5521000000000003 -3.8578569521353536 1.8521
v 2.5253 -3.865103974641128 1.8253000000000001
v 2.4242 -3.8918941128129934 1.7242
v 2.3786 -3.9035457569605603 1.6786
v 2.3232 -3.9178572139029946 1.6232
v 2.2222 -3.9427766940804236 1.5222
v 2.1947 -3.949228946245321 1.4947
v 2.1212 -3.967140634170644 1.4212
v 2.0202 -3.9902944461284386 1.3202
v 1.9986000000000002 -3.9949151607174977 1.2986000000000002
v 1.9192 -4.01292154554456 1.2191999999999998
v 1.8182 -4.033785516842231 1.1181999999999999
v 1.7802000000000002 -4.040602340114074 1.0802
v 1.7172 -4.0528477834008605 1.0172
v 1.6162 -4.06881642992222 0.9162
v 1.5152 -4.0801573109701845 0.8152000000000001
v 1.4141 -4.085789890327986 0.7141
v 1.3131000000000002 -4.084361758551405 0.6131000000000001
v 1.2121 -4.0744873049856905 0.5121
v 1.1111 -4.054881054862772 0.4111
v 1.0622 -4.040602340114074 0.3622
v 1.0101 -4.026247181477773 0.31010000000000004
v 0.92232 -3.9949151607174977 0.22232
v 0.9090900000000001 -3.99056082999402 0.20909000000000005
v 0.8080800000000001 -3.9521868168381484 0.10808000000000006
v 0.80085 -3.949228946245321 0.10084999999999994
v 0.70707 -3.9146498585403426 0.007069999999999937
v 0.67731 -3.9035457569605603 -0.022690000000000054
v 0.60606 -3.879313832598485 -0.09393999999999998
v 0.54105 -3.8578569521353536 -0.15895000000000004
v 0.50505 -3.846745231360295 -0.19494999999999998
f 1 211 212
f 1 212 2
f 2 212 213
f 2 213 3
f 3 213 214
f 3 214 4
f 4 214 215
f 4 215 5
f 5 215 216
f 5 216 6
f 6 216 217
f 6 217 7
f 7 217 218
f 7 218 8
f 8 218 219
f 8 219 9
f 9 219 220
f 9 220 10
f 10 220 221
f 10 221 11
f 11 221 222
f 11 222 12
f 12 222 223
f 12 223 13
f 13 223 224
f 13 224 14
f 14 224 225
f 14 225 15
f 15 225 226
f 15 226 16
f 16 226 227
f 16 227 17
f 17 227 228
f 17 228 18
f 18 228 229
f 18 229 19
f 19 229 230
f 19 230 20
f 20 230 231
f 20 231 21
f 21 231 232
f 21 232 22
f 22 232 233
f 22 233 23
f 23 233 234
f 23 234 24
f 24 234 235
f 24 235 25
f 25 235 236
f 25 236 26
f 26 236 237
f 26 237 27
f 27 237 238
f 27 238 28
f 28 238 239
f 28 239 29
f 29 239 240
f 29 240 30
f 30 240 241
f 30 241 31
f 31 241 242
f 31 242 32
f 32 242 243
f 32 243 33
f 33 243 244
f 33 244 34
f 34 244 245
f 34 245 35
f 35 245 246
f 35 246 36
f 36 246 247
f 36 247 37
f 37 247 248
f 37 248 38
f 38 248 249
f 38 249 39
f 39 249 250
f 39 250 40
f 40 250 251
f 40 251 41
f 41 251 252
f 41 252 42
f 42 252 253
f 42 253 43
f 43 253 254
f 43 254 44
f 44 254 255
f 44 255 45
f 45 255 256
f 45 256 46
f 46 256 257
f 46 257 47
f 47 257 258
f 47 258 48
f 48 258 259
f 48 259 49
f 49 259 260
f 49 260 50
f 50 260 261
f 50 261 51
f 51 261 262
f 51 262 52
f 52 262 263
f 52 263 53
f 53 263 264
f 53 264 54
f 54 264 265
f 54 265 55
f 55 265 266
f 55 266 56
f 56 266 267
f 56 267 57
f 57 267 268
f 57 268 58
f 58 268 269
f 58 269 59
f 59 269 270
f 59 270 60
f 60 270 271
f 60 271 61
f 61 271 272
f 61 272 62
f 62 272 273
f 62 273 63
f 63 273 274
f 63 274 64
f 64 274 275
f 64 275 65
f 65 275 276
f 65 276 66
f 66 276 277
f 66 277 67
f 67 277 278
f 67 278 68
f 68 278 279
f 68 279 69
f 69 279 280
f 69 280 70
f 70 280 281
f 70 281 71
f 71 281 282
f 71 282 72
f 72 282 283
f 72 283 73
f 73 283 284
f 73 284 74
f 74 284 285
f 74 285 75
f 75 285 286
f 75 286 76
f 76 286 287
f 76 287 77
f 77 287 288
f 77 288 78
f 78 288 289
f 78 289 79
f 79 289 290
f 79 290 80
f 80 290 291
f 80 291 81
f 81 291 292
f 81 292 82
f 82 292 293
f 82 293 83
f 83 293 294
f 83 294 84
f 84 294 295
f 84 295 85
f 85 295 296
f 85 296 86
f 86 296 297
f 86 297 87
f 87 297 298
f 87 298 88
f 88 298 299
f 88 299 89
f 89 299 300
f 89 300 90
f 90 300 301
f 90 301 91
f 91 301 302
f 91 302 92
f 92 302 303
f 92 303 93
f 93 303 304
f 93 304 94
f 94 304 305
f 94 305 95
f 95 305 306
f 95 306 96
f 96 306 307
f 96 307 97
f 97 307 308
f 97 308 98
f 98 308 309
f 98 309 99
f 99 309 310
f 99 310 100
f 100 310 311
f 100 311 101
f 101 311 312
f 101 312 102
f 102 312 313
f 102 313 103
f 103 313 314
f 103 314 104
f 104 314 315
f 104 315 105
f 105 315 316
f 105 316 106
f 106 316 317
f 106 317 107
f 107 317 318
f 107 318 108
f 108 318 319
f 108 319 109
f 109 319 320
f 109 320 110
f 110 320 321
f 110 321 111
f 111 321 322
f 111 322 112
f 112 322 323
f 112 323 113
f 113 323 324
f 113 324 114
f 114 324 325
f 114 325 115
f 115 325 326
f 115 326 116
f 116 326 327
f 116 327 117
f 117 327 328
f 117 328 118
f 118 328 329
f 118 329 119
f 119 329 330
f 119 330 120
f 120 330 331
f 120 331 121
f 121 331 332
f 121 332 122
f 122 332 333
f 122 333 123
f 123 333 334
f 123 334 124
f 124 334 335
f 124 335 125
f 125 335 336
f 125 336 126
f 126 336 337
f 126 337 127
f 127 337 338
f 127 338 128
f 128 338 339
f 128 339 129
f 129 339 340
f 129 340 130
f 130 340 341
f 130 341 131
f 131 341 342
f 131 342 132
f 132 342 343
f 132 343 133
f 133 343 344
f 133 344 134
f 134 344 345
f 134 345 135
f 135 345 346
f 135 346 136
f 136 346 347
f 136 347 137
f 137 347 348
f 137 348 138
f 138 348 349
f 138 349 139
f 139 349 350
f 139 350 140
f 140 350 351
f 140 351 141
f 141 351 352
f 141 352 142
f 142 352 353
f 142 353 143
f 143 353 354
f 143 354 144
f 144 354 355
f 144 355 145
f 145 355 356
f 145 356 146
f 146 356 357
f 146 357 147
f 147 357 358
f 147 358 148
f 148 358 359
f 148 359 149
f 149 359 360
f 149 360 150
f 150 360 361
f 150 361 151
f 151 361 362
f 151 362 152
f 152 362 363
f 152 363 153
f 153 363 364
f 153 364 154
f 154 364 365
f 154 365 155
f 155 365 366
f 155 366 156
f 156 366 367
f 156 367 157
f 157 367 368
f 157 368 158
f 158 368 369
f 158 369 159
f 159 369 370
f 159 370 160
f 160 370 371
f 160 371 161
f 161 371 372
f 161 372 162
f 162 372 373
f 162 373 163
f 163 373 374
f 163 374 164
f 164 374 375
f 164 375 165
f 165 375 376
f 165 376 166
f 166 376 377
f 166 377 167
f 167 377 378
f 167 378 168
f 168 378 379
f 168 379 169
f 169 379 380
f 169 380 170
f 170 380 381
f 170 381 171
f 171 381 382
f 171 382 172
f 172 382 383
f 172 383 173
f 173 383 384
f 173 384 174
f 174 384 385
f 174 385 175
f 175 385 386
f 175 386 176
f 176 386 387
f 176 387 177
f 177 387 388
f 177 388 178
f 178 388 389
f 178 389 179
f 179 389 390
f 179 390 180
f 180 390 391
f 180 391 181
f 181 391 392
f 181 392 182
f 182 392 393
f 182 393 183
f 183 393 394
f 183 394 184
f 184 394 395
f 184 395 185
f 185 395 396
f 185 396 186
f 186 396 397
f 186 397 187
f 187 397 398
f 187 398 188
f 188 398 399
f 188 399 189
f 189 399 400
f 189 400 190
f 190 400 401
f 190 401 191
f 191 401 402
f 191 402 192
f 192 402 403
f 192 403 193
f 193 403 404
f 193 404 194
f 194 404 405
f 194 405 195
f 195 405 406
f 195 406 196
f 196 406 407
f 196 407 197
f 197 407 408
f 197 408 198
f 198 408 409
f 198 409 199
f 199 409 410
f 199 410 200
f 200 410 411
f 200 411 201
f 201 411 412
f 201 412 202
f 202 412 413
f 202 413 203
f 203 413 414
f 203 414 204
f 204 414 415
f 204 415 205
f 205 415 416
f 205 416 206
f 206 416 417
f 206 417 207
f 207 417 418
f 207 418 208
f 208 418 419
f 208 419 209
f 209 419 420
f 209 420 210
f 1 2 3
f 1 3 4
f 1 4 5
f 1 5 6
f 1 6 7
f 1 7 8
f 1 8 9
f 1 9 10
f 1 10 11
f 1 11 12
f 1 12 13
f 1 13 14
f 1 14 15
f 1 15 16
f 1 16 17
f 1 17 18
f 1 18 19
f 1 19 20
f 1 20 21
f 1 21 22
f 1 22 23
f 1 23 24
f 1 24 25
f 1 25 26
f 1 26 27
f 1 27 28
f 1 28 29
f 1 29 30
f 1 30 31
f 1 31 32
f 1 32 33
f 1 33 34
f 1 34 35
f 1 35 36
f 1 36 37
f 1 37 38
f 1 38 39
f 1 39 40
f 1 40 41
f 1 41 42
f 1 42 43
f 1 43 44
f 1 44 45
f 1 45 46
f 1 46 47
f 1 47 48
f 1 48 49
f 1 49 50
f 1 50 51
f 1 51 52
f 1 52 53
f 1 53 54
f 1 54 55
f 1 55 56
f 1 56 57
f 1 57 58
f 1 58 59
f 1 59 60
f 1 60 61
f 1 61 62
f 1 62 63
f 1 63 64
f 1 64 65
f 1 65 66
f 1 66 67
f 1 67 68
f 1 68 69
f 1 69 70
f 1 70 71
f 1 71 72
f 1 72 73
f 1 73 74
f 1 74 75
f 1 75 76
f 1 76 77
f 1 77 78
f 1 78 79
f 1 79 80
f 1 80 81
f 1 81 82
f 1 82 83
f 1 83 84
f 1 84 85
f 1 85 86
f 1 86 87
f 1 87 88
f 1 88 89
f 1 89 90
f 1 90 91
f 1 91 92
f 1 92 93
f 1 93 94
f 1 94 95
f 1 95 96
f 1 96 97
f 1 97 98
f 1 98 99
f 1 99 100
f 1 100 101
f 1 101 102
f 1 102 103
f 1 103 104
f 1 104 105
f 1 105 106
f 1 106 107
f 1 107 108
f 1 108 109
f 1 109 110
f 1 110 111
f 1 111 112
f 1 112 113
f 1 113 114
f 1 114 115
f 1 115 116
f 1 116 117
f 1 117 118
f 1 118 119
f 1 119 120
f 1 120 121
f 1 121 122
f 1 122 123
f 1 123 124
f 1 124 125
f 1 125 126
f 1 126 127
f 1 127 128
f 1 128 129
f 1 129 130
f 1 130 131
f 1 131 132
f 1 132 133
f 1 133 134
f 1 134 135
f 1 135 136
f 1 136 137
f 1 137 138
f 1 138 139
f 1 139 140
f 1 140 141
f 1 141 142
f 1 142 143
f 1 143 144
f 1 144 145
f 1 145 146
f 1 146 147
f 1 147 148
f 1 148 149
f 1 149 150
f 1 150 151
f 1 151 152
f 1 152 153
f 1 153 154
f 1 154 155
f 1 155 156
f 1 156 157
f 1 157 158
f 1 158 159
f 1 159 160
f 1 160 161
f 1 161 162
f 1 162 163
f 1 163 164
f 1 164 165
f 1 165 166
f 1 166 167
f 1 167 168
f 1 168 169
f 1 169 170
f 1 170 171
f 1 171 172
f 1 172 173
f 1 173 174
f 1 174 175
f 1 175 176
f 1 176 177
f 1 177 178
f 1 178 179
f 1 179 180
f 1 180 181
f 1 181 182
f 1 182 183
f 1 183 184
f 1 184 185
f 1 185 186
f 1 186 187
f 1 187 188
f 1 188 189
f 1 189 190
f 1 190 191
f 1 191 192
f 1 192 193
f 1 193 194
f 1 194 195
f 1 195 196
f 1 196 197
f 1 197 198
f 1 198 199
f 1 199 200
f 1 200 201
f 1 201 202
f 1 202 203
f 1 203 204
f 1 204 205
f 1 205 206
f 1 206 207
f 1 207 208
f 1 208 209
f 1 209 210
f 211 213 212
f 211 214 213
f 211 215 214
f 211 216 215
f 211 217 216
f 211 218 217
f 211 219 218
f 211 220 219
f 211 221 220
f 211 222 221
f 211 223 222
f 211 224 223
f 211 225 224
f 211 226 225
f 211 227 226
f 211 228 227
f 211 229 228
f 211 230 229
f 211 231 230
f 211 232 231
f 211 233 232
f 211 234 233
f 211 235 234
f 211 236 235
f 211 237 236
f 211 238 237
f 211 239 238
f 211 240 239
f 211 241 240
f 211 242 241
f 211 243 242
f 211 244 243
f 211 245 244
f 211 246 245
f 211 247 246
f 211 248 247
f 211 249 248
f 211 250 249
f 211 251 250
f 211 252 251
f 211 253 252
f 211 254 253
f 211 255 254
f 211 256 255
f 211 257 256
f 211 258 257
f 211 259 258
f 211 260 259
f 211 261 260
f 211 262 261
f 211 263 262
f 211 264 263
f 211 265 264
f 211 266 265
f 211 267 266
f 211 268 267
f 211 269 268
f 211 270 269
f 211 271 270
f 211 272 271
f 211 273 272
f 211 274 273
f 211 275 274
f 211 276 275
f 211 277 276
f 211 278 277
f 211 279 278
f 211 280 279
f 211 281 280
f 211 282 281
f 211 283 282
f 211 284 283
f 211 285 284
f 211 286 285
f 211 287 286
f 211 288 287
f 211 289 288
f 211 290 289
f 211 291 290
f 211 292 291
f 211 293 292
f 211 294 293
f 211 295 294
f 211 296 295
f 211 297 296
f 211 298 297
f 211 299 298
f 211 300 299
f 211 301 300
f 211 302 301
f 211 303 302
f 211 304 303
f 211 305 304
f 211 306 305
f 211 307 306
f 211 308 307
f 211 309 308
f 211 310 309
f 211 311 310
f 211 312 311
f 211 313 312
f 211 314 313
f 211 315 314
f 211 316 315
f 211 317 316
f 211 318 317
f 211 319 318
f 211 320 319
f 211 321 320
f 211 322 321
f 211 323 322
f 211 324 323
f 211 325 324
f 211 326 325
f 211 327 326
f 211 328 327
f 211 329 328
f 211 330 329
f 211 331 330
f 211 332 331
f 211 333 332
f 211 334 333
f 211 335 334
f 211 336 335
f 211 337 336
f 211 338 337
f 211 339 338
f 211 340 339
f 211 341 340
f 211 342 341
f 211 343 342
f 211 344 343
f 211 345 344
f 211 346 345
f 211 347 346
f 211 348 347
f 211 349 348
f 211 350 349
f 211 351 350
f 211 352 351
f 211 353 352
f 211 354 353
f 211 355 354
f 211 356 355
f 211 357 356
f 211 358 357
f 211 359 358
f 211 360 359
f 211 361 360
f 211 362 361
f 211 363 362
f 211 364 363
f 211 365 364
f 211 366 365
f 211 367 366
f 211 368 367
f 211 369 368
f 211 370 369
f 211 371 370
f 211 372 371
f 211 373 372
f 211 374 373
f 211 375 374
f 211 376 375
f 211 377 376
f 211 378 377
f 211 379 378
f 211 380 379
f 211 381 380
f 211 382 381
f 211 383 382
f 211 384 383
f 211 385 384
f 211 386 385
f 211 387 386
f 211 388 387
f 211 389 388
f 211 390 389
f 211 391 390
f 211 392 391
f 211 393 392
f 211 394 393
f 211 395 394
f 211 396 395
f 211 397 396
f 211 398 397
f 211 399 398
f 211 400 399
f 211 401 400
f 211 402 401
f 211 403 402
f 211 404 403
f 211 405 404
f 211 406 405
f 211 407 406
f 211 408 407
f 211 409 408
f 211 410 409
f 211 411 410
f 211 412 411
f 211 413 412
f 211 414 413
f 211 415 414
f 211 416 415
f 211 417 416
f 211 418 417
f 211 419 418
f 211 420 419
f 1 211 212
f 1 212 2
f 210 419 420
f 210 209 419
