v 0.50505 -1.1726321166862932 0.0
v 0.5719 -1.175105740887016 0.0
v 0.60606 -1.1762070554786852 0.0
v 0.70707 -1.1768433845037387 0.0
v 0.7746599999999999 -1.175105740887016 0.0
v 0.8080800000000001 -1.174176146992237 0.0
v 0.9090900000000001 -1.1672877899009315 0.0
v 1.0101 -1.155973344739902 0.0
v 1.1111 -1.1398790864012365 0.0
v 1.1185 -1.138365863678996 0.0
v 1.2121 -1.1177682949263723 0.0
v 1.2743 -1.1016096172331113 0.0
v 1.3131000000000002 -1.0909278525816077 0.0
v 1.4003999999999999 -1.0649070271596361 0.0
v 1.4141 -1.0606978403536116 0.0
v 1.5152 -1.0298705640039525 0.0
v 1.5211000000000001 -1.02816441942447 0.0
v 1.6162 -1.0015606526425729 0.0
v 1.6585 -0.9914210212916932 0.0
v 1.7172 -0.9779018580162564 0.0
v 1.8182 -0.9598900616706154 0.0
v 1.8616 -0.9546814075654586 0.0
v 1.9192 -0.9479578920010874 0.0
v 2.0202 -0.9422908727478121 0.0
v 2.1212 -0.9429995933660407 0.0
v 2.2222 -0.9502918166516068 0.0
v 2.2546 -0.9546814075654586 0.0
v 2.3232 -0.9645236160831745 0.0
v 2.4242 -0.9858035671632757 0.0
v 2.4452000000000003 -0.9914210212916932 0.0
v 2.5253 -1.0142264293892296 0.0
v 2.5672 -1.02816441942447 0.0
v 2.6263 -1.0489077014837713 0.0
v 2.6685000000000003 -1.0649070271596361 0.0
v 2.7273 -1.087923320925297 0.0
v 2.7618 -1.1016096172331113 0.0
v 2.8283 -1.1283992687178064 0.0
v 2.8539999999999996 -1.138365863678996 0.0
v 2.9293 -1.1675536211968247 0.0
v 2.9501999999999997 -1.175105740887016 0.0
v 3.0303 -1.2037941395880671 0.0
v 3.0549 -1.2118410963753423 0.0
v 3.1313 -1.2366883817646153 0.0
v 3.1716 -1.2485617413595744 0.0
v 3.2323000000000004 -1.2665374302343064 0.0
v 3.3021 -1.2853097130902673 0.0
v 3.3333 -1.2938485157306607 0.0
v 3.4343000000000004 -1.3191268882818388 0.0
v 3.4469 -1.322033128631803 0.0
v 3.5354 -1.3430539229128484 0.0
v 3.6054000000000004 -1.358772151492734 0.0
v 3.6364 -1.3659744217025986 0.0
v 3.7374 -1.388367667157301 0.0
v 3.7707 -1.3955185935633627 0.0
v 3.8384 -1.410659156691367 0.0
v 3.9362 -1.4322475382686006 0.0
v 3.9394 -1.4329692908744056 0.0
v 4.0404 -1.456016634817745 0.0
v 4.097300000000001 -1.4689820589625704 0.0
v 4.1414 -1.479676062868145 0.0
v 4.2424 -1.5042397209898988 0.0
v 4.2485 -1.5057196160843416 0.0
v 4.3434 -1.5304046265928246 0.0
v 4.3894 -1.5424519473759766 0.0
v 4.4444 -1.5581443411709963 0.0
v 4.5174 -1.5791888919086445 0.0
v 4.5455000000000005 -1.5880587102284094 0.0
v 4.6323 -1.615929019937377 0.0
v 4.6465 -1.6209788303136192 0.0
v 4.734100000000001 -1.6526620587364305 0.0
v 4.7475000000000005 -1.658059118703411 0.0
v 4.824 -1.6893976628212823 0.0
v 4.8485000000000005 -1.70069506577435 0.0
v 4.9033 -1.7261319889951892 0.0
v 4.9495 -1.7504081021303424 0.0
v 4.9733 -1.762866042462013 0.0
v 5.0359 -1.7996024258846957 0.0
v 5.0505 -1.809270088427866 0.0
v 5.0927 -1.8363367771688859 0.0
v 5.143300000000001 -1.8730705343496918 0.0
v 5.1514999999999995 -1.8797494109266033 0.0
v 5.1907000000000005 -1.9098073338663024 0.0
v 5.233300000000001 -1.9465455988198237 0.0
v 5.2525 -1.9650981732095187 0.0
v 5.2729 -1.9832788930273137 0.0
v 5.3096000000000005 -2.0200296335426993 0.0
v 5.341900000000001 -2.0567524405674393 0.0
v 5.3535 -2.0718820073061255 0.0
v 5.3717 -2.0934917270109317 0.0
v 5.3980999999999995 -2.1302372478852294 0.0
v 5.419700000000001 -2.1669626638571673 0.0
v 5.4365 -2.203685470881907 0.0
v 5.448300000000001 -2.2404244330836076 0.0
v 5.4545 -2.2742271460457704 0.0
v 5.4551 -2.2771735554857853 0.0
v 5.456799999999999 -2.313909382835271 0.0
v 5.4545 -2.333225536261715 0.0
v 5.4527 -2.3506356082589543 0.0
v 5.443 -2.3873720270198104 0.0
v 5.427300000000001 -2.4241135954680346 0.0
v 5.405399999999999 -2.460837728633412 0.0
v 5.3771 -2.4975792206687166 0.0
v 5.3535 -2.522887431083118 0.0
v 5.343 -2.534318077278092 0.0
v 5.3033 -2.571044657029212 0.0
v 5.2573 -2.6077873189927243 0.0
v 5.2525 -2.611245214834831 0.0
v 5.205800000000001 -2.644517365902283 0.0
v 5.1514999999999995 -2.678991565883618 0.0
v 5.1479 -2.6812593326020187 0.0
v 5.0833 -2.7179948547402435 0.0
v 5.0505 -2.7349677563108177 0.0
v 5.011 -2.7547304690237535 0.0
v 4.9495 -2.782644587930918 0.0
v 4.9295 -2.791466076857191 0.0
v 4.8485000000000005 -2.8237415053738726 0.0
v 4.8370999999999995 -2.8281957138016076 0.0
v 4.7475000000000005 -2.860080348599739 0.0
v 4.734 -2.864932118815084 0.0
v 4.6465 -2.8938116780952265 0.0
v 4.6241 -2.90167078491046 0.0
v 4.5455000000000005 -2.9272625460621313 0.0
v 4.5149 -2.9384046318963657 0.0
v 4.4444 -2.962913638554869 0.0
v 4.4145 -2.975142182301861 0.0
v 4.3434 -3.0035466931021317 0.0
v 4.3261 -3.011866356527724 0.0
v 4.2504 -3.048597158401606 0.0
v 4.2424 -3.052578525044658 0.0
v 4.1876 -3.0853619436861295 0.0
v 4.1414 -3.1140435625480776 0.0
v 4.1304 -3.1220847507108695 0.0
v 4.0811 -3.1588146467242266 0.0
v 4.0404 -3.1895745255372496 0.0
v 4.0333 -3.1955675806597275 0.0
v 3.9888 -3.2322844020803947 0.0
v 3.9419 -3.2690223347292338 0.0
v 3.9394 -3.2709116394104814 0.0
v 3.8938 -3.3057596722628215 0.0
v 3.8401 -3.3425016362777282 0.0
v 3.8384 -3.3435661323861248 0.0
v 3.7796 -3.379232978167667 0.0
v 3.7374 -3.401865607199611 0.0
v 3.7086 -3.415974411376566 0.0
v 3.6364 -3.4476695770227925 0.0
v 3.6232 -3.452706226511029 0.0
v 3.5354 -3.483530243043181 0.0
v 3.5151 -3.4894381388405793 0.0
v 3.4343000000000004 -3.5116695018181314 0.0
v 3.3674 -3.5261712142724195 0.0
v 3.3333 -3.5333652727496356 0.0
v 3.2323000000000004 -3.549714235679461 0.0
v 3.1313 -3.5608985064297434 0.0
v 3.1007 -3.5629111450476487 0.0
v 3.0303 -3.5677084611285497 0.0
v 2.9293 -3.570005576761788 0.0
v 2.8283 -3.5677084611285497 0.0
v 2.7589 -3.5629111450476487 0.0
v 2.7273 -3.5609343151792507 0.0
v 2.6263 -3.550326211208258 0.0
v 2.5253 -3.5354840032266903 0.0
v 2.4759 -3.5261712142724195 0.0
v 2.4242 -3.5175125930164413 0.0
v 2.3232 -3.497316744472857 0.0
v 2.2887 -3.4894381388405793 0.0
v 2.2222 -3.476005132579179 0.0
v 2.1212 -3.4540212057026003 0.0
v 2.1155 -3.452706226511029 0.0
v 2.0202 -3.4332256252374047 0.0
v 1.9354 -3.415974411376566 0.0
v 1.9192 -3.4129810527575426 0.0
v 1.8182 -3.3947842790470375 0.0
v 1.7249 -3.379232978167667 0.0
v 1.7172 -3.378052508612645 0.0
v 1.6162 -3.3638187375641775 0.0
v 1.5152 -3.3516610517906726 0.0
v 1.4217 -3.3425016362777282 0.0
v 1.4141 -3.34179051989268 0.0
v 1.3131000000000002 -3.334393428283704 0.0
v 1.2121 -3.329235115569424 0.0
v 1.1111 -3.326151451483546 0.0
v 1.0101 -3.3249611530373544 0.0
v 0.9090900000000001 -3.3254746127953307 0.0
v 0.8080800000000001 -3.3273589343863303 0.0
v 0.70707 -3.3303934787403455 0.0
v 0.60606 -3.334252642334231 0.0
v 0.50505 -3.3386556655787003 0.0
v 0.50505 -1.1726321166862932 -0.19494999999999998
v 0.5719 -1.175105740887016 -0.12810000000000002
v 0.60606 -1.1762070554786852 -0.09393999999999998
v 0.70707 -1.1768433845037387 0.007069999999999937
v 0.7746599999999999 -1.175105740887016 0.07465999999999993
v 0.8080800000000001 -1.174176146992237 0.10808000000000006
v 0.9090900000000001 -1.1672877899009315 0.20909000000000005
v 1.0101 -1.155973344739902 0.31010000000000004
v 1.1111 -1.1398790864012365 0.4111
v 1.1185 -1.138365863678996 0.4184999999999999
v 1.2121 -1.1177682949263723 0.5121
v 1.2743 -1.1016096172331113 0.5743
v 1.3131000000000002 -1.0909278525816077 0.6131000000000001
v 1.4003999999999999 -1.0649070271596361 0.7003999999999999
v 1.4141 -1.0606978403536116 0.7141
v 1.5152 -1.0298705640039525 0.8152000000000001
v 1.5211000000000001 -1.02816441942447 0.8211000000000002
v 1.6162 -1.0015606526425729 0.9162
v 1.6585 -0.9914210212916932 0.9584999999999999
v 1.7172 -0.9779018580162564 1.0172
v 1.8182 -0.9598900616706154 1.1181999999999999
v 1.8616 -0.9546814075654586 1.1616
v 1.9192 -0.9479578920010874 1.2191999999999998
v 2.0202 -0.9422908727478121 1.3202
v 2.1212 -0.9429995933660407 1.4212
v 2.2222 -0.9502918166516068 1.5222
v 2.2546 -0.9546814075654586 1.5546000000000002
v 2.3232 -0.9645236160831745 1.6232
v 2.4242 -0.9858035671632757 1.7242
v 2.4452000000000003 -0.9914210212916932 1.7452
v 2.5253 -1.0142264293892296 1.8253000000000001
v 2.5672 -1.02816441942447 1.8672000000000004
v 2.6263 -1.0489077014837713 1.9263
v 2.6685000000000003 -1.0649070271596361 1.9685000000000004
v 2.7273 -1.087923320925297 2.0273000000000003
v 2.7618 -1.1016096172331113 2.0618000000000003
v 2.8283 -1.1283992687178064 2.1283
v 2.8539999999999996 -1.138365863678996 2.154
v 2.9293 -1.1675536211968247 2.2293000000000003
v 2.9501999999999997 -1.175105740887016 2.2502
v 3.0303 -1.2037941395880671 2.3303
v 3.0549 -1.2118410963753423 2.3549
v 3.1313 -1.2366883817646153 2.4313
v 3.1716 -1.2485617413595744 2.4716000000000005
v 3.2323000000000004 -1.2665374302343064 2.5323
v 3.3021 -1.2853097130902673 2.6020999999999996
v 3.3333 -1.2938485157306607 2.6332999999999998
v 3.4343000000000004 -1.3191268882818388 2.7343
v 3.4469 -1.322033128631803 2.7469
v 3.5354 -1.3430539229128484 2.8354000000000004
v 3.6054000000000004 -1.358772151492734 2.9054
v 3.6364 -1.3659744217025986 2.9364
v 3.7374 -1.388367667157301 3.0374000000000003
v 3.7707 -1.3955185935633627 3.0707
v 3.8384 -1.410659156691367 3.1384
v 3.9362 -1.4322475382686006 3.2362
v 3.9394 -1.4329692908744056 3.2394
v 4.0404 -1.456016634817745 3.3404000000000003
v 4.097300000000001 -1.4689820589625704 3.3973000000000004
v 4.1414 -1.479676062868145 3.4414
v 4.2424 -1.5042397209898988 3.5424
v 4.2485 -1.5057196160843416 3.5485
v 4.3434 -1.5304046265928246 3.6433999999999997
v 4.3894 -1.5424519473759766 3.6894
v 4.4444 -1.5581443411709963 3.7444
v 4.5174 -1.5791888919086445 3.8174
v 4.5455000000000005 -1.5880587102284094 3.8455000000000004
v 4.6323 -1.615929019937377 3.9323
v 4.6465 -1.6209788303136192 3.9465
v 4.734100000000001 -1.6526620587364305 4.0341000000000005
v 4.7475000000000005 -1.658059118703411 4.0475
v 4.824 -1.6893976628212823 4.124
v 4.8485000000000005 -1.70069506577435 4.1485
v 4.9033 -1.7261319889951892 4.2033
v 4.9495 -1.7504081021303424 4.2495
v 4.9733 -1.762866042462013 4.2733
v 5.0359 -1.7996024258846957 4.3359
v 5.0505 -1.809270088427866 4.3505
v 5.0927 -1.8363367771688859 4.3927
v 5.143300000000001 -1.8730705343496918 4.443300000000001
v 5.1514999999999995 -1.8797494109266033 4.4515
v 5.1907000000000005 -1.9098073338663024 4.4907
v 5.233300000000001 -1.9465455988198237 4.5333000000000006
v 5.2525 -1.9650981732095187 4.5525
v 5.2729 -1.9832788930273137 4.5729
v 5.3096000000000005 -2.0200296335426993 4.6096
v 5.341900000000001 -2.0567524405674393 4.641900000000001
v 5.3535 -2.0718820073061255 4.6535
v 5.3717 -2.0934917270109317 4.6716999999999995
v 5.3980999999999995 -2.1302372478852294 4.698099999999999
v 5.419700000000001 -2.1669626638571673 4.7197000000000005
v 5.4365 -2.203685470881907 4.7364999999999995
v 5.448300000000001 -2.2404244330836076 4.7483
v 5.4545 -2.2742271460457704 4.7545
v 5.4551 -2.2771735554857853 4.7551
v 5.456799999999999 -2.313909382835271 4.756799999999999
v 5.4545 -2.333225536261715 4.7545
v 5.4527 -2.3506356082589543 4.7527
v 5.443 -2.3873720270198104 4.742999999999999
v 5.427300000000001 -2.4241135954680346 4.7273000000000005
v 5.405399999999999 -2.460837728633412 4.7054
v 5.3771 -2.4975792206687166 4.6771
v 5.3535 -2.522887431083118 4.6535
v 5.343 -2.534318077278092 4.643
v 5.3033 -2.571044657029212 4.603300000000001
v 5.2573 -2.6077873189927243 4.557300000000001
v 5.2525 -2.611245214834831 4.5525
v 5.205800000000001 -2.644517365902283 4.505800000000001
v 5.1514999999999995 -2.678991565883618 4.4515
v 5.1479 -2.6812593326020187 4.4479
v 5.0833 -2.7179948547402435 4.3833
v 5.0505 -2.7349677563108177 4.3505
v 5.011 -2.7547304690237535 4.311
v 4.9495 -2.782644587930918 4.2495
v 4.9295 -2.791466076857191 4.2295
v 4.8485000000000005 -2.8237415053738726 4.1485
v 4.8370999999999995 -2.8281957138016076 4.1371
v 4.7475000000000005 -2.860080348599739 4.0475
v 4.734 -2.864932118815084 4.034
v 4.6465 -2.8938116780952265 3.9465
v 4.6241 -2.90167078491046 3.9241
v 4.5455000000000005 -2.9272625460621313 3.8455000000000004
v 4.5149 -2.9384046318963657 3.8149
v 4.4444 -2.962913638554869 3.7444
v 4.4145 -2.975142182301861 3.7145
v 4.3434 -3.0035466931021317 3.6433999999999997
v 4.3261 -3.011866356527724 3.6261
v 4.2504 -3.048597158401606 3.5504000000000002
v 4.2424 -3.052578525044658 3.5424
v 4.1876 -3.0853619436861295 3.4876
v 4.1414 -3.1140435625480776 3.4414
v 4.1304 -3.1220847507108695 3.4304
v 4.0811 -3.1588146467242266 3.3811
v 4.0404 -3.1895745255372496 3.3404000000000003
v 4.0333 -3.1955675806597275 3.3333
v 3.9888 -3.2322844020803947 3.2888
v 3.9419 -3.2690223347292338 3.2419000000000002
v 3.9394 -3.2709116394104814 3.2394
v 3.8938 -3.3057596722628215 3.1938
v 3.8401 -3.3425016362777282 3.1401
v 3.8384 -3.3435661323861248 3.1384
v 3.7796 -3.379232978167667 3.0795999999999997
v 3.7374 -3.401865607199611 3.0374000000000003
v 3.7086 -3.415974411376566 3.0086000000000004
v 3.6364 -3.4476695770227925 2.9364
v 3.6232 -3.452706226511029 2.9232
v 3.5354 -3.483530243043181 2.8354000000000004
v 3.5151 -3.4894381388405793 2.8151
v 3.4343000000000004 -3.5116695018181314 2.7343
v 3.3674 -3.5261712142724195 2.6674
v 3.3333 -3.5333652727496356 2.6332999999999998
v 3.2323000000000004 -3.549714235679461 2.5323
v 3.1313 -3.5608985064297434 2.4313
v 3.1007 -3.5629111450476487 2.4007
v 3.0303 -3.5677084611285497 2.3303
v 2.9293 -3.570005576761788 2.2293000000000003
v 2.8283 -3.5677084611285497 2.1283
v 2.7589 -3.5629111450476487 2.0589
v 2.7273 -3.5609343151792507 2.0273000000000003
v 2.6263 -3.550326211208258 1.9263
v 2.5253 -3.5354840032266903 1.8253000000000001
v 2.4759 -3.5261712142724195 1.7759
v 2.4242 -3.5175125930164413 1.7242
v 2.3232 -3.497316744472857 1.6232
v 2.2887 -3.4894381388405793 1.5887
v 2.2222 -3.476005132579179 1.5222
v 2.1212 -3.4540212057026003 1.4212
v 2.1155 -3.452706226511029 1.4155000000000002
v 2.0202 -3.4332256252374047 1.3202
v 1.9354 -3.415974411376566 1.2354
v 1.9192 -3.4129810527575426 1.2191999999999998
v 1.8182 -3.3947842790470375 1.1181999999999999
v 1.7249 -3.379232978167667 1.0249000000000001
v 1.7172 -3.378052508612645 1.0172
v 1.6162 -3.3638187375641775 0.9162
v 1.5152 -3.3516610517906726 0.8152000000000001
v 1.4217 -3.3425016362777282 0.7216999999999999
v 1.4141 -3.34179051989268 0.7141
v 1.3131000000000002 -3.334393428283704 0.6131000000000001
v 1.2121 -3.329235115569424 0.5121
v 1.1111 -3.326151451483546 0.4111
v 1.0101 -3.3249611530373544 0.31010000000000004
v 0.9090900000000001 -3.3254746127953307 0.20909000000000005
v 0.8080800000000001 -3.3273589343863303 0.10808000000000006
v 0.70707 -3.3303934787403455 0.007069999999999937
v 0.60606 -3.334252642334231 -0.09393999999999998
v 0.50505 -3.3386556655787003 -0.19494999999999998
f 1 188 189
f 1 189 2
f 2 189 190
f 2 190 3
f 3 190 191
f 3 191 4
f 4 191 192
f 4 192 5
f 5 192 193
f 5 193 6
f 6 193 194
f 6 194 7
f 7 194 195
f 7 195 8
f 8 195 196
f 8 196 9
f 9 196 197
f 9 197 10
f 10 197 198
f 10 198 11
f 11 198 199
f 11 199 12
f 12 199 200
f 12 200 13
f 13 200 201
f 13 201 14
f 14 201 202
f 14 202 15
f 15 202 203
f 15 203 16
f 16 203 204
f 16 204 17
f 17 204 205
f 17 205 18
f 18 205 206
f 18 206 19
f 19 206 207
f 19 207 20
f 20 207 208
f 20 208 21
f 21 208 209
f 21 209 22
f 22 209 210
f 22 210 23
f 23 210 211
f 23 211 24
f 24 211 212
f 24 212 25
f 25 212 213
f 25 213 26
f 26 213 214
f 26 214 27
f 27 214 215
f 27 215 28
f 28 215 216
f 28 216 29
f 29 216 217
f 29 217 30
f 30 217 218
f 30 218 31
f 31 218 219
f 31 219 32
f 32 219 220
f 32 220 33
f 33 220 221
f 33 221 34
f 34 221 222
f 34 222 35
f 35 222 223
f 35 223 36
f 36 223 224
f 36 224 37
f 37 224 225
f 37 225 38
f 38 225 226
f 38 226 39
f 39 226 227
f 39 227 40
f 40 227 228
f 40 228 41
f 41 228 229
f 41 229 42
f 42 229 230
f 42 230 43
f 43 230 231
f 43 231 44
f 44 231 232
f 44 232 45
f 45 232 233
f 45 233 46
f 46 233 234
f 46 234 47
f 47 234 235
f 47 235 48
f 48 235 236
f 48 236 49
f 49 236 237
f 49 237 50
f 50 237 238
f 50 238 51
f 51 238 239
f 51 239 52
f 52 239 240
f 52 240 53
f 53 240 241
f 53 241 54
f 54 241 242
f 54 242 55
f 55 242 243
f 55 243 56
f 56 243 244
f 56 244 57
f 57 244 245
f 57 245 58
f 58 245 246
f 58 246 59
f 59 246 247
f 59 247 60
f 60 247 248
f 60 248 61
f 61 248 249
f 61 249 62
f 62 249 250
f 62 250 63
f 63 250 251
f 63 251 64
f 64 251 252
f 64 252 65
f 65 252 253
f 65 253 66
f 66 253 254
f 66 254 67
f 67 254 255
f 67 255 68
f 68 255 256
f 68 256 69
f 69 256 257
f 69 257 70
f 70 257 258
f 70 258 71
f 71 258 259
f 71 259 72
f 72 259 260
f 72 260 73
f 73 260 261
f 73 261 74
f 74 261 262
f 74 262 75
f 75 262 263
f 75 263 76
f 76 263 264
f 76 264 77
f 77 264 265
f 77 265 78
f 78 265 266
f 78 266 79
f 79 266 267
f 79 267 80
f 80 267 268
f 80 268 81
f 81 268 269
f 81 269 82
f 82 269 270
f 82 270 83
f 83 270 271
f 83 271 84
f 84 271 272
f 84 272 85
f 85 272 273
f 85 273 86
f 86 273 274
f 86 274 87
f 87 274 275
f 87 275 88
f 88 275 276
f 88 276 89
f 89 276 277
f 89 277 90
f 90 277 278
f 90 278 91
f 91 278 279
f 91 279 92
f 92 279 280
f 92 280 93
f 93 280 281
f 93 281 94
f 94 281 282
f 94 282 95
f 95 282 283
f 95 283 96
f 96 283 284
f 96 284 97
f 97 284 285
f 97 285 98
f 98 285 286
f 98 286 99
f 99 286 287
f 99 287 100
f 100 287 288
f 100 288 101
f 101 288 289
f 101 289 102
f 102 289 290
f 102 290 103
f 103 290 291
f 103 291 104
f 104 291 292
f 104 292 105
f 105 292 293
f 105 293 106
f 106 293 294
f 106 294 107
f 107 294 295
f 107 295 108
f 108 295 296
f 108 296 109
f 109 296 297
f 109 297 110
f 110 297 298
f 110 298 111
f 111 298 299
f 111 299 112
f 112 299 300
f 112 300 113
f 113 300 301
f 113 301 114
f 114 301 302
f 114 302 115
f 115 302 303
f 115 303 116
f 116 303 304
f 116 304 117
f 117 304 305
f 117 305 118
f 118 305 306
f 118 306 119
f 119 306 307
f 119 307 120
f 120 307 308
f 120 308 121
f 121 308 309
f 121 309 122
f 122 309 310
f 122 310 123
f 123 310 311
f 123 311 124
f 124 311 312
f 124 312 125
f 125 312 313
f 125 313 126
f 126 313 314
f 126 314 127
f 127 314 315
f 127 315 128
f 128 315 316
f 128 316 129
f 129 316 317
f 129 317 130
f 130 317 318
f 130 318 131
f 131 318 319
f 131 319 132
f 132 319 320
f 132 320 133
f 133 320 321
f 133 321 134
f 134 321 322
f 134 322 135
f 135 322 323
f 135 323 136
f 136 323 324
f 136 324 137
f 137 324 325
f 137 325 138
f 138 325 326
f 138 326 139
f 139 326 327
f 139 327 140
f 140 327 328
f 140 328 141
f 141 328 329
f 141 329 142
f 142 329 330
f 142 330 143
f 143 330 331
f 143 331 144
f 144 331 332
f 144 332 145
f 145 332 333
f 145 333 146
f 146 333 334
f 146 334 147
f 147 334 335
f 147 335 148
f 148 335 336
f 148 336 149
f 149 336 337
f 149 337 150
f 150 337 338
f 150 338 151
f 151 338 339
f 151 339 152
f 152 339 340
f 152 340 153
f 153 340 341
f 153 341 154
f 154 341 342
f 154 342 155
f 155 342 343
f 155 343 156
f 156 343 344
f 156 344 157
f 157 344 345
f 157 345 158
f 158 345 346
f 158 346 159
f 159 346 347
f 159 347 160
f 160 347 348
f 160 348 161
f 161 348 349
f 161 349 162
f 162 349 350
f 162 350 163
f 163 350 351
f 163 351 164
f 164 351 352
f 164 352 165
f 165 352 353
f 165 353 166
f 166 353 354
f 166 354 167
f 167 354 355
f 167 355 168
f 168 355 356
f 168 356 169
f 169 356 357
f 169 357 170
f 170 357 358
f 170 358 171
f 171 358 359
f 171 359 172
f 172 359 360
f 172 360 173
f 173 360 361
f 173 361 174
f 174 361 362
f 174 362 175
f 175 362 363
f 175 363 176
f 176 363 364
f 176 364 177
f 177 364 365
f 177 365 178
f 178 365 366
f 178 366 179
f 179 366 367
f 179 367 180
f 180 367 368
f 180 368 181
f 181 368 369
f 181 369 182
f 182 369 370
f 182 370 183
f 183 370 371
f 183 371 184
f 184 371 372
f 184 372 185
f 185 372 373
f 185 373 186
f 186 373 374
f 186 374 187
f 1 2 3
f 1 3 4
f 1 4 5
f 1 5 6
f 1 6 7
f 1 7 8
f 1 8 9
f 1 9 10
f 1 10 11
f 1 11 12
f 1 12 13
f 1 13 14
f 1 14 15
f 1 15 16
f 1 16 17
f 1 17 18
f 1 18 19
f 1 19 20
f 1 20 21
f 1 21 22
f 1 22 23
f 1 23 24
f 1 24 25
f 1 25 26
f 1 26 27
f 1 27 28
f 1 28 29
f 1 29 30
f 1 30 31
f 1 31 32
f 1 32 33
f 1 33 34
f 1 34 35
f 1 35 36
f 1 36 37
f 1 37 38
f 1 38 39
f 1 39 40
f 1 40 41
f 1 41 42
f 1 42 43
f 1 43 44
f 1 44 45
f 1 45 46
f 1 46 47
f 1 47 48
f 1 48 49
f 1 49 50
f 1 50 51
f 1 51 52
f 1 52 53
f 1 53 54
f 1 54 55
f 1 55 56
f 1 56 57
f 1 57 58
f 1 58 59
f 1 59 60
f 1 60 61
f 1 61 62
f 1 62 63
f 1 63 64
f 1 64 65
f 1 65 66
f 1 66 67
f 1 67 68
f 1 68 69
f 1 69 70
f 1 70 71
f 1 71 72
f 1 72 73
f 1 73 74
f 1 74 75
f 1 75 76
f 1 76 77
f 1 77 78
f 1 78 79
f 1 79 80
f 1 80 81
f 1 81 82
f 1 82 83
f 1 83 84
f 1 84 85
f 1 85 86
f 1 86 87
f 1 87 88
f 1 88 89
f 1 89 90
f 1 90 91
f 1 91 92
f 1 92 93
f 1 93 94
f 1 94 95
f 1 95 96
f 1 96 97
f 1 97 98
f 1 98 99
f 1 99 100
f 1 100 101
f 1 101 102
f 1 102 103
f 1 103 104
f 1 104 105
f 1 105 106
f 1 106 107
f 1 107 108
f 1 108 109
f 1 109 110
f 1 110 111
f 1 111 112
f 1 112 113
f 1 113 114
f 1 114 115
f 1 115 116
f 1 116 117
f 1 117 118
f 1 118 119
f 1 119 120
f 1 120 121
f 1 121 122
f 1 122 123
f 1 123 124
f 1 124 125
f 1 125 126
f 1 126 127
f 1 127 128
f 1 128 129
f 1 129 130
f 1 130 131
f 1 131 132
f 1 132 133
f 1 133 134
f 1 134 135
f 1 135 136
f 1 136 137
f 1 137 138
f 1 138 139
f 1 139 140
f 1 140 141
f 1 141 142
f 1 142 143
f 1 143 144
f 1 144 145
f 1 145 146
f 1 146 147
f 1 147 148
f 1 148 149
f 1 149 150
f 1 150 151
f 1 151 152
f 1 152 153
f 1 153 154
f 1 154 155
f 1 155 156
f 1 156 157
f 1 157 158
f 1 158 159
f 1 159 160
f 1 160 161
f 1 161 162
f 1 162 163
f 1 163 164
f 1 164 165
f 1 165 166
f 1 166 167
f 1 167 168
f 1 168 169
f 1 169 170
f 1 170 171
f 1 171 172
f 1 172 173
f 1 173 174
f 1 174 175
f 1 175 176
f 1 176 177
f 1 177 178
f 1 178 179
f 1 179 180
f 1 180 181
f 1 181 182
f 1 182 183
f 1 183 184
f 1 184 185
f 1 185 186
f 1 186 187
f 188 190 189
f 188 191 190
f 188 192 191
f 188 193 192
f 188 194 193
f 188 195 194
f 188 196 195
f 188 197 196
f 188 198 197
f 188 199 198
f 188 200 199
f 188 201 200
f 188 202 201
f 188 203 202
f 188 204 203
f 188 205 204
f 188 206 205
f 188 207 206
f 188 208 207
f 188 209 208
f 188 210 209
f 188 211 210
f 188 212 211
f 188 213 212
f 188 214 213
f 188 215 214
f 188 216 215
f 188 217 216
f 188 218 217
f 188 219 218
f 188 220 219
f 188 221 220
f 188 222 221
f 188 223 222
f 188 224 223
f 188 225 224
f 188 226 225
f 188 227 226
f 188 228 227
f 188 229 228
f 188 230 229
f 188 231 230
f 188 232 231
f 188 233 232
f 188 234 233
f 188 235 234
f 188 236 235
f 188 237 236
f 188 238 237
f 188 239 238
f 188 240 239
f 188 241 240
f 188 242 241
f 188 243 242
f 188 244 243
f 188 245 244
f 188 246 245
f 188 247 246
f 188 248 247
f 188 249 248
f 188 250 249
f 188 251 250
f 188 252 251
f 188 253 252
f 188 254 253
f 188 255 254
f 188 256 255
f 188 257 256
f 188 258 257
f 188 259 258
f 188 260 259
f 188 261 260
f 188 262 261
f 188 263 262
f 188 264 263
f 188 265 264
f 188 266 265
f 188 267 266
f 188 268 267
f 188 269 268
f 188 270 269
f 188 271 270
f 188 272 271
f 188 273 272
f 188 274 273
f 188 275 274
f 188 276 275
f 188 277 276
f 188 278 277
f 188 279 278
f 188 280 279
f 188 281 280
f 188 282 281
f 188 283 282
f 188 284 283
f 188 285 284
f 188 286 285
f 188 287 286
f 188 288 287
f 188 289 288
f 188 290 289
f 188 291 290
f 188 292 291
f 188 293 292
f 188 294 293
f 188 295 294
f 188 296 295
f 188 297 296
f 188 298 297
f 188 299 298
f 188 300 299
f 188 301 300
f 188 302 301
f 188 303 302
f 188 304 303
f 188 305 304
f 188 306 305
f 188 307 306
f 188 308 307
f 188 309 308
f 188 310 309
f 188 311 310
f 188 312 311
f 188 313 312
f 188 314 313
f 188 315 314
f 188 316 315
f 188 317 316
f 188 318 317
f 188 319 318
f 188 320 319
f 188 321 320
f 188 322 321
f 188 323 322
f 188 324 323
f 188 325 324
f 188 326 325
f 188 327 326
f 188 328 327
f 188 329 328
f 188 330 329
f 188 331 330
f 188 332 331
f 188 333 332
f 188 334 333
f 188 335 334
f 188 336 335
f 188 337 336
f 188 338 337
f 188 339 338
f 188 340 339
f 188 341 340
f 188 342 341
f 188 343 342
f 188 344 343
f 188 345 344
f 188 346 345
f 188 347 346
f 188 348 347
f 188 349 348
f 188 350 349
f 188 351 350
f 188 352 351
f 188 353 352
f 188 354 353
f 188 355 354
f 188 356 355
f 188 357 356
f 188 358 357
f 188 359 358
f 188 360 359
f 188 361 360
f 188 362 361
f 188 363 362
f 188 364 363
f 188 365 364
f 188 366 365
f 188 367 366
f 188 368 367
f 188 369 368
f 188 370 369
f 188 371 370
f 188 372 371
f 188 373 372
f 188 374 373
f 1 188 189
f 1 189 2
f 187 373 374
f 187 186 373
