v 0.0 0.0 0.0
v 2.5317 0.0 0.002
v 2.5297 0.0 0.010060000000000001
v 2.5293 0.0 0.01812
v 2.5313 0.0 0.026180000000000002
v 2.5357 0.0 0.03424
v 2.5408000000000004 0.0 0.0423
v 2.5412 0.0 0.05036
v 2.5288 0.0 0.05842
v 2.5127 0.0 0.06648000000000001
v 2.5087 0.0 0.06914000000000001
v 2.4986 0.0 0.07456
v 2.4905000000000004 0.0 0.08262000000000001
v 2.4878 0.0 0.09068000000000001
v 2.4869 0.0 0.09874
v 2.4716 0.0 0.1068
v 2.4684 0.0 0.10824
v 2.451 0.0 0.11486
v 2.4322 0.0 0.12292
v 2.4281 0.0 0.12474
v 2.4118 0.0 0.13097999999999999
v 2.3881 0.0 0.13904
v 2.3878 0.0 0.13913999999999999
v 2.3566 0.0 0.1471
v 2.3475 0.0 0.14898
v 2.3133000000000004 0.0 0.15516
v 2.3072 0.0 0.15603999999999998
v 2.2669 0.0 0.16154
v 2.2544999999999997 0.0 0.16322
v 2.2266 0.0 0.16658
v 2.1935 0.0 0.17128000000000002
v 2.1863 0.0 0.1723
v 2.1466 0.0 0.17934
v 2.1459 0.0 0.17948
v 2.1118 0.0 0.1874
v 2.1056 0.0 0.1891
v 2.0822 0.0 0.19546000000000002
v 2.0653 0.0 0.1998
v 2.0467 0.0 0.20352
v 2.025 0.0 0.2064
v 1.9847000000000001 0.0 0.20736000000000002
v 1.9444000000000001 0.0 0.20468
v 1.9315 0.0 0.20352
v 1.9041 0.0 0.20104
v 1.8638 0.0 0.19776
v 1.8306 0.0 0.19546000000000002
v 1.8235 0.0 0.19496000000000002
v 1.7832 0.0 0.192
v 1.7429 0.0 0.1879
v 1.7393 0.0 0.1874
v 1.7026 0.0 0.18318
v 1.6651 0.0 0.17934
v 1.6622999999999999 0.0 0.17908000000000002
v 1.6219999999999999 0.0 0.17550000000000002
v 1.5816999999999999 0.0 0.17250000000000001
v 1.5643 0.0 0.17128000000000002
v 1.5413999999999999 0.0 0.16958
v 1.5011 0.0 0.16598
v 1.4766 0.0 0.16322
v 1.4608 0.0 0.16162
v 1.4205 0.0 0.15738
v 1.3974000000000002 0.0 0.15516
v 1.3800999999999999 0.0 0.1536
v 1.3397999999999999 0.0 0.1504
v 1.2994999999999999 0.0 0.14788
v 1.2845 0.0 0.1471
v 1.2592 0.0 0.14538
v 1.2189 0.0 0.14016
v 1.2109 0.0 0.13904
v 1.1786 0.0 0.13498
v 1.1435 0.0 0.13097999999999999
v 1.1383 0.0 0.13044
v 1.098 0.0 0.12688
v 1.0577 0.0 0.12434
v 1.0182 0.0 0.12292
v 1.0173999999999999 0.0 0.12288
v 0.9771 0.0 0.12186
v 0.9368000000000001 0.0 0.12122000000000001
v 0.0 0.0 0.0
v 0.0 -0.1 0.0
v 2.5317 -0.1 0.002
v 2.5297 -0.1 0.010060000000000001
v 2.5293 -0.1 0.01812
v 2.5313 -0.1 0.026180000000000002
v 2.5357 -0.1 0.03424
v 2.5408000000000004 -0.1 0.0423
v 2.5412 -0.1 0.05036
v 2.5288 -0.1 0.05842
v 2.5127 -0.1 0.06648000000000001
v 2.5087 -0.1 0.06914000000000001
v 2.4986 -0.1 0.07456
v 2.4905000000000004 -0.1 0.08262000000000001
v 2.4878 -0.1 0.09068000000000001
v 2.4869 -0.1 0.09874
v 2.4716 -0.1 0.1068
v 2.4684 -0.1 0.10824
v 2.451 -0.1 0.11486
v 2.4322 -0.1 0.12292
v 2.4281 -0.1 0.12474
v 2.4118 -0.1 0.13097999999999999
v 2.3881 -0.1 0.13904
v 2.3878 -0.1 0.13913999999999999
v 2.3566 -0.1 0.1471
v 2.3475 -0.1 0.14898
v 2.3133000000000004 -0.1 0.15516
v 2.3072 -0.1 0.15603999999999998
v 2.2669 -0.1 0.16154
v 2.2544999999999997 -0.1 0.16322
v 2.2266 -0.1 0.16658
v 2.1935 -0.1 0.17128000000000002
v 2.1863 -0.1 0.1723
v 2.1466 -0.1 0.17934
v 2.1459 -0.1 0.17948
v 2.1118 -0.1 0.1874
v 2.1056 -0.1 0.1891
v 2.0822 -0.1 0.19546000000000002
v 2.0653 -0.1 0.1998
v 2.0467 -0.1 0.20352
v 2.025 -0.1 0.2064
v 1.9847000000000001 -0.1 0.20736000000000002
v 1.9444000000000001 -0.1 0.20468
v 1.9315 -0.1 0.20352
v 1.9041 -0.1 0.20104
v 1.8638 -0.1 0.19776
v 1.8306 -0.1 0.19546000000000002
v 1.8235 -0.1 0.19496000000000002
v 1.7832 -0.1 0.192
v 1.7429 -0.1 0.1879
v 1.7393 -0.1 0.1874
v 1.7026 -0.1 0.18318
v 1.6651 -0.1 0.17934
v 1.6622999999999999 -0.1 0.17908000000000002
v 1.6219999999999999 -0.1 0.17550000000000002
v 1.5816999999999999 -0.1 0.17250000000000001
v 1.5643 -0.1 0.17128000000000002
v 1.5413999999999999 -0.1 0.16958
v 1.5011 -0.1 0.16598
v 1.4766 -0.1 0.16322
v 1.4608 -0.1 0.16162
v 1.4205 -0.1 0.15738
v 1.3974000000000002 -0.1 0.15516
v 1.3800999999999999 -0.1 0.1536
v 1.3397999999999999 -0.1 0.1504
v 1.2994999999999999 -0.1 0.14788
v 1.2845 -0.1 0.1471
v 1.2592 -0.1 0.14538
v 1.2189 -0.1 0.14016
v 1.2109 -0.1 0.13904
v 1.1786 -0.1 0.13498
v 1.1435 -0.1 0.13097999999999999
v 1.1383 -0.1 0.13044
v 1.098 -0.1 0.12688
v 1.0577 -0.1 0.12434
v 1.0182 -0.1 0.12292
v 1.0173999999999999 -0.1 0.12288
v 0.9771 -0.1 0.12186
v 0.9368000000000001 -0.1 0.12122000000000001
v 0.0 -0.1 0.0
f 1 80 81
f 1 81 2
f 2 81 82
f 2 82 3
f 3 82 83
f 3 83 4
f 4 83 84
f 4 84 5
f 5 84 85
f 5 85 6
f 6 85 86
f 6 86 7
f 7 86 87
f 7 87 8
f 8 87 88
f 8 88 9
f 9 88 89
f 9 89 10
f 10 89 90
f 10 90 11
f 11 90 91
f 11 91 12
f 12 91 92
f 12 92 13
f 13 92 93
f 13 93 14
f 14 93 94
f 14 94 15
f 15 94 95
f 15 95 16
f 16 95 96
f 16 96 17
f 17 96 97
f 17 97 18
f 18 97 98
f 18 98 19
f 19 98 99
f 19 99 20
f 20 99 100
f 20 100 21
f 21 100 101
f 21 101 22
f 22 101 102
f 22 102 23
f 23 102 103
f 23 103 24
f 24 103 104
f 24 104 25
f 25 104 105
f 25 105 26
f 26 105 106
f 26 106 27
f 27 106 107
f 27 107 28
f 28 107 108
f 28 108 29
f 29 108 109
f 29 109 30
f 30 109 110
f 30 110 31
f 31 110 111
f 31 111 32
f 32 111 112
f 32 112 33
f 33 112 113
f 33 113 34
f 34 113 114
f 34 114 35
f 35 114 115
f 35 115 36
f 36 115 116
f 36 116 37
f 37 116 117
f 37 117 38
f 38 117 118
f 38 118 39
f 39 118 119
f 39 119 40
f 40 119 120
f 40 120 41
f 41 120 121
f 41 121 42
f 42 121 122
f 42 122 43
f 43 122 123
f 43 123 44
f 44 123 124
f 44 124 45
f 45 124 125
f 45 125 46
f 46 125 126
f 46 126 47
f 47 126 127
f 47 127 48
f 48 127 128
f 48 128 49
f 49 128 129
f 49 129 50
f 50 129 130
f 50 130 51
f 51 130 131
f 51 131 52
f 52 131 132
f 52 132 53
f 53 132 133
f 53 133 54
f 54 133 134
f 54 134 55
f 55 134 135
f 55 135 56
f 56 135 136
f 56 136 57
f 57 136 137
f 57 137 58
f 58 137 138
f 58 138 59
f 59 138 139
f 59 139 60
f 60 139 140
f 60 140 61
f 61 140 141
f 61 141 62
f 62 141 142
f 62 142 63
f 63 142 143
f 63 143 64
f 64 143 144
f 64 144 65
f 65 144 145
f 65 145 66
f 66 145 146
f 66 146 67
f 67 146 147
f 67 147 68
f 68 147 148
f 68 148 69
f 69 148 149
f 69 149 70
f 70 149 150
f 70 150 71
f 71 150 151
f 71 151 72
f 72 151 152
f 72 152 73
f 73 152 153
f 73 153 74
f 74 153 154
f 74 154 75
f 75 154 155
f 75 155 76
f 76 155 156
f 76 156 77
f 77 156 157
f 77 157 78
f 78 157 158
f 78 158 79
f 1 2 3
f 1 3 4
f 1 4 5
f 1 5 6
f 1 6 7
f 1 7 8
f 1 8 9
f 1 9 10
f 1 10 11
f 1 11 12
f 1 12 13
f 1 13 14
f 1 14 15
f 1 15 16
f 1 16 17
f 1 17 18
f 1 18 19
f 1 19 20
f 1 20 21
f 1 21 22
f 1 22 23
f 1 23 24
f 1 24 25
f 1 25 26
f 1 26 27
f 1 27 28
f 1 28 29
f 1 29 30
f 1 30 31
f 1 31 32
f 1 32 33
f 1 33 34
f 1 34 35
f 1 35 36
f 1 36 37
f 1 37 38
f 1 38 39
f 1 39 40
f 1 40 41
f 1 41 42
f 1 42 43
f 1 43 44
f 1 44 45
f 1 45 46
f 1 46 47
f 1 47 48
f 1 48 49
f 1 49 50
f 1 50 51
f 1 51 52
f 1 52 53
f 1 53 54
f 1 54 55
f 1 55 56
f 1 56 57
f 1 57 58
f 1 58 59
f 1 59 60
f 1 60 61
f 1 61 62
f 1 62 63
f 1 63 64
f 1 64 65
f 1 65 66
f 1 66 67
f 1 67 68
f 1 68 69
f 1 69 70
f 1 70 71
f 1 71 72
f 1 72 73
f 1 73 74
f 1 74 75
f 1 75 76
f 1 76 77
f 1 77 78
f 1 78 79
f 80 82 81
f 80 83 82
f 80 84 83
f 80 85 84
f 80 86 85
f 80 87 86
f 80 88 87
f 80 89 88
f 80 90 89
f 80 91 90
f 80 92 91
f 80 93 92
f 80 94 93
f 80 95 94
f 80 96 95
f 80 97 96
f 80 98 97
f 80 99 98
f 80 100 99
f 80 101 100
f 80 102 101
f 80 103 102
f 80 104 103
f 80 105 104
f 80 106 105
f 80 107 106
f 80 108 107
f 80 109 108
f 80 110 109
f 80 111 110
f 80 112 111
f 80 113 112
f 80 114 113
f 80 115 114
f 80 116 115
f 80 117 116
f 80 118 117
f 80 119 118
f 80 120 119
f 80 121 120
f 80 122 121
f 80 123 122
f 80 124 123
f 80 125 124
f 80 126 125
f 80 127 126
f 80 128 127
f 80 129 128
f 80 130 129
f 80 131 130
f 80 132 131
f 80 133 132
f 80 134 133
f 80 135 134
f 80 136 135
f 80 137 136
f 80 138 137
f 80 139 138
f 80 140 139
f 80 141 140
f 80 142 141
f 80 143 142
f 80 144 143
f 80 145 144
f 80 146 145
f 80 147 146
f 80 148 147
f 80 149 148
f 80 150 149
f 80 151 150
f 80 152 151
f 80 153 152
f 80 154 153
f 80 155 154
f 80 156 155
f 80 157 156
f 80 158 157
f 1 80 81
f 1 81 2
f 79 157 158
f 79 78 157
