v 0.0 0.0 0.0
v nan 0.0 nan
v 4.2589999999999995 0.0 0.0
v 4.257 0.0 0.006
v 4.254 0.0 0.012199999999999999
v 4.252 0.0 0.0182
v 4.25 0.0 0.0242
v 4.248 0.0 0.0304
v 4.246 0.0 0.0364
v 4.244 0.0 0.0424
v 4.2410000000000005 0.0 0.0484
v 4.239 0.0 0.0546
v 4.237 0.0 0.0572
v 4.236000000000001 0.0 0.0606
v 4.232 0.0 0.06659999999999999
v 4.228 0.0 0.0728
v 4.224 0.0 0.0788
v 4.218999999999999 0.0 0.0848
v 4.213 0.0 0.091
v 4.206 0.0 0.097
v 4.2 0.0 0.10300000000000001
v 4.192 0.0 0.109
v 4.187 0.0 0.1138
v 4.1850000000000005 0.0 0.11520000000000001
v 4.178 0.0 0.1212
v 4.172 0.0 0.1272
v 4.166 0.0 0.13340000000000002
v 4.1610000000000005 0.0 0.1394
v 4.157 0.0 0.1454
v 4.154 0.0 0.15159999999999998
v 4.152 0.0 0.1576
v 4.151000000000001 0.0 0.1636
v 4.151000000000001 0.0 0.1696
v 4.152 0.0 0.1758
v 4.154 0.0 0.18180000000000002
v 4.156000000000001 0.0 0.18780000000000002
v 4.159 0.0 0.194
v 4.162 0.0 0.2
v 4.164 0.0 0.20600000000000002
v 4.166 0.0 0.2122
v 4.165 0.0 0.2182
v 4.163 0.0 0.22419999999999998
v 4.157 0.0 0.23040000000000002
v 4.148000000000001 0.0 0.2364
v 4.136 0.0 0.2422
v 4.136 0.0 0.2424
v 4.118 0.0 0.2484
v 4.096 0.0 0.2546
v 4.086 0.0 0.25680000000000003
v 4.067 0.0 0.26060000000000005
v 4.035 0.0 0.26580000000000004
v 4.03 0.0 0.2666
v 3.985 0.0 0.272
v 3.977 0.0 0.27280000000000004
v 3.9339999999999997 0.0 0.2762
v 3.8880000000000003 0.0 0.2788
v 3.884 0.0 0.279
v 3.833 0.0 0.2808
v 3.7830000000000004 0.0 0.2816
v 3.7319999999999998 0.0 0.2818
v 3.682 0.0 0.2816
v 3.6310000000000002 0.0 0.281
v 3.5810000000000004 0.0 0.2798
v 3.5389999999999997 0.0 0.2788
v 3.5300000000000002 0.0 0.2786
v 3.48 0.0 0.277
v 3.429 0.0 0.2752
v 3.379 0.0 0.2734
v 3.36 0.0 0.27280000000000004
v 3.3280000000000003 0.0 0.2716
v 3.278 0.0 0.2702
v 3.227 0.0 0.2692
v 3.177 0.0 0.26880000000000004
v 3.1260000000000003 0.0 0.269
v 3.0760000000000005 0.0 0.2696
v 3.025 0.0 0.2704
v 2.975 0.0 0.2712
v 2.924 0.0 0.272
v 2.8739999999999997 0.0 0.2726
v 2.8569999999999998 0.0 0.27280000000000004
v 2.823 0.0 0.273
v 2.773 0.0 0.27280000000000004
v 2.757 0.0 0.27280000000000004
v 2.722 0.0 0.2724
v 2.672 0.0 0.27180000000000004
v 2.6210000000000004 0.0 0.2706
v 2.571 0.0 0.269
v 2.52 0.0 0.267
v 2.5140000000000002 0.0 0.2666
v 2.47 0.0 0.26439999999999997
v 2.419 0.0 0.26139999999999997
v 2.41 0.0 0.26060000000000005
v 2.369 0.0 0.25739999999999996
v 2.338 0.0 0.2546
v 2.318 0.0 0.2526
v 2.2840000000000003 0.0 0.2484
v 2.2680000000000002 0.0 0.2464
v 2.2390000000000003 0.0 0.2424
v 2.217 0.0 0.2392
v 2.2 0.0 0.2364
v 2.167 0.0 0.231
v 2.1630000000000003 0.0 0.23040000000000002
v 2.124 0.0 0.22419999999999998
v 2.116 0.0 0.22319999999999998
v 2.081 0.0 0.2182
v 2.066 0.0 0.2164
v 2.031 0.0 0.2122
v 2.015 0.0 0.2104
v 1.9769999999999999 0.0 0.20600000000000002
v 1.965 0.0 0.2048
v 1.921 0.0 0.2
v 1.9140000000000001 0.0 0.1992
v 1.867 0.0 0.194
v 1.864 0.0 0.1936
v 1.817 0.0 0.18780000000000002
v 1.8130000000000002 0.0 0.1874
v 1.772 0.0 0.18180000000000002
v 1.7630000000000001 0.0 0.1804
v 1.732 0.0 0.1758
v 1.712 0.0 0.1722
v 1.6980000000000002 0.0 0.1696
v 1.669 0.0 0.1636
v 1.662 0.0 0.162
v 1.6430000000000002 0.0 0.1576
v 1.619 0.0 0.15159999999999998
v 1.611 0.0 0.1494
v 1.595 0.0 0.1454
v 1.5719999999999998 0.0 0.1394
v 1.561 0.0 0.1366
v 1.546 0.0 0.13340000000000002
v 1.517 0.0 0.1272
v 1.51 0.0 0.126
v 1.483 0.0 0.1212
v 1.46 0.0 0.1174
v 1.445 0.0 0.11520000000000001
v 1.409 0.0 0.1098
v 1.4040000000000001 0.0 0.109
v 1.361 0.0 0.10300000000000001
v 1.359 0.0 0.1026
v 1.318 0.0 0.097
v 1.308 0.0 0.09559999999999999
v 1.274 0.0 0.091
v 1.258 0.0 0.0886
v 1.232 0.0 0.0848
v 1.207 0.0 0.08120000000000001
v 1.19 0.0 0.0788
v 1.157 0.0 0.0736
v 1.151 0.0 0.0728
v 1.114 0.0 0.06659999999999999
v 1.1059999999999999 0.0 0.06540000000000001
v 1.0790000000000002 0.0 0.0606
v 1.056 0.0 0.05620000000000001
v 1.0470000000000002 0.0 0.0546
v 1.0170000000000001 0.0 0.0484
v 1.0050000000000001 0.0 0.046
v 0.9890000000000001 0.0 0.0424
v 0.9620000000000001 0.0 0.0364
v 0.9550000000000001 0.0 0.0346
v 0.937 0.0 0.0304
v 0.913 0.0 0.0242
v 0.904 0.0 0.0218
v 0.89 0.0 0.0182
v 0.868 0.0 0.012199999999999999
v 0.8540000000000001 0.0 0.008
v 0.8470000000000001 0.0 0.006
v 0.8250000000000001 0.0 0.0
v 0.0 0.0 0.0
v 0.0 -0.1 0.0
v nan -0.1 nan
v 4.2589999999999995 -0.1 0.0
v 4.257 -0.1 0.006
v 4.254 -0.1 0.012199999999999999
v 4.252 -0.1 0.0182
v 4.25 -0.1 0.0242
v 4.248 -0.1 0.0304
v 4.246 -0.1 0.0364
v 4.244 -0.1 0.0424
v 4.2410000000000005 -0.1 0.0484
v 4.239 -0.1 0.0546
v 4.237 -0.1 0.0572
v 4.236000000000001 -0.1 0.0606
v 4.232 -0.1 0.06659999999999999
v 4.228 -0.1 0.0728
v 4.224 -0.1 0.0788
v 4.218999999999999 -0.1 0.0848
v 4.213 -0.1 0.091
v 4.206 -0.1 0.097
v 4.2 -0.1 0.10300000000000001
v 4.192 -0.1 0.109
v 4.187 -0.1 0.1138
v 4.1850000000000005 -0.1 0.11520000000000001
v 4.178 -0.1 0.1212
v 4.172 -0.1 0.1272
v 4.166 -0.1 0.13340000000000002
v 4.1610000000000005 -0.1 0.1394
v 4.157 -0.1 0.1454
v 4.154 -0.1 0.15159999999999998
v 4.152 -0.1 0.1576
v 4.151000000000001 -0.1 0.1636
v 4.151000000000001 -0.1 0.1696
v 4.152 -0.1 0.1758
v 4.154 -0.1 0.18180000000000002
v 4.156000000000001 -0.1 0.18780000000000002
v 4.159 -0.1 0.194
v 4.162 -0.1 0.2
v 4.164 -0.1 0.20600000000000002
v 4.166 -0.1 0.2122
v 4.165 -0.1 0.2182
v 4.163 -0.1 0.22419999999999998
v 4.157 -0.1 0.23040000000000002
v 4.148000000000001 -0.1 0.2364
v 4.136 -0.1 0.2422
v 4.136 -0.1 0.2424
v 4.118 -0.1 0.2484
v 4.096 -0.1 0.2546
v 4.086 -0.1 0.25680000000000003
v 4.067 -0.1 0.26060000000000005
v 4.035 -0.1 0.26580000000000004
v 4.03 -0.1 0.2666
v 3.985 -0.1 0.272
v 3.977 -0.1 0.27280000000000004
v 3.9339999999999997 -0.1 0.2762
v 3.8880000000000003 -0.1 0.2788
v 3.884 -0.1 0.279
v 3.833 -0.1 0.2808
v 3.7830000000000004 -0.1 0.2816
v 3.7319999999999998 -0.1 0.2818
v 3.682 -0.1 0.2816
v 3.6310000000000002 -0.1 0.281
v 3.5810000000000004 -0.1 0.2798
v 3.5389999999999997 -0.1 0.2788
v 3.5300000000000002 -0.1 0.2786
v 3.48 -0.1 0.277
v 3.429 -0.1 0.2752
v 3.379 -0.1 0.2734
v 3.36 -0.1 0.27280000000000004
v 3.3280000000000003 -0.1 0.2716
v 3.278 -0.1 0.2702
v 3.227 -0.1 0.2692
v 3.177 -0.1 0.26880000000000004
v 3.1260000000000003 -0.1 0.269
v 3.0760000000000005 -0.1 0.2696
v 3.025 -0.1 0.2704
v 2.975 -0.1 0.2712
v 2.924 -0.1 0.272
v 2.8739999999999997 -0.1 0.2726
v 2.8569999999999998 -0.1 0.27280000000000004
v 2.823 -0.1 0.273
v 2.773 -0.1 0.27280000000000004
v 2.757 -0.1 0.27280000000000004
v 2.722 -0.1 0.2724
v 2.672 -0.1 0.27180000000000004
v 2.6210000000000004 -0.1 0.2706
v 2.571 -0.1 0.269
v 2.52 -0.1 0.267
v 2.5140000000000002 -0.1 0.2666
v 2.47 -0.1 0.26439999999999997
v 2.419 -0.1 0.26139999999999997
v 2.41 -0.1 0.26060000000000005
v 2.369 -0.1 0.25739999999999996
v 2.338 -0.1 0.2546
v 2.318 -0.1 0.2526
v 2.2840000000000003 -0.1 0.2484
v 2.2680000000000002 -0.1 0.2464
v 2.2390000000000003 -0.1 0.2424
v 2.217 -0.1 0.2392
v 2.2 -0.1 0.2364
v 2.167 -0.1 0.231
v 2.1630000000000003 -0.1 0.23040000000000002
v 2.124 -0.1 0.22419999999999998
v 2.116 -0.1 0.22319999999999998
v 2.081 -0.1 0.2182
v 2.066 -0.1 0.2164
v 2.031 -0.1 0.2122
v 2.015 -0.1 0.2104
v 1.9769999999999999 -0.1 0.20600000000000002
v 1.965 -0.1 0.2048
v 1.921 -0.1 0.2
v 1.9140000000000001 -0.1 0.1992
v 1.867 -0.1 0.194
v 1.864 -0.1 0.1936
v 1.817 -0.1 0.18780000000000002
v 1.8130000000000002 -0.1 0.1874
v 1.772 -0.1 0.18180000000000002
v 1.7630000000000001 -0.1 0.1804
v 1.732 -0.1 0.1758
v 1.712 -0.1 0.1722
v 1.6980000000000002 -0.1 0.1696
v 1.669 -0.1 0.1636
v 1.662 -0.1 0.162
v 1.6430000000000002 -0.1 0.1576
v 1.619 -0.1 0.15159999999999998
v 1.611 -0.1 0.1494
v 1.595 -0.1 0.1454
v 1.5719999999999998 -0.1 0.1394
v 1.561 -0.1 0.1366
v 1.546 -0.1 0.13340000000000002
v 1.517 -0.1 0.1272
v 1.51 -0.1 0.126
v 1.483 -0.1 0.1212
v 1.46 -0.1 0.1174
v 1.445 -0.1 0.11520000000000001
v 1.409 -0.1 0.1098
v 1.4040000000000001 -0.1 0.109
v 1.361 -0.1 0.10300000000000001
v 1.359 -0.1 0.1026
v 1.318 -0.1 0.097
v 1.308 -0.1 0.09559999999999999
v 1.274 -0.1 0.091
v 1.258 -0.1 0.0886
v 1.232 -0.1 0.0848
v 1.207 -0.1 0.08120000000000001
v 1.19 -0.1 0.0788
v 1.157 -0.1 0.0736
v 1.151 -0.1 0.0728
v 1.114 -0.1 0.06659999999999999
v 1.1059999999999999 -0.1 0.06540000000000001
v 1.0790000000000002 -0.1 0.0606
v 1.056 -0.1 0.05620000000000001
v 1.0470000000000002 -0.1 0.0546
v 1.0170000000000001 -0.1 0.0484
v 1.0050000000000001 -0.1 0.046
v 0.9890000000000001 -0.1 0.0424
v 0.9620000000000001 -0.1 0.0364
v 0.9550000000000001 -0.1 0.0346
v 0.937 -0.1 0.0304
v 0.913 -0.1 0.0242
v 0.904 -0.1 0.0218
v 0.89 -0.1 0.0182
v 0.868 -0.1 0.012199999999999999
v 0.8540000000000001 -0.1 0.008
v 0.8470000000000001 -0.1 0.006
v 0.8250000000000001 -0.1 0.0
v 0.0 -0.1 0.0
f 1 168 169
f 1 169 2
f 2 169 170
f 2 170 3
f 3 170 171
f 3 171 4
f 4 171 172
f 4 172 5
f 5 172 173
f 5 173 6
f 6 173 174
f 6 174 7
f 7 174 175
f 7 175 8
f 8 175 176
f 8 176 9
f 9 176 177
f 9 177 10
f 10 177 178
f 10 178 11
f 11 178 179
f 11 179 12
f 12 179 180
f 12 180 13
f 13 180 181
f 13 181 14
f 14 181 182
f 14 182 15
f 15 182 183
f 15 183 16
f 16 183 184
f 16 184 17
f 17 184 185
f 17 185 18
f 18 185 186
f 18 186 19
f 19 186 187
f 19 187 20
f 20 187 188
f 20 188 21
f 21 188 189
f 21 189 22
f 22 189 190
f 22 190 23
f 23 190 191
f 23 191 24
f 24 191 192
f 24 192 25
f 25 192 193
f 25 193 26
f 26 193 194
f 26 194 27
f 27 194 195
f 27 195 28
f 28 195 196
f 28 196 29
f 29 196 197
f 29 197 30
f 30 197 198
f 30 198 31
f 31 198 199
f 31 199 32
f 32 199 200
f 32 200 33
f 33 200 201
f 33 201 34
f 34 201 202
f 34 202 35
f 35 202 203
f 35 203 36
f 36 203 204
f 36 204 37
f 37 204 205
f 37 205 38
f 38 205 206
f 38 206 39
f 39 206 207
f 39 207 40
f 40 207 208
f 40 208 41
f 41 208 209
f 41 209 42
f 42 209 210
f 42 210 43
f 43 210 211
f 43 211 44
f 44 211 212
f 44 212 45
f 45 212 213
f 45 213 46
f 46 213 214
f 46 214 47
f 47 214 215
f 47 215 48
f 48 215 216
f 48 216 49
f 49 216 217
f 49 217 50
f 50 217 218
f 50 218 51
f 51 218 219
f 51 219 52
f 52 219 220
f 52 220 53
f 53 220 221
f 53 221 54
f 54 221 222
f 54 222 55
f 55 222 223
f 55 223 56
f 56 223 224
f 56 224 57
f 57 224 225
f 57 225 58
f 58 225 226
f 58 226 59
f 59 226 227
f 59 227 60
f 60 227 228
f 60 228 61
f 61 228 229
f 61 229 62
f 62 229 230
f 62 230 63
f 63 230 231
f 63 231 64
f 64 231 232
f 64 232 65
f 65 232 233
f 65 233 66
f 66 233 234
f 66 234 67
f 67 234 235
f 67 235 68
f 68 235 236
f 68 236 69
f 69 236 237
f 69 237 70
f 70 237 238
f 70 238 71
f 71 238 239
f 71 239 72
f 72 239 240
f 72 240 73
f 73 240 241
f 73 241 74
f 74 241 242
f 74 242 75
f 75 242 243
f 75 243 76
f 76 243 244
f 76 244 77
f 77 244 245
f 77 245 78
f 78 245 246
f 78 246 79
f 79 246 247
f 79 247 80
f 80 247 248
f 80 248 81
f 81 248 249
f 81 249 82
f 82 249 250
f 82 250 83
f 83 250 251
f 83 251 84
f 84 251 252
f 84 252 85
f 85 252 253
f 85 253 86
f 86 253 254
f 86 254 87
f 87 254 255
f 87 255 88
f 88 255 256
f 88 256 89
f 89 256 257
f 89 257 90
f 90 257 258
f 90 258 91
f 91 258 259
f 91 259 92
f 92 259 260
f 92 260 93
f 93 260 261
f 93 261 94
f 94 261 262
f 94 262 95
f 95 262 263
f 95 263 96
f 96 263 264
f 96 264 97
f 97 264 265
f 97 265 98
f 98 265 266
f 98 266 99
f 99 266 267
f 99 267 100
f 100 267 268
f 100 268 101
f 101 268 269
f 101 269 102
f 102 269 270
f 102 270 103
f 103 270 271
f 103 271 104
f 104 271 272
f 104 272 105
f 105 272 273
f 105 273 106
f 106 273 274
f 106 274 107
f 107 274 275
f 107 275 108
f 108 275 276
f 108 276 109
f 109 276 277
f 109 277 110
f 110 277 278
f 110 278 111
f 111 278 279
f 111 279 112
f 112 279 280
f 112 280 113
f 113 280 281
f 113 281 114
f 114 281 282
f 114 282 115
f 115 282 283
f 115 283 116
f 116 283 284
f 116 284 117
f 117 284 285
f 117 285 118
f 118 285 286
f 118 286 119
f 119 286 287
f 119 287 120
f 120 287 288
f 120 288 121
f 121 288 289
f 121 289 122
f 122 289 290
f 122 290 123
f 123 290 291
f 123 291 124
f 124 291 292
f 124 292 125
f 125 292 293
f 125 293 126
f 126 293 294
f 126 294 127
f 127 294 295
f 127 295 128
f 128 295 296
f 128 296 129
f 129 296 297
f 129 297 130
f 130 297 298
f 130 298 131
f 131 298 299
f 131 299 132
f 132 299 300
f 132 300 133
f 133 300 301
f 133 301 134
f 134 301 302
f 134 302 135
f 135 302 303
f 135 303 136
f 136 303 304
f 136 304 137
f 137 304 305
f 137 305 138
f 138 305 306
f 138 306 139
f 139 306 307
f 139 307 140
f 140 307 308
f 140 308 141
f 141 308 309
f 141 309 142
f 142 309 310
f 142 310 143
f 143 310 311
f 143 311 144
f 144 311 312
f 144 312 145
f 145 312 313
f 145 313 146
f 146 313 314
f 146 314 147
f 147 314 315
f 147 315 148
f 148 315 316
f 148 316 149
f 149 316 317
f 149 317 150
f 150 317 318
f 150 318 151
f 151 318 319
f 151 319 152
f 152 319 320
f 152 320 153
f 153 320 321
f 153 321 154
f 154 321 322
f 154 322 155
f 155 322 323
f 155 323 156
f 156 323 324
f 156 324 157
f 157 324 325
f 157 325 158
f 158 325 326
f 158 326 159
f 159 326 327
f 159 327 160
f 160 327 328
f 160 328 161
f 161 328 329
f 161 329 162
f 162 329 330
f 162 330 163
f 163 330 331
f 163 331 164
f 164 331 332
f 164 332 165
f 165 332 333
f 165 333 166
f 166 333 334
f 166 334 167
f 1 2 3
f 1 3 4
f 1 4 5
f 1 5 6
f 1 6 7
f 1 7 8
f 1 8 9
f 1 9 10
f 1 10 11
f 1 11 12
f 1 12 13
f 1 13 14
f 1 14 15
f 1 15 16
f 1 16 17
f 1 17 18
f 1 18 19
f 1 19 20
f 1 20 21
f 1 21 22
f 1 22 23
f 1 23 24
f 1 24 25
f 1 25 26
f 1 26 27
f 1 27 28
f 1 28 29
f 1 29 30
f 1 30 31
f 1 31 32
f 1 32 33
f 1 33 34
f 1 34 35
f 1 35 36
f 1 36 37
f 1 37 38
f 1 38 39
f 1 39 40
f 1 40 41
f 1 41 42
f 1 42 43
f 1 43 44
f 1 44 45
f 1 45 46
f 1 46 47
f 1 47 48
f 1 48 49
f 1 49 50
f 1 50 51
f 1 51 52
f 1 52 53
f 1 53 54
f 1 54 55
f 1 55 56
f 1 56 57
f 1 57 58
f 1 58 59
f 1 59 60
f 1 60 61
f 1 61 62
f 1 62 63
f 1 63 64
f 1 64 65
f 1 65 66
f 1 66 67
f 1 67 68
f 1 68 69
f 1 69 70
f 1 70 71
f 1 71 72
f 1 72 73
f 1 73 74
f 1 74 75
f 1 75 76
f 1 76 77
f 1 77 78
f 1 78 79
f 1 79 80
f 1 80 81
f 1 81 82
f 1 82 83
f 1 83 84
f 1 84 85
f 1 85 86
f 1 86 87
f 1 87 88
f 1 88 89
f 1 89 90
f 1 90 91
f 1 91 92
f 1 92 93
f 1 93 94
f 1 94 95
f 1 95 96
f 1 96 97
f 1 97 98
f 1 98 99
f 1 99 100
f 1 100 101
f 1 101 102
f 1 102 103
f 1 103 104
f 1 104 105
f 1 105 106
f 1 106 107
f 1 107 108
f 1 108 109
f 1 109 110
f 1 110 111
f 1 111 112
f 1 112 113
f 1 113 114
f 1 114 115
f 1 115 116
f 1 116 117
f 1 117 118
f 1 118 119
f 1 119 120
f 1 120 121
f 1 121 122
f 1 122 123
f 1 123 124
f 1 124 125
f 1 125 126
f 1 126 127
f 1 127 128
f 1 128 129
f 1 129 130
f 1 130 131
f 1 131 132
f 1 132 133
f 1 133 134
f 1 134 135
f 1 135 136
f 1 136 137
f 1 137 138
f 1 138 139
f 1 139 140
f 1 140 141
f 1 141 142
f 1 142 143
f 1 143 144
f 1 144 145
f 1 145 146
f 1 146 147
f 1 147 148
f 1 148 149
f 1 149 150
f 1 150 151
f 1 151 152
f 1 152 153
f 1 153 154
f 1 154 155
f 1 155 156
f 1 156 157
f 1 157 158
f 1 158 159
f 1 159 160
f 1 160 161
f 1 161 162
f 1 162 163
f 1 163 164
f 1 164 165
f 1 165 166
f 1 166 167
f 168 170 169
f 168 171 170
f 168 172 171
f 168 173 172
f 168 174 173
f 168 175 174
f 168 176 175
f 168 177 176
f 168 178 177
f 168 179 178
f 168 180 179
f 168 181 180
f 168 182 181
f 168 183 182
f 168 184 183
f 168 185 184
f 168 186 185
f 168 187 186
f 168 188 187
f 168 189 188
f 168 190 189
f 168 191 190
f 168 192 191
f 168 193 192
f 168 194 193
f 168 195 194
f 168 196 195
f 168 197 196
f 168 198 197
f 168 199 198
f 168 200 199
f 168 201 200
f 168 202 201
f 168 203 202
f 168 204 203
f 168 205 204
f 168 206 205
f 168 207 206
f 168 208 207
f 168 209 208
f 168 210 209
f 168 211 210
f 168 212 211
f 168 213 212
f 168 214 213
f 168 215 214
f 168 216 215
f 168 217 216
f 168 218 217
f 168 219 218
f 168 220 219
f 168 221 220
f 168 222 221
f 168 223 222
f 168 224 223
f 168 225 224
f 168 226 225
f 168 227 226
f 168 228 227
f 168 229 228
f 168 230 229
f 168 231 230
f 168 232 231
f 168 233 232
f 168 234 233
f 168 235 234
f 168 236 235
f 168 237 236
f 168 238 237
f 168 239 238
f 168 240 239
f 168 241 240
f 168 242 241
f 168 243 242
f 168 244 243
f 168 245 244
f 168 246 245
f 168 247 246
f 168 248 247
f 168 249 248
f 168 250 249
f 168 251 250
f 168 252 251
f 168 253 252
f 168 254 253
f 168 255 254
f 168 256 255
f 168 257 256
f 168 258 257
f 168 259 258
f 168 260 259
f 168 261 260
f 168 262 261
f 168 263 262
f 168 264 263
f 168 265 264
f 168 266 265
f 168 267 266
f 168 268 267
f 168 269 268
f 168 270 269
f 168 271 270
f 168 272 271
f 168 273 272
f 168 274 273
f 168 275 274
f 168 276 275
f 168 277 276
f 168 278 277
f 168 279 278
f 168 280 279
f 168 281 280
f 168 282 281
f 168 283 282
f 168 284 283
f 168 285 284
f 168 286 285
f 168 287 286
f 168 288 287
f 168 289 288
f 168 290 289
f 168 291 290
f 168 292 291
f 168 293 292
f 168 294 293
f 168 295 294
f 168 296 295
f 168 297 296
f 168 298 297
f 168 299 298
f 168 300 299
f 168 301 300
f 168 302 301
f 168 303 302
f 168 304 303
f 168 305 304
f 168 306 305
f 168 307 306
f 168 308 307
f 168 309 308
f 168 310 309
f 168 311 310
f 168 312 311
f 168 313 312
f 168 314 313
f 168 315 314
f 168 316 315
f 168 317 316
f 168 318 317
f 168 319 318
f 168 320 319
f 168 321 320
f 168 322 321
f 168 323 322
f 168 324 323
f 168 325 324
f 168 326 325
f 168 327 326
f 168 328 327
f 168 329 328
f 168 330 329
f 168 331 330
f 168 332 331
f 168 333 332
f 168 334 333
f 1 168 169
f 1 169 2
f 167 333 334
f 167 166 333
