v 0.0 0.0 0.0
v 2.5963 0.0 0.002
v 2.5987 0.0 0.010060000000000001
v 2.6060000000000003 0.0 0.01812
v 2.6141 0.0 0.026180000000000002
v 2.6193 0.0 0.03424
v 2.6194 0.0 0.0423
v 2.6131 0.0 0.05036
v 2.5998 0.0 0.05842
v 2.5893 0.0 0.06296
v 2.5811 0.0 0.06648000000000001
v 2.5608999999999997 0.0 0.07456
v 2.549 0.0 0.08023999999999999
v 2.5435 0.0 0.08262000000000001
v 2.5307 0.0 0.09068000000000001
v 2.5232 0.0 0.09874
v 2.5087 0.0 0.10534
v 2.5031 0.0 0.1068
v 2.4735 0.0 0.11486
v 2.4684 0.0 0.11654
v 2.4444 0.0 0.12292
v 2.4281 0.0 0.12825999999999999
v 2.4189 0.0 0.13097999999999999
v 2.3947 0.0 0.13904
v 2.3878 0.0 0.14124
v 2.3682 0.0 0.1471
v 2.3475 0.0 0.15168
v 2.3294 0.0 0.15516
v 2.3072 0.0 0.15780000000000002
v 2.2669 0.0 0.16052000000000002
v 2.2266 0.0 0.16024000000000002
v 2.1863 0.0 0.1574
v 2.1634 0.0 0.15516
v 2.1459 0.0 0.15298
v 2.1056 0.0 0.14830000000000002
v 2.0945 0.0 0.1471
v 2.0653 0.0 0.1447
v 2.025 0.0 0.14302
v 1.9847000000000001 0.0 0.14454
v 1.966 0.0 0.1471
v 1.9444000000000001 0.0 0.1515
v 1.9235 0.0 0.15516
v 1.9041 0.0 0.15847999999999998
v 1.8638 0.0 0.16308
v 1.8619999999999999 0.0 0.16322
v 1.8235 0.0 0.16574000000000003
v 1.7832 0.0 0.16686
v 1.7429 0.0 0.16654
v 1.7026 0.0 0.16482
v 1.6788 0.0 0.16322
v 1.6622999999999999 0.0 0.16208000000000003
v 1.6219999999999999 0.0 0.15888
v 1.5816999999999999 0.0 0.15597999999999998
v 1.5666 0.0 0.15516
v 1.5413999999999999 0.0 0.15366
v 1.5011 0.0 0.15162
v 1.4608 0.0 0.14768
v 1.4541 0.0 0.1471
v 1.4205 0.0 0.1434
v 1.3800999999999999 0.0 0.14094
v 1.3397999999999999 0.0 0.1398
v 1.2994999999999999 0.0 0.13938
v 1.2872000000000001 0.0 0.13904
v 1.2592 0.0 0.13804
v 1.2189 0.0 0.13386
v 1.1923000000000001 0.0 0.13097999999999999
v 1.1786 0.0 0.12978
v 1.1383 0.0 0.12678
v 1.098 0.0 0.12502
v 1.0577 0.0 0.1245
v 1.0173999999999999 0.0 0.12504
v 0.9771 0.0 0.125
v 0.9368000000000001 0.0 0.12458
v 0.0 0.0 0.0
v 0.0 -0.1 0.0
v 2.5963 -0.1 0.002
v 2.5987 -0.1 0.010060000000000001
v 2.6060000000000003 -0.1 0.01812
v 2.6141 -0.1 0.026180000000000002
v 2.6193 -0.1 0.03424
v 2.6194 -0.1 0.0423
v 2.6131 -0.1 0.05036
v 2.5998 -0.1 0.05842
v 2.5893 -0.1 0.06296
v 2.5811 -0.1 0.06648000000000001
v 2.5608999999999997 -0.1 0.07456
v 2.549 -0.1 0.08023999999999999
v 2.5435 -0.1 0.08262000000000001
v 2.5307 -0.1 0.09068000000000001
v 2.5232 -0.1 0.09874
v 2.5087 -0.1 0.10534
v 2.5031 -0.1 0.1068
v 2.4735 -0.1 0.11486
v 2.4684 -0.1 0.11654
v 2.4444 -0.1 0.12292
v 2.4281 -0.1 0.12825999999999999
v 2.4189 -0.1 0.13097999999999999
v 2.3947 -0.1 0.13904
v 2.3878 -0.1 0.14124
v 2.3682 -0.1 0.1471
v 2.3475 -0.1 0.15168
v 2.3294 -0.1 0.15516
v 2.3072 -0.1 0.15780000000000002
v 2.2669 -0.1 0.16052000000000002
v 2.2266 -0.1 0.16024000000000002
v 2.1863 -0.1 0.1574
v 2.1634 -0.1 0.15516
v 2.1459 -0.1 0.15298
v 2.1056 -0.1 0.14830000000000002
v 2.0945 -0.1 0.1471
v 2.0653 -0.1 0.1447
v 2.025 -0.1 0.14302
v 1.9847000000000001 -0.1 0.14454
v 1.966 -0.1 0.1471
v 1.9444000000000001 -0.1 0.1515
v 1.9235 -0.1 0.15516
v 1.9041 -0.1 0.15847999999999998
v 1.8638 -0.1 0.16308
v 1.8619999999999999 -0.1 0.16322
v 1.8235 -0.1 0.16574000000000003
v 1.7832 -0.1 0.16686
v 1.7429 -0.1 0.16654
v 1.7026 -0.1 0.16482
v 1.6788 -0.1 0.16322
v 1.6622999999999999 -0.1 0.16208000000000003
v 1.6219999999999999 -0.1 0.15888
v 1.5816999999999999 -0.1 0.15597999999999998
v 1.5666 -0.1 0.15516
v 1.5413999999999999 -0.1 0.15366
v 1.5011 -0.1 0.15162
v 1.4608 -0.1 0.14768
v 1.4541 -0.1 0.1471
v 1.4205 -0.1 0.1434
v 1.3800999999999999 -0.1 0.14094
v 1.3397999999999999 -0.1 0.1398
v 1.2994999999999999 -0.1 0.13938
v 1.2872000000000001 -0.1 0.13904
v 1.2592 -0.1 0.13804
v 1.2189 -0.1 0.13386
v 1.1923000000000001 -0.1 0.13097999999999999
v 1.1786 -0.1 0.12978
v 1.1383 -0.1 0.12678
v 1.098 -0.1 0.12502
v 1.0577 -0.1 0.1245
v 1.0173999999999999 -0.1 0.12504
v 0.9771 -0.1 0.125
v 0.9368000000000001 -0.1 0.12458
v 0.0 -0.1 0.0
f 1 75 76
f 1 76 2
f 2 76 77
f 2 77 3
f 3 77 78
f 3 78 4
f 4 78 79
f 4 79 5
f 5 79 80
f 5 80 6
f 6 80 81
f 6 81 7
f 7 81 82
f 7 82 8
f 8 82 83
f 8 83 9
f 9 83 84
f 9 84 10
f 10 84 85
f 10 85 11
f 11 85 86
f 11 86 12
f 12 86 87
f 12 87 13
f 13 87 88
f 13 88 14
f 14 88 89
f 14 89 15
f 15 89 90
f 15 90 16
f 16 90 91
f 16 91 17
f 17 91 92
f 17 92 18
f 18 92 93
f 18 93 19
f 19 93 94
f 19 94 20
f 20 94 95
f 20 95 21
f 21 95 96
f 21 96 22
f 22 96 97
f 22 97 23
f 23 97 98
f 23 98 24
f 24 98 99
f 24 99 25
f 25 99 100
f 25 100 26
f 26 100 101
f 26 101 27
f 27 101 102
f 27 102 28
f 28 102 103
f 28 103 29
f 29 103 104
f 29 104 30
f 30 104 105
f 30 105 31
f 31 105 106
f 31 106 32
f 32 106 107
f 32 107 33
f 33 107 108
f 33 108 34
f 34 108 109
f 34 109 35
f 35 109 110
f 35 110 36
f 36 110 111
f 36 111 37
f 37 111 112
f 37 112 38
f 38 112 113
f 38 113 39
f 39 113 114
f 39 114 40
f 40 114 115
f 40 115 41
f 41 115 116
f 41 116 42
f 42 116 117
f 42 117 43
f 43 117 118
f 43 118 44
f 44 118 119
f 44 119 45
f 45 119 120
f 45 120 46
f 46 120 121
f 46 121 47
f 47 121 122
f 47 122 48
f 48 122 123
f 48 123 49
f 49 123 124
f 49 124 50
f 50 124 125
f 50 125 51
f 51 125 126
f 51 126 52
f 52 126 127
f 52 127 53
f 53 127 128
f 53 128 54
f 54 128 129
f 54 129 55
f 55 129 130
f 55 130 56
f 56 130 131
f 56 131 57
f 57 131 132
f 57 132 58
f 58 132 133
f 58 133 59
f 59 133 134
f 59 134 60
f 60 134 135
f 60 135 61
f 61 135 136
f 61 136 62
f 62 136 137
f 62 137 63
f 63 137 138
f 63 138 64
f 64 138 139
f 64 139 65
f 65 139 140
f 65 140 66
f 66 140 141
f 66 141 67
f 67 141 142
f 67 142 68
f 68 142 143
f 68 143 69
f 69 143 144
f 69 144 70
f 70 144 145
f 70 145 71
f 71 145 146
f 71 146 72
f 72 146 147
f 72 147 73
f 73 147 148
f 73 148 74
f 1 2 3
f 1 3 4
f 1 4 5
f 1 5 6
f 1 6 7
f 1 7 8
f 1 8 9
f 1 9 10
f 1 10 11
f 1 11 12
f 1 12 13
f 1 13 14
f 1 14 15
f 1 15 16
f 1 16 17
f 1 17 18
f 1 18 19
f 1 19 20
f 1 20 21
f 1 21 22
f 1 22 23
f 1 23 24
f 1 24 25
f 1 25 26
f 1 26 27
f 1 27 28
f 1 28 29
f 1 29 30
f 1 30 31
f 1 31 32
f 1 32 33
f 1 33 34
f 1 34 35
f 1 35 36
f 1 36 37
f 1 37 38
f 1 38 39
f 1 39 40
f 1 40 41
f 1 41 42
f 1 42 43
f 1 43 44
f 1 44 45
f 1 45 46
f 1 46 47
f 1 47 48
f 1 48 49
f 1 49 50
f 1 50 51
f 1 51 52
f 1 52 53
f 1 53 54
f 1 54 55
f 1 55 56
f 1 56 57
f 1 57 58
f 1 58 59
f 1 59 60
f 1 60 61
f 1 61 62
f 1 62 63
f 1 63 64
f 1 64 65
f 1 65 66
f 1 66 67
f 1 67 68
f 1 68 69
f 1 69 70
f 1 70 71
f 1 71 72
f 1 72 73
f 1 73 74
f 75 77 76
f 75 78 77
f 75 79 78
f 75 80 79
f 75 81 80
f 75 82 81
f 75 83 82
f 75 84 83
f 75 85 84
f 75 86 85
f 75 87 86
f 75 88 87
f 75 89 88
f 75 90 89
f 75 91 90
f 75 92 91
f 75 93 92
f 75 94 93
f 75 95 94
f 75 96 95
f 75 97 96
f 75 98 97
f 75 99 98
f 75 100 99
f 75 101 100
f 75 102 101
f 75 103 102
f 75 104 103
f 75 105 104
f 75 106 105
f 75 107 106
f 75 108 107
f 75 109 108
f 75 110 109
f 75 111 110
f 75 112 111
f 75 113 112
f 75 114 113
f 75 115 114
f 75 116 115
f 75 117 116
f 75 118 117
f 75 119 118
f 75 120 119
f 75 121 120
f 75 122 121
f 75 123 122
f 75 124 123
f 75 125 124
f 75 126 125
f 75 127 126
f 75 128 127
f 75 129 128
f 75 130 129
f 75 131 130
f 75 132 131
f 75 133 132
f 75 134 133
f 75 135 134
f 75 136 135
f 75 137 136
f 75 138 137
f 75 139 138
f 75 140 139
f 75 141 140
f 75 142 141
f 75 143 142
f 75 144 143
f 75 145 144
f 75 146 145
f 75 147 146
f 75 148 147
f 1 75 76
f 1 76 2
f 74 147 148
f 74 73 147
