v 0.0 0.0 0.0
v 2.4115 0.0 0.002
v 2.4002000000000003 0.0 0.010060000000000001
v 2.3878 0.0 0.01728
v 2.3864 0.0 0.01812
v 2.3717 0.0 0.026180000000000002
v 2.3559 0.0 0.03424
v 2.3475 0.0 0.038340000000000006
v 2.3396000000000003 0.0 0.0423
v 2.3231 0.0 0.05036
v 2.3072 0.0 0.058280000000000005
v 2.3069 0.0 0.05842
v 2.2917 0.0 0.06648000000000001
v 2.2743 0.0 0.07456
v 2.2669 0.0 0.0775
v 2.2554 0.0 0.08262000000000001
v 2.236 0.0 0.09068000000000001
v 2.2266 0.0 0.09587999999999999
v 2.2228 0.0 0.09874
v 2.2266 0.0 0.10208
v 2.2344 0.0 0.1068
v 2.2633 0.0 0.11486
v 2.2669 0.0 0.11574
v 2.2959 0.0 0.12292
v 2.3072 0.0 0.12606
v 2.3214 0.0 0.13097999999999999
v 2.3373 0.0 0.13904
v 2.3437 0.0 0.1471
v 2.341 0.0 0.15516
v 2.3293 0.0 0.16322
v 2.3102 0.0 0.17128000000000002
v 2.3072 0.0 0.17244
v 2.2835 0.0 0.17934
v 2.2669 0.0 0.18416
v 2.2509 0.0 0.1874
v 2.2266 0.0 0.19236000000000003
v 2.201 0.0 0.19546000000000002
v 2.1863 0.0 0.19704
v 2.1459 0.0 0.19928
v 2.1056 0.0 0.20032
v 2.0653 0.0 0.20092
v 2.025 0.0 0.20142
v 1.9847000000000001 0.0 0.20066
v 1.9444000000000001 0.0 0.19856000000000001
v 1.9041 0.0 0.19694
v 1.8638 0.0 0.19574000000000003
v 1.8541 0.0 0.19546000000000002
v 1.8235 0.0 0.19463999999999998
v 1.7832 0.0 0.1935
v 1.7429 0.0 0.19196000000000002
v 1.7026 0.0 0.1899
v 1.6622999999999999 0.0 0.18788
v 1.6517 0.0 0.1874
v 1.6219999999999999 0.0 0.18594
v 1.5816999999999999 0.0 0.18430000000000002
v 1.5413999999999999 0.0 0.18308000000000002
v 1.5011 0.0 0.18186000000000002
v 1.4857 0.0 0.17934
v 1.4617 0.0 0.17128000000000002
v 1.4608 0.0 0.171
v 1.4266999999999999 0.0 0.16322
v 1.4205 0.0 0.16224000000000002
v 1.3800999999999999 0.0 0.15764
v 1.3444999999999998 0.0 0.15516
v 1.3397999999999999 0.0 0.15484
v 1.2994999999999999 0.0 0.15264
v 1.2592 0.0 0.15044
v 1.2344 0.0 0.1471
v 1.2189 0.0 0.14438
v 1.1901000000000002 0.0 0.13904
v 1.1786 0.0 0.13724
v 1.1383 0.0 0.13174000000000002
v 1.1312 0.0 0.13097999999999999
v 1.098 0.0 0.12768000000000002
v 1.0577 0.0 0.12502
v 1.0173999999999999 0.0 0.12364
v 1.0004000000000002 0.0 0.12292
v 0.9771 0.0 0.12156
v 0.9368000000000001 0.0 0.11888
v 0.0 0.0 0.0
v 0.0 -0.1 0.0
v 2.4115 -0.1 0.002
v 2.4002000000000003 -0.1 0.010060000000000001
v 2.3878 -0.1 0.01728
v 2.3864 -0.1 0.01812
v 2.3717 -0.1 0.026180000000000002
v 2.3559 -0.1 0.03424
v 2.3475 -0.1 0.038340000000000006
v 2.3396000000000003 -0.1 0.0423
v 2.3231 -0.1 0.05036
v 2.3072 -0.1 0.058280000000000005
v 2.3069 -0.1 0.05842
v 2.2917 -0.1 0.06648000000000001
v 2.2743 -0.1 0.07456
v 2.2669 -0.1 0.0775
v 2.2554 -0.1 0.08262000000000001
v 2.236 -0.1 0.09068000000000001
v 2.2266 -0.1 0.09587999999999999
v 2.2228 -0.1 0.09874
v 2.2266 -0.1 0.10208
v 2.2344 -0.1 0.1068
v 2.2633 -0.1 0.11486
v 2.2669 -0.1 0.11574
v 2.2959 -0.1 0.12292
v 2.3072 -0.1 0.12606
v 2.3214 -0.1 0.13097999999999999
v 2.3373 -0.1 0.13904
v 2.3437 -0.1 0.1471
v 2.341 -0.1 0.15516
v 2.3293 -0.1 0.16322
v 2.3102 -0.1 0.17128000000000002
v 2.3072 -0.1 0.17244
v 2.2835 -0.1 0.17934
v 2.2669 -0.1 0.18416
v 2.2509 -0.1 0.1874
v 2.2266 -0.1 0.19236000000000003
v 2.201 -0.1 0.19546000000000002
v 2.1863 -0.1 0.19704
v 2.1459 -0.1 0.19928
v 2.1056 -0.1 0.20032
v 2.0653 -0.1 0.20092
v 2.025 -0.1 0.20142
v 1.9847000000000001 -0.1 0.20066
v 1.9444000000000001 -0.1 0.19856000000000001
v 1.9041 -0.1 0.19694
v 1.8638 -0.1 0.19574000000000003
v 1.8541 -0.1 0.19546000000000002
v 1.8235 -0.1 0.19463999999999998
v 1.7832 -0.1 0.1935
v 1.7429 -0.1 0.19196000000000002
v 1.7026 -0.1 0.1899
v 1.6622999999999999 -0.1 0.18788
v 1.6517 -0.1 0.1874
v 1.6219999999999999 -0.1 0.18594
v 1.5816999999999999 -0.1 0.18430000000000002
v 1.5413999999999999 -0.1 0.18308000000000002
v 1.5011 -0.1 0.18186000000000002
v 1.4857 -0.1 0.17934
v 1.4617 -0.1 0.17128000000000002
v 1.4608 -0.1 0.171
v 1.4266999999999999 -0.1 0.16322
v 1.4205 -0.1 0.16224000000000002
v 1.3800999999999999 -0.1 0.15764
v 1.3444999999999998 -0.1 0.15516
v 1.3397999999999999 -0.1 0.15484
v 1.2994999999999999 -0.1 0.15264
v 1.2592 -0.1 0.15044
v 1.2344 -0.1 0.1471
v 1.2189 -0.1 0.14438
v 1.1901000000000002 -0.1 0.13904
v 1.1786 -0.1 0.13724
v 1.1383 -0.1 0.13174000000000002
v 1.1312 -0.1 0.13097999999999999
v 1.098 -0.1 0.12768000000000002
v 1.0577 -0.1 0.12502
v 1.0173999999999999 -0.1 0.12364
v 1.0004000000000002 -0.1 0.12292
v 0.9771 -0.1 0.12156
v 0.9368000000000001 -0.1 0.11888
v 0.0 -0.1 0.0
f 1 81 82
f 1 82 2
f 2 82 83
f 2 83 3
f 3 83 84
f 3 84 4
f 4 84 85
f 4 85 5
f 5 85 86
f 5 86 6
f 6 86 87
f 6 87 7
f 7 87 88
f 7 88 8
f 8 88 89
f 8 89 9
f 9 89 90
f 9 90 10
f 10 90 91
f 10 91 11
f 11 91 92
f 11 92 12
f 12 92 93
f 12 93 13
f 13 93 94
f 13 94 14
f 14 94 95
f 14 95 15
f 15 95 96
f 15 96 16
f 16 96 97
f 16 97 17
f 17 97 98
f 17 98 18
f 18 98 99
f 18 99 19
f 19 99 100
f 19 100 20
f 20 100 101
f 20 101 21
f 21 101 102
f 21 102 22
f 22 102 103
f 22 103 23
f 23 103 104
f 23 104 24
f 24 104 105
f 24 105 25
f 25 105 106
f 25 106 26
f 26 106 107
f 26 107 27
f 27 107 108
f 27 108 28
f 28 108 109
f 28 109 29
f 29 109 110
f 29 110 30
f 30 110 111
f 30 111 31
f 31 111 112
f 31 112 32
f 32 112 113
f 32 113 33
f 33 113 114
f 33 114 34
f 34 114 115
f 34 115 35
f 35 115 116
f 35 116 36
f 36 116 117
f 36 117 37
f 37 117 118
f 37 118 38
f 38 118 119
f 38 119 39
f 39 119 120
f 39 120 40
f 40 120 121
f 40 121 41
f 41 121 122
f 41 122 42
f 42 122 123
f 42 123 43
f 43 123 124
f 43 124 44
f 44 124 125
f 44 125 45
f 45 125 126
f 45 126 46
f 46 126 127
f 46 127 47
f 47 127 128
f 47 128 48
f 48 128 129
f 48 129 49
f 49 129 130
f 49 130 50
f 50 130 131
f 50 131 51
f 51 131 132
f 51 132 52
f 52 132 133
f 52 133 53
f 53 133 134
f 53 134 54
f 54 134 135
f 54 135 55
f 55 135 136
f 55 136 56
f 56 136 137
f 56 137 57
f 57 137 138
f 57 138 58
f 58 138 139
f 58 139 59
f 59 139 140
f 59 140 60
f 60 140 141
f 60 141 61
f 61 141 142
f 61 142 62
f 62 142 143
f 62 143 63
f 63 143 144
f 63 144 64
f 64 144 145
f 64 145 65
f 65 145 146
f 65 146 66
f 66 146 147
f 66 147 67
f 67 147 148
f 67 148 68
f 68 148 149
f 68 149 69
f 69 149 150
f 69 150 70
f 70 150 151
f 70 151 71
f 71 151 152
f 71 152 72
f 72 152 153
f 72 153 73
f 73 153 154
f 73 154 74
f 74 154 155
f 74 155 75
f 75 155 156
f 75 156 76
f 76 156 157
f 76 157 77
f 77 157 158
f 77 158 78
f 78 158 159
f 78 159 79
f 79 159 160
f 79 160 80
f 1 2 3
f 1 3 4
f 1 4 5
f 1 5 6
f 1 6 7
f 1 7 8
f 1 8 9
f 1 9 10
f 1 10 11
f 1 11 12
f 1 12 13
f 1 13 14
f 1 14 15
f 1 15 16
f 1 16 17
f 1 17 18
f 1 18 19
f 1 19 20
f 1 20 21
f 1 21 22
f 1 22 23
f 1 23 24
f 1 24 25
f 1 25 26
f 1 26 27
f 1 27 28
f 1 28 29
f 1 29 30
f 1 30 31
f 1 31 32
f 1 32 33
f 1 33 34
f 1 34 35
f 1 35 36
f 1 36 37
f 1 37 38
f 1 38 39
f 1 39 40
f 1 40 41
f 1 41 42
f 1 42 43
f 1 43 44
f 1 44 45
f 1 45 46
f 1 46 47
f 1 47 48
f 1 48 49
f 1 49 50
f 1 50 51
f 1 51 52
f 1 52 53
f 1 53 54
f 1 54 55
f 1 55 56
f 1 56 57
f 1 57 58
f 1 58 59
f 1 59 60
f 1 60 61
f 1 61 62
f 1 62 63
f 1 63 64
f 1 64 65
f 1 65 66
f 1 66 67
f 1 67 68
f 1 68 69
f 1 69 70
f 1 70 71
f 1 71 72
f 1 72 73
f 1 73 74
f 1 74 75
f 1 75 76
f 1 76 77
f 1 77 78
f 1 78 79
f 1 79 80
f 81 83 82
f 81 84 83
f 81 85 84
f 81 86 85
f 81 87 86
f 81 88 87
f 81 89 88
f 81 90 89
f 81 91 90
f 81 92 91
f 81 93 92
f 81 94 93
f 81 95 94
f 81 96 95
f 81 97 96
f 81 98 97
f 81 99 98
f 81 100 99
f 81 101 100
f 81 102 101
f 81 103 102
f 81 104 103
f 81 105 104
f 81 106 105
f 81 107 106
f 81 108 107
f 81 109 108
f 81 110 109
f 81 111 110
f 81 112 111
f 81 113 112
f 81 114 113
f 81 115 114
f 81 116 115
f 81 117 116
f 81 118 117
f 81 119 118
f 81 120 119
f 81 121 120
f 81 122 121
f 81 123 122
f 81 124 123
f 81 125 124
f 81 126 125
f 81 127 126
f 81 128 127
f 81 129 128
f 81 130 129
f 81 131 130
f 81 132 131
f 81 133 132
f 81 134 133
f 81 135 134
f 81 136 135
f 81 137 136
f 81 138 137
f 81 139 138
f 81 140 139
f 81 141 140
f 81 142 141
f 81 143 142
f 81 144 143
f 81 145 144
f 81 146 145
f 81 147 146
f 81 148 147
f 81 149 148
f 81 150 149
f 81 151 150
f 81 152 151
f 81 153 152
f 81 154 153
f 81 155 154
f 81 156 155
f 81 157 156
f 81 158 157
f 81 159 158
f 81 160 159
f 1 81 82
f 1 82 2
f 80 159 160
f 80 79 159
