v 0.0 0.0 0.0
v 2.8711 0.0 0.002
v 2.8714 0.0 0.0026200000000000004
v 2.875 0.0 0.010060000000000001
v 2.8863 0.0 0.01812
v 2.9010000000000002 0.0 0.026180000000000002
v 2.9118 0.0 0.03158
v 2.9172000000000002 0.0 0.03424
v 2.9351 0.0 0.0423
v 2.9520999999999997 0.0 0.04944
v 2.9543 0.0 0.05036
v 2.9754 0.0 0.05842
v 2.9924 0.0 0.06416
v 2.9988 0.0 0.06648000000000001
v 3.0227999999999997 0.0 0.07456
v 3.0326999999999997 0.0 0.0777
v 3.0447 0.0 0.08262000000000001
v 3.0605 0.0 0.09068000000000001
v 3.0671 0.0 0.09874
v 3.062 0.0 0.1068
v 3.0463999999999998 0.0 0.11486
v 3.0326999999999997 0.0 0.12024
v 3.0239 0.0 0.12292
v 2.9994 0.0 0.13097999999999999
v 2.9924 0.0 0.13358
v 2.9766000000000004 0.0 0.13904
v 2.9577 0.0 0.1471
v 2.9520999999999997 0.0 0.14987999999999999
v 2.9419 0.0 0.15516
v 2.9291000000000005 0.0 0.16322
v 2.9186 0.0 0.17128000000000002
v 2.9118 0.0 0.17752
v 2.91 0.0 0.17934
v 2.9031000000000002 0.0 0.1874
v 2.8979000000000004 0.0 0.19546000000000002
v 2.8941000000000003 0.0 0.20352
v 2.8908 0.0 0.2116
v 2.887 0.0 0.21966
v 2.8818 0.0 0.22772
v 2.8747000000000003 0.0 0.23578000000000002
v 2.8714 0.0 0.23858000000000001
v 2.8651999999999997 0.0 0.24384
v 2.8527 0.0 0.2519
v 2.8361 0.0 0.25995999999999997
v 2.8311 0.0 0.26182
v 2.8143000000000002 0.0 0.26802
v 2.7908 0.0 0.27448
v 2.7851 0.0 0.27608
v 2.7505 0.0 0.2836
v 2.7483 0.0 0.28414
v 2.7114 0.0 0.2922
v 2.7102 0.0 0.2925
v 2.6828 0.0 0.30025999999999997
v 2.6699 0.0 0.30428
v 2.6532 0.0 0.30832
v 2.6296 0.0 0.31274
v 2.5963 0.0 0.31638
v 2.5893 0.0 0.31698000000000004
v 2.549 0.0 0.31832
v 2.5087 0.0 0.31728
v 2.4978000000000002 0.0 0.31638
v 2.4684 0.0 0.31428
v 2.4281 0.0 0.30972000000000005
v 2.4174 0.0 0.30832
v 2.3878 0.0 0.30446
v 2.3531 0.0 0.30025999999999997
v 2.3475 0.0 0.29958
v 2.3072 0.0 0.29514
v 2.278 0.0 0.2922
v 2.2669 0.0 0.29108
v 2.2266 0.0 0.28682
v 2.2001 0.0 0.28414
v 2.1863 0.0 0.2828
v 2.1459 0.0 0.27904
v 2.1117 0.0 0.27608
v 2.1056 0.0 0.27554
v 2.0653 0.0 0.27206
v 2.025 0.0 0.26842000000000005
v 2.0214 0.0 0.26802
v 1.9847000000000001 0.0 0.26427999999999996
v 1.9461000000000002 0.0 0.25995999999999997
v 1.9444000000000001 0.0 0.25977999999999996
v 1.9041 0.0 0.25526
v 1.8704 0.0 0.2519
v 1.8638 0.0 0.25122
v 1.8235 0.0 0.24734
v 1.7878 0.0 0.24384
v 1.7832 0.0 0.24328
v 1.7429 0.0 0.23604
v 1.7418 0.0 0.23578000000000002
v 1.7026 0.0 0.22813999999999998
v 1.7003000000000001 0.0 0.22772
v 1.6622999999999999 0.0 0.22130000000000002
v 1.6514 0.0 0.21966
v 1.6219999999999999 0.0 0.21532
v 1.5933000000000002 0.0 0.2116
v 1.5816999999999999 0.0 0.21
v 1.5413999999999999 0.0 0.20496
v 1.5302000000000002 0.0 0.20352
v 1.5011 0.0 0.19938
v 1.4796 0.0 0.19546000000000002
v 1.4608 0.0 0.19197999999999998
v 1.4334 0.0 0.1874
v 1.4205 0.0 0.1854
v 1.3800999999999999 0.0 0.1814
v 1.3397999999999999 0.0 0.17964
v 1.3178999999999998 0.0 0.17934
v 1.2994999999999999 0.0 0.1791
v 1.2592 0.0 0.17884
v 1.2189 0.0 0.17698
v 1.1786 0.0 0.17226
v 1.1731 0.0 0.17128000000000002
v 1.1421 0.0 0.16322
v 1.1383 0.0 0.16219999999999998
v 1.1148 0.0 0.15516
v 1.098 0.0 0.15172
v 1.0693000000000001 0.0 0.1471
v 1.0577 0.0 0.14582
v 1.0173999999999999 0.0 0.14326
v 0.9771 0.0 0.14214
v 0.9368000000000001 0.0 0.14164
v 0.0 0.0 0.0
v 0.0 -0.1 0.0
v 2.8711 -0.1 0.002
v 2.8714 -0.1 0.0026200000000000004
v 2.875 -0.1 0.010060000000000001
v 2.8863 -0.1 0.01812
v 2.9010000000000002 -0.1 0.026180000000000002
v 2.9118 -0.1 0.03158
v 2.9172000000000002 -0.1 0.03424
v 2.9351 -0.1 0.0423
v 2.9520999999999997 -0.1 0.04944
v 2.9543 -0.1 0.05036
v 2.9754 -0.1 0.05842
v 2.9924 -0.1 0.06416
v 2.9988 -0.1 0.06648000000000001
v 3.0227999999999997 -0.1 0.07456
v 3.0326999999999997 -0.1 0.0777
v 3.0447 -0.1 0.08262000000000001
v 3.0605 -0.1 0.09068000000000001
v 3.0671 -0.1 0.09874
v 3.062 -0.1 0.1068
v 3.0463999999999998 -0.1 0.11486
v 3.0326999999999997 -0.1 0.12024
v 3.0239 -0.1 0.12292
v 2.9994 -0.1 0.13097999999999999
v 2.9924 -0.1 0.13358
v 2.9766000000000004 -0.1 0.13904
v 2.9577 -0.1 0.1471
v 2.9520999999999997 -0.1 0.14987999999999999
v 2.9419 -0.1 0.15516
v 2.9291000000000005 -0.1 0.16322
v 2.9186 -0.1 0.17128000000000002
v 2.9118 -0.1 0.17752
v 2.91 -0.1 0.17934
v 2.9031000000000002 -0.1 0.1874
v 2.8979000000000004 -0.1 0.19546000000000002
v 2.8941000000000003 -0.1 0.20352
v 2.8908 -0.1 0.2116
v 2.887 -0.1 0.21966
v 2.8818 -0.1 0.22772
v 2.8747000000000003 -0.1 0.23578000000000002
v 2.8714 -0.1 0.23858000000000001
v 2.8651999999999997 -0.1 0.24384
v 2.8527 -0.1 0.2519
v 2.8361 -0.1 0.25995999999999997
v 2.8311 -0.1 0.26182
v 2.8143000000000002 -0.1 0.26802
v 2.7908 -0.1 0.27448
v 2.7851 -0.1 0.27608
v 2.7505 -0.1 0.2836
v 2.7483 -0.1 0.28414
v 2.7114 -0.1 0.2922
v 2.7102 -0.1 0.2925
v 2.6828 -0.1 0.30025999999999997
v 2.6699 -0.1 0.30428
v 2.6532 -0.1 0.30832
v 2.6296 -0.1 0.31274
v 2.5963 -0.1 0.31638
v 2.5893 -0.1 0.31698000000000004
v 2.549 -0.1 0.31832
v 2.5087 -0.1 0.31728
v 2.4978000000000002 -0.1 0.31638
v 2.4684 -0.1 0.31428
v 2.4281 -0.1 0.30972000000000005
v 2.4174 -0.1 0.30832
v 2.3878 -0.1 0.30446
v 2.3531 -0.1 0.30025999999999997
v 2.3475 -0.1 0.29958
v 2.3072 -0.1 0.29514
v 2.278 -0.1 0.2922
v 2.2669 -0.1 0.29108
v 2.2266 -0.1 0.28682
v 2.2001 -0.1 0.28414
v 2.1863 -0.1 0.2828
v 2.1459 -0.1 0.27904
v 2.1117 -0.1 0.27608
v 2.1056 -0.1 0.27554
v 2.0653 -0.1 0.27206
v 2.025 -0.1 0.26842000000000005
v 2.0214 -0.1 0.26802
v 1.9847000000000001 -0.1 0.26427999999999996
v 1.9461000000000002 -0.1 0.25995999999999997
v 1.9444000000000001 -0.1 0.25977999999999996
v 1.9041 -0.1 0.25526
v 1.8704 -0.1 0.2519
v 1.8638 -0.1 0.25122
v 1.8235 -0.1 0.24734
v 1.7878 -0.1 0.24384
v 1.7832 -0.1 0.24328
v 1.7429 -0.1 0.23604
v 1.7418 -0.1 0.23578000000000002
v 1.7026 -0.1 0.22813999999999998
v 1.7003000000000001 -0.1 0.22772
v 1.6622999999999999 -0.1 0.22130000000000002
v 1.6514 -0.1 0.21966
v 1.6219999999999999 -0.1 0.21532
v 1.5933000000000002 -0.1 0.2116
v 1.5816999999999999 -0.1 0.21
v 1.5413999999999999 -0.1 0.20496
v 1.5302000000000002 -0.1 0.20352
v 1.5011 -0.1 0.19938
v 1.4796 -0.1 0.19546000000000002
v 1.4608 -0.1 0.19197999999999998
v 1.4334 -0.1 0.1874
v 1.4205 -0.1 0.1854
v 1.3800999999999999 -0.1 0.1814
v 1.3397999999999999 -0.1 0.17964
v 1.3178999999999998 -0.1 0.17934
v 1.2994999999999999 -0.1 0.1791
v 1.2592 -0.1 0.17884
v 1.2189 -0.1 0.17698
v 1.1786 -0.1 0.17226
v 1.1731 -0.1 0.17128000000000002
v 1.1421 -0.1 0.16322
v 1.1383 -0.1 0.16219999999999998
v 1.1148 -0.1 0.15516
v 1.098 -0.1 0.15172
v 1.0693000000000001 -0.1 0.1471
v 1.0577 -0.1 0.14582
v 1.0173999999999999 -0.1 0.14326
v 0.9771 -0.1 0.14214
v 0.9368000000000001 -0.1 0.14164
v 0.0 -0.1 0.0
f 1 123 124
f 1 124 2
f 2 124 125
f 2 125 3
f 3 125 126
f 3 126 4
f 4 126 127
f 4 127 5
f 5 127 128
f 5 128 6
f 6 128 129
f 6 129 7
f 7 129 130
f 7 130 8
f 8 130 131
f 8 131 9
f 9 131 132
f 9 132 10
f 10 132 133
f 10 133 11
f 11 133 134
f 11 134 12
f 12 134 135
f 12 135 13
f 13 135 136
f 13 136 14
f 14 136 137
f 14 137 15
f 15 137 138
f 15 138 16
f 16 138 139
f 16 139 17
f 17 139 140
f 17 140 18
f 18 140 141
f 18 141 19
f 19 141 142
f 19 142 20
f 20 142 143
f 20 143 21
f 21 143 144
f 21 144 22
f 22 144 145
f 22 145 23
f 23 145 146
f 23 146 24
f 24 146 147
f 24 147 25
f 25 147 148
f 25 148 26
f 26 148 149
f 26 149 27
f 27 149 150
f 27 150 28
f 28 150 151
f 28 151 29
f 29 151 152
f 29 152 30
f 30 152 153
f 30 153 31
f 31 153 154
f 31 154 32
f 32 154 155
f 32 155 33
f 33 155 156
f 33 156 34
f 34 156 157
f 34 157 35
f 35 157 158
f 35 158 36
f 36 158 159
f 36 159 37
f 37 159 160
f 37 160 38
f 38 160 161
f 38 161 39
f 39 161 162
f 39 162 40
f 40 162 163
f 40 163 41
f 41 163 164
f 41 164 42
f 42 164 165
f 42 165 43
f 43 165 166
f 43 166 44
f 44 166 167
f 44 167 45
f 45 167 168
f 45 168 46
f 46 168 169
f 46 169 47
f 47 169 170
f 47 170 48
f 48 170 171
f 48 171 49
f 49 171 172
f 49 172 50
f 50 172 173
f 50 173 51
f 51 173 174
f 51 174 52
f 52 174 175
f 52 175 53
f 53 175 176
f 53 176 54
f 54 176 177
f 54 177 55
f 55 177 178
f 55 178 56
f 56 178 179
f 56 179 57
f 57 179 180
f 57 180 58
f 58 180 181
f 58 181 59
f 59 181 182
f 59 182 60
f 60 182 183
f 60 183 61
f 61 183 184
f 61 184 62
f 62 184 185
f 62 185 63
f 63 185 186
f 63 186 64
f 64 186 187
f 64 187 65
f 65 187 188
f 65 188 66
f 66 188 189
f 66 189 67
f 67 189 190
f 67 190 68
f 68 190 191
f 68 191 69
f 69 191 192
f 69 192 70
f 70 192 193
f 70 193 71
f 71 193 194
f 71 194 72
f 72 194 195
f 72 195 73
f 73 195 196
f 73 196 74
f 74 196 197
f 74 197 75
f 75 197 198
f 75 198 76
f 76 198 199
f 76 199 77
f 77 199 200
f 77 200 78
f 78 200 201
f 78 201 79
f 79 201 202
f 79 202 80
f 80 202 203
f 80 203 81
f 81 203 204
f 81 204 82
f 82 204 205
f 82 205 83
f 83 205 206
f 83 206 84
f 84 206 207
f 84 207 85
f 85 207 208
f 85 208 86
f 86 208 209
f 86 209 87
f 87 209 210
f 87 210 88
f 88 210 211
f 88 211 89
f 89 211 212
f 89 212 90
f 90 212 213
f 90 213 91
f 91 213 214
f 91 214 92
f 92 214 215
f 92 215 93
f 93 215 216
f 93 216 94
f 94 216 217
f 94 217 95
f 95 217 218
f 95 218 96
f 96 218 219
f 96 219 97
f 97 219 220
f 97 220 98
f 98 220 221
f 98 221 99
f 99 221 222
f 99 222 100
f 100 222 223
f 100 223 101
f 101 223 224
f 101 224 102
f 102 224 225
f 102 225 103
f 103 225 226
f 103 226 104
f 104 226 227
f 104 227 105
f 105 227 228
f 105 228 106
f 106 228 229
f 106 229 107
f 107 229 230
f 107 230 108
f 108 230 231
f 108 231 109
f 109 231 232
f 109 232 110
f 110 232 233
f 110 233 111
f 111 233 234
f 111 234 112
f 112 234 235
f 112 235 113
f 113 235 236
f 113 236 114
f 114 236 237
f 114 237 115
f 115 237 238
f 115 238 116
f 116 238 239
f 116 239 117
f 117 239 240
f 117 240 118
f 118 240 241
f 118 241 119
f 119 241 242
f 119 242 120
f 120 242 243
f 120 243 121
f 121 243 244
f 121 244 122
f 1 2 3
f 1 3 4
f 1 4 5
f 1 5 6
f 1 6 7
f 1 7 8
f 1 8 9
f 1 9 10
f 1 10 11
f 1 11 12
f 1 12 13
f 1 13 14
f 1 14 15
f 1 15 16
f 1 16 17
f 1 17 18
f 1 18 19
f 1 19 20
f 1 20 21
f 1 21 22
f 1 22 23
f 1 23 24
f 1 24 25
f 1 25 26
f 1 26 27
f 1 27 28
f 1 28 29
f 1 29 30
f 1 30 31
f 1 31 32
f 1 32 33
f 1 33 34
f 1 34 35
f 1 35 36
f 1 36 37
f 1 37 38
f 1 38 39
f 1 39 40
f 1 40 41
f 1 41 42
f 1 42 43
f 1 43 44
f 1 44 45
f 1 45 46
f 1 46 47
f 1 47 48
f 1 48 49
f 1 49 50
f 1 50 51
f 1 51 52
f 1 52 53
f 1 53 54
f 1 54 55
f 1 55 56
f 1 56 57
f 1 57 58
f 1 58 59
f 1 59 60
f 1 60 61
f 1 61 62
f 1 62 63
f 1 63 64
f 1 64 65
f 1 65 66
f 1 66 67
f 1 67 68
f 1 68 69
f 1 69 70
f 1 70 71
f 1 71 72
f 1 72 73
f 1 73 74
f 1 74 75
f 1 75 76
f 1 76 77
f 1 77 78
f 1 78 79
f 1 79 80
f 1 80 81
f 1 81 82
f 1 82 83
f 1 83 84
f 1 84 85
f 1 85 86
f 1 86 87
f 1 87 88
f 1 88 89
f 1 89 90
f 1 90 91
f 1 91 92
f 1 92 93
f 1 93 94
f 1 94 95
f 1 95 96
f 1 96 97
f 1 97 98
f 1 98 99
f 1 99 100
f 1 100 101
f 1 101 102
f 1 102 103
f 1 103 104
f 1 104 105
f 1 105 106
f 1 106 107
f 1 107 108
f 1 108 109
f 1 109 110
f 1 110 111
f 1 111 112
f 1 112 113
f 1 113 114
f 1 114 115
f 1 115 116
f 1 116 117
f 1 117 118
f 1 118 119
f 1 119 120
f 1 120 121
f 1 121 122
f 123 125 124
f 123 126 125
f 123 127 126
f 123 128 127
f 123 129 128
f 123 130 129
f 123 131 130
f 123 132 131
f 123 133 132
f 123 134 133
f 123 135 134
f 123 136 135
f 123 137 136
f 123 138 137
f 123 139 138
f 123 140 139
f 123 141 140
f 123 142 141
f 123 143 142
f 123 144 143
f 123 145 144
f 123 146 145
f 123 147 146
f 123 148 147
f 123 149 148
f 123 150 149
f 123 151 150
f 123 152 151
f 123 153 152
f 123 154 153
f 123 155 154
f 123 156 155
f 123 157 156
f 123 158 157
f 123 159 158
f 123 160 159
f 123 161 160
f 123 162 161
f 123 163 162
f 123 164 163
f 123 165 164
f 123 166 165
f 123 167 166
f 123 168 167
f 123 169 168
f 123 170 169
f 123 171 170
f 123 172 171
f 123 173 172
f 123 174 173
f 123 175 174
f 123 176 175
f 123 177 176
f 123 178 177
f 123 179 178
f 123 180 179
f 123 181 180
f 123 182 181
f 123 183 182
f 123 184 183
f 123 185 184
f 123 186 185
f 123 187 186
f 123 188 187
f 123 189 188
f 123 190 189
f 123 191 190
f 123 192 191
f 123 193 192
f 123 194 193
f 123 195 194
f 123 196 195
f 123 197 196
f 123 198 197
f 123 199 198
f 123 200 199
f 123 201 200
f 123 202 201
f 123 203 202
f 123 204 203
f 123 205 204
f 123 206 205
f 123 207 206
f 123 208 207
f 123 209 208
f 123 210 209
f 123 211 210
f 123 212 211
f 123 213 212
f 123 214 213
f 123 215 214
f 123 216 215
f 123 217 216
f 123 218 217
f 123 219 218
f 123 220 219
f 123 221 220
f 123 222 221
f 123 223 222
f 123 224 223
f 123 225 224
f 123 226 225
f 123 227 226
f 123 228 227
f 123 229 228
f 123 230 229
f 123 231 230
f 123 232 231
f 123 233 232
f 123 234 233
f 123 235 234
f 123 236 235
f 123 237 236
f 123 238 237
f 123 239 238
f 123 240 239
f 123 241 240
f 123 242 241
f 123 243 242
f 123 244 243
f 1 123 124
f 1 124 2
f 122 243 244
f 122 121 243
