v 0.0 0.0 0.0
v nan 0.0 nan
v 3.527 0.0 0.0
v 3.524 0.0 0.006
v 3.5210000000000004 0.0 0.012199999999999999
v 3.517 0.0 0.0182
v 3.511 0.0 0.0242
v 3.503 0.0 0.0304
v 3.4939999999999998 0.0 0.0364
v 3.4819999999999998 0.0 0.0424
v 3.48 0.0 0.0434
v 3.468 0.0 0.0484
v 3.4530000000000003 0.0 0.0546
v 3.437 0.0 0.0606
v 3.429 0.0 0.0634
v 3.4210000000000003 0.0 0.06659999999999999
v 3.4080000000000004 0.0 0.0728
v 3.4 0.0 0.0788
v 3.395 0.0 0.0848
v 3.3960000000000004 0.0 0.091
v 3.4 0.0 0.097
v 3.406 0.0 0.10300000000000001
v 3.4130000000000003 0.0 0.109
v 3.419 0.0 0.11520000000000001
v 3.424 0.0 0.1212
v 3.426 0.0 0.1272
v 3.4250000000000003 0.0 0.13340000000000002
v 3.4210000000000003 0.0 0.1394
v 3.4130000000000003 0.0 0.1454
v 3.4010000000000002 0.0 0.15159999999999998
v 3.3850000000000002 0.0 0.1576
v 3.379 0.0 0.15940000000000001
v 3.363 0.0 0.1636
v 3.333 0.0 0.1696
v 3.3280000000000003 0.0 0.1706
v 3.2910000000000004 0.0 0.1758
v 3.278 0.0 0.1774
v 3.227 0.0 0.18180000000000002
v 3.227 0.0 0.18180000000000002
v 3.177 0.0 0.1844
v 3.1260000000000003 0.0 0.1856
v 3.0760000000000005 0.0 0.1856
v 3.025 0.0 0.1854
v 2.975 0.0 0.18480000000000002
v 2.924 0.0 0.1844
v 2.8739999999999997 0.0 0.1842
v 2.823 0.0 0.1846
v 2.773 0.0 0.18580000000000002
v 2.725 0.0 0.18780000000000002
v 2.722 0.0 0.188
v 2.672 0.0 0.191
v 2.6310000000000002 0.0 0.194
v 2.6210000000000004 0.0 0.1946
v 2.571 0.0 0.1978
v 2.5330000000000004 0.0 0.2
v 2.52 0.0 0.2006
v 2.47 0.0 0.2024
v 2.419 0.0 0.2034
v 2.369 0.0 0.20400000000000001
v 2.318 0.0 0.2042
v 2.2680000000000002 0.0 0.20400000000000001
v 2.217 0.0 0.2034
v 2.167 0.0 0.2022
v 2.116 0.0 0.2006
v 2.105 0.0 0.2
v 2.066 0.0 0.198
v 2.015 0.0 0.19480000000000003
v 2.006 0.0 0.194
v 1.965 0.0 0.19019999999999998
v 1.943 0.0 0.18780000000000002
v 1.9140000000000001 0.0 0.1846
v 1.8930000000000002 0.0 0.18180000000000002
v 1.864 0.0 0.1776
v 1.8519999999999999 0.0 0.1758
v 1.817 0.0 0.1696
v 1.8130000000000002 0.0 0.1688
v 1.79 0.0 0.1636
v 1.767 0.0 0.1576
v 1.7630000000000001 0.0 0.1562
v 1.749 0.0 0.15159999999999998
v 1.734 0.0 0.1454
v 1.719 0.0 0.1394
v 1.712 0.0 0.1366
v 1.703 0.0 0.13340000000000002
v 1.681 0.0 0.1272
v 1.662 0.0 0.1236
v 1.647 0.0 0.1212
v 1.611 0.0 0.1166
v 1.598 0.0 0.11520000000000001
v 1.561 0.0 0.11159999999999999
v 1.5350000000000001 0.0 0.109
v 1.51 0.0 0.107
v 1.4669999999999999 0.0 0.10300000000000001
v 1.46 0.0 0.1024
v 1.409 0.0 0.09740000000000001
v 1.406 0.0 0.097
v 1.359 0.0 0.0916
v 1.3530000000000002 0.0 0.091
v 1.308 0.0 0.0848
v 1.308 0.0 0.0848
v 1.27 0.0 0.0788
v 1.258 0.0 0.0768
v 1.235 0.0 0.0728
v 1.207 0.0 0.0676
v 1.202 0.0 0.06659999999999999
v 1.173 0.0 0.0606
v 1.157 0.0 0.0572
v 1.145 0.0 0.0546
v 1.119 0.0 0.0484
v 1.1059999999999999 0.0 0.045200000000000004
v 1.095 0.0 0.0424
v 1.074 0.0 0.0364
v 1.056 0.0 0.0308
v 1.054 0.0 0.0304
v 1.036 0.0 0.0242
v 1.02 0.0 0.0182
v 1.0050000000000001 0.0 0.012199999999999999
v 1.0050000000000001 0.0 0.012
v 0.9920000000000001 0.0 0.006
v 0.9790000000000001 0.0 0.0
v 0.0 0.0 0.0
v 0.0 -0.1 0.0
v nan -0.1 nan
v 3.527 -0.1 0.0
v 3.524 -0.1 0.006
v 3.5210000000000004 -0.1 0.012199999999999999
v 3.517 -0.1 0.0182
v 3.511 -0.1 0.0242
v 3.503 -0.1 0.0304
v 3.4939999999999998 -0.1 0.0364
v 3.4819999999999998 -0.1 0.0424
v 3.48 -0.1 0.0434
v 3.468 -0.1 0.0484
v 3.4530000000000003 -0.1 0.0546
v 3.437 -0.1 0.0606
v 3.429 -0.1 0.0634
v 3.4210000000000003 -0.1 0.06659999999999999
v 3.4080000000000004 -0.1 0.0728
v 3.4 -0.1 0.0788
v 3.395 -0.1 0.0848
v 3.3960000000000004 -0.1 0.091
v 3.4 -0.1 0.097
v 3.406 -0.1 0.10300000000000001
v 3.4130000000000003 -0.1 0.109
v 3.419 -0.1 0.11520000000000001
v 3.424 -0.1 0.1212
v 3.426 -0.1 0.1272
v 3.4250000000000003 -0.1 0.13340000000000002
v 3.4210000000000003 -0.1 0.1394
v 3.4130000000000003 -0.1 0.1454
v 3.4010000000000002 -0.1 0.15159999999999998
v 3.3850000000000002 -0.1 0.1576
v 3.379 -0.1 0.15940000000000001
v 3.363 -0.1 0.1636
v 3.333 -0.1 0.1696
v 3.3280000000000003 -0.1 0.1706
v 3.2910000000000004 -0.1 0.1758
v 3.278 -0.1 0.1774
v 3.227 -0.1 0.18180000000000002
v 3.227 -0.1 0.18180000000000002
v 3.177 -0.1 0.1844
v 3.1260000000000003 -0.1 0.1856
v 3.0760000000000005 -0.1 0.1856
v 3.025 -0.1 0.1854
v 2.975 -0.1 0.18480000000000002
v 2.924 -0.1 0.1844
v 2.8739999999999997 -0.1 0.1842
v 2.823 -0.1 0.1846
v 2.773 -0.1 0.18580000000000002
v 2.725 -0.1 0.18780000000000002
v 2.722 -0.1 0.188
v 2.672 -0.1 0.191
v 2.6310000000000002 -0.1 0.194
v 2.6210000000000004 -0.1 0.1946
v 2.571 -0.1 0.1978
v 2.5330000000000004 -0.1 0.2
v 2.52 -0.1 0.2006
v 2.47 -0.1 0.2024
v 2.419 -0.1 0.2034
v 2.369 -0.1 0.20400000000000001
v 2.318 -0.1 0.2042
v 2.2680000000000002 -0.1 0.20400000000000001
v 2.217 -0.1 0.2034
v 2.167 -0.1 0.2022
v 2.116 -0.1 0.2006
v 2.105 -0.1 0.2
v 2.066 -0.1 0.198
v 2.015 -0.1 0.19480000000000003
v 2.006 -0.1 0.194
v 1.965 -0.1 0.19019999999999998
v 1.943 -0.1 0.18780000000000002
v 1.9140000000000001 -0.1 0.1846
v 1.8930000000000002 -0.1 0.18180000000000002
v 1.864 -0.1 0.1776
v 1.8519999999999999 -0.1 0.1758
v 1.817 -0.1 0.1696
v 1.8130000000000002 -0.1 0.1688
v 1.79 -0.1 0.1636
v 1.767 -0.1 0.1576
v 1.7630000000000001 -0.1 0.1562
v 1.749 -0.1 0.15159999999999998
v 1.734 -0.1 0.1454
v 1.719 -0.1 0.1394
v 1.712 -0.1 0.1366
v 1.703 -0.1 0.13340000000000002
v 1.681 -0.1 0.1272
v 1.662 -0.1 0.1236
v 1.647 -0.1 0.1212
v 1.611 -0.1 0.1166
v 1.598 -0.1 0.11520000000000001
v 1.561 -0.1 0.11159999999999999
v 1.5350000000000001 -0.1 0.109
v 1.51 -0.1 0.107
v 1.4669999999999999 -0.1 0.10300000000000001
v 1.46 -0.1 0.1024
v 1.409 -0.1 0.09740000000000001
v 1.406 -0.1 0.097
v 1.359 -0.1 0.0916
v 1.3530000000000002 -0.1 0.091
v 1.308 -0.1 0.0848
v 1.308 -0.1 0.0848
v 1.27 -0.1 0.0788
v 1.258 -0.1 0.0768
v 1.235 -0.1 0.0728
v 1.207 -0.1 0.0676
v 1.202 -0.1 0.06659999999999999
v 1.173 -0.1 0.0606
v 1.157 -0.1 0.0572
v 1.145 -0.1 0.0546
v 1.119 -0.1 0.0484
v 1.1059999999999999 -0.1 0.045200000000000004
v 1.095 -0.1 0.0424
v 1.074 -0.1 0.0364
v 1.056 -0.1 0.0308
v 1.054 -0.1 0.0304
v 1.036 -0.1 0.0242
v 1.02 -0.1 0.0182
v 1.0050000000000001 -0.1 0.012199999999999999
v 1.0050000000000001 -0.1 0.012
v 0.9920000000000001 -0.1 0.006
v 0.9790000000000001 -0.1 0.0
v 0.0 -0.1 0.0
f 1 122 123
f 1 123 2
f 2 123 124
f 2 124 3
f 3 124 125
f 3 125 4
f 4 125 126
f 4 126 5
f 5 126 127
f 5 127 6
f 6 127 128
f 6 128 7
f 7 128 129
f 7 129 8
f 8 129 130
f 8 130 9
f 9 130 131
f 9 131 10
f 10 131 132
f 10 132 11
f 11 132 133
f 11 133 12
f 12 133 134
f 12 134 13
f 13 134 135
f 13 135 14
f 14 135 136
f 14 136 15
f 15 136 137
f 15 137 16
f 16 137 138
f 16 138 17
f 17 138 139
f 17 139 18
f 18 139 140
f 18 140 19
f 19 140 141
f 19 141 20
f 20 141 142
f 20 142 21
f 21 142 143
f 21 143 22
f 22 143 144
f 22 144 23
f 23 144 145
f 23 145 24
f 24 145 146
f 24 146 25
f 25 146 147
f 25 147 26
f 26 147 148
f 26 148 27
f 27 148 149
f 27 149 28
f 28 149 150
f 28 150 29
f 29 150 151
f 29 151 30
f 30 151 152
f 30 152 31
f 31 152 153
f 31 153 32
f 32 153 154
f 32 154 33
f 33 154 155
f 33 155 34
f 34 155 156
f 34 156 35
f 35 156 157
f 35 157 36
f 36 157 158
f 36 158 37
f 37 158 159
f 37 159 38
f 38 159 160
f 38 160 39
f 39 160 161
f 39 161 40
f 40 161 162
f 40 162 41
f 41 162 163
f 41 163 42
f 42 163 164
f 42 164 43
f 43 164 165
f 43 165 44
f 44 165 166
f 44 166 45
f 45 166 167
f 45 167 46
f 46 167 168
f 46 168 47
f 47 168 169
f 47 169 48
f 48 169 170
f 48 170 49
f 49 170 171
f 49 171 50
f 50 171 172
f 50 172 51
f 51 172 173
f 51 173 52
f 52 173 174
f 52 174 53
f 53 174 175
f 53 175 54
f 54 175 176
f 54 176 55
f 55 176 177
f 55 177 56
f 56 177 178
f 56 178 57
f 57 178 179
f 57 179 58
f 58 179 180
f 58 180 59
f 59 180 181
f 59 181 60
f 60 181 182
f 60 182 61
f 61 182 183
f 61 183 62
f 62 183 184
f 62 184 63
f 63 184 185
f 63 185 64
f 64 185 186
f 64 186 65
f 65 186 187
f 65 187 66
f 66 187 188
f 66 188 67
f 67 188 189
f 67 189 68
f 68 189 190
f 68 190 69
f 69 190 191
f 69 191 70
f 70 191 192
f 70 192 71
f 71 192 193
f 71 193 72
f 72 193 194
f 72 194 73
f 73 194 195
f 73 195 74
f 74 195 196
f 74 196 75
f 75 196 197
f 75 197 76
f 76 197 198
f 76 198 77
f 77 198 199
f 77 199 78
f 78 199 200
f 78 200 79
f 79 200 201
f 79 201 80
f 80 201 202
f 80 202 81
f 81 202 203
f 81 203 82
f 82 203 204
f 82 204 83
f 83 204 205
f 83 205 84
f 84 205 206
f 84 206 85
f 85 206 207
f 85 207 86
f 86 207 208
f 86 208 87
f 87 208 209
f 87 209 88
f 88 209 210
f 88 210 89
f 89 210 211
f 89 211 90
f 90 211 212
f 90 212 91
f 91 212 213
f 91 213 92
f 92 213 214
f 92 214 93
f 93 214 215
f 93 215 94
f 94 215 216
f 94 216 95
f 95 216 217
f 95 217 96
f 96 217 218
f 96 218 97
f 97 218 219
f 97 219 98
f 98 219 220
f 98 220 99
f 99 220 221
f 99 221 100
f 100 221 222
f 100 222 101
f 101 222 223
f 101 223 102
f 102 223 224
f 102 224 103
f 103 224 225
f 103 225 104
f 104 225 226
f 104 226 105
f 105 226 227
f 105 227 106
f 106 227 228
f 106 228 107
f 107 228 229
f 107 229 108
f 108 229 230
f 108 230 109
f 109 230 231
f 109 231 110
f 110 231 232
f 110 232 111
f 111 232 233
f 111 233 112
f 112 233 234
f 112 234 113
f 113 234 235
f 113 235 114
f 114 235 236
f 114 236 115
f 115 236 237
f 115 237 116
f 116 237 238
f 116 238 117
f 117 238 239
f 117 239 118
f 118 239 240
f 118 240 119
f 119 240 241
f 119 241 120
f 120 241 242
f 120 242 121
f 1 2 3
f 1 3 4
f 1 4 5
f 1 5 6
f 1 6 7
f 1 7 8
f 1 8 9
f 1 9 10
f 1 10 11
f 1 11 12
f 1 12 13
f 1 13 14
f 1 14 15
f 1 15 16
f 1 16 17
f 1 17 18
f 1 18 19
f 1 19 20
f 1 20 21
f 1 21 22
f 1 22 23
f 1 23 24
f 1 24 25
f 1 25 26
f 1 26 27
f 1 27 28
f 1 28 29
f 1 29 30
f 1 30 31
f 1 31 32
f 1 32 33
f 1 33 34
f 1 34 35
f 1 35 36
f 1 36 37
f 1 37 38
f 1 38 39
f 1 39 40
f 1 40 41
f 1 41 42
f 1 42 43
f 1 43 44
f 1 44 45
f 1 45 46
f 1 46 47
f 1 47 48
f 1 48 49
f 1 49 50
f 1 50 51
f 1 51 52
f 1 52 53
f 1 53 54
f 1 54 55
f 1 55 56
f 1 56 57
f 1 57 58
f 1 58 59
f 1 59 60
f 1 60 61
f 1 61 62
f 1 62 63
f 1 63 64
f 1 64 65
f 1 65 66
f 1 66 67
f 1 67 68
f 1 68 69
f 1 69 70
f 1 70 71
f 1 71 72
f 1 72 73
f 1 73 74
f 1 74 75
f 1 75 76
f 1 76 77
f 1 77 78
f 1 78 79
f 1 79 80
f 1 80 81
f 1 81 82
f 1 82 83
f 1 83 84
f 1 84 85
f 1 85 86
f 1 86 87
f 1 87 88
f 1 88 89
f 1 89 90
f 1 90 91
f 1 91 92
f 1 92 93
f 1 93 94
f 1 94 95
f 1 95 96
f 1 96 97
f 1 97 98
f 1 98 99
f 1 99 100
f 1 100 101
f 1 101 102
f 1 102 103
f 1 103 104
f 1 104 105
f 1 105 106
f 1 106 107
f 1 107 108
f 1 108 109
f 1 109 110
f 1 110 111
f 1 111 112
f 1 112 113
f 1 113 114
f 1 114 115
f 1 115 116
f 1 116 117
f 1 117 118
f 1 118 119
f 1 119 120
f 1 120 121
f 122 124 123
f 122 125 124
f 122 126 125
f 122 127 126
f 122 128 127
f 122 129 128
f 122 130 129
f 122 131 130
f 122 132 131
f 122 133 132
f 122 134 133
f 122 135 134
f 122 136 135
f 122 137 136
f 122 138 137
f 122 139 138
f 122 140 139
f 122 141 140
f 122 142 141
f 122 143 142
f 122 144 143
f 122 145 144
f 122 146 145
f 122 147 146
f 122 148 147
f 122 149 148
f 122 150 149
f 122 151 150
f 122 152 151
f 122 153 152
f 122 154 153
f 122 155 154
f 122 156 155
f 122 157 156
f 122 158 157
f 122 159 158
f 122 160 159
f 122 161 160
f 122 162 161
f 122 163 162
f 122 164 163
f 122 165 164
f 122 166 165
f 122 167 166
f 122 168 167
f 122 169 168
f 122 170 169
f 122 171 170
f 122 172 171
f 122 173 172
f 122 174 173
f 122 175 174
f 122 176 175
f 122 177 176
f 122 178 177
f 122 179 178
f 122 180 179
f 122 181 180
f 122 182 181
f 122 183 182
f 122 184 183
f 122 185 184
f 122 186 185
f 122 187 186
f 122 188 187
f 122 189 188
f 122 190 189
f 122 191 190
f 122 192 191
f 122 193 192
f 122 194 193
f 122 195 194
f 122 196 195
f 122 197 196
f 122 198 197
f 122 199 198
f 122 200 199
f 122 201 200
f 122 202 201
f 122 203 202
f 122 204 203
f 122 205 204
f 122 206 205
f 122 207 206
f 122 208 207
f 122 209 208
f 122 210 209
f 122 211 210
f 122 212 211
f 122 213 212
f 122 214 213
f 122 215 214
f 122 216 215
f 122 217 216
f 122 218 217
f 122 219 218
f 122 220 219
f 122 221 220
f 122 222 221
f 122 223 222
f 122 224 223
f 122 225 224
f 122 226 225
f 122 227 226
f 122 228 227
f 122 229 228
f 122 230 229
f 122 231 230
f 122 232 231
f 122 233 232
f 122 234 233
f 122 235 234
f 122 236 235
f 122 237 236
f 122 238 237
f 122 239 238
f 122 240 239
f 122 241 240
f 122 242 241
f 1 122 123
f 1 123 2
f 121 241 242
f 121 120 241
