v 0.0 0.0 0.0
v 2.1637 0.0 0.002
v 2.156 0.0 0.010060000000000001
v 2.149 0.0 0.01812
v 2.1459 0.0 0.02168
v 2.1427 0.0 0.026180000000000002
v 2.1366 0.0 0.03424
v 2.1303 0.0 0.0423
v 2.1233 0.0 0.05036
v 2.1146000000000003 0.0 0.05842
v 2.1056 0.0 0.065
v 2.1035 0.0 0.06648000000000001
v 2.0898 0.0 0.07456
v 2.0743 0.0 0.08262000000000001
v 2.0653 0.0 0.08732
v 2.0579 0.0 0.09068000000000001
v 2.042 0.0 0.09874
v 2.0352 0.0 0.1068
v 2.0349 0.0 0.11486
v 2.0349 0.0 0.12292
v 2.0319 0.0 0.13097999999999999
v 2.025 0.0 0.13616
v 2.0212 0.0 0.13904
v 1.9991999999999999 0.0 0.1471
v 1.9847000000000001 0.0 0.15122
v 1.9728 0.0 0.15516
v 1.9444000000000001 0.0 0.16106
v 1.9318000000000002 0.0 0.16322
v 1.9041 0.0 0.16632
v 1.8638 0.0 0.16958
v 1.8284 0.0 0.17128000000000002
v 1.8235 0.0 0.17146
v 1.7832 0.0 0.17204
v 1.7429 0.0 0.17136
v 1.7412 0.0 0.17128000000000002
v 1.7026 0.0 0.16954
v 1.6622999999999999 0.0 0.16694
v 1.6219999999999999 0.0 0.1641
v 1.6095 0.0 0.16322
v 1.5816999999999999 0.0 0.16068000000000002
v 1.5413999999999999 0.0 0.15580000000000002
v 1.5374 0.0 0.15516
v 1.5011 0.0 0.14998
v 1.4680000000000002 0.0 0.1471
v 1.4608 0.0 0.14666
v 1.4205 0.0 0.14400000000000002
v 1.3800999999999999 0.0 0.14128000000000002
v 1.3444999999999998 0.0 0.13904
v 1.3397999999999999 0.0 0.13876
v 1.2994999999999999 0.0 0.136
v 1.2592 0.0 0.13226
v 1.2493 0.0 0.13097999999999999
v 1.2189 0.0 0.12768000000000002
v 1.1786 0.0 0.12308
v 1.1772 0.0 0.12292
v 1.1383 0.0 0.11894
v 1.098 0.0 0.11536
v 1.0912000000000002 0.0 0.11486
v 1.0577 0.0 0.11226000000000001
v 1.0173999999999999 0.0 0.10944
v 0.9771 0.0 0.10738
v 0.9584999999999999 0.0 0.1068
v 0.9368000000000001 0.0 0.10618000000000001
v 0.0 0.0 0.0
v 0.0 -0.1 0.0
v 2.1637 -0.1 0.002
v 2.156 -0.1 0.010060000000000001
v 2.149 -0.1 0.01812
v 2.1459 -0.1 0.02168
v 2.1427 -0.1 0.026180000000000002
v 2.1366 -0.1 0.03424
v 2.1303 -0.1 0.0423
v 2.1233 -0.1 0.05036
v 2.1146000000000003 -0.1 0.05842
v 2.1056 -0.1 0.065
v 2.1035 -0.1 0.06648000000000001
v 2.0898 -0.1 0.07456
v 2.0743 -0.1 0.08262000000000001
v 2.0653 -0.1 0.08732
v 2.0579 -0.1 0.09068000000000001
v 2.042 -0.1 0.09874
v 2.0352 -0.1 0.1068
v 2.0349 -0.1 0.11486
v 2.0349 -0.1 0.12292
v 2.0319 -0.1 0.13097999999999999
v 2.025 -0.1 0.13616
v 2.0212 -0.1 0.13904
v 1.9991999999999999 -0.1 0.1471
v 1.9847000000000001 -0.1 0.15122
v 1.9728 -0.1 0.15516
v 1.9444000000000001 -0.1 0.16106
v 1.9318000000000002 -0.1 0.16322
v 1.9041 -0.1 0.16632
v 1.8638 -0.1 0.16958
v 1.8284 -0.1 0.17128000000000002
v 1.8235 -0.1 0.17146
v 1.7832 -0.1 0.17204
v 1.7429 -0.1 0.17136
v 1.7412 -0.1 0.17128000000000002
v 1.7026 -0.1 0.16954
v 1.6622999999999999 -0.1 0.16694
v 1.6219999999999999 -0.1 0.1641
v 1.6095 -0.1 0.16322
v 1.5816999999999999 -0.1 0.16068000000000002
v 1.5413999999999999 -0.1 0.15580000000000002
v 1.5374 -0.1 0.15516
v 1.5011 -0.1 0.14998
v 1.4680000000000002 -0.1 0.1471
v 1.4608 -0.1 0.14666
v 1.4205 -0.1 0.14400000000000002
v 1.3800999999999999 -0.1 0.14128000000000002
v 1.3444999999999998 -0.1 0.13904
v 1.3397999999999999 -0.1 0.13876
v 1.2994999999999999 -0.1 0.136
v 1.2592 -0.1 0.13226
v 1.2493 -0.1 0.13097999999999999
v 1.2189 -0.1 0.12768000000000002
v 1.1786 -0.1 0.12308
v 1.1772 -0.1 0.12292
v 1.1383 -0.1 0.11894
v 1.098 -0.1 0.11536
v 1.0912000000000002 -0.1 0.11486
v 1.0577 -0.1 0.11226000000000001
v 1.0173999999999999 -0.1 0.10944
v 0.9771 -0.1 0.10738
v 0.9584999999999999 -0.1 0.1068
v 0.9368000000000001 -0.1 0.10618000000000001
v 0.0 -0.1 0.0
f 1 65 66
f 1 66 2
f 2 66 67
f 2 67 3
f 3 67 68
f 3 68 4
f 4 68 69
f 4 69 5
f 5 69 70
f 5 70 6
f 6 70 71
f 6 71 7
f 7 71 72
f 7 72 8
f 8 72 73
f 8 73 9
f 9 73 74
f 9 74 10
f 10 74 75
f 10 75 11
f 11 75 76
f 11 76 12
f 12 76 77
f 12 77 13
f 13 77 78
f 13 78 14
f 14 78 79
f 14 79 15
f 15 79 80
f 15 80 16
f 16 80 81
f 16 81 17
f 17 81 82
f 17 82 18
f 18 82 83
f 18 83 19
f 19 83 84
f 19 84 20
f 20 84 85
f 20 85 21
f 21 85 86
f 21 86 22
f 22 86 87
f 22 87 23
f 23 87 88
f 23 88 24
f 24 88 89
f 24 89 25
f 25 89 90
f 25 90 26
f 26 90 91
f 26 91 27
f 27 91 92
f 27 92 28
f 28 92 93
f 28 93 29
f 29 93 94
f 29 94 30
f 30 94 95
f 30 95 31
f 31 95 96
f 31 96 32
f 32 96 97
f 32 97 33
f 33 97 98
f 33 98 34
f 34 98 99
f 34 99 35
f 35 99 100
f 35 100 36
f 36 100 101
f 36 101 37
f 37 101 102
f 37 102 38
f 38 102 103
f 38 103 39
f 39 103 104
f 39 104 40
f 40 104 105
f 40 105 41
f 41 105 106
f 41 106 42
f 42 106 107
f 42 107 43
f 43 107 108
f 43 108 44
f 44 108 109
f 44 109 45
f 45 109 110
f 45 110 46
f 46 110 111
f 46 111 47
f 47 111 112
f 47 112 48
f 48 112 113
f 48 113 49
f 49 113 114
f 49 114 50
f 50 114 115
f 50 115 51
f 51 115 116
f 51 116 52
f 52 116 117
f 52 117 53
f 53 117 118
f 53 118 54
f 54 118 119
f 54 119 55
f 55 119 120
f 55 120 56
f 56 120 121
f 56 121 57
f 57 121 122
f 57 122 58
f 58 122 123
f 58 123 59
f 59 123 124
f 59 124 60
f 60 124 125
f 60 125 61
f 61 125 126
f 61 126 62
f 62 126 127
f 62 127 63
f 63 127 128
f 63 128 64
f 1 2 3
f 1 3 4
f 1 4 5
f 1 5 6
f 1 6 7
f 1 7 8
f 1 8 9
f 1 9 10
f 1 10 11
f 1 11 12
f 1 12 13
f 1 13 14
f 1 14 15
f 1 15 16
f 1 16 17
f 1 17 18
f 1 18 19
f 1 19 20
f 1 20 21
f 1 21 22
f 1 22 23
f 1 23 24
f 1 24 25
f 1 25 26
f 1 26 27
f 1 27 28
f 1 28 29
f 1 29 30
f 1 30 31
f 1 31 32
f 1 32 33
f 1 33 34
f 1 34 35
f 1 35 36
f 1 36 37
f 1 37 38
f 1 38 39
f 1 39 40
f 1 40 41
f 1 41 42
f 1 42 43
f 1 43 44
f 1 44 45
f 1 45 46
f 1 46 47
f 1 47 48
f 1 48 49
f 1 49 50
f 1 50 51
f 1 51 52
f 1 52 53
f 1 53 54
f 1 54 55
f 1 55 56
f 1 56 57
f 1 57 58
f 1 58 59
f 1 59 60
f 1 60 61
f 1 61 62
f 1 62 63
f 1 63 64
f 65 67 66
f 65 68 67
f 65 69 68
f 65 70 69
f 65 71 70
f 65 72 71
f 65 73 72
f 65 74 73
f 65 75 74
f 65 76 75
f 65 77 76
f 65 78 77
f 65 79 78
f 65 80 79
f 65 81 80
f 65 82 81
f 65 83 82
f 65 84 83
f 65 85 84
f 65 86 85
f 65 87 86
f 65 88 87
f 65 89 88
f 65 90 89
f 65 91 90
f 65 92 91
f 65 93 92
f 65 94 93
f 65 95 94
f 65 96 95
f 65 97 96
f 65 98 97
f 65 99 98
f 65 100 99
f 65 101 100
f 65 102 101
f 65 103 102
f 65 104 103
f 65 105 104
f 65 106 105
f 65 107 106
f 65 108 107
f 65 109 108
f 65 110 109
f 65 111 110
f 65 112 111
f 65 113 112
f 65 114 113
f 65 115 114
f 65 116 115
f 65 117 116
f 65 118 117
f 65 119 118
f 65 120 119
f 65 121 120
f 65 122 121
f 65 123 122
f 65 124 123
f 65 125 124
f 65 126 125
f 65 127 126
f 65 128 127
f 1 65 66
f 1 66 2
f 64 127 128
f 64 63 127
