v 0.0 0.0 0.0
v 0.5 0.0 0.0014656
v 0.5164 0.0 0.0015344
v 0.52525 0.0 0.0015726
v 0.53478 0.0 0.0016122
v 0.5505 0.0 0.0016794
v 0.55406 0.0 0.001694
v 0.57438 0.0 0.0017796
v 0.57576 0.0 0.0017858000000000001
v 0.5958100000000001 0.0 0.0018700000000000001
v 0.60101 0.0 0.0018924
v 0.61814 0.0 0.0019648
v 0.62626 0.0 0.002
v 0.64119 0.0 0.0020640000000000003
v 0.6515099999999999 0.0 0.0021102
v 0.6646599999999999 0.0 0.0021688000000000002
v 0.6767700000000001 0.0 0.0022256
v 0.68818 0.0 0.0022789999999999998
v 0.70202 0.0 0.002347
v 0.7113700000000001 0.0 0.0023940000000000003
v 0.7272700000000001 0.0 0.0024794
v 0.7339100000000001 0.0 0.0025156
v 0.75252 0.0 0.002625
v 0.7555200000000001 0.0 0.0026425999999999997
v 0.77615 0.0 0.0027768000000000003
v 0.77778 0.0 0.0027882
v 0.7958799999999999 0.0 0.0029176000000000002
v 0.80303 0.0 0.0029726
v 0.8146800000000001 0.0 0.003065
v 0.82828 0.0 0.0031814
v 0.83273 0.0 0.0032206
v 0.85041 0.0 0.003384
v 0.85353 0.0 0.003413
v 0.86804 0.0 0.0035550000000000004
v 0.8787900000000001 0.0 0.003663
v 0.88574 0.0 0.0037354
v 0.9037900000000001 0.0 0.003925
v 0.90404 0.0 0.0039268
v 0.92271 0.0 0.0041232
v 0.9292900000000001 0.0 0.004192
v 0.94246 0.0 0.0043324
v 0.9545399999999999 0.0 0.0044578
v 0.96328 0.0 0.0045512
v 0.9798000000000001 0.0 0.0047232
v 0.9853400000000001 0.0 0.0047821999999999995
v 1.0051 0.0 0.0049858
v 1.0088 0.0 0.005025000000000001
v 1.0303 0.0 0.0052436
v 1.0337 0.0 0.0052788
v 1.0556 0.0 0.0054996
v 1.0601 0.0 0.0055466
v 1.0808 0.0 0.005754800000000001
v 1.0879 0.0 0.0058281999999999995
v 1.1061 0.0 0.0060108
v 1.117 0.0 0.006122600000000001
v 1.1313 0.0 0.006268
v 1.1472 0.0 0.0064332
v 1.1566 0.0 0.0065302
v 1.1782 0.0 0.006759800000000001
v 1.1818000000000002 0.0 0.006797200000000001
v 1.2071 0.0 0.0070718
v 1.2098 0.0 0.0071012
v 1.2323000000000002 0.0 0.0073524
v 1.2418 0.0 0.0074616
v 1.2576 0.0 0.0076476
v 1.2735 0.0 0.0078402
v 1.2828 0.0 0.0079566
v 1.3047 0.0 0.0082362
v 1.3081 0.0 0.008282
v 1.3333000000000002 0.0 0.0086284
v 1.3352000000000002 0.0 0.008654199999999999
v 1.3586000000000003 0.0 0.0089998
v 1.3647 0.0 0.0090914
v 1.3838 0.0 0.0094044
v 1.3928 0.0 0.0095528
v 1.4091 0.0 0.0098454
v 1.4195 0.0 0.010037599999999999
v 1.4343000000000001 0.0 0.0103354
v 1.4445 0.0 0.010544600000000001
v 1.4596 0.0 0.01089
v 1.4678 0.0 0.0110798
v 1.4848 0.0 0.011524800000000002
v 1.4891999999999999 0.0 0.011642
v 1.5086000000000002 0.0 0.012230000000000001
v 1.5101 0.0 0.0122838
v 1.526 0.0 0.012850799999999999
v 1.5353999999999999 0.0 0.013259600000000002
v 1.5409000000000002 0.0 0.013503000000000001
v 1.5533000000000001 0.0 0.014185000000000001
v 1.5606 0.0 0.014731000000000001
v 1.5629 0.0 0.014905
v 1.5695 0.0 0.0156578
v 1.5725 0.0 0.016452400000000002
v 1.5716 0.0 0.0172874
v 1.5661000000000003 0.0 0.0181606
v 1.5606 0.0 0.018648
v 1.5556999999999999 0.0 0.0190822
v 1.5396 0.0 0.020050000000000002
v 1.5353999999999999 0.0 0.020239999999999998
v 1.5172 0.0 0.021064
v 1.5101 0.0 0.021322
v 1.4877 0.0 0.022132000000000002
v 1.4848 0.0 0.02222
v 1.4596 0.0 0.02299
v 1.4509 0.0 0.023256000000000002
v 1.4343000000000001 0.0 0.023694
v 1.4091 0.0 0.024358
v 1.4062999999999999 0.0 0.02443
v 1.3838 0.0 0.024964
v 1.3586000000000003 0.0 0.025564
v 1.3541999999999998 0.0 0.025670000000000002
v 1.3333000000000002 0.0 0.02613
v 1.3081 0.0 0.026682
v 1.2953999999999999 0.0 0.026972000000000003
v 1.2828 0.0 0.027228000000000002
v 1.2576 0.0 0.027766
v 1.2323000000000002 0.0 0.028302
v 1.2309 0.0 0.028336
v 1.2071 0.0 0.028829999999999998
v 1.1818000000000002 0.0 0.029358000000000002
v 1.1623 0.0 0.029774000000000002
v 1.1566 0.0 0.02989
v 1.1313 0.0 0.030418
v 1.1061 0.0 0.030948
v 1.0907 0.0 0.031278
v 1.0808 0.0 0.031486
v 1.0556 0.0 0.03202000000000001
v 1.0303 0.0 0.032564
v 1.0166 0.0 0.032864
v 1.0051 0.0 0.033116
v 0.9798000000000001 0.0 0.033662
v 0.9545399999999999 0.0 0.034216
v 0.9401600000000001 0.0 0.034532
v 0.9292900000000001 0.0 0.034772
v 0.90404 0.0 0.035328000000000005
v 0.8787900000000001 0.0 0.035886
v 0.86088 0.0 0.036276
v 0.85353 0.0 0.036444000000000004
v 0.82828 0.0 0.037002
v 0.80303 0.0 0.03756
v 0.77778 0.0 0.038118000000000006
v 0.77766 0.0 0.038118000000000006
v 0.75252 0.0 0.038674
v 0.7272700000000001 0.0 0.039222
v 0.70202 0.0 0.039768000000000005
v 0.68853 0.0 0.040052
v 0.6767700000000001 0.0 0.040302
v 0.6515099999999999 0.0 0.040834
v 0.62626 0.0 0.041356000000000004
v 0.60101 0.0 0.041872
v 0.59052 0.0 0.042076
v 0.57576 0.0 0.042378
v 0.5505 0.0 0.042868
v 0.52525 0.0 0.043354
v 0.5 0.0 0.043826000000000004
v 0.0 0.0 0.0
v 0.0 -0.1 0.0
v 0.5 -0.1 0.0014656
v 0.5164 -0.1 0.0015344
v 0.52525 -0.1 0.0015726
v 0.53478 -0.1 0.0016122
v 0.5505 -0.1 0.0016794
v 0.55406 -0.1 0.001694
v 0.57438 -0.1 0.0017796
v 0.57576 -0.1 0.0017858000000000001
v 0.5958100000000001 -0.1 0.0018700000000000001
v 0.60101 -0.1 0.0018924
v 0.61814 -0.1 0.0019648
v 0.62626 -0.1 0.002
v 0.64119 -0.1 0.0020640000000000003
v 0.6515099999999999 -0.1 0.0021102
v 0.6646599999999999 -0.1 0.0021688000000000002
v 0.6767700000000001 -0.1 0.0022256
v 0.68818 -0.1 0.0022789999999999998
v 0.70202 -0.1 0.002347
v 0.7113700000000001 -0.1 0.0023940000000000003
v 0.7272700000000001 -0.1 0.0024794
v 0.7339100000000001 -0.1 0.0025156
v 0.75252 -0.1 0.002625
v 0.7555200000000001 -0.1 0.0026425999999999997
v 0.77615 -0.1 0.0027768000000000003
v 0.77778 -0.1 0.0027882
v 0.7958799999999999 -0.1 0.0029176000000000002
v 0.80303 -0.1 0.0029726
v 0.8146800000000001 -0.1 0.003065
v 0.82828 -0.1 0.0031814
v 0.83273 -0.1 0.0032206
v 0.85041 -0.1 0.003384
v 0.85353 -0.1 0.003413
v 0.86804 -0.1 0.0035550000000000004
v 0.8787900000000001 -0.1 0.003663
v 0.88574 -0.1 0.0037354
v 0.9037900000000001 -0.1 0.003925
v 0.90404 -0.1 0.0039268
v 0.92271 -0.1 0.0041232
v 0.9292900000000001 -0.1 0.004192
v 0.94246 -0.1 0.0043324
v 0.9545399999999999 -0.1 0.0044578
v 0.96328 -0.1 0.0045512
v 0.9798000000000001 -0.1 0.0047232
v 0.9853400000000001 -0.1 0.0047821999999999995
v 1.0051 -0.1 0.0049858
v 1.0088 -0.1 0.005025000000000001
v 1.0303 -0.1 0.0052436
v 1.0337 -0.1 0.0052788
v 1.0556 -0.1 0.0054996
v 1.0601 -0.1 0.0055466
v 1.0808 -0.1 0.005754800000000001
v 1.0879 -0.1 0.0058281999999999995
v 1.1061 -0.1 0.0060108
v 1.117 -0.1 0.006122600000000001
v 1.1313 -0.1 0.006268
v 1.1472 -0.1 0.0064332
v 1.1566 -0.1 0.0065302
v 1.1782 -0.1 0.006759800000000001
v 1.1818000000000002 -0.1 0.006797200000000001
v 1.2071 -0.1 0.0070718
v 1.2098 -0.1 0.0071012
v 1.2323000000000002 -0.1 0.0073524
v 1.2418 -0.1 0.0074616
v 1.2576 -0.1 0.0076476
v 1.2735 -0.1 0.0078402
v 1.2828 -0.1 0.0079566
v 1.3047 -0.1 0.0082362
v 1.3081 -0.1 0.008282
v 1.3333000000000002 -0.1 0.0086284
v 1.3352000000000002 -0.1 0.008654199999999999
v 1.3586000000000003 -0.1 0.0089998
v 1.3647 -0.1 0.0090914
v 1.3838 -0.1 0.0094044
v 1.3928 -0.1 0.0095528
v 1.4091 -0.1 0.0098454
v 1.4195 -0.1 0.010037599999999999
v 1.4343000000000001 -0.1 0.0103354
v 1.4445 -0.1 0.010544600000000001
v 1.4596 -0.1 0.01089
v 1.4678 -0.1 0.0110798
v 1.4848 -0.1 0.011524800000000002
v 1.4891999999999999 -0.1 0.011642
v 1.5086000000000002 -0.1 0.012230000000000001
v 1.5101 -0.1 0.0122838
v 1.526 -0.1 0.012850799999999999
v 1.5353999999999999 -0.1 0.013259600000000002
v 1.5409000000000002 -0.1 0.013503000000000001
v 1.5533000000000001 -0.1 0.014185000000000001
v 1.5606 -0.1 0.014731000000000001
v 1.5629 -0.1 0.014905
v 1.5695 -0.1 0.0156578
v 1.5725 -0.1 0.016452400000000002
v 1.5716 -0.1 0.0172874
v 1.5661000000000003 -0.1 0.0181606
v 1.5606 -0.1 0.018648
v 1.5556999999999999 -0.1 0.0190822
v 1.5396 -0.1 0.020050000000000002
v 1.5353999999999999 -0.1 0.020239999999999998
v 1.5172 -0.1 0.021064
v 1.5101 -0.1 0.021322
v 1.4877 -0.1 0.022132000000000002
v 1.4848 -0.1 0.02222
v 1.4596 -0.1 0.02299
v 1.4509 -0.1 0.023256000000000002
v 1.4343000000000001 -0.1 0.023694
v 1.4091 -0.1 0.024358
v 1.4062999999999999 -0.1 0.02443
v 1.3838 -0.1 0.024964
v 1.3586000000000003 -0.1 0.025564
v 1.3541999999999998 -0.1 0.025670000000000002
v 1.3333000000000002 -0.1 0.02613
v 1.3081 -0.1 0.026682
v 1.2953999999999999 -0.1 0.026972000000000003
v 1.2828 -0.1 0.027228000000000002
v 1.2576 -0.1 0.027766
v 1.2323000000000002 -0.1 0.028302
v 1.2309 -0.1 0.028336
v 1.2071 -0.1 0.028829999999999998
v 1.1818000000000002 -0.1 0.029358000000000002
v 1.1623 -0.1 0.029774000000000002
v 1.1566 -0.1 0.02989
v 1.1313 -0.1 0.030418
v 1.1061 -0.1 0.030948
v 1.0907 -0.1 0.031278
v 1.0808 -0.1 0.031486
v 1.0556 -0.1 0.03202000000000001
v 1.0303 -0.1 0.032564
v 1.0166 -0.1 0.032864
v 1.0051 -0.1 0.033116
v 0.9798000000000001 -0.1 0.033662
v 0.9545399999999999 -0.1 0.034216
v 0.9401600000000001 -0.1 0.034532
v 0.9292900000000001 -0.1 0.034772
v 0.90404 -0.1 0.035328000000000005
v 0.8787900000000001 -0.1 0.035886
v 0.86088 -0.1 0.036276
v 0.85353 -0.1 0.036444000000000004
v 0.82828 -0.1 0.037002
v 0.80303 -0.1 0.03756
v 0.77778 -0.1 0.038118000000000006
v 0.77766 -0.1 0.038118000000000006
v 0.75252 -0.1 0.038674
v 0.7272700000000001 -0.1 0.039222
v 0.70202 -0.1 0.039768000000000005
v 0.68853 -0.1 0.040052
v 0.6767700000000001 -0.1 0.040302
v 0.6515099999999999 -0.1 0.040834
v 0.62626 -0.1 0.041356000000000004
v 0.60101 -0.1 0.041872
v 0.59052 -0.1 0.042076
v 0.57576 -0.1 0.042378
v 0.5505 -0.1 0.042868
v 0.52525 -0.1 0.043354
v 0.5 -0.1 0.043826000000000004
v 0.0 -0.1 0.0
f 1 157 158
f 1 158 2
f 2 158 159
f 2 159 3
f 3 159 160
f 3 160 4
f 4 160 161
f 4 161 5
f 5 161 162
f 5 162 6
f 6 162 163
f 6 163 7
f 7 163 164
f 7 164 8
f 8 164 165
f 8 165 9
f 9 165 166
f 9 166 10
f 10 166 167
f 10 167 11
f 11 167 168
f 11 168 12
f 12 168 169
f 12 169 13
f 13 169 170
f 13 170 14
f 14 170 171
f 14 171 15
f 15 171 172
f 15 172 16
f 16 172 173
f 16 173 17
f 17 173 174
f 17 174 18
f 18 174 175
f 18 175 19
f 19 175 176
f 19 176 20
f 20 176 177
f 20 177 21
f 21 177 178
f 21 178 22
f 22 178 179
f 22 179 23
f 23 179 180
f 23 180 24
f 24 180 181
f 24 181 25
f 25 181 182
f 25 182 26
f 26 182 183
f 26 183 27
f 27 183 184
f 27 184 28
f 28 184 185
f 28 185 29
f 29 185 186
f 29 186 30
f 30 186 187
f 30 187 31
f 31 187 188
f 31 188 32
f 32 188 189
f 32 189 33
f 33 189 190
f 33 190 34
f 34 190 191
f 34 191 35
f 35 191 192
f 35 192 36
f 36 192 193
f 36 193 37
f 37 193 194
f 37 194 38
f 38 194 195
f 38 195 39
f 39 195 196
f 39 196 40
f 40 196 197
f 40 197 41
f 41 197 198
f 41 198 42
f 42 198 199
f 42 199 43
f 43 199 200
f 43 200 44
f 44 200 201
f 44 201 45
f 45 201 202
f 45 202 46
f 46 202 203
f 46 203 47
f 47 203 204
f 47 204 48
f 48 204 205
f 48 205 49
f 49 205 206
f 49 206 50
f 50 206 207
f 50 207 51
f 51 207 208
f 51 208 52
f 52 208 209
f 52 209 53
f 53 209 210
f 53 210 54
f 54 210 211
f 54 211 55
f 55 211 212
f 55 212 56
f 56 212 213
f 56 213 57
f 57 213 214
f 57 214 58
f 58 214 215
f 58 215 59
f 59 215 216
f 59 216 60
f 60 216 217
f 60 217 61
f 61 217 218
f 61 218 62
f 62 218 219
f 62 219 63
f 63 219 220
f 63 220 64
f 64 220 221
f 64 221 65
f 65 221 222
f 65 222 66
f 66 222 223
f 66 223 67
f 67 223 224
f 67 224 68
f 68 224 225
f 68 225 69
f 69 225 226
f 69 226 70
f 70 226 227
f 70 227 71
f 71 227 228
f 71 228 72
f 72 228 229
f 72 229 73
f 73 229 230
f 73 230 74
f 74 230 231
f 74 231 75
f 75 231 232
f 75 232 76
f 76 232 233
f 76 233 77
f 77 233 234
f 77 234 78
f 78 234 235
f 78 235 79
f 79 235 236
f 79 236 80
f 80 236 237
f 80 237 81
f 81 237 238
f 81 238 82
f 82 238 239
f 82 239 83
f 83 239 240
f 83 240 84
f 84 240 241
f 84 241 85
f 85 241 242
f 85 242 86
f 86 242 243
f 86 243 87
f 87 243 244
f 87 244 88
f 88 244 245
f 88 245 89
f 89 245 246
f 89 246 90
f 90 246 247
f 90 247 91
f 91 247 248
f 91 248 92
f 92 248 249
f 92 249 93
f 93 249 250
f 93 250 94
f 94 250 251
f 94 251 95
f 95 251 252
f 95 252 96
f 96 252 253
f 96 253 97
f 97 253 254
f 97 254 98
f 98 254 255
f 98 255 99
f 99 255 256
f 99 256 100
f 100 256 257
f 100 257 101
f 101 257 258
f 101 258 102
f 102 258 259
f 102 259 103
f 103 259 260
f 103 260 104
f 104 260 261
f 104 261 105
f 105 261 262
f 105 262 106
f 106 262 263
f 106 263 107
f 107 263 264
f 107 264 108
f 108 264 265
f 108 265 109
f 109 265 266
f 109 266 110
f 110 266 267
f 110 267 111
f 111 267 268
f 111 268 112
f 112 268 269
f 112 269 113
f 113 269 270
f 113 270 114
f 114 270 271
f 114 271 115
f 115 271 272
f 115 272 116
f 116 272 273
f 116 273 117
f 117 273 274
f 117 274 118
f 118 274 275
f 118 275 119
f 119 275 276
f 119 276 120
f 120 276 277
f 120 277 121
f 121 277 278
f 121 278 122
f 122 278 279
f 122 279 123
f 123 279 280
f 123 280 124
f 124 280 281
f 124 281 125
f 125 281 282
f 125 282 126
f 126 282 283
f 126 283 127
f 127 283 284
f 127 284 128
f 128 284 285
f 128 285 129
f 129 285 286
f 129 286 130
f 130 286 287
f 130 287 131
f 131 287 288
f 131 288 132
f 132 288 289
f 132 289 133
f 133 289 290
f 133 290 134
f 134 290 291
f 134 291 135
f 135 291 292
f 135 292 136
f 136 292 293
f 136 293 137
f 137 293 294
f 137 294 138
f 138 294 295
f 138 295 139
f 139 295 296
f 139 296 140
f 140 296 297
f 140 297 141
f 141 297 298
f 141 298 142
f 142 298 299
f 142 299 143
f 143 299 300
f 143 300 144
f 144 300 301
f 144 301 145
f 145 301 302
f 145 302 146
f 146 302 303
f 146 303 147
f 147 303 304
f 147 304 148
f 148 304 305
f 148 305 149
f 149 305 306
f 149 306 150
f 150 306 307
f 150 307 151
f 151 307 308
f 151 308 152
f 152 308 309
f 152 309 153
f 153 309 310
f 153 310 154
f 154 310 311
f 154 311 155
f 155 311 312
f 155 312 156
f 1 2 3
f 1 3 4
f 1 4 5
f 1 5 6
f 1 6 7
f 1 7 8
f 1 8 9
f 1 9 10
f 1 10 11
f 1 11 12
f 1 12 13
f 1 13 14
f 1 14 15
f 1 15 16
f 1 16 17
f 1 17 18
f 1 18 19
f 1 19 20
f 1 20 21
f 1 21 22
f 1 22 23
f 1 23 24
f 1 24 25
f 1 25 26
f 1 26 27
f 1 27 28
f 1 28 29
f 1 29 30
f 1 30 31
f 1 31 32
f 1 32 33
f 1 33 34
f 1 34 35
f 1 35 36
f 1 36 37
f 1 37 38
f 1 38 39
f 1 39 40
f 1 40 41
f 1 41 42
f 1 42 43
f 1 43 44
f 1 44 45
f 1 45 46
f 1 46 47
f 1 47 48
f 1 48 49
f 1 49 50
f 1 50 51
f 1 51 52
f 1 52 53
f 1 53 54
f 1 54 55
f 1 55 56
f 1 56 57
f 1 57 58
f 1 58 59
f 1 59 60
f 1 60 61
f 1 61 62
f 1 62 63
f 1 63 64
f 1 64 65
f 1 65 66
f 1 66 67
f 1 67 68
f 1 68 69
f 1 69 70
f 1 70 71
f 1 71 72
f 1 72 73
f 1 73 74
f 1 74 75
f 1 75 76
f 1 76 77
f 1 77 78
f 1 78 79
f 1 79 80
f 1 80 81
f 1 81 82
f 1 82 83
f 1 83 84
f 1 84 85
f 1 85 86
f 1 86 87
f 1 87 88
f 1 88 89
f 1 89 90
f 1 90 91
f 1 91 92
f 1 92 93
f 1 93 94
f 1 94 95
f 1 95 96
f 1 96 97
f 1 97 98
f 1 98 99
f 1 99 100
f 1 100 101
f 1 101 102
f 1 102 103
f 1 103 104
f 1 104 105
f 1 105 106
f 1 106 107
f 1 107 108
f 1 108 109
f 1 109 110
f 1 110 111
f 1 111 112
f 1 112 113
f 1 113 114
f 1 114 115
f 1 115 116
f 1 116 117
f 1 117 118
f 1 118 119
f 1 119 120
f 1 120 121
f 1 121 122
f 1 122 123
f 1 123 124
f 1 124 125
f 1 125 126
f 1 126 127
f 1 127 128
f 1 128 129
f 1 129 130
f 1 130 131
f 1 131 132
f 1 132 133
f 1 133 134
f 1 134 135
f 1 135 136
f 1 136 137
f 1 137 138
f 1 138 139
f 1 139 140
f 1 140 141
f 1 141 142
f 1 142 143
f 1 143 144
f 1 144 145
f 1 145 146
f 1 146 147
f 1 147 148
f 1 148 149
f 1 149 150
f 1 150 151
f 1 151 152
f 1 152 153
f 1 153 154
f 1 154 155
f 1 155 156
f 157 159 158
f 157 160 159
f 157 161 160
f 157 162 161
f 157 163 162
f 157 164 163
f 157 165 164
f 157 166 165
f 157 167 166
f 157 168 167
f 157 169 168
f 157 170 169
f 157 171 170
f 157 172 171
f 157 173 172
f 157 174 173
f 157 175 174
f 157 176 175
f 157 177 176
f 157 178 177
f 157 179 178
f 157 180 179
f 157 181 180
f 157 182 181
f 157 183 182
f 157 184 183
f 157 185 184
f 157 186 185
f 157 187 186
f 157 188 187
f 157 189 188
f 157 190 189
f 157 191 190
f 157 192 191
f 157 193 192
f 157 194 193
f 157 195 194
f 157 196 195
f 157 197 196
f 157 198 197
f 157 199 198
f 157 200 199
f 157 201 200
f 157 202 201
f 157 203 202
f 157 204 203
f 157 205 204
f 157 206 205
f 157 207 206
f 157 208 207
f 157 209 208
f 157 210 209
f 157 211 210
f 157 212 211
f 157 213 212
f 157 214 213
f 157 215 214
f 157 216 215
f 157 217 216
f 157 218 217
f 157 219 218
f 157 220 219
f 157 221 220
f 157 222 221
f 157 223 222
f 157 224 223
f 157 225 224
f 157 226 225
f 157 227 226
f 157 228 227
f 157 229 228
f 157 230 229
f 157 231 230
f 157 232 231
f 157 233 232
f 157 234 233
f 157 235 234
f 157 236 235
f 157 237 236
f 157 238 237
f 157 239 238
f 157 240 239
f 157 241 240
f 157 242 241
f 157 243 242
f 157 244 243
f 157 245 244
f 157 246 245
f 157 247 246
f 157 248 247
f 157 249 248
f 157 250 249
f 157 251 250
f 157 252 251
f 157 253 252
f 157 254 253
f 157 255 254
f 157 256 255
f 157 257 256
f 157 258 257
f 157 259 258
f 157 260 259
f 157 261 260
f 157 262 261
f 157 263 262
f 157 264 263
f 157 265 264
f 157 266 265
f 157 267 266
f 157 268 267
f 157 269 268
f 157 270 269
f 157 271 270
f 157 272 271
f 157 273 272
f 157 274 273
f 157 275 274
f 157 276 275
f 157 277 276
f 157 278 277
f 157 279 278
f 157 280 279
f 157 281 280
f 157 282 281
f 157 283 282
f 157 284 283
f 157 285 284
f 157 286 285
f 157 287 286
f 157 288 287
f 157 289 288
f 157 290 289
f 157 291 290
f 157 292 291
f 157 293 292
f 157 294 293
f 157 295 294
f 157 296 295
f 157 297 296
f 157 298 297
f 157 299 298
f 157 300 299
f 157 301 300
f 157 302 301
f 157 303 302
f 157 304 303
f 157 305 304
f 157 306 305
f 157 307 306
f 157 308 307
f 157 309 308
f 157 310 309
f 157 311 310
f 157 312 311
f 1 157 158
f 1 158 2
f 156 311 312
f 156 155 311
