v 0.0 0.0 0.0
v 2.6975000000000002 0.0 0.002
v 2.6976 0.0 0.010060000000000001
v 2.7011000000000003 0.0 0.01812
v 2.7035000000000005 0.0 0.026180000000000002
v 2.7029 0.0 0.03424
v 2.6982 0.0 0.0423
v 2.6889999999999996 0.0 0.05036
v 2.6751 0.0 0.05842
v 2.6699 0.0 0.06072
v 2.6588 0.0 0.06648000000000001
v 2.6419 0.0 0.07456
v 2.6296 0.0 0.08098000000000001
v 2.6268000000000002 0.0 0.08262000000000001
v 2.6157 0.0 0.09068000000000001
v 2.6082 0.0 0.09874
v 2.6032 0.0 0.1068
v 2.5995999999999997 0.0 0.11486
v 2.5970999999999997 0.0 0.12292
v 2.5954 0.0 0.13097999999999999
v 2.594 0.0 0.13904
v 2.5929 0.0 0.1471
v 2.592 0.0 0.15516
v 2.5915 0.0 0.16322
v 2.592 0.0 0.17128000000000002
v 2.5936000000000003 0.0 0.17934
v 2.5964 0.0 0.1874
v 2.5994 0.0 0.19546000000000002
v 2.6014 0.0 0.20352
v 2.6025 0.0 0.2116
v 2.6037 0.0 0.21966
v 2.605 0.0 0.22772
v 2.6049 0.0 0.23578000000000002
v 2.6006 0.0 0.24384
v 2.5893 0.0 0.25102
v 2.5879000000000003 0.0 0.2519
v 2.5581 0.0 0.25995999999999997
v 2.549 0.0 0.26152
v 2.5087 0.0 0.26492000000000004
v 2.4684 0.0 0.26427999999999996
v 2.4281 0.0 0.26016000000000006
v 2.4268 0.0 0.25995999999999997
v 2.3883 0.0 0.2519
v 2.3878 0.0 0.25172
v 2.3621000000000003 0.0 0.24384
v 2.3475 0.0 0.23838
v 2.338 0.0 0.23578000000000002
v 2.3137000000000003 0.0 0.22772
v 2.3072 0.0 0.22382
v 2.2895 0.0 0.21966
v 2.29 0.0 0.2116
v 2.2903000000000002 0.0 0.20352
v 2.2669 0.0 0.20002
v 2.2418 0.0 0.20352
v 2.2504 0.0 0.2116
v 2.2507 0.0 0.21966
v 2.2266 0.0 0.22358000000000003
v 2.2126 0.0 0.22772
v 2.1863 0.0 0.23113999999999998
v 2.1549 0.0 0.23578000000000002
v 2.1459 0.0 0.23668
v 2.1056 0.0 0.2406
v 2.0653 0.0 0.24372
v 2.0622 0.0 0.24384
v 2.025 0.0 0.24488000000000001
v 2.0148 0.0 0.24384
v 1.9847000000000001 0.0 0.23958000000000002
v 1.9703000000000002 0.0 0.23578000000000002
v 1.9444000000000001 0.0 0.23132
v 1.9247999999999998 0.0 0.22772
v 1.9041 0.0 0.22469999999999998
v 1.8687 0.0 0.21966
v 1.8638 0.0 0.21903999999999998
v 1.8235 0.0 0.21422
v 1.7989 0.0 0.2116
v 1.7832 0.0 0.21008000000000002
v 1.7429 0.0 0.20616
v 1.7225000000000001 0.0 0.20352
v 1.7026 0.0 0.20063999999999999
v 1.6646 0.0 0.19546000000000002
v 1.6622999999999999 0.0 0.19516
v 1.6219999999999999 0.0 0.19036000000000003
v 1.5922 0.0 0.1874
v 1.5816999999999999 0.0 0.1864
v 1.5413999999999999 0.0 0.18308000000000002
v 1.5011 0.0 0.18034
v 1.4925 0.0 0.17934
v 1.4608 0.0 0.17498
v 1.4318000000000002 0.0 0.17128000000000002
v 1.4205 0.0 0.16992
v 1.3800999999999999 0.0 0.16536
v 1.3594 0.0 0.16322
v 1.3397999999999999 0.0 0.16140000000000002
v 1.2994999999999999 0.0 0.15819999999999998
v 1.2592 0.0 0.15574000000000002
v 1.252 0.0 0.15516
v 1.2189 0.0 0.152
v 1.1806 0.0 0.1471
v 1.1786 0.0 0.14684
v 1.1383 0.0 0.14150000000000001
v 1.1185 0.0 0.13904
v 1.098 0.0 0.13684000000000002
v 1.0577 0.0 0.13334000000000001
v 1.0173999999999999 0.0 0.13108
v 1.0139 0.0 0.13097999999999999
v 0.9771 0.0 0.12984
v 0.9368000000000001 0.0 0.12908000000000003
v 0.0 0.0 0.0
v 0.0 -0.1 0.0
v 2.6975000000000002 -0.1 0.002
v 2.6976 -0.1 0.010060000000000001
v 2.7011000000000003 -0.1 0.01812
v 2.7035000000000005 -0.1 0.026180000000000002
v 2.7029 -0.1 0.03424
v 2.6982 -0.1 0.0423
v 2.6889999999999996 -0.1 0.05036
v 2.6751 -0.1 0.05842
v 2.6699 -0.1 0.06072
v 2.6588 -0.1 0.06648000000000001
v 2.6419 -0.1 0.07456
v 2.6296 -0.1 0.08098000000000001
v 2.6268000000000002 -0.1 0.08262000000000001
v 2.6157 -0.1 0.09068000000000001
v 2.6082 -0.1 0.09874
v 2.6032 -0.1 0.1068
v 2.5995999999999997 -0.1 0.11486
v 2.5970999999999997 -0.1 0.12292
v 2.5954 -0.1 0.13097999999999999
v 2.594 -0.1 0.13904
v 2.5929 -0.1 0.1471
v 2.592 -0.1 0.15516
v 2.5915 -0.1 0.16322
v 2.592 -0.1 0.17128000000000002
v 2.5936000000000003 -0.1 0.17934
v 2.5964 -0.1 0.1874
v 2.5994 -0.1 0.19546000000000002
v 2.6014 -0.1 0.20352
v 2.6025 -0.1 0.2116
v 2.6037 -0.1 0.21966
v 2.605 -0.1 0.22772
v 2.6049 -0.1 0.23578000000000002
v 2.6006 -0.1 0.24384
v 2.5893 -0.1 0.25102
v 2.5879000000000003 -0.1 0.2519
v 2.5581 -0.1 0.25995999999999997
v 2.549 -0.1 0.26152
v 2.5087 -0.1 0.26492000000000004
v 2.4684 -0.1 0.26427999999999996
v 2.4281 -0.1 0.26016000000000006
v 2.4268 -0.1 0.25995999999999997
v 2.3883 -0.1 0.2519
v 2.3878 -0.1 0.25172
v 2.3621000000000003 -0.1 0.24384
v 2.3475 -0.1 0.23838
v 2.338 -0.1 0.23578000000000002
v 2.3137000000000003 -0.1 0.22772
v 2.3072 -0.1 0.22382
v 2.2895 -0.1 0.21966
v 2.29 -0.1 0.2116
v 2.2903000000000002 -0.1 0.20352
v 2.2669 -0.1 0.20002
v 2.2418 -0.1 0.20352
v 2.2504 -0.1 0.2116
v 2.2507 -0.1 0.21966
v 2.2266 -0.1 0.22358000000000003
v 2.2126 -0.1 0.22772
v 2.1863 -0.1 0.23113999999999998
v 2.1549 -0.1 0.23578000000000002
v 2.1459 -0.1 0.23668
v 2.1056 -0.1 0.2406
v 2.0653 -0.1 0.24372
v 2.0622 -0.1 0.24384
v 2.025 -0.1 0.24488000000000001
v 2.0148 -0.1 0.24384
v 1.9847000000000001 -0.1 0.23958000000000002
v 1.9703000000000002 -0.1 0.23578000000000002
v 1.9444000000000001 -0.1 0.23132
v 1.9247999999999998 -0.1 0.22772
v 1.9041 -0.1 0.22469999999999998
v 1.8687 -0.1 0.21966
v 1.8638 -0.1 0.21903999999999998
v 1.8235 -0.1 0.21422
v 1.7989 -0.1 0.2116
v 1.7832 -0.1 0.21008000000000002
v 1.7429 -0.1 0.20616
v 1.7225000000000001 -0.1 0.20352
v 1.7026 -0.1 0.20063999999999999
v 1.6646 -0.1 0.19546000000000002
v 1.6622999999999999 -0.1 0.19516
v 1.6219999999999999 -0.1 0.19036000000000003
v 1.5922 -0.1 0.1874
v 1.5816999999999999 -0.1 0.1864
v 1.5413999999999999 -0.1 0.18308000000000002
v 1.5011 -0.1 0.18034
v 1.4925 -0.1 0.17934
v 1.4608 -0.1 0.17498
v 1.4318000000000002 -0.1 0.17128000000000002
v 1.4205 -0.1 0.16992
v 1.3800999999999999 -0.1 0.16536
v 1.3594 -0.1 0.16322
v 1.3397999999999999 -0.1 0.16140000000000002
v 1.2994999999999999 -0.1 0.15819999999999998
v 1.2592 -0.1 0.15574000000000002
v 1.252 -0.1 0.15516
v 1.2189 -0.1 0.152
v 1.1806 -0.1 0.1471
v 1.1786 -0.1 0.14684
v 1.1383 -0.1 0.14150000000000001
v 1.1185 -0.1 0.13904
v 1.098 -0.1 0.13684000000000002
v 1.0577 -0.1 0.13334000000000001
v 1.0173999999999999 -0.1 0.13108
v 1.0139 -0.1 0.13097999999999999
v 0.9771 -0.1 0.12984
v 0.9368000000000001 -0.1 0.12908000000000003
v 0.0 -0.1 0.0
f 1 109 110
f 1 110 2
f 2 110 111
f 2 111 3
f 3 111 112
f 3 112 4
f 4 112 113
f 4 113 5
f 5 113 114
f 5 114 6
f 6 114 115
f 6 115 7
f 7 115 116
f 7 116 8
f 8 116 117
f 8 117 9
f 9 117 118
f 9 118 10
f 10 118 119
f 10 119 11
f 11 119 120
f 11 120 12
f 12 120 121
f 12 121 13
f 13 121 122
f 13 122 14
f 14 122 123
f 14 123 15
f 15 123 124
f 15 124 16
f 16 124 125
f 16 125 17
f 17 125 126
f 17 126 18
f 18 126 127
f 18 127 19
f 19 127 128
f 19 128 20
f 20 128 129
f 20 129 21
f 21 129 130
f 21 130 22
f 22 130 131
f 22 131 23
f 23 131 132
f 23 132 24
f 24 132 133
f 24 133 25
f 25 133 134
f 25 134 26
f 26 134 135
f 26 135 27
f 27 135 136
f 27 136 28
f 28 136 137
f 28 137 29
f 29 137 138
f 29 138 30
f 30 138 139
f 30 139 31
f 31 139 140
f 31 140 32
f 32 140 141
f 32 141 33
f 33 141 142
f 33 142 34
f 34 142 143
f 34 143 35
f 35 143 144
f 35 144 36
f 36 144 145
f 36 145 37
f 37 145 146
f 37 146 38
f 38 146 147
f 38 147 39
f 39 147 148
f 39 148 40
f 40 148 149
f 40 149 41
f 41 149 150
f 41 150 42
f 42 150 151
f 42 151 43
f 43 151 152
f 43 152 44
f 44 152 153
f 44 153 45
f 45 153 154
f 45 154 46
f 46 154 155
f 46 155 47
f 47 155 156
f 47 156 48
f 48 156 157
f 48 157 49
f 49 157 158
f 49 158 50
f 50 158 159
f 50 159 51
f 51 159 160
f 51 160 52
f 52 160 161
f 52 161 53
f 53 161 162
f 53 162 54
f 54 162 163
f 54 163 55
f 55 163 164
f 55 164 56
f 56 164 165
f 56 165 57
f 57 165 166
f 57 166 58
f 58 166 167
f 58 167 59
f 59 167 168
f 59 168 60
f 60 168 169
f 60 169 61
f 61 169 170
f 61 170 62
f 62 170 171
f 62 171 63
f 63 171 172
f 63 172 64
f 64 172 173
f 64 173 65
f 65 173 174
f 65 174 66
f 66 174 175
f 66 175 67
f 67 175 176
f 67 176 68
f 68 176 177
f 68 177 69
f 69 177 178
f 69 178 70
f 70 178 179
f 70 179 71
f 71 179 180
f 71 180 72
f 72 180 181
f 72 181 73
f 73 181 182
f 73 182 74
f 74 182 183
f 74 183 75
f 75 183 184
f 75 184 76
f 76 184 185
f 76 185 77
f 77 185 186
f 77 186 78
f 78 186 187
f 78 187 79
f 79 187 188
f 79 188 80
f 80 188 189
f 80 189 81
f 81 189 190
f 81 190 82
f 82 190 191
f 82 191 83
f 83 191 192
f 83 192 84
f 84 192 193
f 84 193 85
f 85 193 194
f 85 194 86
f 86 194 195
f 86 195 87
f 87 195 196
f 87 196 88
f 88 196 197
f 88 197 89
f 89 197 198
f 89 198 90
f 90 198 199
f 90 199 91
f 91 199 200
f 91 200 92
f 92 200 201
f 92 201 93
f 93 201 202
f 93 202 94
f 94 202 203
f 94 203 95
f 95 203 204
f 95 204 96
f 96 204 205
f 96 205 97
f 97 205 206
f 97 206 98
f 98 206 207
f 98 207 99
f 99 207 208
f 99 208 100
f 100 208 209
f 100 209 101
f 101 209 210
f 101 210 102
f 102 210 211
f 102 211 103
f 103 211 212
f 103 212 104
f 104 212 213
f 104 213 105
f 105 213 214
f 105 214 106
f 106 214 215
f 106 215 107
f 107 215 216
f 107 216 108
f 1 2 3
f 1 3 4
f 1 4 5
f 1 5 6
f 1 6 7
f 1 7 8
f 1 8 9
f 1 9 10
f 1 10 11
f 1 11 12
f 1 12 13
f 1 13 14
f 1 14 15
f 1 15 16
f 1 16 17
f 1 17 18
f 1 18 19
f 1 19 20
f 1 20 21
f 1 21 22
f 1 22 23
f 1 23 24
f 1 24 25
f 1 25 26
f 1 26 27
f 1 27 28
f 1 28 29
f 1 29 30
f 1 30 31
f 1 31 32
f 1 32 33
f 1 33 34
f 1 34 35
f 1 35 36
f 1 36 37
f 1 37 38
f 1 38 39
f 1 39 40
f 1 40 41
f 1 41 42
f 1 42 43
f 1 43 44
f 1 44 45
f 1 45 46
f 1 46 47
f 1 47 48
f 1 48 49
f 1 49 50
f 1 50 51
f 1 51 52
f 1 52 53
f 1 53 54
f 1 54 55
f 1 55 56
f 1 56 57
f 1 57 58
f 1 58 59
f 1 59 60
f 1 60 61
f 1 61 62
f 1 62 63
f 1 63 64
f 1 64 65
f 1 65 66
f 1 66 67
f 1 67 68
f 1 68 69
f 1 69 70
f 1 70 71
f 1 71 72
f 1 72 73
f 1 73 74
f 1 74 75
f 1 75 76
f 1 76 77
f 1 77 78
f 1 78 79
f 1 79 80
f 1 80 81
f 1 81 82
f 1 82 83
f 1 83 84
f 1 84 85
f 1 85 86
f 1 86 87
f 1 87 88
f 1 88 89
f 1 89 90
f 1 90 91
f 1 91 92
f 1 92 93
f 1 93 94
f 1 94 95
f 1 95 96
f 1 96 97
f 1 97 98
f 1 98 99
f 1 99 100
f 1 100 101
f 1 101 102
f 1 102 103
f 1 103 104
f 1 104 105
f 1 105 106
f 1 106 107
f 1 107 108
f 109 111 110
f 109 112 111
f 109 113 112
f 109 114 113
f 109 115 114
f 109 116 115
f 109 117 116
f 109 118 117
f 109 119 118
f 109 120 119
f 109 121 120
f 109 122 121
f 109 123 122
f 109 124 123
f 109 125 124
f 109 126 125
f 109 127 126
f 109 128 127
f 109 129 128
f 109 130 129
f 109 131 130
f 109 132 131
f 109 133 132
f 109 134 133
f 109 135 134
f 109 136 135
f 109 137 136
f 109 138 137
f 109 139 138
f 109 140 139
f 109 141 140
f 109 142 141
f 109 143 142
f 109 144 143
f 109 145 144
f 109 146 145
f 109 147 146
f 109 148 147
f 109 149 148
f 109 150 149
f 109 151 150
f 109 152 151
f 109 153 152
f 109 154 153
f 109 155 154
f 109 156 155
f 109 157 156
f 109 158 157
f 109 159 158
f 109 160 159
f 109 161 160
f 109 162 161
f 109 163 162
f 109 164 163
f 109 165 164
f 109 166 165
f 109 167 166
f 109 168 167
f 109 169 168
f 109 170 169
f 109 171 170
f 109 172 171
f 109 173 172
f 109 174 173
f 109 175 174
f 109 176 175
f 109 177 176
f 109 178 177
f 109 179 178
f 109 180 179
f 109 181 180
f 109 182 181
f 109 183 182
f 109 184 183
f 109 185 184
f 109 186 185
f 109 187 186
f 109 188 187
f 109 189 188
f 109 190 189
f 109 191 190
f 109 192 191
f 109 193 192
f 109 194 193
f 109 195 194
f 109 196 195
f 109 197 196
f 109 198 197
f 109 199 198
f 109 200 199
f 109 201 200
f 109 202 201
f 109 203 202
f 109 204 203
f 109 205 204
f 109 206 205
f 109 207 206
f 109 208 207
f 109 209 208
f 109 210 209
f 109 211 210
f 109 212 211
f 109 213 212
f 109 214 213
f 109 215 214
f 109 216 215
f 1 109 110
f 1 110 2
f 108 215 216
f 108 107 215
