v 0.0 0.0 0.0
v 1.6952 0.0 0.002
v 1.6924000000000001 0.0 0.010060000000000001
v 1.6908 0.0 0.01812
v 1.6903000000000001 0.0 0.026180000000000002
v 1.6897 0.0 0.03424
v 1.6877000000000002 0.0 0.0423
v 1.6813 0.0 0.05036
v 1.6682 0.0 0.05842
v 1.6622999999999999 0.0 0.06098
v 1.6483 0.0 0.06648000000000001
v 1.6219999999999999 0.0 0.0741
v 1.6200999999999999 0.0 0.07456
v 1.5816999999999999 0.0 0.08209999999999999
v 1.5782 0.0 0.08262000000000001
v 1.5413999999999999 0.0 0.0873
v 1.5011 0.0 0.09026
v 1.4619 0.0 0.09068000000000001
v 1.4608 0.0 0.09068000000000001
v 1.4603 0.0 0.09068000000000001
v 1.4205 0.0 0.08986
v 1.3800999999999999 0.0 0.08868000000000001
v 1.3397999999999999 0.0 0.0874
v 1.2994999999999999 0.0 0.08606
v 1.2592 0.0 0.08456000000000001
v 1.2189 0.0 0.08292000000000001
v 1.2114 0.0 0.08262000000000001
v 1.1786 0.0 0.08131999999999999
v 1.1383 0.0 0.08008
v 1.098 0.0 0.07923999999999999
v 1.0577 0.0 0.07873999999999999
v 1.0173999999999999 0.0 0.07840000000000001
v 0.9771 0.0 0.07790000000000001
v 0.9368000000000001 0.0 0.07724
v 0.0 0.0 0.0
v 0.0 -0.1 0.0
v 1.6952 -0.1 0.002
v 1.6924000000000001 -0.1 0.010060000000000001
v 1.6908 -0.1 0.01812
v 1.6903000000000001 -0.1 0.026180000000000002
v 1.6897 -0.1 0.03424
v 1.6877000000000002 -0.1 0.0423
v 1.6813 -0.1 0.05036
v 1.6682 -0.1 0.05842
v 1.6622999999999999 -0.1 0.06098
v 1.6483 -0.1 0.06648000000000001
v 1.6219999999999999 -0.1 0.0741
v 1.6200999999999999 -0.1 0.07456
v 1.5816999999999999 -0.1 0.08209999999999999
v 1.5782 -0.1 0.08262000000000001
v 1.5413999999999999 -0.1 0.0873
v 1.5011 -0.1 0.09026
v 1.4619 -0.1 0.09068000000000001
v 1.4608 -0.1 0.09068000000000001
v 1.4603 -0.1 0.09068000000000001
v 1.4205 -0.1 0.08986
v 1.3800999999999999 -0.1 0.08868000000000001
v 1.3397999999999999 -0.1 0.0874
v 1.2994999999999999 -0.1 0.08606
v 1.2592 -0.1 0.08456000000000001
v 1.2189 -0.1 0.08292000000000001
v 1.2114 -0.1 0.08262000000000001
v 1.1786 -0.1 0.08131999999999999
v 1.1383 -0.1 0.08008
v 1.098 -0.1 0.07923999999999999
v 1.0577 -0.1 0.07873999999999999
v 1.0173999999999999 -0.1 0.07840000000000001
v 0.9771 -0.1 0.07790000000000001
v 0.9368000000000001 -0.1 0.07724
v 0.0 -0.1 0.0
f 1 36 37
f 1 37 2
f 2 37 38
f 2 38 3
f 3 38 39
f 3 39 4
f 4 39 40
f 4 40 5
f 5 40 41
f 5 41 6
f 6 41 42
f 6 42 7
f 7 42 43
f 7 43 8
f 8 43 44
f 8 44 9
f 9 44 45
f 9 45 10
f 10 45 46
f 10 46 11
f 11 46 47
f 11 47 12
f 12 47 48
f 12 48 13
f 13 48 49
f 13 49 14
f 14 49 50
f 14 50 15
f 15 50 51
f 15 51 16
f 16 51 52
f 16 52 17
f 17 52 53
f 17 53 18
f 18 53 54
f 18 54 19
f 19 54 55
f 19 55 20
f 20 55 56
f 20 56 21
f 21 56 57
f 21 57 22
f 22 57 58
f 22 58 23
f 23 58 59
f 23 59 24
f 24 59 60
f 24 60 25
f 25 60 61
f 25 61 26
f 26 61 62
f 26 62 27
f 27 62 63
f 27 63 28
f 28 63 64
f 28 64 29
f 29 64 65
f 29 65 30
f 30 65 66
f 30 66 31
f 31 66 67
f 31 67 32
f 32 67 68
f 32 68 33
f 33 68 69
f 33 69 34
f 34 69 70
f 34 70 35
f 1 2 3
f 1 3 4
f 1 4 5
f 1 5 6
f 1 6 7
f 1 7 8
f 1 8 9
f 1 9 10
f 1 10 11
f 1 11 12
f 1 12 13
f 1 13 14
f 1 14 15
f 1 15 16
f 1 16 17
f 1 17 18
f 1 18 19
f 1 19 20
f 1 20 21
f 1 21 22
f 1 22 23
f 1 23 24
f 1 24 25
f 1 25 26
f 1 26 27
f 1 27 28
f 1 28 29
f 1 29 30
f 1 30 31
f 1 31 32
f 1 32 33
f 1 33 34
f 1 34 35
f 36 38 37
f 36 39 38
f 36 40 39
f 36 41 40
f 36 42 41
f 36 43 42
f 36 44 43
f 36 45 44
f 36 46 45
f 36 47 46
f 36 48 47
f 36 49 48
f 36 50 49
f 36 51 50
f 36 52 51
f 36 53 52
f 36 54 53
f 36 55 54
f 36 56 55
f 36 57 56
f 36 58 57
f 36 59 58
f 36 60 59
f 36 61 60
f 36 62 61
f 36 63 62
f 36 64 63
f 36 65 64
f 36 66 65
f 36 67 66
f 36 68 67
f 36 69 68
f 36 70 69
f 1 36 37
f 1 37 2
f 35 69 70
f 35 34 69
