v 0.0 0.0 0.0
v 1.1639 0.0 0.0010049999999999998
v 1.2523 0.0 0.016575
v 1.2822 0.0 0.01905
v 1.2806 0.0 0.021306000000000002
v 1.3083000000000002 0.0 0.0391
v 1.3478999999999999 0.0 0.04672
v 1.4428999999999998 0.0 0.05915
v 1.5038 0.0 0.08888
v 1.6194 0.0 0.09925
v 1.7475 0.0 0.10081999999999999
v 1.7553 0.0 0.103838
v 1.9495 0.0 0.137942
v 2.0069 0.0 0.146694
v 2.022 0.0 0.146354
v 2.0623 0.0 0.149376
v 2.2387 0.0 0.153302
v 2.2584 0.0 0.155482
v 2.4387000000000003 0.0 0.16356600000000002
v 2.5099 0.0 0.182286
v 2.5911000000000004 0.0 0.18332400000000001
v 2.6531000000000002 0.0 0.1995
v 2.7614 0.0 0.21044000000000002
v 2.9501 0.0 0.1995
v 3.0130000000000003 0.0 0.19036000000000003
v 3.1438 0.0 0.175444
v 3.2645 0.0 0.17296
v 3.3317 0.0 0.162768
v 3.3569999999999998 0.0 0.149376
v 3.4013 0.0 0.122118
v 3.4237 0.0 0.09925
v 3.4009 0.0 0.07749800000000001
v 3.3982 0.0 0.05915
v 3.4711000000000003 0.0 0.042682000000000005
v 3.443 0.0 0.0391
v 3.4303 0.0 0.02588
v 3.4605 0.0 0.01905
v 3.419 0.0 0.0079608
v 3.44 0.0 0.0010049999999999998
v 0.0 0.0 0.0
v 0.0 -0.1 0.0
v 1.1639 -0.1 0.0010049999999999998
v 1.2523 -0.1 0.016575
v 1.2822 -0.1 0.01905
v 1.2806 -0.1 0.021306000000000002
v 1.3083000000000002 -0.1 0.0391
v 1.3478999999999999 -0.1 0.04672
v 1.4428999999999998 -0.1 0.05915
v 1.5038 -0.1 0.08888
v 1.6194 -0.1 0.09925
v 1.7475 -0.1 0.10081999999999999
v 1.7553 -0.1 0.103838
v 1.9495 -0.1 0.137942
v 2.0069 -0.1 0.146694
v 2.022 -0.1 0.146354
v 2.0623 -0.1 0.149376
v 2.2387 -0.1 0.153302
v 2.2584 -0.1 0.155482
v 2.4387000000000003 -0.1 0.16356600000000002
v 2.5099 -0.1 0.182286
v 2.5911000000000004 -0.1 0.18332400000000001
v 2.6531000000000002 -0.1 0.1995
v 2.7614 -0.1 0.21044000000000002
v 2.9501 -0.1 0.1995
v 3.0130000000000003 -0.1 0.19036000000000003
v 3.1438 -0.1 0.175444
v 3.2645 -0.1 0.17296
v 3.3317 -0.1 0.162768
v 3.3569999999999998 -0.1 0.149376
v 3.4013 -0.1 0.122118
v 3.4237 -0.1 0.09925
v 3.4009 -0.1 0.07749800000000001
v 3.3982 -0.1 0.05915
v 3.4711000000000003 -0.1 0.042682000000000005
v 3.443 -0.1 0.0391
v 3.4303 -0.1 0.02588
v 3.4605 -0.1 0.01905
v 3.419 -0.1 0.0079608
v 3.44 -0.1 0.0010049999999999998
v 0.0 -0.1 0.0
f 1 41 42
f 1 42 2
f 2 42 43
f 2 43 3
f 3 43 44
f 3 44 4
f 4 44 45
f 4 45 5
f 5 45 46
f 5 46 6
f 6 46 47
f 6 47 7
f 7 47 48
f 7 48 8
f 8 48 49
f 8 49 9
f 9 49 50
f 9 50 10
f 10 50 51
f 10 51 11
f 11 51 52
f 11 52 12
f 12 52 53
f 12 53 13
f 13 53 54
f 13 54 14
f 14 54 55
f 14 55 15
f 15 55 56
f 15 56 16
f 16 56 57
f 16 57 17
f 17 57 58
f 17 58 18
f 18 58 59
f 18 59 19
f 19 59 60
f 19 60 20
f 20 60 61
f 20 61 21
f 21 61 62
f 21 62 22
f 22 62 63
f 22 63 23
f 23 63 64
f 23 64 24
f 24 64 65
f 24 65 25
f 25 65 66
f 25 66 26
f 26 66 67
f 26 67 27
f 27 67 68
f 27 68 28
f 28 68 69
f 28 69 29
f 29 69 70
f 29 70 30
f 30 70 71
f 30 71 31
f 31 71 72
f 31 72 32
f 32 72 73
f 32 73 33
f 33 73 74
f 33 74 34
f 34 74 75
f 34 75 35
f 35 75 76
f 35 76 36
f 36 76 77
f 36 77 37
f 37 77 78
f 37 78 38
f 38 78 79
f 38 79 39
f 39 79 80
f 39 80 40
f 1 2 3
f 1 3 4
f 1 4 5
f 1 5 6
f 1 6 7
f 1 7 8
f 1 8 9
f 1 9 10
f 1 10 11
f 1 11 12
f 1 12 13
f 1 13 14
f 1 14 15
f 1 15 16
f 1 16 17
f 1 17 18
f 1 18 19
f 1 19 20
f 1 20 21
f 1 21 22
f 1 22 23
f 1 23 24
f 1 24 25
f 1 25 26
f 1 26 27
f 1 27 28
f 1 28 29
f 1 29 30
f 1 30 31
f 1 31 32
f 1 32 33
f 1 33 34
f 1 34 35
f 1 35 36
f 1 36 37
f 1 37 38
f 1 38 39
f 1 39 40
f 41 43 42
f 41 44 43
f 41 45 44
f 41 46 45
f 41 47 46
f 41 48 47
f 41 49 48
f 41 50 49
f 41 51 50
f 41 52 51
f 41 53 52
f 41 54 53
f 41 55 54
f 41 56 55
f 41 57 56
f 41 58 57
f 41 59 58
f 41 60 59
f 41 61 60
f 41 62 61
f 41 63 62
f 41 64 63
f 41 65 64
f 41 66 65
f 41 67 66
f 41 68 67
f 41 69 68
f 41 70 69
f 41 71 70
f 41 72 71
f 41 73 72
f 41 74 73
f 41 75 74
f 41 76 75
f 41 77 76
f 41 78 77
f 41 79 78
f 41 80 79
f 1 41 42
f 1 42 2
f 40 79 80
f 40 39 79
