v 0.0 0.0 0.0
v 1.016798 0.0 0.034614860000000004
v 1.15088 0.0 0.05048666
v 1.313954 0.0 0.0633495
v 1.349504 0.0 0.06722972
v 1.477029 0.0 0.08793782
v 1.525116 0.0 0.09984458
v 1.582249 0.0 0.13245942
v 1.572915 0.0 0.16507428
v 1.575576 0.0 0.19768914
v 1.640103 0.0 0.2113432
v 1.7609190000000001 0.0 0.230304
v 1.803177 0.0 0.2361556
v 1.9452180000000001 0.0 0.2629188
v 1.966251 0.0 0.2640052
v 2.1293260000000003 0.0 0.2787964
v 2.2078100000000003 0.0 0.2955338
v 2.287336 0.0 0.3281486
v 2.2924 0.0 0.3300532
v 2.455474 0.0 0.3562322
v 2.494608 0.0 0.3607634
v 2.618549 0.0 0.3779524
v 2.6781439999999996 0.0 0.3933782
v 2.7427120000000005 0.0 0.4259932
v 2.781623 0.0 0.4378692
v 2.944697 0.0 0.45586160000000003
v 2.978128 0.0 0.458608
v 3.107771 0.0 0.4700668
v 3.2255990000000003 0.0 0.4912228
v 3.270846 0.0 0.5059176
v 3.354548 0.0 0.5238378
v 3.43392 0.0 0.5339406
v 3.5969940000000005 0.0 0.5466162000000001
v 3.6878230000000003 0.0 0.5564526
v 3.7600689999999997 0.0 0.5669778
v 3.890042 0.0 0.5890674
v 3.923143 0.0 0.5958468
v 4.0862169999999995 0.0 0.618073
v 4.114606 0.0 0.6216822
v 4.249291 0.0 0.6384550000000001
v 4.362383 0.0 0.6542972
v 4.4123660000000005 0.0 0.6629424
v 4.5754399999999995 0.0 0.6850284000000001
v 4.593323 0.0 0.6869120000000001
v 4.738514 0.0 0.702597
v 4.873601 0.0 0.7195268
v 4.901589 0.0 0.723074
v 5.064663 0.0 0.7407156
v 5.177331000000001 0.0 0.7521418
v 5.227736999999999 0.0 0.7586608
v 5.389527 0.0 0.7847566
v 5.390811 0.0 0.7849716
v 5.553886 0.0 0.8050818000000001
v 5.71696 0.0 0.8101954
v 5.880034000000001 0.0 0.812513
v 6.043108999999999 0.0 0.8114600000000001
v 6.206183 0.0 0.8031552000000001
v 6.3620790000000005 0.0 0.7847566
v 6.369257 0.0 0.7836668
v 6.532331 0.0 0.7526992
v 6.5349140000000006 0.0 0.7521418
v 6.653365 0.0 0.7195268
v 6.695406 0.0 0.7042694
v 6.739732 0.0 0.6869120000000001
v 6.804785000000001 0.0 0.6542972
v 6.85315 0.0 0.6216822
v 6.85848 0.0 0.6165860000000001
v 6.886568 0.0 0.5890674
v 6.90681 0.0 0.5564526
v 6.918539 0.0 0.5238378
v 6.923919 0.0 0.4912228
v 6.924083 0.0 0.458608
v 6.920564000000001 0.0 0.4259932
v 6.922009000000001 0.0 0.3933782
v 6.941213 0.0 0.3607634
v 6.9586820000000005 0.0 0.3281486
v 6.971114 0.0 0.2955338
v 6.978302 0.0 0.2629188
v 6.980837 0.0 0.230304
v 6.980931000000001 0.0 0.19768914
v 6.986427 0.0 0.16507428
v 6.989995 0.0 0.13245942
v 6.991549 0.0 0.09984458
v 6.99206 0.0 0.06722972
v 6.993022 0.0 0.034614860000000004
v 6.998814 0.0 0.002
v 0.0 0.0 0.0
v 0.0 -0.1 0.0
v 1.016798 -0.1 0.034614860000000004
v 1.15088 -0.1 0.05048666
v 1.313954 -0.1 0.0633495
v 1.349504 -0.1 0.06722972
v 1.477029 -0.1 0.08793782
v 1.525116 -0.1 0.09984458
v 1.582249 -0.1 0.13245942
v 1.572915 -0.1 0.16507428
v 1.575576 -0.1 0.19768914
v 1.640103 -0.1 0.2113432
v 1.7609190000000001 -0.1 0.230304
v 1.803177 -0.1 0.2361556
v 1.9452180000000001 -0.1 0.2629188
v 1.966251 -0.1 0.2640052
v 2.1293260000000003 -0.1 0.2787964
v 2.2078100000000003 -0.1 0.2955338
v 2.287336 -0.1 0.3281486
v 2.2924 -0.1 0.3300532
v 2.455474 -0.1 0.3562322
v 2.494608 -0.1 0.3607634
v 2.618549 -0.1 0.3779524
v 2.6781439999999996 -0.1 0.3933782
v 2.7427120000000005 -0.1 0.4259932
v 2.781623 -0.1 0.4378692
v 2.944697 -0.1 0.45586160000000003
v 2.978128 -0.1 0.458608
v 3.107771 -0.1 0.4700668
v 3.2255990000000003 -0.1 0.4912228
v 3.270846 -0.1 0.5059176
v 3.354548 -0.1 0.5238378
v 3.43392 -0.1 0.5339406
v 3.5969940000000005 -0.1 0.5466162000000001
v 3.6878230000000003 -0.1 0.5564526
v 3.7600689999999997 -0.1 0.5669778
v 3.890042 -0.1 0.5890674
v 3.923143 -0.1 0.5958468
v 4.0862169999999995 -0.1 0.618073
v 4.114606 -0.1 0.6216822
v 4.249291 -0.1 0.6384550000000001
v 4.362383 -0.1 0.6542972
v 4.4123660000000005 -0.1 0.6629424
v 4.5754399999999995 -0.1 0.6850284000000001
v 4.593323 -0.1 0.6869120000000001
v 4.738514 -0.1 0.702597
v 4.873601 -0.1 0.7195268
v 4.901589 -0.1 0.723074
v 5.064663 -0.1 0.7407156
v 5.177331000000001 -0.1 0.7521418
v 5.227736999999999 -0.1 0.7586608
v 5.389527 -0.1 0.7847566
v 5.390811 -0.1 0.7849716
v 5.553886 -0.1 0.8050818000000001
v 5.71696 -0.1 0.8101954
v 5.880034000000001 -0.1 0.812513
v 6.043108999999999 -0.1 0.8114600000000001
v 6.206183 -0.1 0.8031552000000001
v 6.3620790000000005 -0.1 0.7847566
v 6.369257 -0.1 0.7836668
v 6.532331 -0.1 0.7526992
v 6.5349140000000006 -0.1 0.7521418
v 6.653365 -0.1 0.7195268
v 6.695406 -0.1 0.7042694
v 6.739732 -0.1 0.6869120000000001
v 6.804785000000001 -0.1 0.6542972
v 6.85315 -0.1 0.6216822
v 6.85848 -0.1 0.6165860000000001
v 6.886568 -0.1 0.5890674
v 6.90681 -0.1 0.5564526
v 6.918539 -0.1 0.5238378
v 6.923919 -0.1 0.4912228
v 6.924083 -0.1 0.458608
v 6.920564000000001 -0.1 0.4259932
v 6.922009000000001 -0.1 0.3933782
v 6.941213 -0.1 0.3607634
v 6.9586820000000005 -0.1 0.3281486
v 6.971114 -0.1 0.2955338
v 6.978302 -0.1 0.2629188
v 6.980837 -0.1 0.230304
v 6.980931000000001 -0.1 0.19768914
v 6.986427 -0.1 0.16507428
v 6.989995 -0.1 0.13245942
v 6.991549 -0.1 0.09984458
v 6.99206 -0.1 0.06722972
v 6.993022 -0.1 0.034614860000000004
v 6.998814 -0.1 0.002
v 0.0 -0.1 0.0
f 1 88 89
f 1 89 2
f 2 89 90
f 2 90 3
f 3 90 91
f 3 91 4
f 4 91 92
f 4 92 5
f 5 92 93
f 5 93 6
f 6 93 94
f 6 94 7
f 7 94 95
f 7 95 8
f 8 95 96
f 8 96 9
f 9 96 97
f 9 97 10
f 10 97 98
f 10 98 11
f 11 98 99
f 11 99 12
f 12 99 100
f 12 100 13
f 13 100 101
f 13 101 14
f 14 101 102
f 14 102 15
f 15 102 103
f 15 103 16
f 16 103 104
f 16 104 17
f 17 104 105
f 17 105 18
f 18 105 106
f 18 106 19
f 19 106 107
f 19 107 20
f 20 107 108
f 20 108 21
f 21 108 109
f 21 109 22
f 22 109 110
f 22 110 23
f 23 110 111
f 23 111 24
f 24 111 112
f 24 112 25
f 25 112 113
f 25 113 26
f 26 113 114
f 26 114 27
f 27 114 115
f 27 115 28
f 28 115 116
f 28 116 29
f 29 116 117
f 29 117 30
f 30 117 118
f 30 118 31
f 31 118 119
f 31 119 32
f 32 119 120
f 32 120 33
f 33 120 121
f 33 121 34
f 34 121 122
f 34 122 35
f 35 122 123
f 35 123 36
f 36 123 124
f 36 124 37
f 37 124 125
f 37 125 38
f 38 125 126
f 38 126 39
f 39 126 127
f 39 127 40
f 40 127 128
f 40 128 41
f 41 128 129
f 41 129 42
f 42 129 130
f 42 130 43
f 43 130 131
f 43 131 44
f 44 131 132
f 44 132 45
f 45 132 133
f 45 133 46
f 46 133 134
f 46 134 47
f 47 134 135
f 47 135 48
f 48 135 136
f 48 136 49
f 49 136 137
f 49 137 50
f 50 137 138
f 50 138 51
f 51 138 139
f 51 139 52
f 52 139 140
f 52 140 53
f 53 140 141
f 53 141 54
f 54 141 142
f 54 142 55
f 55 142 143
f 55 143 56
f 56 143 144
f 56 144 57
f 57 144 145
f 57 145 58
f 58 145 146
f 58 146 59
f 59 146 147
f 59 147 60
f 60 147 148
f 60 148 61
f 61 148 149
f 61 149 62
f 62 149 150
f 62 150 63
f 63 150 151
f 63 151 64
f 64 151 152
f 64 152 65
f 65 152 153
f 65 153 66
f 66 153 154
f 66 154 67
f 67 154 155
f 67 155 68
f 68 155 156
f 68 156 69
f 69 156 157
f 69 157 70
f 70 157 158
f 70 158 71
f 71 158 159
f 71 159 72
f 72 159 160
f 72 160 73
f 73 160 161
f 73 161 74
f 74 161 162
f 74 162 75
f 75 162 163
f 75 163 76
f 76 163 164
f 76 164 77
f 77 164 165
f 77 165 78
f 78 165 166
f 78 166 79
f 79 166 167
f 79 167 80
f 80 167 168
f 80 168 81
f 81 168 169
f 81 169 82
f 82 169 170
f 82 170 83
f 83 170 171
f 83 171 84
f 84 171 172
f 84 172 85
f 85 172 173
f 85 173 86
f 86 173 174
f 86 174 87
f 1 2 3
f 1 3 4
f 1 4 5
f 1 5 6
f 1 6 7
f 1 7 8
f 1 8 9
f 1 9 10
f 1 10 11
f 1 11 12
f 1 12 13
f 1 13 14
f 1 14 15
f 1 15 16
f 1 16 17
f 1 17 18
f 1 18 19
f 1 19 20
f 1 20 21
f 1 21 22
f 1 22 23
f 1 23 24
f 1 24 25
f 1 25 26
f 1 26 27
f 1 27 28
f 1 28 29
f 1 29 30
f 1 30 31
f 1 31 32
f 1 32 33
f 1 33 34
f 1 34 35
f 1 35 36
f 1 36 37
f 1 37 38
f 1 38 39
f 1 39 40
f 1 40 41
f 1 41 42
f 1 42 43
f 1 43 44
f 1 44 45
f 1 45 46
f 1 46 47
f 1 47 48
f 1 48 49
f 1 49 50
f 1 50 51
f 1 51 52
f 1 52 53
f 1 53 54
f 1 54 55
f 1 55 56
f 1 56 57
f 1 57 58
f 1 58 59
f 1 59 60
f 1 60 61
f 1 61 62
f 1 62 63
f 1 63 64
f 1 64 65
f 1 65 66
f 1 66 67
f 1 67 68
f 1 68 69
f 1 69 70
f 1 70 71
f 1 71 72
f 1 72 73
f 1 73 74
f 1 74 75
f 1 75 76
f 1 76 77
f 1 77 78
f 1 78 79
f 1 79 80
f 1 80 81
f 1 81 82
f 1 82 83
f 1 83 84
f 1 84 85
f 1 85 86
f 1 86 87
f 88 90 89
f 88 91 90
f 88 92 91
f 88 93 92
f 88 94 93
f 88 95 94
f 88 96 95
f 88 97 96
f 88 98 97
f 88 99 98
f 88 100 99
f 88 101 100
f 88 102 101
f 88 103 102
f 88 104 103
f 88 105 104
f 88 106 105
f 88 107 106
f 88 108 107
f 88 109 108
f 88 110 109
f 88 111 110
f 88 112 111
f 88 113 112
f 88 114 113
f 88 115 114
f 88 116 115
f 88 117 116
f 88 118 117
f 88 119 118
f 88 120 119
f 88 121 120
f 88 122 121
f 88 123 122
f 88 124 123
f 88 125 124
f 88 126 125
f 88 127 126
f 88 128 127
f 88 129 128
f 88 130 129
f 88 131 130
f 88 132 131
f 88 133 132
f 88 134 133
f 88 135 134
f 88 136 135
f 88 137 136
f 88 138 137
f 88 139 138
f 88 140 139
f 88 141 140
f 88 142 141
f 88 143 142
f 88 144 143
f 88 145 144
f 88 146 145
f 88 147 146
f 88 148 147
f 88 149 148
f 88 150 149
f 88 151 150
f 88 152 151
f 88 153 152
f 88 154 153
f 88 155 154
f 88 156 155
f 88 157 156
f 88 158 157
f 88 159 158
f 88 160 159
f 88 161 160
f 88 162 161
f 88 163 162
f 88 164 163
f 88 165 164
f 88 166 165
f 88 167 166
f 88 168 167
f 88 169 168
f 88 170 169
f 88 171 170
f 88 172 171
f 88 173 172
f 88 174 173
f 1 88 89
f 1 89 2
f 87 173 174
f 87 86 173
