v 0.0 0.0 0.0
v nan 0.0 nan
v 5.004 0.0 0.0
v 4.995 0.0 0.0048
v 4.993 0.0 0.006
v 4.984 0.0 0.012199999999999999
v 4.977 0.0 0.0182
v 4.973 0.0 0.0242
v 4.97 0.0 0.0304
v 4.969 0.0 0.0364
v 4.969 0.0 0.0424
v 4.97 0.0 0.0484
v 4.972 0.0 0.0546
v 4.9750000000000005 0.0 0.0606
v 4.977 0.0 0.06659999999999999
v 4.98 0.0 0.0728
v 4.9830000000000005 0.0 0.0788
v 4.985 0.0 0.0848
v 4.987 0.0 0.091
v 4.988 0.0 0.097
v 4.989 0.0 0.10300000000000001
v 4.99 0.0 0.109
v 4.99 0.0 0.11520000000000001
v 4.9910000000000005 0.0 0.1212
v 4.9910000000000005 0.0 0.1272
v 4.9910000000000005 0.0 0.13340000000000002
v 4.99 0.0 0.1394
v 4.989 0.0 0.1454
v 4.986000000000001 0.0 0.15159999999999998
v 4.9830000000000005 0.0 0.1576
v 4.978000000000001 0.0 0.1636
v 4.972 0.0 0.1696
v 4.965 0.0 0.1758
v 4.957 0.0 0.18180000000000002
v 4.948 0.0 0.18780000000000002
v 4.944 0.0 0.19019999999999998
v 4.939 0.0 0.194
v 4.929 0.0 0.2
v 4.919 0.0 0.20600000000000002
v 4.909 0.0 0.2122
v 4.899 0.0 0.2182
v 4.894 0.0 0.2216
v 4.89 0.0 0.22419999999999998
v 4.881 0.0 0.23040000000000002
v 4.873 0.0 0.2364
v 4.8660000000000005 0.0 0.2424
v 4.8580000000000005 0.0 0.2484
v 4.851 0.0 0.2546
v 4.843 0.0 0.26039999999999996
v 4.843 0.0 0.26060000000000005
v 4.835 0.0 0.2666
v 4.827 0.0 0.27280000000000004
v 4.817 0.0 0.2788
v 4.806 0.0 0.2848
v 4.794 0.0 0.291
v 4.793 0.0 0.2914
v 4.781000000000001 0.0 0.297
v 4.767 0.0 0.303
v 4.753 0.0 0.309
v 4.742 0.0 0.3132
v 4.737 0.0 0.3152
v 4.722 0.0 0.3212
v 4.706 0.0 0.3272
v 4.692 0.0 0.3326
v 4.69 0.0 0.3334
v 4.673 0.0 0.3394
v 4.655 0.0 0.3454
v 4.641 0.0 0.3496
v 4.635 0.0 0.3516
v 4.613 0.0 0.35760000000000003
v 4.591 0.0 0.3632
v 4.5889999999999995 0.0 0.36360000000000003
v 4.561 0.0 0.36960000000000004
v 4.54 0.0 0.3738
v 4.53 0.0 0.3758
v 4.494 0.0 0.38180000000000003
v 4.49 0.0 0.38239999999999996
v 4.45 0.0 0.38780000000000003
v 4.439 0.0 0.3892
v 4.3950000000000005 0.0 0.394
v 4.389 0.0 0.3946
v 4.338 0.0 0.3986
v 4.3180000000000005 0.0 0.4
v 4.288 0.0 0.40180000000000005
v 4.237 0.0 0.404
v 4.187 0.0 0.4056
v 4.159 0.0 0.406
v 4.136 0.0 0.4064
v 4.086 0.0 0.4068
v 4.035 0.0 0.4068
v 3.985 0.0 0.4066
v 3.944 0.0 0.406
v 3.9339999999999997 0.0 0.406
v 3.884 0.0 0.4052
v 3.833 0.0 0.404
v 3.7830000000000004 0.0 0.403
v 3.7319999999999998 0.0 0.4016
v 3.682 0.0 0.4002
v 3.6750000000000003 0.0 0.4
v 3.6310000000000002 0.0 0.3986
v 3.5810000000000004 0.0 0.397
v 3.5300000000000002 0.0 0.395
v 3.5060000000000002 0.0 0.394
v 3.48 0.0 0.39280000000000004
v 3.429 0.0 0.39
v 3.3930000000000002 0.0 0.38780000000000003
v 3.379 0.0 0.387
v 3.3280000000000003 0.0 0.383
v 3.314 0.0 0.38180000000000003
v 3.278 0.0 0.37860000000000005
v 3.25 0.0 0.3758
v 3.227 0.0 0.3734
v 3.192 0.0 0.36960000000000004
v 3.177 0.0 0.36819999999999997
v 3.133 0.0 0.36360000000000003
v 3.1260000000000003 0.0 0.363
v 3.0760000000000005 0.0 0.3584
v 3.067 0.0 0.35760000000000003
v 3.025 0.0 0.3542
v 2.988 0.0 0.3516
v 2.975 0.0 0.3506
v 2.924 0.0 0.3474
v 2.889 0.0 0.3454
v 2.8739999999999997 0.0 0.3446
v 2.823 0.0 0.3418
v 2.778 0.0 0.3394
v 2.773 0.0 0.3392
v 2.722 0.0 0.336
v 2.6830000000000003 0.0 0.3334
v 2.672 0.0 0.3326
v 2.6210000000000004 0.0 0.3282
v 2.611 0.0 0.3272
v 2.571 0.0 0.323
v 2.556 0.0 0.3212
v 2.52 0.0 0.3168
v 2.509 0.0 0.3152
v 2.47 0.0 0.30960000000000004
v 2.467 0.0 0.309
v 2.426 0.0 0.303
v 2.419 0.0 0.30219999999999997
v 2.384 0.0 0.297
v 2.369 0.0 0.295
v 2.342 0.0 0.291
v 2.318 0.0 0.2878
v 2.298 0.0 0.2848
v 2.2680000000000002 0.0 0.2806
v 2.255 0.0 0.2788
v 2.217 0.0 0.2734
v 2.213 0.0 0.27280000000000004
v 2.173 0.0 0.2666
v 2.167 0.0 0.26580000000000004
v 2.134 0.0 0.26060000000000005
v 2.116 0.0 0.258
v 2.095 0.0 0.2546
v 2.066 0.0 0.25
v 2.056 0.0 0.2484
v 2.017 0.0 0.2424
v 2.015 0.0 0.2422
v 1.9769999999999999 0.0 0.2364
v 1.965 0.0 0.2344
v 1.9380000000000002 0.0 0.23040000000000002
v 1.9140000000000001 0.0 0.2266
v 1.899 0.0 0.22419999999999998
v 1.864 0.0 0.2186
v 1.861 0.0 0.2182
v 1.824 0.0 0.2122
v 1.8130000000000002 0.0 0.2104
v 1.787 0.0 0.20600000000000002
v 1.7630000000000001 0.0 0.202
v 1.751 0.0 0.2
v 1.7140000000000002 0.0 0.194
v 1.712 0.0 0.1936
v 1.6769999999999998 0.0 0.18780000000000002
v 1.662 0.0 0.1854
v 1.6400000000000001 0.0 0.18180000000000002
v 1.611 0.0 0.1768
v 1.604 0.0 0.1758
v 1.571 0.0 0.1696
v 1.561 0.0 0.1676
v 1.54 0.0 0.1636
v 1.51 0.0 0.1576
v 1.5090000000000001 0.0 0.1576
v 1.479 0.0 0.15159999999999998
v 1.46 0.0 0.1476
v 1.4480000000000002 0.0 0.1454
v 1.413 0.0 0.1394
v 1.409 0.0 0.1388
v 1.374 0.0 0.13340000000000002
v 1.359 0.0 0.13119999999999998
v 1.331 0.0 0.1272
v 1.308 0.0 0.1242
v 1.285 0.0 0.1212
v 1.258 0.0 0.1176
v 1.239 0.0 0.11520000000000001
v 1.207 0.0 0.1108
v 1.195 0.0 0.109
v 1.157 0.0 0.1036
v 1.153 0.0 0.10300000000000001
v 1.115 0.0 0.097
v 1.1059999999999999 0.0 0.09540000000000001
v 1.08 0.0 0.091
v 1.056 0.0 0.0864
v 1.0470000000000002 0.0 0.0848
v 1.0170000000000001 0.0 0.0788
v 1.0050000000000001 0.0 0.0762
v 0.9870000000000001 0.0 0.0728
v 0.958 0.0 0.06659999999999999
v 0.9550000000000001 0.0 0.0658
v 0.9279999999999999 0.0 0.0606
v 0.904 0.0 0.056
v 0.8959999999999999 0.0 0.0546
v 0.8640000000000001 0.0 0.0484
v 0.8540000000000001 0.0 0.0466
v 0.8300000000000001 0.0 0.0424
v 0.8029999999999999 0.0 0.0374
v 0.0 0.0 0.0
v 0.0 -0.1 0.0
v nan -0.1 nan
v 5.004 -0.1 0.0
v 4.995 -0.1 0.0048
v 4.993 -0.1 0.006
v 4.984 -0.1 0.012199999999999999
v 4.977 -0.1 0.0182
v 4.973 -0.1 0.0242
v 4.97 -0.1 0.0304
v 4.969 -0.1 0.0364
v 4.969 -0.1 0.0424
v 4.97 -0.1 0.0484
v 4.972 -0.1 0.0546
v 4.9750000000000005 -0.1 0.0606
v 4.977 -0.1 0.06659999999999999
v 4.98 -0.1 0.0728
v 4.9830000000000005 -0.1 0.0788
v 4.985 -0.1 0.0848
v 4.987 -0.1 0.091
v 4.988 -0.1 0.097
v 4.989 -0.1 0.10300000000000001
v 4.99 -0.1 0.109
v 4.99 -0.1 0.11520000000000001
v 4.9910000000000005 -0.1 0.1212
v 4.9910000000000005 -0.1 0.1272
v 4.9910000000000005 -0.1 0.13340000000000002
v 4.99 -0.1 0.1394
v 4.989 -0.1 0.1454
v 4.986000000000001 -0.1 0.15159999999999998
v 4.9830000000000005 -0.1 0.1576
v 4.978000000000001 -0.1 0.1636
v 4.972 -0.1 0.1696
v 4.965 -0.1 0.1758
v 4.957 -0.1 0.18180000000000002
v 4.948 -0.1 0.18780000000000002
v 4.944 -0.1 0.19019999999999998
v 4.939 -0.1 0.194
v 4.929 -0.1 0.2
v 4.919 -0.1 0.20600000000000002
v 4.909 -0.1 0.2122
v 4.899 -0.1 0.2182
v 4.894 -0.1 0.2216
v 4.89 -0.1 0.22419999999999998
v 4.881 -0.1 0.23040000000000002
v 4.873 -0.1 0.2364
v 4.8660000000000005 -0.1 0.2424
v 4.8580000000000005 -0.1 0.2484
v 4.851 -0.1 0.2546
v 4.843 -0.1 0.26039999999999996
v 4.843 -0.1 0.26060000000000005
v 4.835 -0.1 0.2666
v 4.827 -0.1 0.27280000000000004
v 4.817 -0.1 0.2788
v 4.806 -0.1 0.2848
v 4.794 -0.1 0.291
v 4.793 -0.1 0.2914
v 4.781000000000001 -0.1 0.297
v 4.767 -0.1 0.303
v 4.753 -0.1 0.309
v 4.742 -0.1 0.3132
v 4.737 -0.1 0.3152
v 4.722 -0.1 0.3212
v 4.706 -0.1 0.3272
v 4.692 -0.1 0.3326
v 4.69 -0.1 0.3334
v 4.673 -0.1 0.3394
v 4.655 -0.1 0.3454
v 4.641 -0.1 0.3496
v 4.635 -0.1 0.3516
v 4.613 -0.1 0.35760000000000003
v 4.591 -0.1 0.3632
v 4.5889999999999995 -0.1 0.36360000000000003
v 4.561 -0.1 0.36960000000000004
v 4.54 -0.1 0.3738
v 4.53 -0.1 0.3758
v 4.494 -0.1 0.38180000000000003
v 4.49 -0.1 0.38239999999999996
v 4.45 -0.1 0.38780000000000003
v 4.439 -0.1 0.3892
v 4.3950000000000005 -0.1 0.394
v 4.389 -0.1 0.3946
v 4.338 -0.1 0.3986
v 4.3180000000000005 -0.1 0.4
v 4.288 -0.1 0.40180000000000005
v 4.237 -0.1 0.404
v 4.187 -0.1 0.4056
v 4.159 -0.1 0.406
v 4.136 -0.1 0.4064
v 4.086 -0.1 0.4068
v 4.035 -0.1 0.4068
v 3.985 -0.1 0.4066
v 3.944 -0.1 0.406
v 3.9339999999999997 -0.1 0.406
v 3.884 -0.1 0.4052
v 3.833 -0.1 0.404
v 3.7830000000000004 -0.1 0.403
v 3.7319999999999998 -0.1 0.4016
v 3.682 -0.1 0.4002
v 3.6750000000000003 -0.1 0.4
v 3.6310000000000002 -0.1 0.3986
v 3.5810000000000004 -0.1 0.397
v 3.5300000000000002 -0.1 0.395
v 3.5060000000000002 -0.1 0.394
v 3.48 -0.1 0.39280000000000004
v 3.429 -0.1 0.39
v 3.3930000000000002 -0.1 0.38780000000000003
v 3.379 -0.1 0.387
v 3.3280000000000003 -0.1 0.383
v 3.314 -0.1 0.38180000000000003
v 3.278 -0.1 0.37860000000000005
v 3.25 -0.1 0.3758
v 3.227 -0.1 0.3734
v 3.192 -0.1 0.36960000000000004
v 3.177 -0.1 0.36819999999999997
v 3.133 -0.1 0.36360000000000003
v 3.1260000000000003 -0.1 0.363
v 3.0760000000000005 -0.1 0.3584
v 3.067 -0.1 0.35760000000000003
v 3.025 -0.1 0.3542
v 2.988 -0.1 0.3516
v 2.975 -0.1 0.3506
v 2.924 -0.1 0.3474
v 2.889 -0.1 0.3454
v 2.8739999999999997 -0.1 0.3446
v 2.823 -0.1 0.3418
v 2.778 -0.1 0.3394
v 2.773 -0.1 0.3392
v 2.722 -0.1 0.336
v 2.6830000000000003 -0.1 0.3334
v 2.672 -0.1 0.3326
v 2.6210000000000004 -0.1 0.3282
v 2.611 -0.1 0.3272
v 2.571 -0.1 0.323
v 2.556 -0.1 0.3212
v 2.52 -0.1 0.3168
v 2.509 -0.1 0.3152
v 2.47 -0.1 0.30960000000000004
v 2.467 -0.1 0.309
v 2.426 -0.1 0.303
v 2.419 -0.1 0.30219999999999997
v 2.384 -0.1 0.297
v 2.369 -0.1 0.295
v 2.342 -0.1 0.291
v 2.318 -0.1 0.2878
v 2.298 -0.1 0.2848
v 2.2680000000000002 -0.1 0.2806
v 2.255 -0.1 0.2788
v 2.217 -0.1 0.2734
v 2.213 -0.1 0.27280000000000004
v 2.173 -0.1 0.2666
v 2.167 -0.1 0.26580000000000004
v 2.134 -0.1 0.26060000000000005
v 2.116 -0.1 0.258
v 2.095 -0.1 0.2546
v 2.066 -0.1 0.25
v 2.056 -0.1 0.2484
v 2.017 -0.1 0.2424
v 2.015 -0.1 0.2422
v 1.9769999999999999 -0.1 0.2364
v 1.965 -0.1 0.2344
v 1.9380000000000002 -0.1 0.23040000000000002
v 1.9140000000000001 -0.1 0.2266
v 1.899 -0.1 0.22419999999999998
v 1.864 -0.1 0.2186
v 1.861 -0.1 0.2182
v 1.824 -0.1 0.2122
v 1.8130000000000002 -0.1 0.2104
v 1.787 -0.1 0.20600000000000002
v 1.7630000000000001 -0.1 0.202
v 1.751 -0.1 0.2
v 1.7140000000000002 -0.1 0.194
v 1.712 -0.1 0.1936
v 1.6769999999999998 -0.1 0.18780000000000002
v 1.662 -0.1 0.1854
v 1.6400000000000001 -0.1 0.18180000000000002
v 1.611 -0.1 0.1768
v 1.604 -0.1 0.1758
v 1.571 -0.1 0.1696
v 1.561 -0.1 0.1676
v 1.54 -0.1 0.1636
v 1.51 -0.1 0.1576
v 1.5090000000000001 -0.1 0.1576
v 1.479 -0.1 0.15159999999999998
v 1.46 -0.1 0.1476
v 1.4480000000000002 -0.1 0.1454
v 1.413 -0.1 0.1394
v 1.409 -0.1 0.1388
v 1.374 -0.1 0.13340000000000002
v 1.359 -0.1 0.13119999999999998
v 1.331 -0.1 0.1272
v 1.308 -0.1 0.1242
v 1.285 -0.1 0.1212
v 1.258 -0.1 0.1176
v 1.239 -0.1 0.11520000000000001
v 1.207 -0.1 0.1108
v 1.195 -0.1 0.109
v 1.157 -0.1 0.1036
v 1.153 -0.1 0.10300000000000001
v 1.115 -0.1 0.097
v 1.1059999999999999 -0.1 0.09540000000000001
v 1.08 -0.1 0.091
v 1.056 -0.1 0.0864
v 1.0470000000000002 -0.1 0.0848
v 1.0170000000000001 -0.1 0.0788
v 1.0050000000000001 -0.1 0.0762
v 0.9870000000000001 -0.1 0.0728
v 0.958 -0.1 0.06659999999999999
v 0.9550000000000001 -0.1 0.0658
v 0.9279999999999999 -0.1 0.0606
v 0.904 -0.1 0.056
v 0.8959999999999999 -0.1 0.0546
v 0.8640000000000001 -0.1 0.0484
v 0.8540000000000001 -0.1 0.0466
v 0.8300000000000001 -0.1 0.0424
v 0.8029999999999999 -0.1 0.0374
v 0.0 -0.1 0.0
f 1 217 218
f 1 218 2
f 2 218 219
f 2 219 3
f 3 219 220
f 3 220 4
f 4 220 221
f 4 221 5
f 5 221 222
f 5 222 6
f 6 222 223
f 6 223 7
f 7 223 224
f 7 224 8
f 8 224 225
f 8 225 9
f 9 225 226
f 9 226 10
f 10 226 227
f 10 227 11
f 11 227 228
f 11 228 12
f 12 228 229
f 12 229 13
f 13 229 230
f 13 230 14
f 14 230 231
f 14 231 15
f 15 231 232
f 15 232 16
f 16 232 233
f 16 233 17
f 17 233 234
f 17 234 18
f 18 234 235
f 18 235 19
f 19 235 236
f 19 236 20
f 20 236 237
f 20 237 21
f 21 237 238
f 21 238 22
f 22 238 239
f 22 239 23
f 23 239 240
f 23 240 24
f 24 240 241
f 24 241 25
f 25 241 242
f 25 242 26
f 26 242 243
f 26 243 27
f 27 243 244
f 27 244 28
f 28 244 245
f 28 245 29
f 29 245 246
f 29 246 30
f 30 246 247
f 30 247 31
f 31 247 248
f 31 248 32
f 32 248 249
f 32 249 33
f 33 249 250
f 33 250 34
f 34 250 251
f 34 251 35
f 35 251 252
f 35 252 36
f 36 252 253
f 36 253 37
f 37 253 254
f 37 254 38
f 38 254 255
f 38 255 39
f 39 255 256
f 39 256 40
f 40 256 257
f 40 257 41
f 41 257 258
f 41 258 42
f 42 258 259
f 42 259 43
f 43 259 260
f 43 260 44
f 44 260 261
f 44 261 45
f 45 261 262
f 45 262 46
f 46 262 263
f 46 263 47
f 47 263 264
f 47 264 48
f 48 264 265
f 48 265 49
f 49 265 266
f 49 266 50
f 50 266 267
f 50 267 51
f 51 267 268
f 51 268 52
f 52 268 269
f 52 269 53
f 53 269 270
f 53 270 54
f 54 270 271
f 54 271 55
f 55 271 272
f 55 272 56
f 56 272 273
f 56 273 57
f 57 273 274
f 57 274 58
f 58 274 275
f 58 275 59
f 59 275 276
f 59 276 60
f 60 276 277
f 60 277 61
f 61 277 278
f 61 278 62
f 62 278 279
f 62 279 63
f 63 279 280
f 63 280 64
f 64 280 281
f 64 281 65
f 65 281 282
f 65 282 66
f 66 282 283
f 66 283 67
f 67 283 284
f 67 284 68
f 68 284 285
f 68 285 69
f 69 285 286
f 69 286 70
f 70 286 287
f 70 287 71
f 71 287 288
f 71 288 72
f 72 288 289
f 72 289 73
f 73 289 290
f 73 290 74
f 74 290 291
f 74 291 75
f 75 291 292
f 75 292 76
f 76 292 293
f 76 293 77
f 77 293 294
f 77 294 78
f 78 294 295
f 78 295 79
f 79 295 296
f 79 296 80
f 80 296 297
f 80 297 81
f 81 297 298
f 81 298 82
f 82 298 299
f 82 299 83
f 83 299 300
f 83 300 84
f 84 300 301
f 84 301 85
f 85 301 302
f 85 302 86
f 86 302 303
f 86 303 87
f 87 303 304
f 87 304 88
f 88 304 305
f 88 305 89
f 89 305 306
f 89 306 90
f 90 306 307
f 90 307 91
f 91 307 308
f 91 308 92
f 92 308 309
f 92 309 93
f 93 309 310
f 93 310 94
f 94 310 311
f 94 311 95
f 95 311 312
f 95 312 96
f 96 312 313
f 96 313 97
f 97 313 314
f 97 314 98
f 98 314 315
f 98 315 99
f 99 315 316
f 99 316 100
f 100 316 317
f 100 317 101
f 101 317 318
f 101 318 102
f 102 318 319
f 102 319 103
f 103 319 320
f 103 320 104
f 104 320 321
f 104 321 105
f 105 321 322
f 105 322 106
f 106 322 323
f 106 323 107
f 107 323 324
f 107 324 108
f 108 324 325
f 108 325 109
f 109 325 326
f 109 326 110
f 110 326 327
f 110 327 111
f 111 327 328
f 111 328 112
f 112 328 329
f 112 329 113
f 113 329 330
f 113 330 114
f 114 330 331
f 114 331 115
f 115 331 332
f 115 332 116
f 116 332 333
f 116 333 117
f 117 333 334
f 117 334 118
f 118 334 335
f 118 335 119
f 119 335 336
f 119 336 120
f 120 336 337
f 120 337 121
f 121 337 338
f 121 338 122
f 122 338 339
f 122 339 123
f 123 339 340
f 123 340 124
f 124 340 341
f 124 341 125
f 125 341 342
f 125 342 126
f 126 342 343
f 126 343 127
f 127 343 344
f 127 344 128
f 128 344 345
f 128 345 129
f 129 345 346
f 129 346 130
f 130 346 347
f 130 347 131
f 131 347 348
f 131 348 132
f 132 348 349
f 132 349 133
f 133 349 350
f 133 350 134
f 134 350 351
f 134 351 135
f 135 351 352
f 135 352 136
f 136 352 353
f 136 353 137
f 137 353 354
f 137 354 138
f 138 354 355
f 138 355 139
f 139 355 356
f 139 356 140
f 140 356 357
f 140 357 141
f 141 357 358
f 141 358 142
f 142 358 359
f 142 359 143
f 143 359 360
f 143 360 144
f 144 360 361
f 144 361 145
f 145 361 362
f 145 362 146
f 146 362 363
f 146 363 147
f 147 363 364
f 147 364 148
f 148 364 365
f 148 365 149
f 149 365 366
f 149 366 150
f 150 366 367
f 150 367 151
f 151 367 368
f 151 368 152
f 152 368 369
f 152 369 153
f 153 369 370
f 153 370 154
f 154 370 371
f 154 371 155
f 155 371 372
f 155 372 156
f 156 372 373
f 156 373 157
f 157 373 374
f 157 374 158
f 158 374 375
f 158 375 159
f 159 375 376
f 159 376 160
f 160 376 377
f 160 377 161
f 161 377 378
f 161 378 162
f 162 378 379
f 162 379 163
f 163 379 380
f 163 380 164
f 164 380 381
f 164 381 165
f 165 381 382
f 165 382 166
f 166 382 383
f 166 383 167
f 167 383 384
f 167 384 168
f 168 384 385
f 168 385 169
f 169 385 386
f 169 386 170
f 170 386 387
f 170 387 171
f 171 387 388
f 171 388 172
f 172 388 389
f 172 389 173
f 173 389 390
f 173 390 174
f 174 390 391
f 174 391 175
f 175 391 392
f 175 392 176
f 176 392 393
f 176 393 177
f 177 393 394
f 177 394 178
f 178 394 395
f 178 395 179
f 179 395 396
f 179 396 180
f 180 396 397
f 180 397 181
f 181 397 398
f 181 398 182
f 182 398 399
f 182 399 183
f 183 399 400
f 183 400 184
f 184 400 401
f 184 401 185
f 185 401 402
f 185 402 186
f 186 402 403
f 186 403 187
f 187 403 404
f 187 404 188
f 188 404 405
f 188 405 189
f 189 405 406
f 189 406 190
f 190 406 407
f 190 407 191
f 191 407 408
f 191 408 192
f 192 408 409
f 192 409 193
f 193 409 410
f 193 410 194
f 194 410 411
f 194 411 195
f 195 411 412
f 195 412 196
f 196 412 413
f 196 413 197
f 197 413 414
f 197 414 198
f 198 414 415
f 198 415 199
f 199 415 416
f 199 416 200
f 200 416 417
f 200 417 201
f 201 417 418
f 201 418 202
f 202 418 419
f 202 419 203
f 203 419 420
f 203 420 204
f 204 420 421
f 204 421 205
f 205 421 422
f 205 422 206
f 206 422 423
f 206 423 207
f 207 423 424
f 207 424 208
f 208 424 425
f 208 425 209
f 209 425 426
f 209 426 210
f 210 426 427
f 210 427 211
f 211 427 428
f 211 428 212
f 212 428 429
f 212 429 213
f 213 429 430
f 213 430 214
f 214 430 431
f 214 431 215
f 215 431 432
f 215 432 216
f 1 2 3
f 1 3 4
f 1 4 5
f 1 5 6
f 1 6 7
f 1 7 8
f 1 8 9
f 1 9 10
f 1 10 11
f 1 11 12
f 1 12 13
f 1 13 14
f 1 14 15
f 1 15 16
f 1 16 17
f 1 17 18
f 1 18 19
f 1 19 20
f 1 20 21
f 1 21 22
f 1 22 23
f 1 23 24
f 1 24 25
f 1 25 26
f 1 26 27
f 1 27 28
f 1 28 29
f 1 29 30
f 1 30 31
f 1 31 32
f 1 32 33
f 1 33 34
f 1 34 35
f 1 35 36
f 1 36 37
f 1 37 38
f 1 38 39
f 1 39 40
f 1 40 41
f 1 41 42
f 1 42 43
f 1 43 44
f 1 44 45
f 1 45 46
f 1 46 47
f 1 47 48
f 1 48 49
f 1 49 50
f 1 50 51
f 1 51 52
f 1 52 53
f 1 53 54
f 1 54 55
f 1 55 56
f 1 56 57
f 1 57 58
f 1 58 59
f 1 59 60
f 1 60 61
f 1 61 62
f 1 62 63
f 1 63 64
f 1 64 65
f 1 65 66
f 1 66 67
f 1 67 68
f 1 68 69
f 1 69 70
f 1 70 71
f 1 71 72
f 1 72 73
f 1 73 74
f 1 74 75
f 1 75 76
f 1 76 77
f 1 77 78
f 1 78 79
f 1 79 80
f 1 80 81
f 1 81 82
f 1 82 83
f 1 83 84
f 1 84 85
f 1 85 86
f 1 86 87
f 1 87 88
f 1 88 89
f 1 89 90
f 1 90 91
f 1 91 92
f 1 92 93
f 1 93 94
f 1 94 95
f 1 95 96
f 1 96 97
f 1 97 98
f 1 98 99
f 1 99 100
f 1 100 101
f 1 101 102
f 1 102 103
f 1 103 104
f 1 104 105
f 1 105 106
f 1 106 107
f 1 107 108
f 1 108 109
f 1 109 110
f 1 110 111
f 1 111 112
f 1 112 113
f 1 113 114
f 1 114 115
f 1 115 116
f 1 116 117
f 1 117 118
f 1 118 119
f 1 119 120
f 1 120 121
f 1 121 122
f 1 122 123
f 1 123 124
f 1 124 125
f 1 125 126
f 1 126 127
f 1 127 128
f 1 128 129
f 1 129 130
f 1 130 131
f 1 131 132
f 1 132 133
f 1 133 134
f 1 134 135
f 1 135 136
f 1 136 137
f 1 137 138
f 1 138 139
f 1 139 140
f 1 140 141
f 1 141 142
f 1 142 143
f 1 143 144
f 1 144 145
f 1 145 146
f 1 146 147
f 1 147 148
f 1 148 149
f 1 149 150
f 1 150 151
f 1 151 152
f 1 152 153
f 1 153 154
f 1 154 155
f 1 155 156
f 1 156 157
f 1 157 158
f 1 158 159
f 1 159 160
f 1 160 161
f 1 161 162
f 1 162 163
f 1 163 164
f 1 164 165
f 1 165 166
f 1 166 167
f 1 167 168
f 1 168 169
f 1 169 170
f 1 170 171
f 1 171 172
f 1 172 173
f 1 173 174
f 1 174 175
f 1 175 176
f 1 176 177
f 1 177 178
f 1 178 179
f 1 179 180
f 1 180 181
f 1 181 182
f 1 182 183
f 1 183 184
f 1 184 185
f 1 185 186
f 1 186 187
f 1 187 188
f 1 188 189
f 1 189 190
f 1 190 191
f 1 191 192
f 1 192 193
f 1 193 194
f 1 194 195
f 1 195 196
f 1 196 197
f 1 197 198
f 1 198 199
f 1 199 200
f 1 200 201
f 1 201 202
f 1 202 203
f 1 203 204
f 1 204 205
f 1 205 206
f 1 206 207
f 1 207 208
f 1 208 209
f 1 209 210
f 1 210 211
f 1 211 212
f 1 212 213
f 1 213 214
f 1 214 215
f 1 215 216
f 217 219 218
f 217 220 219
f 217 221 220
f 217 222 221
f 217 223 222
f 217 224 223
f 217 225 224
f 217 226 225
f 217 227 226
f 217 228 227
f 217 229 228
f 217 230 229
f 217 231 230
f 217 232 231
f 217 233 232
f 217 234 233
f 217 235 234
f 217 236 235
f 217 237 236
f 217 238 237
f 217 239 238
f 217 240 239
f 217 241 240
f 217 242 241
f 217 243 242
f 217 244 243
f 217 245 244
f 217 246 245
f 217 247 246
f 217 248 247
f 217 249 248
f 217 250 249
f 217 251 250
f 217 252 251
f 217 253 252
f 217 254 253
f 217 255 254
f 217 256 255
f 217 257 256
f 217 258 257
f 217 259 258
f 217 260 259
f 217 261 260
f 217 262 261
f 217 263 262
f 217 264 263
f 217 265 264
f 217 266 265
f 217 267 266
f 217 268 267
f 217 269 268
f 217 270 269
f 217 271 270
f 217 272 271
f 217 273 272
f 217 274 273
f 217 275 274
f 217 276 275
f 217 277 276
f 217 278 277
f 217 279 278
f 217 280 279
f 217 281 280
f 217 282 281
f 217 283 282
f 217 284 283
f 217 285 284
f 217 286 285
f 217 287 286
f 217 288 287
f 217 289 288
f 217 290 289
f 217 291 290
f 217 292 291
f 217 293 292
f 217 294 293
f 217 295 294
f 217 296 295
f 217 297 296
f 217 298 297
f 217 299 298
f 217 300 299
f 217 301 300
f 217 302 301
f 217 303 302
f 217 304 303
f 217 305 304
f 217 306 305
f 217 307 306
f 217 308 307
f 217 309 308
f 217 310 309
f 217 311 310
f 217 312 311
f 217 313 312
f 217 314 313
f 217 315 314
f 217 316 315
f 217 317 316
f 217 318 317
f 217 319 318
f 217 320 319
f 217 321 320
f 217 322 321
f 217 323 322
f 217 324 323
f 217 325 324
f 217 326 325
f 217 327 326
f 217 328 327
f 217 329 328
f 217 330 329
f 217 331 330
f 217 332 331
f 217 333 332
f 217 334 333
f 217 335 334
f 217 336 335
f 217 337 336
f 217 338 337
f 217 339 338
f 217 340 339
f 217 341 340
f 217 342 341
f 217 343 342
f 217 344 343
f 217 345 344
f 217 346 345
f 217 347 346
f 217 348 347
f 217 349 348
f 217 350 349
f 217 351 350
f 217 352 351
f 217 353 352
f 217 354 353
f 217 355 354
f 217 356 355
f 217 357 356
f 217 358 357
f 217 359 358
f 217 360 359
f 217 361 360
f 217 362 361
f 217 363 362
f 217 364 363
f 217 365 364
f 217 366 365
f 217 367 366
f 217 368 367
f 217 369 368
f 217 370 369
f 217 371 370
f 217 372 371
f 217 373 372
f 217 374 373
f 217 375 374
f 217 376 375
f 217 377 376
f 217 378 377
f 217 379 378
f 217 380 379
f 217 381 380
f 217 382 381
f 217 383 382
f 217 384 383
f 217 385 384
f 217 386 385
f 217 387 386
f 217 388 387
f 217 389 388
f 217 390 389
f 217 391 390
f 217 392 391
f 217 393 392
f 217 394 393
f 217 395 394
f 217 396 395
f 217 397 396
f 217 398 397
f 217 399 398
f 217 400 399
f 217 401 400
f 217 402 401
f 217 403 402
f 217 404 403
f 217 405 404
f 217 406 405
f 217 407 406
f 217 408 407
f 217 409 408
f 217 410 409
f 217 411 410
f 217 412 411
f 217 413 412
f 217 414 413
f 217 415 414
f 217 416 415
f 217 417 416
f 217 418 417
f 217 419 418
f 217 420 419
f 217 421 420
f 217 422 421
f 217 423 422
f 217 424 423
f 217 425 424
f 217 426 425
f 217 427 426
f 217 428 427
f 217 429 428
f 217 430 429
f 217 431 430
f 217 432 431
f 1 217 218
f 1 218 2
f 216 431 432
f 216 215 431
