v 0.0 0.0 0.0
v 0.5 0.0 0.0008137999999999999
v 0.5234000000000001 0.0 0.000848
v 0.52525 0.0 0.000851
v 0.5505 0.0 0.0008902000000000001
v 0.55089 0.0 0.0008910000000000001
v 0.57576 0.0 0.0009320000000000001
v 0.57824 0.0 0.0009362000000000001
v 0.60101 0.0 0.0009756000000000001
v 0.6057 0.0 0.0009836
v 0.62626 0.0 0.0010206
v 0.63359 0.0 0.0010334
v 0.6515099999999999 0.0 0.0010664000000000001
v 0.66227 0.0 0.0010858
v 0.6767700000000001 0.0 0.0011128
v 0.6920999999999999 0.0 0.0011408
v 0.70202 0.0 0.0011594
v 0.72345 0.0 0.0011983999999999999
v 0.7272700000000001 0.0 0.0012056
v 0.75252 0.0 0.0012518
v 0.75682 0.0 0.0012594000000000001
v 0.77778 0.0 0.001297
v 0.7926000000000001 0.0 0.001323
v 0.80303 0.0 0.0013415999999999999
v 0.82828 0.0 0.0013856
v 0.83101 0.0 0.00139
v 0.85353 0.0 0.0014290000000000001
v 0.8724200000000001 0.0 0.0014605999999999998
v 0.8787900000000001 0.0 0.0014714
v 0.90404 0.0 0.0015136000000000001
v 0.91669 0.0 0.0015344
v 0.9292900000000001 0.0 0.0015558000000000002
v 0.9545399999999999 0.0 0.0015978000000000001
v 0.96339 0.0 0.0016122
v 0.9798000000000001 0.0 0.0016404000000000002
v 1.0051 0.0 0.0016828000000000001
v 1.0117 0.0 0.001694
v 1.0303 0.0 0.0017264
v 1.0556 0.0 0.001771
v 1.0606 0.0 0.0017796
v 1.0808 0.0 0.0018174
v 1.1061 0.0 0.0018652
v 1.1086 0.0 0.0018700000000000001
v 1.1313 0.0 0.0019161999999999998
v 1.1547 0.0 0.0019648
v 1.1566 0.0 0.0019690000000000003
v 1.1818000000000002 0.0 0.0020264000000000002
v 1.198 0.0 0.0020640000000000003
v 1.2071 0.0 0.0020876000000000002
v 1.2323000000000002 0.0 0.002153
v 1.2382 0.0 0.0021688000000000002
v 1.2576 0.0 0.0022256
v 1.2752 0.0 0.0022789999999999998
v 1.2828 0.0 0.0023041999999999997
v 1.3081 0.0 0.0023908
v 1.3091 0.0 0.0023940000000000003
v 1.3333000000000002 0.0 0.0024878
v 1.3403 0.0 0.0025156
v 1.3586000000000003 0.0 0.0025956
v 1.3692 0.0 0.0026425999999999997
v 1.3838 0.0 0.0027148
v 1.3962999999999999 0.0 0.0027768000000000003
v 1.4091 0.0 0.0028472
v 1.4218000000000002 0.0 0.0029176000000000002
v 1.4343000000000001 0.0 0.0029932
v 1.4464 0.0 0.003065
v 1.4596 0.0 0.0031508
v 1.4705000000000001 0.0 0.0032206
v 1.4848 0.0 0.0033192
v 1.4945 0.0 0.003384
v 1.5101 0.0 0.003494
v 1.5189 0.0 0.0035550000000000004
v 1.5353999999999999 0.0 0.003674
v 1.5441 0.0 0.0037354
v 1.5606 0.0 0.0038542000000000003
v 1.5706 0.0 0.003925
v 1.5859 0.0 0.004034
v 1.5987 0.0 0.0041232
v 1.6111000000000002 0.0 0.0042114000000000006
v 1.6287 0.0 0.0043324
v 1.6363999999999999 0.0 0.0043856
v 1.6605 0.0 0.0045512
v 1.6616 0.0 0.0045596
v 1.6869 0.0 0.0047317999999999995
v 1.6943000000000001 0.0 0.0047821999999999995
v 1.7121000000000002 0.0 0.0049048
v 1.7293 0.0 0.005025000000000001
v 1.7374 0.0 0.005082
v 1.7626 0.0 0.0052642
v 1.7647 0.0 0.0052788
v 1.7879 0.0 0.0054542
v 1.7997999999999998 0.0 0.0055466
v 1.8131000000000002 0.0 0.0056562
v 1.8332 0.0 0.0058281999999999995
v 1.8384 0.0 0.005874
v 1.8636000000000001 0.0 0.0061154
v 1.8643 0.0 0.006122600000000001
v 1.8888999999999998 0.0 0.0063874000000000005
v 1.8928 0.0 0.0064332
v 1.9141 0.0 0.0067008
v 1.9184999999999999 0.0 0.006759800000000001
v 1.9394 0.0 0.0070686
v 1.9415 0.0 0.0071012
v 1.9623 0.0 0.0074616
v 1.9646000000000001 0.0 0.007506400000000001
v 1.9812 0.0 0.0078402
v 1.9899000000000002 0.0 0.0080322
v 1.9987000000000001 0.0 0.0082362
v 2.015 0.0 0.008654199999999999
v 2.0152 0.0 0.008658200000000001
v 2.0307 0.0 0.0090914
v 2.0404 0.0 0.009387000000000001
v 2.0457 0.0 0.0095528
v 2.0604 0.0 0.010037599999999999
v 2.0657 0.0 0.010217200000000001
v 2.075 0.0 0.010544600000000001
v 2.0894 0.0 0.0110798
v 2.0909 0.0 0.011136
v 2.104 0.0 0.011642
v 2.1162 0.0 0.0121432
v 2.1183 0.0 0.012230000000000001
v 2.1327000000000003 0.0 0.012850799999999999
v 2.1414 0.0 0.0132566
v 2.1467 0.0 0.013503000000000001
v 2.1604 0.0 0.014185000000000001
v 2.1667 0.0 0.014535600000000001
v 2.1734 0.0 0.014905
v 2.1853000000000002 0.0 0.0156578
v 2.1919 0.0 0.016182
v 2.1955 0.0 0.016452400000000002
v 2.2036000000000002 0.0 0.0172874
v 2.2087 0.0 0.0181606
v 2.2101 0.0 0.0190822
v 2.2071 0.0 0.020050000000000002
v 2.1988 0.0 0.021064
v 2.1919 0.0 0.02158
v 2.1849000000000003 0.0 0.022132000000000002
v 2.1667 0.0 0.023148
v 2.1649000000000003 0.0 0.023256000000000002
v 2.1414 0.0 0.024318000000000003
v 2.1390000000000002 0.0 0.02443
v 2.1162 0.0 0.025312
v 2.1071 0.0 0.025670000000000002
v 2.0909 0.0 0.02622
v 2.0693 0.0 0.026972000000000003
v 2.0657 0.0 0.027086
v 2.0404 0.0 0.027876
v 2.0259 0.0 0.028336
v 2.0152 0.0 0.028644
v 1.9899000000000002 0.0 0.029386
v 1.9767 0.0 0.029774000000000002
v 1.9646000000000001 0.0 0.030098
v 1.9394 0.0 0.030784
v 1.9214 0.0 0.031278
v 1.9141 0.0 0.031466
v 1.8888999999999998 0.0 0.032116
v 1.8636000000000001 0.0 0.03276
v 1.8595 0.0 0.032864
v 1.8384 0.0 0.033375999999999996
v 1.8131000000000002 0.0 0.033988
v 1.7902000000000002 0.0 0.034532
v 1.7879 0.0 0.03458
v 1.7626 0.0 0.035165999999999996
v 1.7374 0.0 0.035738
v 1.7128999999999999 0.0 0.036276
v 1.7121000000000002 0.0 0.036294
v 1.6869 0.0 0.03685
v 1.6616 0.0 0.037396
v 1.6363999999999999 0.0 0.037933999999999996
v 1.6275 0.0 0.038118000000000006
v 1.6111000000000002 0.0 0.038462
v 1.5859 0.0 0.038996
v 1.5606 0.0 0.039522
v 1.5353999999999999 0.0 0.040043999999999996
v 1.5352000000000001 0.0 0.040052
v 1.5101 0.0 0.040572000000000004
v 1.4848 0.0 0.041108
v 1.4596 0.0 0.041642000000000005
v 1.4388999999999998 0.0 0.042076
v 1.4343000000000001 0.0 0.042172
v 1.4091 0.0 0.04273
v 1.3838 0.0 0.043274
v 1.3586000000000003 0.0 0.043836
v 1.3418 0.0 0.04421
v 1.3333000000000002 0.0 0.044404000000000006
v 1.3081 0.0 0.044992
v 1.2828 0.0 0.045576
v 1.2576 0.0 0.046178
v 1.246 0.0 0.046454
v 1.2323000000000002 0.0 0.046787999999999996
v 1.2071 0.0 0.047406
v 1.1818000000000002 0.0 0.048032
v 1.1566 0.0 0.048666
v 1.1511 0.0 0.048802
v 1.1313 0.0 0.04931000000000001
v 1.1061 0.0 0.049972
v 1.0808 0.0 0.050622
v 1.0556 0.0 0.051254
v 1.0549 0.0 0.051278
v 1.0303 0.0 0.05192
v 1.0051 0.0 0.05257
v 0.9798000000000001 0.0 0.053214
v 0.9545399999999999 0.0 0.05383
v 0.95294 0.0 0.053868000000000006
v 0.9292900000000001 0.0 0.054466
v 0.90404 0.0 0.055084
v 0.8787900000000001 0.0 0.055672
v 0.85353 0.0 0.05625
v 0.8371200000000001 0.0 0.056602
v 0.82828 0.0 0.056798
v 0.80303 0.0 0.057350000000000005
v 0.77778 0.0 0.057866
v 0.75252 0.0 0.058348
v 0.7272700000000001 0.0 0.058820000000000004
v 0.70202 0.0 0.059256
v 0.68926 0.0 0.059474
v 0.6767700000000001 0.0 0.059680000000000004
v 0.6515099999999999 0.0 0.06008
v 0.62626 0.0 0.060454
v 0.60101 0.0 0.060804000000000004
v 0.57576 0.0 0.06111200000000001
v 0.5505 0.0 0.061408000000000004
v 0.52525 0.0 0.061678
v 0.5 0.0 0.061933999999999996
v 0.0 0.0 0.0
v 0.0 -0.1 0.0
v 0.5 -0.1 0.0008137999999999999
v 0.5234000000000001 -0.1 0.000848
v 0.52525 -0.1 0.000851
v 0.5505 -0.1 0.0008902000000000001
v 0.55089 -0.1 0.0008910000000000001
v 0.57576 -0.1 0.0009320000000000001
v 0.57824 -0.1 0.0009362000000000001
v 0.60101 -0.1 0.0009756000000000001
v 0.6057 -0.1 0.0009836
v 0.62626 -0.1 0.0010206
v 0.63359 -0.1 0.0010334
v 0.6515099999999999 -0.1 0.0010664000000000001
v 0.66227 -0.1 0.0010858
v 0.6767700000000001 -0.1 0.0011128
v 0.6920999999999999 -0.1 0.0011408
v 0.70202 -0.1 0.0011594
v 0.72345 -0.1 0.0011983999999999999
v 0.7272700000000001 -0.1 0.0012056
v 0.75252 -0.1 0.0012518
v 0.75682 -0.1 0.0012594000000000001
v 0.77778 -0.1 0.001297
v 0.7926000000000001 -0.1 0.001323
v 0.80303 -0.1 0.0013415999999999999
v 0.82828 -0.1 0.0013856
v 0.83101 -0.1 0.00139
v 0.85353 -0.1 0.0014290000000000001
v 0.8724200000000001 -0.1 0.0014605999999999998
v 0.8787900000000001 -0.1 0.0014714
v 0.90404 -0.1 0.0015136000000000001
v 0.91669 -0.1 0.0015344
v 0.9292900000000001 -0.1 0.0015558000000000002
v 0.9545399999999999 -0.1 0.0015978000000000001
v 0.96339 -0.1 0.0016122
v 0.9798000000000001 -0.1 0.0016404000000000002
v 1.0051 -0.1 0.0016828000000000001
v 1.0117 -0.1 0.001694
v 1.0303 -0.1 0.0017264
v 1.0556 -0.1 0.001771
v 1.0606 -0.1 0.0017796
v 1.0808 -0.1 0.0018174
v 1.1061 -0.1 0.0018652
v 1.1086 -0.1 0.0018700000000000001
v 1.1313 -0.1 0.0019161999999999998
v 1.1547 -0.1 0.0019648
v 1.1566 -0.1 0.0019690000000000003
v 1.1818000000000002 -0.1 0.0020264000000000002
v 1.198 -0.1 0.0020640000000000003
v 1.2071 -0.1 0.0020876000000000002
v 1.2323000000000002 -0.1 0.002153
v 1.2382 -0.1 0.0021688000000000002
v 1.2576 -0.1 0.0022256
v 1.2752 -0.1 0.0022789999999999998
v 1.2828 -0.1 0.0023041999999999997
v 1.3081 -0.1 0.0023908
v 1.3091 -0.1 0.0023940000000000003
v 1.3333000000000002 -0.1 0.0024878
v 1.3403 -0.1 0.0025156
v 1.3586000000000003 -0.1 0.0025956
v 1.3692 -0.1 0.0026425999999999997
v 1.3838 -0.1 0.0027148
v 1.3962999999999999 -0.1 0.0027768000000000003
v 1.4091 -0.1 0.0028472
v 1.4218000000000002 -0.1 0.0029176000000000002
v 1.4343000000000001 -0.1 0.0029932
v 1.4464 -0.1 0.003065
v 1.4596 -0.1 0.0031508
v 1.4705000000000001 -0.1 0.0032206
v 1.4848 -0.1 0.0033192
v 1.4945 -0.1 0.003384
v 1.5101 -0.1 0.003494
v 1.5189 -0.1 0.0035550000000000004
v 1.5353999999999999 -0.1 0.003674
v 1.5441 -0.1 0.0037354
v 1.5606 -0.1 0.0038542000000000003
v 1.5706 -0.1 0.003925
v 1.5859 -0.1 0.004034
v 1.5987 -0.1 0.0041232
v 1.6111000000000002 -0.1 0.0042114000000000006
v 1.6287 -0.1 0.0043324
v 1.6363999999999999 -0.1 0.0043856
v 1.6605 -0.1 0.0045512
v 1.6616 -0.1 0.0045596
v 1.6869 -0.1 0.0047317999999999995
v 1.6943000000000001 -0.1 0.0047821999999999995
v 1.7121000000000002 -0.1 0.0049048
v 1.7293 -0.1 0.005025000000000001
v 1.7374 -0.1 0.005082
v 1.7626 -0.1 0.0052642
v 1.7647 -0.1 0.0052788
v 1.7879 -0.1 0.0054542
v 1.7997999999999998 -0.1 0.0055466
v 1.8131000000000002 -0.1 0.0056562
v 1.8332 -0.1 0.0058281999999999995
v 1.8384 -0.1 0.005874
v 1.8636000000000001 -0.1 0.0061154
v 1.8643 -0.1 0.006122600000000001
v 1.8888999999999998 -0.1 0.0063874000000000005
v 1.8928 -0.1 0.0064332
v 1.9141 -0.1 0.0067008
v 1.9184999999999999 -0.1 0.006759800000000001
v 1.9394 -0.1 0.0070686
v 1.9415 -0.1 0.0071012
v 1.9623 -0.1 0.0074616
v 1.9646000000000001 -0.1 0.007506400000000001
v 1.9812 -0.1 0.0078402
v 1.9899000000000002 -0.1 0.0080322
v 1.9987000000000001 -0.1 0.0082362
v 2.015 -0.1 0.008654199999999999
v 2.0152 -0.1 0.008658200000000001
v 2.0307 -0.1 0.0090914
v 2.0404 -0.1 0.009387000000000001
v 2.0457 -0.1 0.0095528
v 2.0604 -0.1 0.010037599999999999
v 2.0657 -0.1 0.010217200000000001
v 2.075 -0.1 0.010544600000000001
v 2.0894 -0.1 0.0110798
v 2.0909 -0.1 0.011136
v 2.104 -0.1 0.011642
v 2.1162 -0.1 0.0121432
v 2.1183 -0.1 0.012230000000000001
v 2.1327000000000003 -0.1 0.012850799999999999
v 2.1414 -0.1 0.0132566
v 2.1467 -0.1 0.013503000000000001
v 2.1604 -0.1 0.014185000000000001
v 2.1667 -0.1 0.014535600000000001
v 2.1734 -0.1 0.014905
v 2.1853000000000002 -0.1 0.0156578
v 2.1919 -0.1 0.016182
v 2.1955 -0.1 0.016452400000000002
v 2.2036000000000002 -0.1 0.0172874
v 2.2087 -0.1 0.0181606
v 2.2101 -0.1 0.0190822
v 2.2071 -0.1 0.020050000000000002
v 2.1988 -0.1 0.021064
v 2.1919 -0.1 0.02158
v 2.1849000000000003 -0.1 0.022132000000000002
v 2.1667 -0.1 0.023148
v 2.1649000000000003 -0.1 0.023256000000000002
v 2.1414 -0.1 0.024318000000000003
v 2.1390000000000002 -0.1 0.02443
v 2.1162 -0.1 0.025312
v 2.1071 -0.1 0.025670000000000002
v 2.0909 -0.1 0.02622
v 2.0693 -0.1 0.026972000000000003
v 2.0657 -0.1 0.027086
v 2.0404 -0.1 0.027876
v 2.0259 -0.1 0.028336
v 2.0152 -0.1 0.028644
v 1.9899000000000002 -0.1 0.029386
v 1.9767 -0.1 0.029774000000000002
v 1.9646000000000001 -0.1 0.030098
v 1.9394 -0.1 0.030784
v 1.9214 -0.1 0.031278
v 1.9141 -0.1 0.031466
v 1.8888999999999998 -0.1 0.032116
v 1.8636000000000001 -0.1 0.03276
v 1.8595 -0.1 0.032864
v 1.8384 -0.1 0.033375999999999996
v 1.8131000000000002 -0.1 0.033988
v 1.7902000000000002 -0.1 0.034532
v 1.7879 -0.1 0.03458
v 1.7626 -0.1 0.035165999999999996
v 1.7374 -0.1 0.035738
v 1.7128999999999999 -0.1 0.036276
v 1.7121000000000002 -0.1 0.036294
v 1.6869 -0.1 0.03685
v 1.6616 -0.1 0.037396
v 1.6363999999999999 -0.1 0.037933999999999996
v 1.6275 -0.1 0.038118000000000006
v 1.6111000000000002 -0.1 0.038462
v 1.5859 -0.1 0.038996
v 1.5606 -0.1 0.039522
v 1.5353999999999999 -0.1 0.040043999999999996
v 1.5352000000000001 -0.1 0.040052
v 1.5101 -0.1 0.040572000000000004
v 1.4848 -0.1 0.041108
v 1.4596 -0.1 0.041642000000000005
v 1.4388999999999998 -0.1 0.042076
v 1.4343000000000001 -0.1 0.042172
v 1.4091 -0.1 0.04273
v 1.3838 -0.1 0.043274
v 1.3586000000000003 -0.1 0.043836
v 1.3418 -0.1 0.04421
v 1.3333000000000002 -0.1 0.044404000000000006
v 1.3081 -0.1 0.044992
v 1.2828 -0.1 0.045576
v 1.2576 -0.1 0.046178
v 1.246 -0.1 0.046454
v 1.2323000000000002 -0.1 0.046787999999999996
v 1.2071 -0.1 0.047406
v 1.1818000000000002 -0.1 0.048032
v 1.1566 -0.1 0.048666
v 1.1511 -0.1 0.048802
v 1.1313 -0.1 0.04931000000000001
v 1.1061 -0.1 0.049972
v 1.0808 -0.1 0.050622
v 1.0556 -0.1 0.051254
v 1.0549 -0.1 0.051278
v 1.0303 -0.1 0.05192
v 1.0051 -0.1 0.05257
v 0.9798000000000001 -0.1 0.053214
v 0.9545399999999999 -0.1 0.05383
v 0.95294 -0.1 0.053868000000000006
v 0.9292900000000001 -0.1 0.054466
v 0.90404 -0.1 0.055084
v 0.8787900000000001 -0.1 0.055672
v 0.85353 -0.1 0.05625
v 0.8371200000000001 -0.1 0.056602
v 0.82828 -0.1 0.056798
v 0.80303 -0.1 0.057350000000000005
v 0.77778 -0.1 0.057866
v 0.75252 -0.1 0.058348
v 0.7272700000000001 -0.1 0.058820000000000004
v 0.70202 -0.1 0.059256
v 0.68926 -0.1 0.059474
v 0.6767700000000001 -0.1 0.059680000000000004
v 0.6515099999999999 -0.1 0.06008
v 0.62626 -0.1 0.060454
v 0.60101 -0.1 0.060804000000000004
v 0.57576 -0.1 0.06111200000000001
v 0.5505 -0.1 0.061408000000000004
v 0.52525 -0.1 0.061678
v 0.5 -0.1 0.061933999999999996
v 0.0 -0.1 0.0
f 1 226 227
f 1 227 2
f 2 227 228
f 2 228 3
f 3 228 229
f 3 229 4
f 4 229 230
f 4 230 5
f 5 230 231
f 5 231 6
f 6 231 232
f 6 232 7
f 7 232 233
f 7 233 8
f 8 233 234
f 8 234 9
f 9 234 235
f 9 235 10
f 10 235 236
f 10 236 11
f 11 236 237
f 11 237 12
f 12 237 238
f 12 238 13
f 13 238 239
f 13 239 14
f 14 239 240
f 14 240 15
f 15 240 241
f 15 241 16
f 16 241 242
f 16 242 17
f 17 242 243
f 17 243 18
f 18 243 244
f 18 244 19
f 19 244 245
f 19 245 20
f 20 245 246
f 20 246 21
f 21 246 247
f 21 247 22
f 22 247 248
f 22 248 23
f 23 248 249
f 23 249 24
f 24 249 250
f 24 250 25
f 25 250 251
f 25 251 26
f 26 251 252
f 26 252 27
f 27 252 253
f 27 253 28
f 28 253 254
f 28 254 29
f 29 254 255
f 29 255 30
f 30 255 256
f 30 256 31
f 31 256 257
f 31 257 32
f 32 257 258
f 32 258 33
f 33 258 259
f 33 259 34
f 34 259 260
f 34 260 35
f 35 260 261
f 35 261 36
f 36 261 262
f 36 262 37
f 37 262 263
f 37 263 38
f 38 263 264
f 38 264 39
f 39 264 265
f 39 265 40
f 40 265 266
f 40 266 41
f 41 266 267
f 41 267 42
f 42 267 268
f 42 268 43
f 43 268 269
f 43 269 44
f 44 269 270
f 44 270 45
f 45 270 271
f 45 271 46
f 46 271 272
f 46 272 47
f 47 272 273
f 47 273 48
f 48 273 274
f 48 274 49
f 49 274 275
f 49 275 50
f 50 275 276
f 50 276 51
f 51 276 277
f 51 277 52
f 52 277 278
f 52 278 53
f 53 278 279
f 53 279 54
f 54 279 280
f 54 280 55
f 55 280 281
f 55 281 56
f 56 281 282
f 56 282 57
f 57 282 283
f 57 283 58
f 58 283 284
f 58 284 59
f 59 284 285
f 59 285 60
f 60 285 286
f 60 286 61
f 61 286 287
f 61 287 62
f 62 287 288
f 62 288 63
f 63 288 289
f 63 289 64
f 64 289 290
f 64 290 65
f 65 290 291
f 65 291 66
f 66 291 292
f 66 292 67
f 67 292 293
f 67 293 68
f 68 293 294
f 68 294 69
f 69 294 295
f 69 295 70
f 70 295 296
f 70 296 71
f 71 296 297
f 71 297 72
f 72 297 298
f 72 298 73
f 73 298 299
f 73 299 74
f 74 299 300
f 74 300 75
f 75 300 301
f 75 301 76
f 76 301 302
f 76 302 77
f 77 302 303
f 77 303 78
f 78 303 304
f 78 304 79
f 79 304 305
f 79 305 80
f 80 305 306
f 80 306 81
f 81 306 307
f 81 307 82
f 82 307 308
f 82 308 83
f 83 308 309
f 83 309 84
f 84 309 310
f 84 310 85
f 85 310 311
f 85 311 86
f 86 311 312
f 86 312 87
f 87 312 313
f 87 313 88
f 88 313 314
f 88 314 89
f 89 314 315
f 89 315 90
f 90 315 316
f 90 316 91
f 91 316 317
f 91 317 92
f 92 317 318
f 92 318 93
f 93 318 319
f 93 319 94
f 94 319 320
f 94 320 95
f 95 320 321
f 95 321 96
f 96 321 322
f 96 322 97
f 97 322 323
f 97 323 98
f 98 323 324
f 98 324 99
f 99 324 325
f 99 325 100
f 100 325 326
f 100 326 101
f 101 326 327
f 101 327 102
f 102 327 328
f 102 328 103
f 103 328 329
f 103 329 104
f 104 329 330
f 104 330 105
f 105 330 331
f 105 331 106
f 106 331 332
f 106 332 107
f 107 332 333
f 107 333 108
f 108 333 334
f 108 334 109
f 109 334 335
f 109 335 110
f 110 335 336
f 110 336 111
f 111 336 337
f 111 337 112
f 112 337 338
f 112 338 113
f 113 338 339
f 113 339 114
f 114 339 340
f 114 340 115
f 115 340 341
f 115 341 116
f 116 341 342
f 116 342 117
f 117 342 343
f 117 343 118
f 118 343 344
f 118 344 119
f 119 344 345
f 119 345 120
f 120 345 346
f 120 346 121
f 121 346 347
f 121 347 122
f 122 347 348
f 122 348 123
f 123 348 349
f 123 349 124
f 124 349 350
f 124 350 125
f 125 350 351
f 125 351 126
f 126 351 352
f 126 352 127
f 127 352 353
f 127 353 128
f 128 353 354
f 128 354 129
f 129 354 355
f 129 355 130
f 130 355 356
f 130 356 131
f 131 356 357
f 131 357 132
f 132 357 358
f 132 358 133
f 133 358 359
f 133 359 134
f 134 359 360
f 134 360 135
f 135 360 361
f 135 361 136
f 136 361 362
f 136 362 137
f 137 362 363
f 137 363 138
f 138 363 364
f 138 364 139
f 139 364 365
f 139 365 140
f 140 365 366
f 140 366 141
f 141 366 367
f 141 367 142
f 142 367 368
f 142 368 143
f 143 368 369
f 143 369 144
f 144 369 370
f 144 370 145
f 145 370 371
f 145 371 146
f 146 371 372
f 146 372 147
f 147 372 373
f 147 373 148
f 148 373 374
f 148 374 149
f 149 374 375
f 149 375 150
f 150 375 376
f 150 376 151
f 151 376 377
f 151 377 152
f 152 377 378
f 152 378 153
f 153 378 379
f 153 379 154
f 154 379 380
f 154 380 155
f 155 380 381
f 155 381 156
f 156 381 382
f 156 382 157
f 157 382 383
f 157 383 158
f 158 383 384
f 158 384 159
f 159 384 385
f 159 385 160
f 160 385 386
f 160 386 161
f 161 386 387
f 161 387 162
f 162 387 388
f 162 388 163
f 163 388 389
f 163 389 164
f 164 389 390
f 164 390 165
f 165 390 391
f 165 391 166
f 166 391 392
f 166 392 167
f 167 392 393
f 167 393 168
f 168 393 394
f 168 394 169
f 169 394 395
f 169 395 170
f 170 395 396
f 170 396 171
f 171 396 397
f 171 397 172
f 172 397 398
f 172 398 173
f 173 398 399
f 173 399 174
f 174 399 400
f 174 400 175
f 175 400 401
f 175 401 176
f 176 401 402
f 176 402 177
f 177 402 403
f 177 403 178
f 178 403 404
f 178 404 179
f 179 404 405
f 179 405 180
f 180 405 406
f 180 406 181
f 181 406 407
f 181 407 182
f 182 407 408
f 182 408 183
f 183 408 409
f 183 409 184
f 184 409 410
f 184 410 185
f 185 410 411
f 185 411 186
f 186 411 412
f 186 412 187
f 187 412 413
f 187 413 188
f 188 413 414
f 188 414 189
f 189 414 415
f 189 415 190
f 190 415 416
f 190 416 191
f 191 416 417
f 191 417 192
f 192 417 418
f 192 418 193
f 193 418 419
f 193 419 194
f 194 419 420
f 194 420 195
f 195 420 421
f 195 421 196
f 196 421 422
f 196 422 197
f 197 422 423
f 197 423 198
f 198 423 424
f 198 424 199
f 199 424 425
f 199 425 200
f 200 425 426
f 200 426 201
f 201 426 427
f 201 427 202
f 202 427 428
f 202 428 203
f 203 428 429
f 203 429 204
f 204 429 430
f 204 430 205
f 205 430 431
f 205 431 206
f 206 431 432
f 206 432 207
f 207 432 433
f 207 433 208
f 208 433 434
f 208 434 209
f 209 434 435
f 209 435 210
f 210 435 436
f 210 436 211
f 211 436 437
f 211 437 212
f 212 437 438
f 212 438 213
f 213 438 439
f 213 439 214
f 214 439 440
f 214 440 215
f 215 440 441
f 215 441 216
f 216 441 442
f 216 442 217
f 217 442 443
f 217 443 218
f 218 443 444
f 218 444 219
f 219 444 445
f 219 445 220
f 220 445 446
f 220 446 221
f 221 446 447
f 221 447 222
f 222 447 448
f 222 448 223
f 223 448 449
f 223 449 224
f 224 449 450
f 224 450 225
f 1 2 3
f 1 3 4
f 1 4 5
f 1 5 6
f 1 6 7
f 1 7 8
f 1 8 9
f 1 9 10
f 1 10 11
f 1 11 12
f 1 12 13
f 1 13 14
f 1 14 15
f 1 15 16
f 1 16 17
f 1 17 18
f 1 18 19
f 1 19 20
f 1 20 21
f 1 21 22
f 1 22 23
f 1 23 24
f 1 24 25
f 1 25 26
f 1 26 27
f 1 27 28
f 1 28 29
f 1 29 30
f 1 30 31
f 1 31 32
f 1 32 33
f 1 33 34
f 1 34 35
f 1 35 36
f 1 36 37
f 1 37 38
f 1 38 39
f 1 39 40
f 1 40 41
f 1 41 42
f 1 42 43
f 1 43 44
f 1 44 45
f 1 45 46
f 1 46 47
f 1 47 48
f 1 48 49
f 1 49 50
f 1 50 51
f 1 51 52
f 1 52 53
f 1 53 54
f 1 54 55
f 1 55 56
f 1 56 57
f 1 57 58
f 1 58 59
f 1 59 60
f 1 60 61
f 1 61 62
f 1 62 63
f 1 63 64
f 1 64 65
f 1 65 66
f 1 66 67
f 1 67 68
f 1 68 69
f 1 69 70
f 1 70 71
f 1 71 72
f 1 72 73
f 1 73 74
f 1 74 75
f 1 75 76
f 1 76 77
f 1 77 78
f 1 78 79
f 1 79 80
f 1 80 81
f 1 81 82
f 1 82 83
f 1 83 84
f 1 84 85
f 1 85 86
f 1 86 87
f 1 87 88
f 1 88 89
f 1 89 90
f 1 90 91
f 1 91 92
f 1 92 93
f 1 93 94
f 1 94 95
f 1 95 96
f 1 96 97
f 1 97 98
f 1 98 99
f 1 99 100
f 1 100 101
f 1 101 102
f 1 102 103
f 1 103 104
f 1 104 105
f 1 105 106
f 1 106 107
f 1 107 108
f 1 108 109
f 1 109 110
f 1 110 111
f 1 111 112
f 1 112 113
f 1 113 114
f 1 114 115
f 1 115 116
f 1 116 117
f 1 117 118
f 1 118 119
f 1 119 120
f 1 120 121
f 1 121 122
f 1 122 123
f 1 123 124
f 1 124 125
f 1 125 126
f 1 126 127
f 1 127 128
f 1 128 129
f 1 129 130
f 1 130 131
f 1 131 132
f 1 132 133
f 1 133 134
f 1 134 135
f 1 135 136
f 1 136 137
f 1 137 138
f 1 138 139
f 1 139 140
f 1 140 141
f 1 141 142
f 1 142 143
f 1 143 144
f 1 144 145
f 1 145 146
f 1 146 147
f 1 147 148
f 1 148 149
f 1 149 150
f 1 150 151
f 1 151 152
f 1 152 153
f 1 153 154
f 1 154 155
f 1 155 156
f 1 156 157
f 1 157 158
f 1 158 159
f 1 159 160
f 1 160 161
f 1 161 162
f 1 162 163
f 1 163 164
f 1 164 165
f 1 165 166
f 1 166 167
f 1 167 168
f 1 168 169
f 1 169 170
f 1 170 171
f 1 171 172
f 1 172 173
f 1 173 174
f 1 174 175
f 1 175 176
f 1 176 177
f 1 177 178
f 1 178 179
f 1 179 180
f 1 180 181
f 1 181 182
f 1 182 183
f 1 183 184
f 1 184 185
f 1 185 186
f 1 186 187
f 1 187 188
f 1 188 189
f 1 189 190
f 1 190 191
f 1 191 192
f 1 192 193
f 1 193 194
f 1 194 195
f 1 195 196
f 1 196 197
f 1 197 198
f 1 198 199
f 1 199 200
f 1 200 201
f 1 201 202
f 1 202 203
f 1 203 204
f 1 204 205
f 1 205 206
f 1 206 207
f 1 207 208
f 1 208 209
f 1 209 210
f 1 210 211
f 1 211 212
f 1 212 213
f 1 213 214
f 1 214 215
f 1 215 216
f 1 216 217
f 1 217 218
f 1 218 219
f 1 219 220
f 1 220 221
f 1 221 222
f 1 222 223
f 1 223 224
f 1 224 225
f 226 228 227
f 226 229 228
f 226 230 229
f 226 231 230
f 226 232 231
f 226 233 232
f 226 234 233
f 226 235 234
f 226 236 235
f 226 237 236
f 226 238 237
f 226 239 238
f 226 240 239
f 226 241 240
f 226 242 241
f 226 243 242
f 226 244 243
f 226 245 244
f 226 246 245
f 226 247 246
f 226 248 247
f 226 249 248
f 226 250 249
f 226 251 250
f 226 252 251
f 226 253 252
f 226 254 253
f 226 255 254
f 226 256 255
f 226 257 256
f 226 258 257
f 226 259 258
f 226 260 259
f 226 261 260
f 226 262 261
f 226 263 262
f 226 264 263
f 226 265 264
f 226 266 265
f 226 267 266
f 226 268 267
f 226 269 268
f 226 270 269
f 226 271 270
f 226 272 271
f 226 273 272
f 226 274 273
f 226 275 274
f 226 276 275
f 226 277 276
f 226 278 277
f 226 279 278
f 226 280 279
f 226 281 280
f 226 282 281
f 226 283 282
f 226 284 283
f 226 285 284
f 226 286 285
f 226 287 286
f 226 288 287
f 226 289 288
f 226 290 289
f 226 291 290
f 226 292 291
f 226 293 292
f 226 294 293
f 226 295 294
f 226 296 295
f 226 297 296
f 226 298 297
f 226 299 298
f 226 300 299
f 226 301 300
f 226 302 301
f 226 303 302
f 226 304 303
f 226 305 304
f 226 306 305
f 226 307 306
f 226 308 307
f 226 309 308
f 226 310 309
f 226 311 310
f 226 312 311
f 226 313 312
f 226 314 313
f 226 315 314
f 226 316 315
f 226 317 316
f 226 318 317
f 226 319 318
f 226 320 319
f 226 321 320
f 226 322 321
f 226 323 322
f 226 324 323
f 226 325 324
f 226 326 325
f 226 327 326
f 226 328 327
f 226 329 328
f 226 330 329
f 226 331 330
f 226 332 331
f 226 333 332
f 226 334 333
f 226 335 334
f 226 336 335
f 226 337 336
f 226 338 337
f 226 339 338
f 226 340 339
f 226 341 340
f 226 342 341
f 226 343 342
f 226 344 343
f 226 345 344
f 226 346 345
f 226 347 346
f 226 348 347
f 226 349 348
f 226 350 349
f 226 351 350
f 226 352 351
f 226 353 352
f 226 354 353
f 226 355 354
f 226 356 355
f 226 357 356
f 226 358 357
f 226 359 358
f 226 360 359
f 226 361 360
f 226 362 361
f 226 363 362
f 226 364 363
f 226 365 364
f 226 366 365
f 226 367 366
f 226 368 367
f 226 369 368
f 226 370 369
f 226 371 370
f 226 372 371
f 226 373 372
f 226 374 373
f 226 375 374
f 226 376 375
f 226 377 376
f 226 378 377
f 226 379 378
f 226 380 379
f 226 381 380
f 226 382 381
f 226 383 382
f 226 384 383
f 226 385 384
f 226 386 385
f 226 387 386
f 226 388 387
f 226 389 388
f 226 390 389
f 226 391 390
f 226 392 391
f 226 393 392
f 226 394 393
f 226 395 394
f 226 396 395
f 226 397 396
f 226 398 397
f 226 399 398
f 226 400 399
f 226 401 400
f 226 402 401
f 226 403 402
f 226 404 403
f 226 405 404
f 226 406 405
f 226 407 406
f 226 408 407
f 226 409 408
f 226 410 409
f 226 411 410
f 226 412 411
f 226 413 412
f 226 414 413
f 226 415 414
f 226 416 415
f 226 417 416
f 226 418 417
f 226 419 418
f 226 420 419
f 226 421 420
f 226 422 421
f 226 423 422
f 226 424 423
f 226 425 424
f 226 426 425
f 226 427 426
f 226 428 427
f 226 429 428
f 226 430 429
f 226 431 430
f 226 432 431
f 226 433 432
f 226 434 433
f 226 435 434
f 226 436 435
f 226 437 436
f 226 438 437
f 226 439 438
f 226 440 439
f 226 441 440
f 226 442 441
f 226 443 442
f 226 444 443
f 226 445 444
f 226 446 445
f 226 447 446
f 226 448 447
f 226 449 448
f 226 450 449
f 1 226 227
f 1 227 2
f 225 449 450
f 225 224 449
