v 0.0 0.0 0.0
v 0.5 0.0 0.0007542
v 0.51172 0.0 0.0007682
v 0.52525 0.0 0.0007854
v 0.54198 0.0 0.0008072
v 0.5505 0.0 0.0008188
v 0.57181 0.0 0.000848
v 0.57576 0.0 0.0008538
v 0.60101 0.0 0.0008902000000000001
v 0.6015100000000001 0.0 0.0008910000000000001
v 0.62626 0.0 0.0009284
v 0.6314200000000001 0.0 0.0009362000000000001
v 0.6515099999999999 0.0 0.0009676
v 0.6618 0.0 0.0009836
v 0.6767700000000001 0.0 0.0010076
v 0.6929900000000001 0.0 0.0010334
v 0.70202 0.0 0.0010482
v 0.7253700000000001 0.0 0.0010858
v 0.7272700000000001 0.0 0.001089
v 0.75252 0.0 0.0011298
v 0.7594700000000001 0.0 0.0011408
v 0.77778 0.0 0.0011704
v 0.7956000000000001 0.0 0.0011983999999999999
v 0.80303 0.0 0.0012104
v 0.82828 0.0 0.00125
v 0.8342100000000001 0.0 0.0012594000000000001
v 0.85353 0.0 0.0012896000000000001
v 0.87564 0.0 0.001323
v 0.8787900000000001 0.0 0.0013280000000000002
v 0.90404 0.0 0.0013662000000000001
v 0.9201699999999999 0.0 0.00139
v 0.9292900000000001 0.0 0.0014038
v 0.9545399999999999 0.0 0.0014416000000000001
v 0.96764 0.0 0.0014605999999999998
v 0.9798000000000001 0.0 0.0014788
v 1.0051 0.0 0.0015162
v 1.0176 0.0 0.0015344
v 1.0303 0.0 0.0015536
v 1.0556 0.0 0.0015915999999999999
v 1.0693000000000001 0.0 0.0016122
v 1.0808 0.0 0.0016302
v 1.1061 0.0 0.0016696
v 1.1215000000000002 0.0 0.001694
v 1.1313 0.0 0.0017102
v 1.1566 0.0 0.0017524
v 1.1729 0.0 0.0017796
v 1.1818000000000002 0.0 0.0017956
v 1.2071 0.0 0.0018418000000000002
v 1.2224 0.0 0.0018700000000000001
v 1.2323000000000002 0.0 0.0018894
v 1.2576 0.0 0.0019406000000000002
v 1.2693 0.0 0.0019648
v 1.2828 0.0 0.0019944
v 1.3081 0.0 0.0020522
v 1.3133000000000001 0.0 0.0020640000000000003
v 1.3333000000000002 0.0 0.0021146
v 1.3544 0.0 0.0021688000000000002
v 1.3586000000000003 0.0 0.0021804000000000003
v 1.3838 0.0 0.0022524000000000003
v 1.3928 0.0 0.0022789999999999998
v 1.4091 0.0 0.0023298
v 1.429 0.0 0.0023940000000000003
v 1.4343000000000001 0.0 0.0024127999999999997
v 1.4596 0.0 0.0025022000000000004
v 1.4633 0.0 0.0025156
v 1.4848 0.0 0.002598
v 1.4965000000000002 0.0 0.0026425999999999997
v 1.5101 0.0 0.0026998000000000005
v 1.5288 0.0 0.0027768000000000003
v 1.5353999999999999 0.0 0.0028062
v 1.5606 0.0 0.002917
v 1.5608000000000002 0.0 0.0029176000000000002
v 1.5859 0.0 0.003032
v 1.5934000000000001 0.0 0.003065
v 1.6111000000000002 0.0 0.0031486
v 1.6269 0.0 0.0032206
v 1.6363999999999999 0.0 0.0032654000000000003
v 1.6616 0.0 0.0033816000000000002
v 1.662 0.0 0.003384
v 1.6869 0.0 0.0034980000000000002
v 1.6998 0.0 0.0035550000000000004
v 1.7121000000000002 0.0 0.0036118
v 1.7374 0.0 0.0037224
v 1.7405000000000002 0.0 0.0037354
v 1.7626 0.0 0.0038312
v 1.7851 0.0 0.003925
v 1.7879 0.0 0.0039366
v 1.8131000000000002 0.0 0.0040404
v 1.8341 0.0 0.0041232
v 1.8384 0.0 0.0041412
v 1.8636000000000001 0.0 0.0042416
v 1.8871000000000002 0.0 0.0043324
v 1.8888999999999998 0.0 0.0043394
v 1.9141 0.0 0.0044394000000000005
v 1.9394 0.0 0.0045376
v 1.9431 0.0 0.0045512
v 1.9646000000000001 0.0 0.004640200000000001
v 1.9899000000000002 0.0 0.0047438
v 1.9993 0.0 0.0047821999999999995
v 2.0152 0.0 0.0048544
v 2.0404 0.0 0.004972000000000001
v 2.0514 0.0 0.005025000000000001
v 2.0657 0.0 0.005103
v 2.0909 0.0 0.0052496
v 2.0959 0.0 0.0052788
v 2.1162 0.0 0.0054266
v 2.1313 0.0 0.0055466
v 2.1414 0.0 0.0056458
v 2.1582 0.0 0.0058281999999999995
v 2.1667 0.0 0.005946
v 2.1782 0.0 0.006122600000000001
v 2.1919 0.0 0.0064036
v 2.1932 0.0 0.0064332
v 2.2051 0.0 0.006759800000000001
v 2.2147 0.0 0.0071012
v 2.2172 0.0 0.007200000000000001
v 2.2233 0.0 0.0074616
v 2.2316 0.0 0.0078402
v 2.2398 0.0 0.0082362
v 2.2424 0.0 0.0083546
v 2.2487 0.0 0.008654199999999999
v 2.2583 0.0 0.0090914
v 2.2677 0.0 0.0095046
v 2.2688 0.0 0.0095528
v 2.2805 0.0 0.010037599999999999
v 2.2929 0.0 0.0105324
v 2.2933000000000003 0.0 0.010544600000000001
v 2.3076 0.0 0.0110798
v 2.3182 0.0 0.011463800000000001
v 2.3231 0.0 0.011642
v 2.34 0.0 0.012230000000000001
v 2.3434 0.0 0.012349
v 2.3584 0.0 0.012850799999999999
v 2.3687 0.0 0.013198600000000001
v 2.3779 0.0 0.013503000000000001
v 2.3939 0.0 0.0140388
v 2.3985 0.0 0.014185000000000001
v 2.4192 0.0 0.014887800000000001
v 2.4197 0.0 0.014905
v 2.4411 0.0 0.0156578
v 2.4444 0.0 0.0157918
v 2.4618 0.0 0.016452400000000002
v 2.4697 0.0 0.0168124
v 2.4806 0.0 0.0172874
v 2.4949000000000003 0.0 0.018114599999999998
v 2.4958 0.0 0.0181606
v 2.5062 0.0 0.0190822
v 2.5096000000000003 0.0 0.020050000000000002
v 2.5047 0.0 0.021064
v 2.4949000000000003 0.0 0.021774
v 2.4901 0.0 0.022132000000000002
v 2.4697 0.0 0.023048
v 2.4653 0.0 0.023256000000000002
v 2.4444 0.0 0.023940000000000003
v 2.4303 0.0 0.02443
v 2.4192 0.0 0.024730000000000002
v 2.3939 0.0 0.02544
v 2.3862 0.0 0.025670000000000002
v 2.3687 0.0 0.0261
v 2.3434 0.0 0.026744
v 2.3351 0.0 0.026972000000000003
v 2.3182 0.0 0.02736
v 2.2929 0.0 0.027978000000000003
v 2.2788 0.0 0.028336
v 2.2677 0.0 0.028584000000000002
v 2.2424 0.0 0.029182
v 2.2186000000000003 0.0 0.029774000000000002
v 2.2172 0.0 0.0298
v 2.1919 0.0 0.03039
v 2.1667 0.0 0.031004
v 2.1555 0.0 0.031278
v 2.1414 0.0 0.03161
v 2.1162 0.0 0.032206000000000005
v 2.0909 0.0 0.03282
v 2.0892 0.0 0.032864
v 2.0657 0.0 0.033422
v 2.0404 0.0 0.034028
v 2.0194 0.0 0.034532
v 2.0152 0.0 0.034628
v 1.9899000000000002 0.0 0.035224
v 1.9646000000000001 0.0 0.03582
v 1.9452 0.0 0.036276
v 1.9394 0.0 0.03641
v 1.9141 0.0 0.037002
v 1.8888999999999998 0.0 0.037578
v 1.8655000000000002 0.0 0.038118000000000006
v 1.8636000000000001 0.0 0.038162
v 1.8384 0.0 0.038728000000000005
v 1.8131000000000002 0.0 0.039304000000000006
v 1.7879 0.0 0.03986
v 1.7793 0.0 0.040052
v 1.7626 0.0 0.040424
v 1.7374 0.0 0.040976
v 1.7121000000000002 0.0 0.041528
v 1.6869 0.0 0.042076
v 1.6866999999999999 0.0 0.042076
v 1.6616 0.0 0.042631999999999996
v 1.6363999999999999 0.0 0.043184
v 1.6111000000000002 0.0 0.043734
v 1.5895 0.0 0.04421
v 1.5859 0.0 0.044292000000000005
v 1.5606 0.0 0.044868000000000005
v 1.5353999999999999 0.0 0.04544
v 1.5101 0.0 0.046018
v 1.4915 0.0 0.046454
v 1.4848 0.0 0.046616
v 1.4596 0.0 0.047232
v 1.4343000000000001 0.0 0.047856
v 1.4091 0.0 0.048476
v 1.3965 0.0 0.048802
v 1.3838 0.0 0.04914
v 1.3586000000000003 0.0 0.049824
v 1.3333000000000002 0.0 0.050504
v 1.3081 0.0 0.051208
v 1.3056 0.0 0.051278
v 1.2828 0.0 0.051944000000000004
v 1.2576 0.0 0.05269
v 1.2323000000000002 0.0 0.053436000000000004
v 1.2179 0.0 0.053868000000000006
v 1.2071 0.0 0.054216
v 1.1818000000000002 0.0 0.055008
v 1.1566 0.0 0.055786
v 1.1313 0.0 0.056576
v 1.1302 0.0 0.056602
v 1.1061 0.0 0.057375999999999996
v 1.0808 0.0 0.058174000000000003
v 1.0556 0.0 0.058956
v 1.0384 0.0 0.059474
v 1.0303 0.0 0.059722000000000004
v 1.0051 0.0 0.060496
v 0.9798000000000001 0.0 0.06124
v 0.9545399999999999 0.0 0.061962
v 0.93584 0.0 0.062478000000000006
v 0.9292900000000001 0.0 0.062666
v 0.90404 0.0 0.063362
v 0.8787900000000001 0.0 0.06402200000000001
v 0.85353 0.0 0.06466
v 0.82828 0.0 0.065258
v 0.81144 0.0 0.06565000000000001
v 0.80303 0.0 0.065846
v 0.77778 0.0 0.06641
v 0.75252 0.0 0.066946
v 0.7272700000000001 0.0 0.067458
v 0.70202 0.0 0.06794
v 0.6767700000000001 0.0 0.068396
v 0.6515099999999999 0.0 0.06882200000000001
v 0.64259 0.0 0.06898
v 0.62626 0.0 0.069252
v 0.60101 0.0 0.069652
v 0.57576 0.0 0.070038
v 0.5505 0.0 0.07039400000000001
v 0.52525 0.0 0.07073399999999999
v 0.5 0.0 0.07106
v 0.0 0.0 0.0
v 0.0 -0.1 0.0
v 0.5 -0.1 0.0007542
v 0.51172 -0.1 0.0007682
v 0.52525 -0.1 0.0007854
v 0.54198 -0.1 0.0008072
v 0.5505 -0.1 0.0008188
v 0.57181 -0.1 0.000848
v 0.57576 -0.1 0.0008538
v 0.60101 -0.1 0.0008902000000000001
v 0.6015100000000001 -0.1 0.0008910000000000001
v 0.62626 -0.1 0.0009284
v 0.6314200000000001 -0.1 0.0009362000000000001
v 0.6515099999999999 -0.1 0.0009676
v 0.6618 -0.1 0.0009836
v 0.6767700000000001 -0.1 0.0010076
v 0.6929900000000001 -0.1 0.0010334
v 0.70202 -0.1 0.0010482
v 0.7253700000000001 -0.1 0.0010858
v 0.7272700000000001 -0.1 0.001089
v 0.75252 -0.1 0.0011298
v 0.7594700000000001 -0.1 0.0011408
v 0.77778 -0.1 0.0011704
v 0.7956000000000001 -0.1 0.0011983999999999999
v 0.80303 -0.1 0.0012104
v 0.82828 -0.1 0.00125
v 0.8342100000000001 -0.1 0.0012594000000000001
v 0.85353 -0.1 0.0012896000000000001
v 0.87564 -0.1 0.001323
v 0.8787900000000001 -0.1 0.0013280000000000002
v 0.90404 -0.1 0.0013662000000000001
v 0.9201699999999999 -0.1 0.00139
v 0.9292900000000001 -0.1 0.0014038
v 0.9545399999999999 -0.1 0.0014416000000000001
v 0.96764 -0.1 0.0014605999999999998
v 0.9798000000000001 -0.1 0.0014788
v 1.0051 -0.1 0.0015162
v 1.0176 -0.1 0.0015344
v 1.0303 -0.1 0.0015536
v 1.0556 -0.1 0.0015915999999999999
v 1.0693000000000001 -0.1 0.0016122
v 1.0808 -0.1 0.0016302
v 1.1061 -0.1 0.0016696
v 1.1215000000000002 -0.1 0.001694
v 1.1313 -0.1 0.0017102
v 1.1566 -0.1 0.0017524
v 1.1729 -0.1 0.0017796
v 1.1818000000000002 -0.1 0.0017956
v 1.2071 -0.1 0.0018418000000000002
v 1.2224 -0.1 0.0018700000000000001
v 1.2323000000000002 -0.1 0.0018894
v 1.2576 -0.1 0.0019406000000000002
v 1.2693 -0.1 0.0019648
v 1.2828 -0.1 0.0019944
v 1.3081 -0.1 0.0020522
v 1.3133000000000001 -0.1 0.0020640000000000003
v 1.3333000000000002 -0.1 0.0021146
v 1.3544 -0.1 0.0021688000000000002
v 1.3586000000000003 -0.1 0.0021804000000000003
v 1.3838 -0.1 0.0022524000000000003
v 1.3928 -0.1 0.0022789999999999998
v 1.4091 -0.1 0.0023298
v 1.429 -0.1 0.0023940000000000003
v 1.4343000000000001 -0.1 0.0024127999999999997
v 1.4596 -0.1 0.0025022000000000004
v 1.4633 -0.1 0.0025156
v 1.4848 -0.1 0.002598
v 1.4965000000000002 -0.1 0.0026425999999999997
v 1.5101 -0.1 0.0026998000000000005
v 1.5288 -0.1 0.0027768000000000003
v 1.5353999999999999 -0.1 0.0028062
v 1.5606 -0.1 0.002917
v 1.5608000000000002 -0.1 0.0029176000000000002
v 1.5859 -0.1 0.003032
v 1.5934000000000001 -0.1 0.003065
v 1.6111000000000002 -0.1 0.0031486
v 1.6269 -0.1 0.0032206
v 1.6363999999999999 -0.1 0.0032654000000000003
v 1.6616 -0.1 0.0033816000000000002
v 1.662 -0.1 0.003384
v 1.6869 -0.1 0.0034980000000000002
v 1.6998 -0.1 0.0035550000000000004
v 1.7121000000000002 -0.1 0.0036118
v 1.7374 -0.1 0.0037224
v 1.7405000000000002 -0.1 0.0037354
v 1.7626 -0.1 0.0038312
v 1.7851 -0.1 0.003925
v 1.7879 -0.1 0.0039366
v 1.8131000000000002 -0.1 0.0040404
v 1.8341 -0.1 0.0041232
v 1.8384 -0.1 0.0041412
v 1.8636000000000001 -0.1 0.0042416
v 1.8871000000000002 -0.1 0.0043324
v 1.8888999999999998 -0.1 0.0043394
v 1.9141 -0.1 0.0044394000000000005
v 1.9394 -0.1 0.0045376
v 1.9431 -0.1 0.0045512
v 1.9646000000000001 -0.1 0.004640200000000001
v 1.9899000000000002 -0.1 0.0047438
v 1.9993 -0.1 0.0047821999999999995
v 2.0152 -0.1 0.0048544
v 2.0404 -0.1 0.004972000000000001
v 2.0514 -0.1 0.005025000000000001
v 2.0657 -0.1 0.005103
v 2.0909 -0.1 0.0052496
v 2.0959 -0.1 0.0052788
v 2.1162 -0.1 0.0054266
v 2.1313 -0.1 0.0055466
v 2.1414 -0.1 0.0056458
v 2.1582 -0.1 0.0058281999999999995
v 2.1667 -0.1 0.005946
v 2.1782 -0.1 0.006122600000000001
v 2.1919 -0.1 0.0064036
v 2.1932 -0.1 0.0064332
v 2.2051 -0.1 0.006759800000000001
v 2.2147 -0.1 0.0071012
v 2.2172 -0.1 0.007200000000000001
v 2.2233 -0.1 0.0074616
v 2.2316 -0.1 0.0078402
v 2.2398 -0.1 0.0082362
v 2.2424 -0.1 0.0083546
v 2.2487 -0.1 0.008654199999999999
v 2.2583 -0.1 0.0090914
v 2.2677 -0.1 0.0095046
v 2.2688 -0.1 0.0095528
v 2.2805 -0.1 0.010037599999999999
v 2.2929 -0.1 0.0105324
v 2.2933000000000003 -0.1 0.010544600000000001
v 2.3076 -0.1 0.0110798
v 2.3182 -0.1 0.011463800000000001
v 2.3231 -0.1 0.011642
v 2.34 -0.1 0.012230000000000001
v 2.3434 -0.1 0.012349
v 2.3584 -0.1 0.012850799999999999
v 2.3687 -0.1 0.013198600000000001
v 2.3779 -0.1 0.013503000000000001
v 2.3939 -0.1 0.0140388
v 2.3985 -0.1 0.014185000000000001
v 2.4192 -0.1 0.014887800000000001
v 2.4197 -0.1 0.014905
v 2.4411 -0.1 0.0156578
v 2.4444 -0.1 0.0157918
v 2.4618 -0.1 0.016452400000000002
v 2.4697 -0.1 0.0168124
v 2.4806 -0.1 0.0172874
v 2.4949000000000003 -0.1 0.018114599999999998
v 2.4958 -0.1 0.0181606
v 2.5062 -0.1 0.0190822
v 2.5096000000000003 -0.1 0.020050000000000002
v 2.5047 -0.1 0.021064
v 2.4949000000000003 -0.1 0.021774
v 2.4901 -0.1 0.022132000000000002
v 2.4697 -0.1 0.023048
v 2.4653 -0.1 0.023256000000000002
v 2.4444 -0.1 0.023940000000000003
v 2.4303 -0.1 0.02443
v 2.4192 -0.1 0.024730000000000002
v 2.3939 -0.1 0.02544
v 2.3862 -0.1 0.025670000000000002
v 2.3687 -0.1 0.0261
v 2.3434 -0.1 0.026744
v 2.3351 -0.1 0.026972000000000003
v 2.3182 -0.1 0.02736
v 2.2929 -0.1 0.027978000000000003
v 2.2788 -0.1 0.028336
v 2.2677 -0.1 0.028584000000000002
v 2.2424 -0.1 0.029182
v 2.2186000000000003 -0.1 0.029774000000000002
v 2.2172 -0.1 0.0298
v 2.1919 -0.1 0.03039
v 2.1667 -0.1 0.031004
v 2.1555 -0.1 0.031278
v 2.1414 -0.1 0.03161
v 2.1162 -0.1 0.032206000000000005
v 2.0909 -0.1 0.03282
v 2.0892 -0.1 0.032864
v 2.0657 -0.1 0.033422
v 2.0404 -0.1 0.034028
v 2.0194 -0.1 0.034532
v 2.0152 -0.1 0.034628
v 1.9899000000000002 -0.1 0.035224
v 1.9646000000000001 -0.1 0.03582
v 1.9452 -0.1 0.036276
v 1.9394 -0.1 0.03641
v 1.9141 -0.1 0.037002
v 1.8888999999999998 -0.1 0.037578
v 1.8655000000000002 -0.1 0.038118000000000006
v 1.8636000000000001 -0.1 0.038162
v 1.8384 -0.1 0.038728000000000005
v 1.8131000000000002 -0.1 0.039304000000000006
v 1.7879 -0.1 0.03986
v 1.7793 -0.1 0.040052
v 1.7626 -0.1 0.040424
v 1.7374 -0.1 0.040976
v 1.7121000000000002 -0.1 0.041528
v 1.6869 -0.1 0.042076
v 1.6866999999999999 -0.1 0.042076
v 1.6616 -0.1 0.042631999999999996
v 1.6363999999999999 -0.1 0.043184
v 1.6111000000000002 -0.1 0.043734
v 1.5895 -0.1 0.04421
v 1.5859 -0.1 0.044292000000000005
v 1.5606 -0.1 0.044868000000000005
v 1.5353999999999999 -0.1 0.04544
v 1.5101 -0.1 0.046018
v 1.4915 -0.1 0.046454
v 1.4848 -0.1 0.046616
v 1.4596 -0.1 0.047232
v 1.4343000000000001 -0.1 0.047856
v 1.4091 -0.1 0.048476
v 1.3965 -0.1 0.048802
v 1.3838 -0.1 0.04914
v 1.3586000000000003 -0.1 0.049824
v 1.3333000000000002 -0.1 0.050504
v 1.3081 -0.1 0.051208
v 1.3056 -0.1 0.051278
v 1.2828 -0.1 0.051944000000000004
v 1.2576 -0.1 0.05269
v 1.2323000000000002 -0.1 0.053436000000000004
v 1.2179 -0.1 0.053868000000000006
v 1.2071 -0.1 0.054216
v 1.1818000000000002 -0.1 0.055008
v 1.1566 -0.1 0.055786
v 1.1313 -0.1 0.056576
v 1.1302 -0.1 0.056602
v 1.1061 -0.1 0.057375999999999996
v 1.0808 -0.1 0.058174000000000003
v 1.0556 -0.1 0.058956
v 1.0384 -0.1 0.059474
v 1.0303 -0.1 0.059722000000000004
v 1.0051 -0.1 0.060496
v 0.9798000000000001 -0.1 0.06124
v 0.9545399999999999 -0.1 0.061962
v 0.93584 -0.1 0.062478000000000006
v 0.9292900000000001 -0.1 0.062666
v 0.90404 -0.1 0.063362
v 0.8787900000000001 -0.1 0.06402200000000001
v 0.85353 -0.1 0.06466
v 0.82828 -0.1 0.065258
v 0.81144 -0.1 0.06565000000000001
v 0.80303 -0.1 0.065846
v 0.77778 -0.1 0.06641
v 0.75252 -0.1 0.066946
v 0.7272700000000001 -0.1 0.067458
v 0.70202 -0.1 0.06794
v 0.6767700000000001 -0.1 0.068396
v 0.6515099999999999 -0.1 0.06882200000000001
v 0.64259 -0.1 0.06898
v 0.62626 -0.1 0.069252
v 0.60101 -0.1 0.069652
v 0.57576 -0.1 0.070038
v 0.5505 -0.1 0.07039400000000001
v 0.52525 -0.1 0.07073399999999999
v 0.5 -0.1 0.07106
v 0.0 -0.1 0.0
f 1 255 256
f 1 256 2
f 2 256 257
f 2 257 3
f 3 257 258
f 3 258 4
f 4 258 259
f 4 259 5
f 5 259 260
f 5 260 6
f 6 260 261
f 6 261 7
f 7 261 262
f 7 262 8
f 8 262 263
f 8 263 9
f 9 263 264
f 9 264 10
f 10 264 265
f 10 265 11
f 11 265 266
f 11 266 12
f 12 266 267
f 12 267 13
f 13 267 268
f 13 268 14
f 14 268 269
f 14 269 15
f 15 269 270
f 15 270 16
f 16 270 271
f 16 271 17
f 17 271 272
f 17 272 18
f 18 272 273
f 18 273 19
f 19 273 274
f 19 274 20
f 20 274 275
f 20 275 21
f 21 275 276
f 21 276 22
f 22 276 277
f 22 277 23
f 23 277 278
f 23 278 24
f 24 278 279
f 24 279 25
f 25 279 280
f 25 280 26
f 26 280 281
f 26 281 27
f 27 281 282
f 27 282 28
f 28 282 283
f 28 283 29
f 29 283 284
f 29 284 30
f 30 284 285
f 30 285 31
f 31 285 286
f 31 286 32
f 32 286 287
f 32 287 33
f 33 287 288
f 33 288 34
f 34 288 289
f 34 289 35
f 35 289 290
f 35 290 36
f 36 290 291
f 36 291 37
f 37 291 292
f 37 292 38
f 38 292 293
f 38 293 39
f 39 293 294
f 39 294 40
f 40 294 295
f 40 295 41
f 41 295 296
f 41 296 42
f 42 296 297
f 42 297 43
f 43 297 298
f 43 298 44
f 44 298 299
f 44 299 45
f 45 299 300
f 45 300 46
f 46 300 301
f 46 301 47
f 47 301 302
f 47 302 48
f 48 302 303
f 48 303 49
f 49 303 304
f 49 304 50
f 50 304 305
f 50 305 51
f 51 305 306
f 51 306 52
f 52 306 307
f 52 307 53
f 53 307 308
f 53 308 54
f 54 308 309
f 54 309 55
f 55 309 310
f 55 310 56
f 56 310 311
f 56 311 57
f 57 311 312
f 57 312 58
f 58 312 313
f 58 313 59
f 59 313 314
f 59 314 60
f 60 314 315
f 60 315 61
f 61 315 316
f 61 316 62
f 62 316 317
f 62 317 63
f 63 317 318
f 63 318 64
f 64 318 319
f 64 319 65
f 65 319 320
f 65 320 66
f 66 320 321
f 66 321 67
f 67 321 322
f 67 322 68
f 68 322 323
f 68 323 69
f 69 323 324
f 69 324 70
f 70 324 325
f 70 325 71
f 71 325 326
f 71 326 72
f 72 326 327
f 72 327 73
f 73 327 328
f 73 328 74
f 74 328 329
f 74 329 75
f 75 329 330
f 75 330 76
f 76 330 331
f 76 331 77
f 77 331 332
f 77 332 78
f 78 332 333
f 78 333 79
f 79 333 334
f 79 334 80
f 80 334 335
f 80 335 81
f 81 335 336
f 81 336 82
f 82 336 337
f 82 337 83
f 83 337 338
f 83 338 84
f 84 338 339
f 84 339 85
f 85 339 340
f 85 340 86
f 86 340 341
f 86 341 87
f 87 341 342
f 87 342 88
f 88 342 343
f 88 343 89
f 89 343 344
f 89 344 90
f 90 344 345
f 90 345 91
f 91 345 346
f 91 346 92
f 92 346 347
f 92 347 93
f 93 347 348
f 93 348 94
f 94 348 349
f 94 349 95
f 95 349 350
f 95 350 96
f 96 350 351
f 96 351 97
f 97 351 352
f 97 352 98
f 98 352 353
f 98 353 99
f 99 353 354
f 99 354 100
f 100 354 355
f 100 355 101
f 101 355 356
f 101 356 102
f 102 356 357
f 102 357 103
f 103 357 358
f 103 358 104
f 104 358 359
f 104 359 105
f 105 359 360
f 105 360 106
f 106 360 361
f 106 361 107
f 107 361 362
f 107 362 108
f 108 362 363
f 108 363 109
f 109 363 364
f 109 364 110
f 110 364 365
f 110 365 111
f 111 365 366
f 111 366 112
f 112 366 367
f 112 367 113
f 113 367 368
f 113 368 114
f 114 368 369
f 114 369 115
f 115 369 370
f 115 370 116
f 116 370 371
f 116 371 117
f 117 371 372
f 117 372 118
f 118 372 373
f 118 373 119
f 119 373 374
f 119 374 120
f 120 374 375
f 120 375 121
f 121 375 376
f 121 376 122
f 122 376 377
f 122 377 123
f 123 377 378
f 123 378 124
f 124 378 379
f 124 379 125
f 125 379 380
f 125 380 126
f 126 380 381
f 126 381 127
f 127 381 382
f 127 382 128
f 128 382 383
f 128 383 129
f 129 383 384
f 129 384 130
f 130 384 385
f 130 385 131
f 131 385 386
f 131 386 132
f 132 386 387
f 132 387 133
f 133 387 388
f 133 388 134
f 134 388 389
f 134 389 135
f 135 389 390
f 135 390 136
f 136 390 391
f 136 391 137
f 137 391 392
f 137 392 138
f 138 392 393
f 138 393 139
f 139 393 394
f 139 394 140
f 140 394 395
f 140 395 141
f 141 395 396
f 141 396 142
f 142 396 397
f 142 397 143
f 143 397 398
f 143 398 144
f 144 398 399
f 144 399 145
f 145 399 400
f 145 400 146
f 146 400 401
f 146 401 147
f 147 401 402
f 147 402 148
f 148 402 403
f 148 403 149
f 149 403 404
f 149 404 150
f 150 404 405
f 150 405 151
f 151 405 406
f 151 406 152
f 152 406 407
f 152 407 153
f 153 407 408
f 153 408 154
f 154 408 409
f 154 409 155
f 155 409 410
f 155 410 156
f 156 410 411
f 156 411 157
f 157 411 412
f 157 412 158
f 158 412 413
f 158 413 159
f 159 413 414
f 159 414 160
f 160 414 415
f 160 415 161
f 161 415 416
f 161 416 162
f 162 416 417
f 162 417 163
f 163 417 418
f 163 418 164
f 164 418 419
f 164 419 165
f 165 419 420
f 165 420 166
f 166 420 421
f 166 421 167
f 167 421 422
f 167 422 168
f 168 422 423
f 168 423 169
f 169 423 424
f 169 424 170
f 170 424 425
f 170 425 171
f 171 425 426
f 171 426 172
f 172 426 427
f 172 427 173
f 173 427 428
f 173 428 174
f 174 428 429
f 174 429 175
f 175 429 430
f 175 430 176
f 176 430 431
f 176 431 177
f 177 431 432
f 177 432 178
f 178 432 433
f 178 433 179
f 179 433 434
f 179 434 180
f 180 434 435
f 180 435 181
f 181 435 436
f 181 436 182
f 182 436 437
f 182 437 183
f 183 437 438
f 183 438 184
f 184 438 439
f 184 439 185
f 185 439 440
f 185 440 186
f 186 440 441
f 186 441 187
f 187 441 442
f 187 442 188
f 188 442 443
f 188 443 189
f 189 443 444
f 189 444 190
f 190 444 445
f 190 445 191
f 191 445 446
f 191 446 192
f 192 446 447
f 192 447 193
f 193 447 448
f 193 448 194
f 194 448 449
f 194 449 195
f 195 449 450
f 195 450 196
f 196 450 451
f 196 451 197
f 197 451 452
f 197 452 198
f 198 452 453
f 198 453 199
f 199 453 454
f 199 454 200
f 200 454 455
f 200 455 201
f 201 455 456
f 201 456 202
f 202 456 457
f 202 457 203
f 203 457 458
f 203 458 204
f 204 458 459
f 204 459 205
f 205 459 460
f 205 460 206
f 206 460 461
f 206 461 207
f 207 461 462
f 207 462 208
f 208 462 463
f 208 463 209
f 209 463 464
f 209 464 210
f 210 464 465
f 210 465 211
f 211 465 466
f 211 466 212
f 212 466 467
f 212 467 213
f 213 467 468
f 213 468 214
f 214 468 469
f 214 469 215
f 215 469 470
f 215 470 216
f 216 470 471
f 216 471 217
f 217 471 472
f 217 472 218
f 218 472 473
f 218 473 219
f 219 473 474
f 219 474 220
f 220 474 475
f 220 475 221
f 221 475 476
f 221 476 222
f 222 476 477
f 222 477 223
f 223 477 478
f 223 478 224
f 224 478 479
f 224 479 225
f 225 479 480
f 225 480 226
f 226 480 481
f 226 481 227
f 227 481 482
f 227 482 228
f 228 482 483
f 228 483 229
f 229 483 484
f 229 484 230
f 230 484 485
f 230 485 231
f 231 485 486
f 231 486 232
f 232 486 487
f 232 487 233
f 233 487 488
f 233 488 234
f 234 488 489
f 234 489 235
f 235 489 490
f 235 490 236
f 236 490 491
f 236 491 237
f 237 491 492
f 237 492 238
f 238 492 493
f 238 493 239
f 239 493 494
f 239 494 240
f 240 494 495
f 240 495 241
f 241 495 496
f 241 496 242
f 242 496 497
f 242 497 243
f 243 497 498
f 243 498 244
f 244 498 499
f 244 499 245
f 245 499 500
f 245 500 246
f 246 500 501
f 246 501 247
f 247 501 502
f 247 502 248
f 248 502 503
f 248 503 249
f 249 503 504
f 249 504 250
f 250 504 505
f 250 505 251
f 251 505 506
f 251 506 252
f 252 506 507
f 252 507 253
f 253 507 508
f 253 508 254
f 1 2 3
f 1 3 4
f 1 4 5
f 1 5 6
f 1 6 7
f 1 7 8
f 1 8 9
f 1 9 10
f 1 10 11
f 1 11 12
f 1 12 13
f 1 13 14
f 1 14 15
f 1 15 16
f 1 16 17
f 1 17 18
f 1 18 19
f 1 19 20
f 1 20 21
f 1 21 22
f 1 22 23
f 1 23 24
f 1 24 25
f 1 25 26
f 1 26 27
f 1 27 28
f 1 28 29
f 1 29 30
f 1 30 31
f 1 31 32
f 1 32 33
f 1 33 34
f 1 34 35
f 1 35 36
f 1 36 37
f 1 37 38
f 1 38 39
f 1 39 40
f 1 40 41
f 1 41 42
f 1 42 43
f 1 43 44
f 1 44 45
f 1 45 46
f 1 46 47
f 1 47 48
f 1 48 49
f 1 49 50
f 1 50 51
f 1 51 52
f 1 52 53
f 1 53 54
f 1 54 55
f 1 55 56
f 1 56 57
f 1 57 58
f 1 58 59
f 1 59 60
f 1 60 61
f 1 61 62
f 1 62 63
f 1 63 64
f 1 64 65
f 1 65 66
f 1 66 67
f 1 67 68
f 1 68 69
f 1 69 70
f 1 70 71
f 1 71 72
f 1 72 73
f 1 73 74
f 1 74 75
f 1 75 76
f 1 76 77
f 1 77 78
f 1 78 79
f 1 79 80
f 1 80 81
f 1 81 82
f 1 82 83
f 1 83 84
f 1 84 85
f 1 85 86
f 1 86 87
f 1 87 88
f 1 88 89
f 1 89 90
f 1 90 91
f 1 91 92
f 1 92 93
f 1 93 94
f 1 94 95
f 1 95 96
f 1 96 97
f 1 97 98
f 1 98 99
f 1 99 100
f 1 100 101
f 1 101 102
f 1 102 103
f 1 103 104
f 1 104 105
f 1 105 106
f 1 106 107
f 1 107 108
f 1 108 109
f 1 109 110
f 1 110 111
f 1 111 112
f 1 112 113
f 1 113 114
f 1 114 115
f 1 115 116
f 1 116 117
f 1 117 118
f 1 118 119
f 1 119 120
f 1 120 121
f 1 121 122
f 1 122 123
f 1 123 124
f 1 124 125
f 1 125 126
f 1 126 127
f 1 127 128
f 1 128 129
f 1 129 130
f 1 130 131
f 1 131 132
f 1 132 133
f 1 133 134
f 1 134 135
f 1 135 136
f 1 136 137
f 1 137 138
f 1 138 139
f 1 139 140
f 1 140 141
f 1 141 142
f 1 142 143
f 1 143 144
f 1 144 145
f 1 145 146
f 1 146 147
f 1 147 148
f 1 148 149
f 1 149 150
f 1 150 151
f 1 151 152
f 1 152 153
f 1 153 154
f 1 154 155
f 1 155 156
f 1 156 157
f 1 157 158
f 1 158 159
f 1 159 160
f 1 160 161
f 1 161 162
f 1 162 163
f 1 163 164
f 1 164 165
f 1 165 166
f 1 166 167
f 1 167 168
f 1 168 169
f 1 169 170
f 1 170 171
f 1 171 172
f 1 172 173
f 1 173 174
f 1 174 175
f 1 175 176
f 1 176 177
f 1 177 178
f 1 178 179
f 1 179 180
f 1 180 181
f 1 181 182
f 1 182 183
f 1 183 184
f 1 184 185
f 1 185 186
f 1 186 187
f 1 187 188
f 1 188 189
f 1 189 190
f 1 190 191
f 1 191 192
f 1 192 193
f 1 193 194
f 1 194 195
f 1 195 196
f 1 196 197
f 1 197 198
f 1 198 199
f 1 199 200
f 1 200 201
f 1 201 202
f 1 202 203
f 1 203 204
f 1 204 205
f 1 205 206
f 1 206 207
f 1 207 208
f 1 208 209
f 1 209 210
f 1 210 211
f 1 211 212
f 1 212 213
f 1 213 214
f 1 214 215
f 1 215 216
f 1 216 217
f 1 217 218
f 1 218 219
f 1 219 220
f 1 220 221
f 1 221 222
f 1 222 223
f 1 223 224
f 1 224 225
f 1 225 226
f 1 226 227
f 1 227 228
f 1 228 229
f 1 229 230
f 1 230 231
f 1 231 232
f 1 232 233
f 1 233 234
f 1 234 235
f 1 235 236
f 1 236 237
f 1 237 238
f 1 238 239
f 1 239 240
f 1 240 241
f 1 241 242
f 1 242 243
f 1 243 244
f 1 244 245
f 1 245 246
f 1 246 247
f 1 247 248
f 1 248 249
f 1 249 250
f 1 250 251
f 1 251 252
f 1 252 253
f 1 253 254
f 255 257 256
f 255 258 257
f 255 259 258
f 255 260 259
f 255 261 260
f 255 262 261
f 255 263 262
f 255 264 263
f 255 265 264
f 255 266 265
f 255 267 266
f 255 268 267
f 255 269 268
f 255 270 269
f 255 271 270
f 255 272 271
f 255 273 272
f 255 274 273
f 255 275 274
f 255 276 275
f 255 277 276
f 255 278 277
f 255 279 278
f 255 280 279
f 255 281 280
f 255 282 281
f 255 283 282
f 255 284 283
f 255 285 284
f 255 286 285
f 255 287 286
f 255 288 287
f 255 289 288
f 255 290 289
f 255 291 290
f 255 292 291
f 255 293 292
f 255 294 293
f 255 295 294
f 255 296 295
f 255 297 296
f 255 298 297
f 255 299 298
f 255 300 299
f 255 301 300
f 255 302 301
f 255 303 302
f 255 304 303
f 255 305 304
f 255 306 305
f 255 307 306
f 255 308 307
f 255 309 308
f 255 310 309
f 255 311 310
f 255 312 311
f 255 313 312
f 255 314 313
f 255 315 314
f 255 316 315
f 255 317 316
f 255 318 317
f 255 319 318
f 255 320 319
f 255 321 320
f 255 322 321
f 255 323 322
f 255 324 323
f 255 325 324
f 255 326 325
f 255 327 326
f 255 328 327
f 255 329 328
f 255 330 329
f 255 331 330
f 255 332 331
f 255 333 332
f 255 334 333
f 255 335 334
f 255 336 335
f 255 337 336
f 255 338 337
f 255 339 338
f 255 340 339
f 255 341 340
f 255 342 341
f 255 343 342
f 255 344 343
f 255 345 344
f 255 346 345
f 255 347 346
f 255 348 347
f 255 349 348
f 255 350 349
f 255 351 350
f 255 352 351
f 255 353 352
f 255 354 353
f 255 355 354
f 255 356 355
f 255 357 356
f 255 358 357
f 255 359 358
f 255 360 359
f 255 361 360
f 255 362 361
f 255 363 362
f 255 364 363
f 255 365 364
f 255 366 365
f 255 367 366
f 255 368 367
f 255 369 368
f 255 370 369
f 255 371 370
f 255 372 371
f 255 373 372
f 255 374 373
f 255 375 374
f 255 376 375
f 255 377 376
f 255 378 377
f 255 379 378
f 255 380 379
f 255 381 380
f 255 382 381
f 255 383 382
f 255 384 383
f 255 385 384
f 255 386 385
f 255 387 386
f 255 388 387
f 255 389 388
f 255 390 389
f 255 391 390
f 255 392 391
f 255 393 392
f 255 394 393
f 255 395 394
f 255 396 395
f 255 397 396
f 255 398 397
f 255 399 398
f 255 400 399
f 255 401 400
f 255 402 401
f 255 403 402
f 255 404 403
f 255 405 404
f 255 406 405
f 255 407 406
f 255 408 407
f 255 409 408
f 255 410 409
f 255 411 410
f 255 412 411
f 255 413 412
f 255 414 413
f 255 415 414
f 255 416 415
f 255 417 416
f 255 418 417
f 255 419 418
f 255 420 419
f 255 421 420
f 255 422 421
f 255 423 422
f 255 424 423
f 255 425 424
f 255 426 425
f 255 427 426
f 255 428 427
f 255 429 428
f 255 430 429
f 255 431 430
f 255 432 431
f 255 433 432
f 255 434 433
f 255 435 434
f 255 436 435
f 255 437 436
f 255 438 437
f 255 439 438
f 255 440 439
f 255 441 440
f 255 442 441
f 255 443 442
f 255 444 443
f 255 445 444
f 255 446 445
f 255 447 446
f 255 448 447
f 255 449 448
f 255 450 449
f 255 451 450
f 255 452 451
f 255 453 452
f 255 454 453
f 255 455 454
f 255 456 455
f 255 457 456
f 255 458 457
f 255 459 458
f 255 460 459
f 255 461 460
f 255 462 461
f 255 463 462
f 255 464 463
f 255 465 464
f 255 466 465
f 255 467 466
f 255 468 467
f 255 469 468
f 255 470 469
f 255 471 470
f 255 472 471
f 255 473 472
f 255 474 473
f 255 475 474
f 255 476 475
f 255 477 476
f 255 478 477
f 255 479 478
f 255 480 479
f 255 481 480
f 255 482 481
f 255 483 482
f 255 484 483
f 255 485 484
f 255 486 485
f 255 487 486
f 255 488 487
f 255 489 488
f 255 490 489
f 255 491 490
f 255 492 491
f 255 493 492
f 255 494 493
f 255 495 494
f 255 496 495
f 255 497 496
f 255 498 497
f 255 499 498
f 255 500 499
f 255 501 500
f 255 502 501
f 255 503 502
f 255 504 503
f 255 505 504
f 255 506 505
f 255 507 506
f 255 508 507
f 1 255 256
f 1 256 2
f 254 507 508
f 254 253 507
