v 0.0 0.0 0.0
v 0.90015 0.0 0.023382000000000003
v 1.0008 0.0 0.024092
v 1.0984 0.0 0.0391
v 1.1836 0.0 0.044576000000000005
v 1.2135 0.0 0.05915
v 1.2438 0.0 0.060496
v 1.2523 0.0 0.06820999999999999
v 1.4111000000000002 0.0 0.09925
v 1.4889 0.0 0.102226
v 1.5038 0.0 0.114608
v 1.6654 0.0 0.11716800000000001
v 1.7444 0.0 0.149376
v 1.7553 0.0 0.150534
v 1.8639 0.0 0.171012
v 2.0069 0.0 0.193836
v 2.0314 0.0 0.19461799999999999
v 2.0611 0.0 0.1995
v 2.2401 0.0 0.20314
v 2.2584 0.0 0.21448
v 2.3971 0.0 0.22197999999999998
v 2.4878 0.0 0.24962
v 2.5073 0.0 0.25014
v 2.5099 0.0 0.25194
v 2.7060000000000004 0.0 0.26068
v 2.7614 0.0 0.27972
v 2.8684 0.0 0.27842
v 3.0130000000000003 0.0 0.29664
v 3.0276 0.0 0.29684
v 3.0883 0.0 0.29975999999999997
v 3.2533999999999996 0.0 0.30194
v 3.2645 0.0 0.30474
v 3.3377999999999997 0.0 0.29975999999999997
v 3.4506 0.0 0.28672000000000003
v 3.5160000000000005 0.0 0.2775
v 3.66 0.0 0.27832
v 3.7675 0.0 0.2617
v 3.7975 0.0 0.24962
v 3.8269 0.0 0.23778000000000002
v 3.922 0.0 0.1995
v 3.9613 0.0 0.16088
v 3.9743 0.0 0.149376
v 4.0191 0.0 0.106158
v 4.0252 0.0 0.09986199999999999
v 4.0255 0.0 0.09925
v 4.0258 0.0 0.09871200000000001
v 4.0235 0.0 0.05915
v 4.0212 0.0 0.039184
v 4.0212 0.0 0.0391
v 4.021100000000001 0.0 0.039020000000000006
v 4.0562000000000005 0.0 0.01905
v 4.0628 0.0 0.0174818
v 4.052300000000001 0.0 0.0010049999999999998
v 0.0 0.0 0.0
v 0.0 -0.1 0.0
v 0.90015 -0.1 0.023382000000000003
v 1.0008 -0.1 0.024092
v 1.0984 -0.1 0.0391
v 1.1836 -0.1 0.044576000000000005
v 1.2135 -0.1 0.05915
v 1.2438 -0.1 0.060496
v 1.2523 -0.1 0.06820999999999999
v 1.4111000000000002 -0.1 0.09925
v 1.4889 -0.1 0.102226
v 1.5038 -0.1 0.114608
v 1.6654 -0.1 0.11716800000000001
v 1.7444 -0.1 0.149376
v 1.7553 -0.1 0.150534
v 1.8639 -0.1 0.171012
v 2.0069 -0.1 0.193836
v 2.0314 -0.1 0.19461799999999999
v 2.0611 -0.1 0.1995
v 2.2401 -0.1 0.20314
v 2.2584 -0.1 0.21448
v 2.3971 -0.1 0.22197999999999998
v 2.4878 -0.1 0.24962
v 2.5073 -0.1 0.25014
v 2.5099 -0.1 0.25194
v 2.7060000000000004 -0.1 0.26068
v 2.7614 -0.1 0.27972
v 2.8684 -0.1 0.27842
v 3.0130000000000003 -0.1 0.29664
v 3.0276 -0.1 0.29684
v 3.0883 -0.1 0.29975999999999997
v 3.2533999999999996 -0.1 0.30194
v 3.2645 -0.1 0.30474
v 3.3377999999999997 -0.1 0.29975999999999997
v 3.4506 -0.1 0.28672000000000003
v 3.5160000000000005 -0.1 0.2775
v 3.66 -0.1 0.27832
v 3.7675 -0.1 0.2617
v 3.7975 -0.1 0.24962
v 3.8269 -0.1 0.23778000000000002
v 3.922 -0.1 0.1995
v 3.9613 -0.1 0.16088
v 3.9743 -0.1 0.149376
v 4.0191 -0.1 0.106158
v 4.0252 -0.1 0.09986199999999999
v 4.0255 -0.1 0.09925
v 4.0258 -0.1 0.09871200000000001
v 4.0235 -0.1 0.05915
v 4.0212 -0.1 0.039184
v 4.0212 -0.1 0.0391
v 4.021100000000001 -0.1 0.039020000000000006
v 4.0562000000000005 -0.1 0.01905
v 4.0628 -0.1 0.0174818
v 4.052300000000001 -0.1 0.0010049999999999998
v 0.0 -0.1 0.0
f 1 55 56
f 1 56 2
f 2 56 57
f 2 57 3
f 3 57 58
f 3 58 4
f 4 58 59
f 4 59 5
f 5 59 60
f 5 60 6
f 6 60 61
f 6 61 7
f 7 61 62
f 7 62 8
f 8 62 63
f 8 63 9
f 9 63 64
f 9 64 10
f 10 64 65
f 10 65 11
f 11 65 66
f 11 66 12
f 12 66 67
f 12 67 13
f 13 67 68
f 13 68 14
f 14 68 69
f 14 69 15
f 15 69 70
f 15 70 16
f 16 70 71
f 16 71 17
f 17 71 72
f 17 72 18
f 18 72 73
f 18 73 19
f 19 73 74
f 19 74 20
f 20 74 75
f 20 75 21
f 21 75 76
f 21 76 22
f 22 76 77
f 22 77 23
f 23 77 78
f 23 78 24
f 24 78 79
f 24 79 25
f 25 79 80
f 25 80 26
f 26 80 81
f 26 81 27
f 27 81 82
f 27 82 28
f 28 82 83
f 28 83 29
f 29 83 84
f 29 84 30
f 30 84 85
f 30 85 31
f 31 85 86
f 31 86 32
f 32 86 87
f 32 87 33
f 33 87 88
f 33 88 34
f 34 88 89
f 34 89 35
f 35 89 90
f 35 90 36
f 36 90 91
f 36 91 37
f 37 91 92
f 37 92 38
f 38 92 93
f 38 93 39
f 39 93 94
f 39 94 40
f 40 94 95
f 40 95 41
f 41 95 96
f 41 96 42
f 42 96 97
f 42 97 43
f 43 97 98
f 43 98 44
f 44 98 99
f 44 99 45
f 45 99 100
f 45 100 46
f 46 100 101
f 46 101 47
f 47 101 102
f 47 102 48
f 48 102 103
f 48 103 49
f 49 103 104
f 49 104 50
f 50 104 105
f 50 105 51
f 51 105 106
f 51 106 52
f 52 106 107
f 52 107 53
f 53 107 108
f 53 108 54
f 1 2 3
f 1 3 4
f 1 4 5
f 1 5 6
f 1 6 7
f 1 7 8
f 1 8 9
f 1 9 10
f 1 10 11
f 1 11 12
f 1 12 13
f 1 13 14
f 1 14 15
f 1 15 16
f 1 16 17
f 1 17 18
f 1 18 19
f 1 19 20
f 1 20 21
f 1 21 22
f 1 22 23
f 1 23 24
f 1 24 25
f 1 25 26
f 1 26 27
f 1 27 28
f 1 28 29
f 1 29 30
f 1 30 31
f 1 31 32
f 1 32 33
f 1 33 34
f 1 34 35
f 1 35 36
f 1 36 37
f 1 37 38
f 1 38 39
f 1 39 40
f 1 40 41
f 1 41 42
f 1 42 43
f 1 43 44
f 1 44 45
f 1 45 46
f 1 46 47
f 1 47 48
f 1 48 49
f 1 49 50
f 1 50 51
f 1 51 52
f 1 52 53
f 1 53 54
f 55 57 56
f 55 58 57
f 55 59 58
f 55 60 59
f 55 61 60
f 55 62 61
f 55 63 62
f 55 64 63
f 55 65 64
f 55 66 65
f 55 67 66
f 55 68 67
f 55 69 68
f 55 70 69
f 55 71 70
f 55 72 71
f 55 73 72
f 55 74 73
f 55 75 74
f 55 76 75
f 55 77 76
f 55 78 77
f 55 79 78
f 55 80 79
f 55 81 80
f 55 82 81
f 55 83 82
f 55 84 83
f 55 85 84
f 55 86 85
f 55 87 86
f 55 88 87
f 55 89 88
f 55 90 89
f 55 91 90
f 55 92 91
f 55 93 92
f 55 94 93
f 55 95 94
f 55 96 95
f 55 97 96
f 55 98 97
f 55 99 98
f 55 100 99
f 55 101 100
f 55 102 101
f 55 103 102
f 55 104 103
f 55 105 104
f 55 106 105
f 55 107 106
f 55 108 107
f 1 55 56
f 1 56 2
f 54 107 108
f 54 53 107
