v 0.0 0.0 0.0
v 0.9565000000000001 0.0 0.002
v 0.9523 0.0 0.010060000000000001
v 0.9390999999999999 0.0 0.01812
v 0.9368000000000001 0.0 0.0192
v 0.9142 0.0 0.026180000000000002
v 0.0 0.0 0.0
v 0.0 -0.1 0.0
v 0.9565000000000001 -0.1 0.002
v 0.9523 -0.1 0.010060000000000001
v 0.9390999999999999 -0.1 0.01812
v 0.9368000000000001 -0.1 0.0192
v 0.9142 -0.1 0.026180000000000002
v 0.0 -0.1 0.0
f 1 8 9
f 1 9 2
f 2 9 10
f 2 10 3
f 3 10 11
f 3 11 4
f 4 11 12
f 4 12 5
f 5 12 13
f 5 13 6
f 6 13 14
f 6 14 7
f 1 2 3
f 1 3 4
f 1 4 5
f 1 5 6
f 1 6 7
f 8 10 9
f 8 11 10
f 8 12 11
f 8 13 12
f 8 14 13
f 1 8 9
f 1 9 2
f 7 13 14
f 7 6 13
